<svg xmlns="http://www.w3.org/2000/svg">
<defs>
<font id="UTMDaxlineMedium" horiz-adv-x="1298" >
  <font-face 
    font-family="UTM Daxline Medium"
    font-weight="400"
    font-stretch="normal"
    units-per-em="2048"
    panose-1="2 4 6 3 5 5 6 2 2 4"
    ascent="1608"
    descent="-440"
    x-height="1104"
    cap-height="1483"
    bbox="-122 -463 4942 2254.3"
    underline-thickness="109"
    underline-position="-143"
    unicode-range="U+0020-U+2212"
  />
<missing-glyph horiz-adv-x="5040" 
d="M3351 2045h10c24.667 -6.66699 37 -24 37 -52c0 -8 -10.667 -27 -32 -57h-28c0 16 9.33301 34 28 54l2 10c-3.33301 8.66699 -6.66602 13.667 -10 15h-9c-5.33301 0 -8.66602 -6.33301 -10 -19h-30c4 32.667 18 49 42 49zM2019 2016l29.001 -31
c0 -10.667 -13.333 -20.667 -40 -30h-19l-59 12l-11 -12l-28 25c7.33301 19.333 21.666 29 42.999 29h11l42 -11h2c6.66699 0 16.667 6 30 18zM468.001 1980h142v-60h-94v-75h89v-59h-89v-129l-5 -5h-49v323zM1155 1980h43l6 -5v-78h30v-52h-30v-188l-6 -5h-49v193h-25v52
h25v78zM1621 1980h41.999l4 -5v-94h3c15.333 16 33.333 24 54 24h2c38.667 0 66.334 -23.667 83.001 -71l2 -39v-143h-52v115c0 53.333 -14 80 -42 80h-7c-28.667 0 -43 -28.667 -43 -86v-109h-51v323zM2200 1980l49 -0.000976562l5 -5v-222c6.66699 -34 21.667 -51 45 -51
c29.333 4.66699 44 24.334 44 59.001v214l5 5h49v-216c0 -56.667 -22 -94 -66 -112c-10 -5.33301 -21.667 -8 -35 -8c-31.333 0 -58.666 18.333 -82 55c-9.33301 16 -14 35 -14 57v224zM2435 1980h159v-60h-56v-268h-53v268h-55v55zM2621 1980l71 0.000976562
c4.66699 -2.66699 32.334 -86.334 83 -251.001h2l80 251h73v-328h-54v242h-2l-74 -242h-44c-2.66699 0 -22 60.667 -58 182l-19 60h-3v-242h-55v328zM3760 1980l52 -0.000976562v-328h-45l-5 5v11l3 2l-3 14c-19.333 -26.667 -45.333 -40 -78 -40
c-44.667 0 -78 30.333 -100 91l-5 39v3c0 62.667 30.667 104.334 92 125.001l23 3c23.333 0 44.333 -10.667 63 -32h3v107zM2057 1928l36 0.00195312l4 -6v-49h-45v-221h-48v23c-15.333 -20.667 -35 -31 -59 -31c-59.333 9.33301 -89 41.666 -89 96.999v156h51v-104

<glyph glyph-name=".notdef" horiz-adv-x="5040" 
d="M3351 2045h10c24.667 -6.66699 37 -24 37 -52c0 -8 -10.667 -27 -32 -57h-28c0 16 9.33301 34 28 54l2 10c-3.33301 8.66699 -6.66602 13.667 -10 15h-9c-5.33301 0 -8.66602 -6.33301 -10 -19h-30c4 32.667 18 49 42 49zM2019 2016l29.001 -31
c0 -10.667 -13.333 -20.667 -40 -30h-19l-59 12l-11 -12l-28 25c7.33301 19.333 21.666 29 42.999 29h11l42 -11h2c6.66699 0 16.667 6 30 18zM468.001 1980h142v-60h-94v-75h89v-59h-89v-129l-5 -5h-49v323zM1155 1980h43l6 -5v-78h30v-52h-30v-188l-6 -5h-49v193h-25v52
h25v78zM1621 1980h41.999l4 -5v-94h3c15.333 16 33.333 24 54 24h2c38.667 0 66.334 -23.667 83.001 -71l2 -39v-143h-52v115c0 53.333 -14 80 -42 80h-7c-28.667 0 -43 -28.667 -43 -86v-109h-51v323zM2200 1980l49 -0.000976562l5 -5v-222c6.66699 -34 21.667 -51 45 -51
c29.333 4.66699 44 24.334 44 59.001v214l5 5h49v-216c0 -56.667 -22 -94 -66 -112c-10 -5.33301 -21.667 -8 -35 -8c-31.333 0 -58.666 18.333 -82 55c-9.33301 16 -14 35 -14 57v224zM2435 1980h159v-60h-56v-268h-53v268h-55v55zM2621 1980l71 0.000976562
c4.66699 -2.66699 32.334 -86.334 83 -251.001h2l80 251h73v-328h-54v242h-2l-74 -242h-44c-2.66699 0 -22 60.667 -58 182l-19 60h-3v-242h-55v328zM3760 1980l52 -0.000976562v-328h-45l-5 5v11l3 2l-3 14c-19.333 -26.667 -45.333 -40 -78 -40
c-44.667 0 -78 30.333 -100 91l-5 39v3c0 62.667 30.667 104.334 92 125.001l23 3c23.333 0 44.333 -10.667 63 -32h3v107zM2057 1928l36 0.00195312l4 -6v-49h-45v-221h-48v23c-15.333 -20.667 -35 -31 -59 -31c-59.333 9.33301 -89 41.666 -89 96.999v156h51v-104
c0 -52.667 8.66699 -81.334 26 -86.001l18 -5h6c17.333 0 30.333 12 39 36l3 26v133h53v25zM3476 1928v-55h-31v-221h-47v25h-2c-10 -22 -29 -33 -57 -33c-45.333 0 -74 26 -86 78l-3 29v146h52v-120c0 -33.333 6.33301 -56 19 -68l21 -7h9c28 0 42 23 42 69v126h27
c2.66699 0 4 9.33301 4 28l3 3h49zM758 1905c45.333 0 79.667 -25.667 103 -77c6 -12 10 -30 12 -54c0 -58.667 -30 -101 -90 -127l-32 -3c-42 0 -75.667 24.333 -101 73c-8 14.667 -12 32 -12 52v10c0 62.667 33.667 104.667 101 126h19zM1011 1905h3
c49.333 0 77 -33.667 83 -101v-152h-51v119c0 50.667 -14 76 -42 76h-5c-29.333 0 -44 -25.333 -44 -76v-119h-52v245h46v-21c20 19.333 40.667 29 62 29zM1466 1905l7 -0.000976562c48 0 83 -29.667 105 -89h-60c-10.667 20.667 -24.667 31 -42 31h-17
c-35.333 -9.33301 -53 -29.666 -53 -60.999l-3 -15c8 -46 28.333 -69 61 -69h9c14.667 0 30.334 9 47.001 27h40l2 3h3l2 -3l2 3l3 -3l2 3l2 -7c-22 -54 -58.667 -81 -110 -81c-50.667 0 -87.334 31.333 -110.001 94l-4 36v3c0 56.667 25.667 96.667 77 120
c10 5.33301 22.333 8 37 8zM3141 1905h1.99902c32.667 0 56 -20 70 -60v-14h-52c0 10.667 -5.33301 16 -16 16h-4c-9.33301 0 -15.666 -4.33301 -18.999 -13v-13c0 -6 22.667 -17.667 68 -35c20 -12.667 30 -32.334 30 -59.001c0 -38.667 -20.333 -65.334 -61 -80.001
l-23 -3c-50.667 8 -76 35.667 -76 83h54c0 -13.333 9 -21.666 27 -24.999h4c12.667 0 20.667 7.66699 24 23c0 14.667 -22.667 29.334 -68 44.001c-22.667 18 -34 37.667 -34 59c0 44 24.667 69.667 74 77zM4203 1905c36.666 0 62.333 -21 77 -63
c4.66602 -12 7 -33.667 7 -65v-125h-52v112c0 55.333 -13.334 83 -40 83h-11c-22 0 -35.334 -18 -40 -54v-141h-52v5h-2l2 2v238h47v-21c16.666 19.333 38 29 64 29zM4432 1905h5c26.666 0 49.666 -13.333 69 -40v18l-3 3l3 11h47v-208c0 -64.667 -28.334 -108.667 -85 -132
l-33 -4h-7c-46.666 0 -81.333 26.667 -104 80h59c16 -14.667 31 -22.334 45 -23.001h13c14.666 0 29 7.33301 43 22c10 8.66699 17.334 26 22 52h-3c-21.334 -26.667 -45.667 -40 -73 -40c-38 0 -70 23.333 -96 70c-6.66602 12 -11.333 33 -14 63
c0 58.667 29 100.334 87 125.001zM3851 1897l53 -0.000976562v-136c4 -39.333 17.333 -59 40 -59h7c30.667 0 46 31 46 93v102h51v-245h-47l-3 10h3l-3 3v5l3 2v3h-4c0 -15.333 -19 -25.666 -57 -30.999h-3c-39.333 0 -67.333 25 -84 75l-2 85v93zM690 1771
c6.66699 -46 27.6689 -69 63.002 -69h7c39.333 9.33301 59 31 59 65v15c-8.66699 43.333 -28.334 65 -59.001 65h-5c-38.667 0 -60.334 -25.333 -65.001 -76zM3630 1774c8.66699 -48 29 -72 61 -72h5c38.667 0 60.667 25 66 75c0 32.667 -17 56 -51 70h-22
c-24.667 0 -43.334 -19 -56 -57zM4374 1774c5.33398 -48 27 -71.999 65 -71.999h5c39.334 8 59 32 59 72c0 40.667 -19.666 65 -59 73h-14c-37.334 -10.667 -56 -31.334 -56 -62.001v-11zM3928 1620h52v-57h-52v57zM1054 1402c28.667 -7.33301 43 -23.667 43 -49v-4
c0 -11.333 -10.667 -31.333 -32 -60h-28c0 16.667 10.333 35.667 31 57v7c0 8 -2.33301 13 -7 15h-12c-6.66699 -2.66699 -10 -9 -10 -19h-28v6c0 21.333 11 36 33 44zM3349 1339c61.333 0 107.333 -33.001 138 -99.001h-60c-24.667 28 -51.334 42 -80 42
c-36.667 0 -65.667 -22.667 -87 -68c-6.66699 -14.667 -10 -30.334 -10 -47.001c0 -52 27 -88.667 81 -110l18 -1c24 0 49 13 75 39h61c-29.333 -64.667 -75.333 -97 -138 -97c-62 0 -109 37.333 -141 112c-6.66699 20.667 -10 41.334 -10 62.001
c0 64.667 30 115.334 90 152.001c19.333 10 40.333 15 63 15zM3664 1339c38 0 72.333 -15.666 103 -46.999c30.667 -34 46 -72.333 46 -115v-20c0 -59.333 -30.333 -108 -91 -146c-22 -8.66699 -43 -13 -63 -13c-59.333 0 -105.333 33.667 -138 101
c-8.66699 22 -13 42 -13 60v18c0 65.333 32.667 115.666 98 150.999c19.333 7.33301 38.666 11 58 11zM2261 1337h2l47 -11h3c7.33301 0 16 3.66699 26 11l18 -36c-12 -12.667 -23.667 -19 -35 -19h-3l-54 10l-20 -7l-20 36c12 10.667 24 16 36 16zM716.002 1334h19
c78.667 0 121.667 -8.66699 129 -26c16.667 -17.333 25 -38 25 -62c-6.66699 -38 -16.667 -57 -30 -57v-6c31.333 -15.333 47 -37.333 47 -66v-18c0 -42 -23 -71.333 -69 -88l-54 -5h-67v328zM2550 1334h53v-217c4 -40.667 19 -61 45 -61c19.333 0 34 13 44 39l3 30v203l4 6
h45l5 -6v-171c0 -78.667 -13.333 -123 -40 -133c-16 -17.333 -37.333 -26 -64 -26c-36.667 0 -67 25.333 -91 76l-4 54v206zM2805 1334h59c2.66699 0 43.334 -79 122 -237h4v237h50l4 -6v-322h-58c-19.333 32 -61 111.333 -125 238h-3v-238h-53v328zM3101 1334h54v-328h-54
v328zM3859 1334l8 0.000976562c103.333 0 161.333 -13.333 174 -40c15.333 -7.33301 31 -32.333 47 -75l4 -36v-11l3 -2c0 -62.667 -27.333 -112.334 -82 -149.001c-23.333 -10 -56.333 -15 -99 -15h-55v328zM4141 1334h153v-60h-103v-75h101v-57h-101v-74l4 -5h99v-57h-157
v322zM3563 1175v-10c0 -50.667 26.333 -86.667 79 -108l19 -1c45.333 0 77.333 28.667 96 86l3 20v15c0 40.667 -20 72 -60 94c-8 5.33301 -21 9 -39 11c-44 0 -76 -27.667 -96 -83zM770.002 1274v-67h9c36 0 54 9.33301 54 28l3 14c-7.33301 16.667 -17 25 -29 25h-37z
M3912 1274v-206.001l2 -3v-2c69.333 0 110 25.333 122 76l2 15v29c0 22.667 -10.667 45.334 -32 68.001c-16.667 15.333 -42.667 23 -78 23h-16zM1041 1259h5c25.333 0 49 -13.333 71 -40v32h49v-245h-49v32c-24 -26.667 -50.667 -40 -80 -40c-50 0 -83.667 32.333 -101 97
l-5 36c0 59.333 28.333 101 85 125zM1314 1259h3c49.333 0 77 -34 83 -102v-151h-51v128c0 44.667 -14 67 -42 67h-10c-22.667 0 -35.667 -20.667 -39 -62v-133h-52v245h47v-21c18.667 19.333 39 29 61 29zM1543 1259h5c30 0 53.667 -13.333 71 -40v32h47v-219
c0 -63.333 -34.667 -105.333 -104 -126h-16c-49.333 0 -85.333 27.333 -108 82h59c17.333 -16.667 32 -25 44 -25h14c34.667 0 56 25.667 64 77c-22 -28 -47.333 -42 -76 -42c-40 0 -73.667 27 -101 81l-7 44v16c0 52.667 28.333 91.667 85 117zM1912 1259l2 0.000976562
c28.667 0 49 -12.333 61 -37h2c21.333 24.667 44.333 37 69 37h4c38 0 64.333 -18.333 79 -55c5.33301 -16.667 8 -31.667 8 -45v-153h-52v138c0 29.333 -7.66699 47.666 -23 54.999l-12 2h-15c-21.333 0 -33.333 -21.667 -36 -65v-130h-52v136c0 39.333 -14.333 59 -43 59
h-8c-21.333 0 -33.333 -19 -36 -57v-138h-54v245h50v-21h2c4 16 22 25.667 54 29zM2282 1259c31.333 0 56.333 -14 75 -42v34h47v-245h-47v32c-24 -26.667 -50 -40 -78 -40c-49.333 0 -83.333 30.667 -102 92l-6 41c0 60 28.333 101.667 85 125zM985.002 1117
c0 -32 20.333 -52.333 61 -61h4c30 0 50.667 15.333 62 46l3 15v22c-8 41.333 -27 62 -57 62h-14c-27.333 0 -47 -19 -59 -57v-27zM1487 1128c0 -32 14.332 -54.667 42.999 -68l18 -4h5c31.333 0 52.333 19 63 57v23c-7.33301 43.333 -26.666 65 -57.999 65h-12
c-33.333 0 -53 -24.333 -59 -73zM2225 1131v-14.001c10 -40.667 29 -61 57 -61h14c38.667 8 58 29.333 58 64v11c0 30 -12.333 51.667 -37 65l-18 5h-10c-42.667 -5.33301 -64 -28.666 -64 -69.999zM770.001 1150v-82c0 -3.33301 2.33301 -5 7 -5c51.333 0 77 15 77 45
c0 22.667 -15.667 36.667 -47 42h-37zM2966 752.999l24 -28l-51 -55c-12 8 -21 16.667 -27 26zM1524 726.999l85 -54c0 -10 -7 -24 -21 -42l-87 54c12 27.333 19.667 41.333 23 42zM2850 692.999h38l55 -60h-54l-21 26l-23 -26h-54c36 40 55.667 60 59 60zM3422 692.999h40
l56 -60h-54l-24 26h-1c0 -3.33301 -6.33301 -12 -19 -26h-54zM622.001 684.999l52 0.00195312c5.33301 -2.66699 21 -48.334 47 -137.001l34 -110c6 5.33301 17.333 38.666 34 99.999l48 147h54v-2l-112 -326h-44zM1159 685.001h51v-54h-51v54zM1354 685.001h46l6 -5v-323
h-52v328zM2317 685.001h45l4 -5v-78h31v-52h-31v-193h-53v193h-26v52h26v78zM2425 685.001h52v-98h2c15.333 15.333 33.333 23 54 23h3c38 0 65 -23.667 81 -71l3 -38v-144h-52v115c0 54 -13 81 -39 81h-10c-28 0 -42 -29 -42 -87v-109h-52v328zM2664 685.001h52v-54h-52v54
zM3028 685.001h44l6 -5v-78h29v-52h-29v-193h-54v193h-27v52h27v78zM3234 685.001h52v-328h-52v328zM3957 685.001h52v-328h-52v328zM4316 685.001h51v-54h-51v54zM1555 610.001h5c55.333 0 92 -34 110 -102l3 -23v-11c0 -55.333 -28.333 -95.333 -85 -120l-35 -5
c-50.667 0 -87.667 32.333 -111 97l-4 32c0 64.667 31 108 93 130zM1811 610.001h4c35.333 0 61.333 -20 78 -60c4.66699 -16.667 7 -43.667 7 -81v-112h-54v146c-4.66699 33.333 -17 50 -37 50h-10c-25.333 0 -39.333 -19 -42 -57v-139h-54v245h49v-21
c17.333 19.333 37 29 59 29zM2046 610.001h4.00098c30 0 51 -13 63 -39h3v31h49v-206c0 -68 -29.667 -113 -89 -135l-28 -3h-5c-48.667 0 -84 27 -106 81h52l37 -20l15 -3h14c33.333 0 53.666 24 60.999 72c-22 -26 -46.333 -39 -73 -39c-41.333 0 -74 25.333 -98 76
c-7.33301 15.333 -11.333 35.333 -12 60c0 56.667 28.667 97.667 86 123zM2866 610.001l2 -0.000976562c54.667 0 91.667 -34.667 111 -104l2 -25l-2 -27h-172c10 -30 25 -45 45 -45l14 -3c19.333 0 35.666 7.33301 49 22h57v-3c-23.333 -50.667 -59.333 -76 -108 -76
c-51.333 0 -88.333 32.333 -111 97l-1 28v8c0 32.667 10.667 62.334 32 89.001c22.667 26 50 39 82 39zM3429 610h5c27.333 0 50.666 -13 70 -39h2v31h47v-245h-47v31h-2c-23.333 -26 -49 -39 -77 -39c-47.333 0 -81 29.667 -101 89l-5 36v14c0 57.333 28 97.333 84 120z
M3711 610l7 -0.000976562c58.667 0 94.334 -42.667 107 -128l-2 -1v-15c0 -43.333 -22 -78.666 -66 -105.999c-14 -7.33301 -29.333 -11 -46 -11c-22.667 0 -44 10.667 -64 32v-99l-5 -5h-49v325h49v-28c20.667 24 43.667 36 69 36zM4151 609.999
c29.334 0 54.334 -13 75 -39v31h49v-245h-49v31c-23.334 -26 -49 -39 -77 -39c-61.333 0 -97.333 44 -108 132c0 56 24.333 96.333 73 121c10 5.33301 22.334 8 37 8zM922.002 601.999h50v-136c2 -40 16 -60 42 -60h5c29.333 0 44 29 44 87v109h52v-245h-47v24h-5
c0 -15.333 -18.667 -26 -56 -32h-3c-36.667 0 -64 22.667 -82 68c-2.66699 23.333 -4 56.333 -4 99v81zM1159 601.999h51v-245h-51v245zM2664 601.999h52v-245h-52v245zM4316 601.999h51v-245h-51v245zM1492 487.999v-15.999c8.66699 -44 28.334 -66 59.001 -66h4
c39.333 0 61.333 25.333 66 76c-8.66699 47.333 -28.334 71 -59.001 71h-11c-39.333 -10.667 -59 -32.334 -59 -65.001zM1987 472c10 -44 29.667 -66 59 -66h11c32 0 51.667 25 59 75v1c-8.66699 47.333 -28.334 71 -59 71h-14c-26 0 -44.667 -19 -56 -57v-24zM2805 506h122
v2c-10.667 30 -30.334 45 -59 45h-7c-23.333 0 -42 -15.667 -56 -47zM3373 474c8.66699 -45.333 29 -68 61 -68h5c34.667 0 56.334 21 65 63v12c-6.66699 48 -25.667 72 -57 72h-16c-37.333 -9.33301 -56 -30.333 -56 -63zM3642 478c8 -48 28.333 -72.001 61 -72.001h3
c33.333 0 55 20 65 60v22c0 28.667 -16.333 50.334 -49 65.001h-22c-31.333 0 -50.666 -24 -58 -72v-3zM4095 471.999c6.66602 -44 28.666 -66 66 -66c28.666 0 49 16 61 48l2 15v16c0 36 -17.334 58.667 -52 68h-18c-28 0 -47.666 -20 -59 -60v-21zM3416 320.999h51v-52
h-51v52zM4137 320.999h51v-52h-51v52zM2733 132.999h4c23.333 0 37.666 -16.667 43 -50v-2c0 -10.667 -8 -24.334 -24 -41.001l-10 -17h-28c0 16.667 9.33301 35.334 28 56.001l3 2v2c-2 12.667 -5 19 -9 19h-10c-5.33301 0 -8.33301 -6.33301 -9 -19h-30
c4 33.333 18 50 42 50zM1546 115.999l52 -60l-26 -19l-52 52zM352.002 78.999h4c50 -32 78.333 -52 85 -60l-20 -37c-58.667 32.667 -88 52 -88 58zM3490 78.999l86 -58l-18 -39c-6.66699 0 -37 18.333 -91 55c10 24 17.667 38 23 42zM4578 75.999l19 -42l-91 -52l-20 39
l92 58v-3zM1204 52.999h51v-19l5 -5h14v-36h-14l-5 -5v-279h-46v31c-22.667 -26.667 -49.667 -40 -81 -40c-48 0 -82 35 -102 105l-3 26c0 68 33.667 111.667 101 131h14c22 0 44 -11 66 -33v59l-6 5h-43v36h49v24zM1480 44.999h40l56 -61h-53l-23 27l-23 -27h-53z
M2641 44.999h33c8 0 29 -20.333 63 -61h-54l-23 27c-12.667 -14 -19 -23 -19 -27h-58v4zM49.002 36.999h160v-60h-56v-268h-50l-4 5v245l2 3v2l-2 2l2 3l-2 2l2 3l-2 3h-54v54zM699.002 36.999h47v-73l2 -2l-2 -3v-3l2 -2l-2 -3v-3l2 -2v-2l-2 -3l2 -3h3
c11.333 16 28.333 24 51 24h3c35.333 0 61 -19.333 77 -58c4.66699 -11.333 7 -25.333 7 -42v-153h-52v127c0 45.333 -13.333 68 -40 68h-8c-28.667 0 -43 -28.667 -43 -86v-109h-52v322zM1297 36.999h47l5 -6v-49h-52v55zM1987 36.999h52v-198l70 115h62l-78 -118l90 -125
v-2h-70c-6.66699 14.667 -31.334 53 -74 115v-115h-52v328zM2271 36.999v-98.999c16 16 33.667 24 53 24c38 0 64.667 -18.667 80 -56c6.66699 -12.667 10 -38.334 10 -77.001v-120h-54v133c0 41.333 -13.667 62 -41 62h-11c-20.667 0 -33 -18.333 -37 -55v-140h-53v314
l-1 3v3l1 2l-1 3l1 3h53zM2458 37h51v-55h-51v55zM3148 37h51v-108c18 22 40.667 33 68 33h3c50 0 85 -31.333 105 -94l5 -37c0 -50 -21.333 -90 -64 -120c-20 -7.33301 -36.333 -11 -49 -11c-27.333 0 -51.333 13.333 -72 40v-31h-47v328zM4275 37h52v-99h2
c15.334 16 33.334 24 54 24h3c40 0 67.334 -24.667 82 -74l2 -41v-138h-52v111c0 54.667 -10.666 82 -32 82l-10 2h-12c-24.666 0 -37 -26.667 -37 -80v-115h-52v328zM329.002 -38h3v-58h-5c-28 0 -42 -19 -42 -57v-138h-53v245h47v-21c12 19.333 28.667 29 50 29z
M564.002 -38c47.333 0 75.999 -29 85.999 -87v-166h-51v136c-4 39.333 -17.667 59 -41 59h-6c-30 0 -45 -28 -45 -84v-111h-52v245h50v-21c16.667 19.333 36.334 29 59.001 29zM1504 -38c48 0 83 -31.333 105 -94l5 -39c-1.33301 -16 -3.66602 -24 -6.99902 -24h-169
c11.333 -31.333 32 -47 62 -47c16 0 32 7 48 21h57c-22 -52.667 -58 -79 -108 -79c-54.667 0 -92.334 35 -113.001 105v37c0 54 29.667 93 89 117zM2657 -38h5c51.333 0 87 -32.333 107 -97l3 -26v-21l-3 -13h-170c12 -31.333 29.667 -47 53 -47h12c14 0 28 7 42 21h59
c-22.667 -52.667 -57.667 -79 -105 -79c-56 0 -94.333 34 -115 102l-2 29c0 62 30.333 104.667 91 128zM2915 -38h3.99902c36 0 62 -20 78 -60c4.66699 -16.667 7 -44 7 -82v-111h-54v138c0 32 -11.667 51 -35 57h-11c-25.333 0 -39.666 -19 -42.999 -57v-138h-54v245h50
v-21c16.667 19.333 36 29 58 29zM3508 -38h6c26.667 0 50 -13.333 70 -40h2v32h47v-245h-47v31h-2c-22.667 -26.667 -48.667 -40 -78 -40c-47.333 0 -81 30 -101 90l-4 37v12c0 54.667 25.667 93.667 77 117c7.33301 4 17.333 6 30 6zM3781 -38h4
c41.333 0 68.666 -26 82 -78l3 -84v-91h-54v138c0 32 -12.667 51 -38 57h-9c-25.333 0 -39.333 -17.333 -42 -52v-143h-54v245h49v-21c17.333 19.333 37 29 59 29zM4133 -38h1c49.334 0 84 -31 104 -93l4 -40c0 -58.667 -28 -100.667 -84 -126l-25 -3
c-27.333 0 -50 11.333 -68 34v-106h-52v326h47v-29c20 24.667 44.334 37 73 37zM4714 -38h5c22.666 0 43.666 -12.333 63 -37c18 24.667 41 37 69 37h6c37.334 0 63.667 -22 79 -66l6 -51v-136h-52v122c0 48.667 -13 73 -39 73h-7c-23.334 0 -37 -16.667 -41 -50v-140l-5 -5
h-48v140c0 28 -10.334 46.333 -31 55h-17c-26.666 0 -40 -25.667 -40 -77v-118h-51v245h47v-21c14.666 19.333 33.333 29 56 29zM359 -46h49l5 -6v-234l-5 -5h-49v245zM1297 -46h52v-245h-52v245zM1649 -46h52v-136c2.66699 -40 17 -60 43 -60h4c29.333 0 44 27 44 81v115
h52v-245h-47v24h-5c-8 -22 -27.667 -33 -59 -33c-34.667 0 -61 21 -79 63c-3.33301 8 -5 19.333 -5 34v157zM2458 -46h51v-245h-51v245zM4515 -46h51v-245h-51v245zM1077 -169c0 -35.333 16.999 -59.666 50.999 -72.999h12c36 0 58 22 66 66v10
c0 35.333 -18 58.666 -54 69.999h-17c-25.333 0 -44.666 -19 -57.999 -57v-16zM1438 -143h122.001c-12 31.333 -29.667 47 -53 47h-7c-28.667 0 -49.334 -14.667 -62.001 -44v-3zM2599 -143h122c-14 31.333 -32 47 -54 47h-7c-30.667 0 -51 -15.667 -61 -47zM3196 -158v-11
c6.66699 -48.667 27 -73 61 -73h5c42.667 5.33301 64 29 64 71v5c0 30 -12.667 51.667 -38 65l-18 5h-14c-40 -9.33301 -60 -30 -60 -62zM3452 -173c9.33301 -46 30 -69 62 -69h11c27.333 0 47 20 59 60v13c-5.33301 48.667 -24 73 -56 73h-17
c-31.333 0 -51 -24.333 -59 -73v-4zM4062 -158v-22c0 -31.333 19.667 -52 59 -62h9c33.334 0 53.667 25.333 61 76c-8.66602 46.667 -28 70 -58 70h-15c-37.333 -11.333 -56 -32 -56 -62z" />
    <glyph glyph-name="space" unicode=" " horiz-adv-x="394" 
 />
    <glyph glyph-name="exclam" unicode="!" horiz-adv-x="559" 
d="M373 498h-189l-31 985h252zM418 131c0 -39.333 -13.333 -73.666 -40 -102.999s-60 -44 -100 -44c-38 0 -71 14.667 -99 44s-42 63.666 -42 102.999s14 73.333 42 102s61 43 99 43c40 0 73.333 -14.333 100 -43s40 -62.667 40 -102z" />
    <glyph glyph-name="quotedbl" unicode="&#x22;" horiz-adv-x="899" 
d="M719 827h-127.002l-39 619c10.667 19.333 25.167 33 43.5 41s38.5 12 60.5 12c20.667 0 39.834 -4 57.501 -12s32.834 -21.667 45.501 -41zM304.998 827h-127.002l-39 619c12 19.333 27 33 45 41s37 12 57 12c20.667 0 39.834 -4 57.501 -12s32.834 -21.667 45.501 -41z
" />
    <glyph glyph-name="numbersign" unicode="#" horiz-adv-x="1492" 
d="M1103 930l-49 -361h231v-155h-254l-57 -414h-168l55 414h-334l-57 -414h-168l58 414h-236v155h256l49 361h-231v155h254l55 398h166l-53 -398h335l54 398h168l-54 -398h234v-155h-254zM599 930l-49 -361h334l49 361h-334z" />
    <glyph glyph-name="dollar" unicode="$" horiz-adv-x="1136" 
d="M1005 414c0 -118.667 -36.8369 -215.666 -110.504 -290.999s-173.5 -121 -299.5 -137l12 -312h-182l29 303c-57.333 3.33301 -117.166 12.166 -179.499 26.499s-113.833 31.5 -154.5 51.5l78 199c17.333 -9.33301 38 -18.166 62 -26.499s48.667 -15.833 74 -22.5
s51 -12.167 77 -16.5s50.667 -6.5 74 -6.5c90 0 161.167 18.167 213.5 54.5s78.5 90.5 78.5 162.5c0 33.333 -6.83301 62.5 -20.5 87.5s-31.667 47.167 -54 66.5s-48.5 36.833 -78.5 52.5s-60.667 30.167 -92 43.5c-45.333 20.667 -91.166 43.334 -137.499 68.001
s-88.666 54 -126.999 88s-69.833 74.167 -94.5 120.5s-37 101.166 -37 164.499c0 114.667 34.167 207.167 102.5 277.5s160.5 113.5 276.5 129.5l-12 297h178l-29 -289c60.667 -2.66699 117.167 -11.5 169.5 -26.5s96.5 -32.167 132.5 -51.5l-76 -184
c-28.667 15.333 -66.667 30.166 -114 44.499s-95.333 21.5 -144 21.5c-83.333 0 -147.5 -17.833 -192.5 -53.5s-67.5 -86.167 -67.5 -151.5c0 -32.667 7.5 -61.334 22.5 -86.001s34.333 -47.167 58 -67.5s51 -38.833 82 -55.5s62.167 -31.667 93.5 -45
c42 -19.333 86.167 -41.166 132.5 -65.499s88.333 -53.333 126 -87s68.834 -73.667 93.501 -120s37 -100.833 37 -163.5z" />
    <glyph glyph-name="percent" unicode="%" horiz-adv-x="1912" 
d="M1793 440c0 -68 -6.83301 -130.333 -20.5 -187s-34.167 -105.5 -61.5 -146.5s-61.5 -72.833 -102.5 -95.5s-88.5 -34 -142.5 -34c-53.333 0 -100.5 11.333 -141.5 34s-75.167 54.5 -102.5 95.5s-47.833 89.833 -61.5 146.5s-20.5 119 -20.5 187
c0 67.333 6.83301 129.333 20.5 186s34.167 105.5 61.5 146.5s61.5 73 102.5 96s88.167 34.5 141.5 34.5c54 0 101.5 -11.5 142.5 -34.5s75.167 -55 102.5 -96s47.833 -89.833 61.5 -146.5s20.5 -118.667 20.5 -186zM763 -23l-141 48l526 1480l141 -47zM771 1042
c0 -68 -6.83301 -130.333 -20.5 -187s-34.167 -105.5 -61.5 -146.5s-61 -72.667 -101 -95s-87.333 -33.5 -142 -33.5s-102.167 11.167 -142.5 33.5s-74.166 54 -101.499 95s-47.833 89.833 -61.5 146.5s-20.5 119 -20.5 187c0 67.333 6.83301 129.333 20.5 186
s34.167 105.5 61.5 146.5s61.166 73 101.499 96s87.833 34.5 142.5 34.5s102 -11.5 142 -34.5s73.667 -55 101 -96s47.833 -89.833 61.5 -146.5s20.5 -118.667 20.5 -186zM1623 442c0 98.667 -13.333 175.334 -40 230.001s-65.667 82 -117 82
c-52 0 -91.333 -27.333 -118 -82s-40 -131.334 -40 -230.001c0 -98 13.333 -174.333 40 -229s66 -82 118 -82c51.333 0 90.333 27.333 117 82s40 131 40 229zM603 1044c0 98.667 -13.333 175.334 -40 230.001s-65.667 82 -117 82c-52 0 -91.333 -27.333 -118 -82
s-40 -131.334 -40 -230.001c0 -98 13.333 -174.333 40 -229s66 -82 118 -82c51.333 0 90.333 27.333 117 82s40 131 40 229z" />
    <glyph glyph-name="ampersand" unicode="&#x26;" horiz-adv-x="1400" 
d="M1087 780v-725.001c-43.333 -20 -103 -38 -179 -54s-158.333 -24 -247 -24c-176 0 -313.833 34.167 -413.5 102.5s-149.5 172.833 -149.5 313.5c0 105.333 28.333 190.333 85 255s128.667 111.334 216 140.001v5c-84.667 25.333 -146.167 67.5 -184.5 126.5
s-57.5 125.167 -57.5 198.5c0 54.667 10 105.834 30 153.501s49.5 88.667 88.5 123s86.833 61.333 143.5 81s121 29.5 193 29.5c65.333 0 127 -7.5 185 -22.5s107.667 -33.5 149 -55.5l-70 -174c-31.333 18 -68.5 32.5 -111.5 43.5s-86.167 16.5 -129.5 16.5
c-82 0 -146.333 -17.833 -193 -53.5s-70 -88.834 -70 -159.501c0 -66 22.333 -118.333 67 -157s102.334 -58 173.001 -58c19.333 0 41.166 0.666992 65.499 2s52.5 5.33301 84.5 12l540 96l27 -172zM876 742.999l-252 -43c-203.333 -35.333 -305 -132 -305 -290
c0 -90.667 30.833 -156 92.5 -196s146.167 -60 253.5 -60c40 0 80.167 3.33301 120.5 10s70.5 14 90.5 22v557z" />
    <glyph glyph-name="quotesingle" unicode="'" horiz-adv-x="483" 
d="M305 827h-127.002l-39 619c12 19.333 27 33 45 41s37 12 57 12c20.667 0 39.834 -4 57.501 -12s32.834 -21.667 45.501 -41z" />
    <glyph glyph-name="parenleft" unicode="(" horiz-adv-x="757" 
d="M532 -446c-60 70.667 -115.333 145.674 -166 225.007s-94.5 162.666 -131.5 249.999s-65.667 179.166 -86 275.499s-30.5 197.5 -30.5 303.5c0 106.667 10.167 208.167 30.5 304.5s49 188.166 86 275.499s80.833 170.166 131.5 248.499s106 153.833 166 226.5l159 -96
c-47.333 -64.667 -91.833 -132.834 -133.5 -204.501s-77.834 -147.334 -108.501 -227.001s-55 -163.5 -73 -251.5s-27 -180 -27 -276c0 -96.667 9 -189 27 -277s42.333 -172 73 -252s66.834 -155.833 108.501 -227.5s86.167 -138.834 133.5 -201.501z" />
    <glyph glyph-name="parenright" unicode=")" horiz-adv-x="757" 
d="M638 608c0 -106 -10.167 -207.174 -30.5 -303.507s-49 -188.166 -86 -275.499s-80.667 -170.666 -131 -249.999s-106.166 -154.333 -167.499 -225l-158 96c48 62.667 92.833 129.834 134.5 201.501s77.834 147.5 108.501 227.5s54.834 164 72.501 252
s26.5 180.333 26.5 277c0 96 -8.83301 188 -26.5 276s-41.834 171.833 -72.501 251.5s-66.834 155.334 -108.501 227.001s-86.5 139.834 -134.5 204.501l158 96c61.333 -72.667 117.166 -148.167 167.499 -226.5s94 -161.166 131 -248.499s65.667 -179.166 86 -275.499
s30.5 -197.833 30.5 -304.5z" />
    <glyph glyph-name="asterisk" unicode="*" horiz-adv-x="1150" 
d="M1044 1247c0 -23.333 -5.66602 -43.667 -16.999 -61l-338 -86l221 -277c-1.33301 -31.333 -13.5 -58.833 -36.5 -82.5s-50.167 -35.5 -81.5 -35.5c-7.33301 0 -17.666 1.33301 -30.999 4l-176 301l-178 -301c-6 -1.33301 -11 -2.33301 -15 -3s-8.66699 -1 -14 -1
c-30 0 -57 11.833 -81 35.5s-37.333 51.167 -40 82.5l221 277l-336 86c-12 20.667 -18 41 -18 61c0 24.667 6.5 47.334 19.5 68.001s31.167 36.334 54.5 47.001l317 -133l-24 360c24 28.667 55.333 43 94 43c39.333 0 70.666 -14.333 93.999 -43l-23 -360l316 133
c23.333 -10.667 41.166 -26.334 53.499 -47.001s18.5 -43.334 18.5 -68.001z" />
    <glyph glyph-name="plus" unicode="+" horiz-adv-x="1095" 
d="M639 578v-351h-182v351h-328v176h328v350h182v-350h326v-176h-326z" />
    <glyph glyph-name="comma" unicode="," horiz-adv-x="516" 
d="M156 -346h-154l174 543c15.333 22.667 34.5 41.5 57.5 56.5s51.5 22.5 85.5 22.5c33.333 0 57.5 -7.83301 72.5 -23.5s23.833 -34.167 26.5 -55.5z" />
    <glyph glyph-name="hyphen" unicode="-" horiz-adv-x="798" 
d="M124 569v193h547v-193h-547z" />
    <glyph glyph-name="hyphen" unicode="&#x2010;" horiz-adv-x="798" 
d="M124 569v193h547v-193h-547z" />
    <glyph glyph-name="period" unicode="." horiz-adv-x="516" 
d="M399 131c0 -40.667 -13.667 -75.334 -41 -104.001s-61 -43 -101 -43c-39.333 0 -72.666 14.333 -99.999 43s-41 63.334 -41 104.001c0 41.333 13.667 76.333 41 105s60.666 43 99.999 43c40 0 73.667 -14.333 101 -43s41 -63.667 41 -105z" />
    <glyph glyph-name="slash" unicode="/" horiz-adv-x="927" 
d="M199 -408l-203 64l659 1984l203 -63z" />
    <glyph glyph-name="zero" unicode="0" horiz-adv-x="1159" 
d="M1056 553c0 -82 -9.83301 -157.833 -29.5 -227.5s-49.667 -130.334 -90 -182.001s-90.166 -92.334 -149.499 -122.001s-128.666 -44.5 -207.999 -44.5s-148.666 14.833 -207.999 44.5s-109.166 70.334 -149.499 122.001s-70.333 112.334 -90 182.001
s-29.5 145.5 -29.5 227.5s9.83301 157.833 29.5 227.5s49.667 130 90 181s90.166 91.167 149.499 120.5s128.666 44 207.999 44s148.666 -14.667 207.999 -44s109.166 -69.5 149.499 -120.5s70.333 -111.333 90 -181s29.5 -145.5 29.5 -227.5zM839 555
c0 118.667 -21.5 213.833 -64.5 285.5s-108.167 107.5 -195.5 107.5s-152.5 -35.5 -195.5 -106.5s-64.5 -166.5 -64.5 -286.5c0 -118.667 21.5 -214.167 64.5 -286.5s108.167 -108.5 195.5 -108.5s152.5 36.167 195.5 108.5s64.5 167.833 64.5 286.5z" />
    <glyph glyph-name="one" unicode="1" horiz-adv-x="829" 
d="M446 0l0.00195312 846.001c-18.667 -12.667 -42.334 -25.5 -71.001 -38.5s-59.5 -25.167 -92.5 -36.5s-66.5 -21.5 -100.5 -30.5s-66 -16.167 -96 -21.5l-33 174c42 8 85 19.167 129 33.5s85.667 31.166 125 50.499s75.166 39.833 107.499 61.5s57.833 43.5 76.5 65.5
h172v-1104h-217z" />
    <glyph glyph-name="two" unicode="2" horiz-adv-x="976" 
d="M47 0l477 557c27.333 32.667 52.666 66.5 75.999 101.5s35 70.167 35 105.5c0 52 -16.833 94 -50.5 126s-87.167 48 -160.5 48c-46.667 0 -94.834 -6.16699 -144.501 -18.5s-92.5 -27.5 -128.5 -45.5l-63 175c48 22.667 105 41.167 171 55.5s132 21.5 198 21.5
c69.333 0 129.333 -8.5 180 -25.5s92.334 -40.5 125.001 -70.5s56.834 -65.5 72.501 -106.5s23.5 -85.167 23.5 -132.5c0 -56 -15 -109.333 -45 -160s-66.333 -98 -109 -142l-292 -301h479v-188h-844z" />
    <glyph glyph-name="three" unicode="3" horiz-adv-x="972" 
d="M890 80c0 -64 -11.5029 -122.004 -34.5029 -174.004s-56.333 -97.167 -100 -135.5s-96.334 -67.666 -158.001 -87.999s-129.834 -30.5 -204.501 -30.5c-63.333 0 -128 6.83301 -194 20.5s-123.667 32.167 -173 55.5l70 176c36.667 -18 79.5 -32.833 128.5 -44.5
s97.5 -17.5 145.5 -17.5c90 0 162.667 20.833 218 62.5s83 101.5 83 179.5c0 42 -9.16699 79.167 -27.5 111.5s-43.833 59 -76.5 80s-71.667 36.667 -117 47s-93.666 15.5 -144.999 15.5h-31v166c50.667 4 97.834 12.833 141.501 26.5s80.834 31 111.501 52
s54.834 45.833 72.501 74.5s26.5 60.334 26.5 95.001c0 60 -19.5 106.333 -58.5 139s-95.167 49 -168.5 49c-44 0 -90.833 -6.16699 -140.5 -18.5s-94.5 -28.166 -134.5 -47.499l-63 175c50.667 24 108.334 42.833 173.001 56.5s127.667 20.5 189 20.5
c139.333 0 243.833 -32.333 313.5 -97s104.5 -151 104.5 -259c0 -38 -7.16699 -74.167 -21.5 -108.5s-33.166 -65.166 -56.499 -92.499s-49.666 -51.166 -78.999 -71.499s-59 -35.833 -89 -46.5v-5c37.333 -10.667 73.666 -25.834 108.999 -45.501
s66.666 -44.167 93.999 -73.5s49.5 -64.5 66.5 -105.5s25.5 -88.167 25.5 -141.5z" />
    <glyph glyph-name="four" unicode="4" horiz-adv-x="1167" 
d="M938 0v-326h-201v326h-641v164l604 940h238v-942h139v-162h-139zM745 903c-9.33301 -17.333 -18.667 -35.666 -28 -54.999c-10 -16.667 -20.5 -35.5 -31.5 -56.5s-23.167 -41.833 -36.5 -62.5l-363 -567h457v547v69c0 23.333 0.666992 44.666 2 63.999l4 61h-4z" />
    <glyph glyph-name="five" unicode="5" horiz-adv-x="987" 
d="M904 98c0 -73.333 -13.334 -138.002 -40.001 -194.002s-62.5 -102.833 -107.5 -140.5s-97.833 -65.667 -158.5 -84s-126 -27.5 -196 -27.5c-68 0 -134 7.5 -198 22.5s-118.667 32.833 -164 53.5l68 176c16 -8.66699 35 -16.667 57 -24s45.5 -13.666 70.5 -18.999
s51.167 -9.83301 78.5 -13.5s53.333 -5.5 78 -5.5c87.333 0 158 22.167 212 66.5s81 105.5 81 183.5c0 41.333 -6.83301 78.666 -20.5 111.999s-35.167 62.333 -64.5 87s-67.5 43.834 -114.5 57.501s-104.167 20.5 -171.5 20.5c-28.667 0 -59 -1.5 -91 -4.5
s-65.667 -7.16699 -101 -12.5l78 752h663v-189h-481l-39 -383h21c6.66699 0 13.667 0.5 21 1.5s15.333 1.5 24 1.5c65.333 0 128 -8 188 -24s112.833 -41.333 158.5 -76s81.834 -79.667 108.501 -135s40 -122.666 40 -201.999z" />
    <glyph glyph-name="six" unicode="6" horiz-adv-x="1157" 
d="M1056 434c0 -62.667 -10.832 -121.667 -32.499 -177s-53 -103.833 -94 -145.5s-90.5 -74.5 -148.5 -98.5s-122.667 -36 -194 -36c-83.333 0 -155.333 14.833 -216 44.5s-111.167 69.667 -151.5 120s-70 109 -89 176s-28.5 137.167 -28.5 210.5
c0 112 19.167 217.5 57.5 316.5s91.5 188.833 159.5 269.5s150.167 150 246.5 208s202.5 101.333 318.5 130l58 -182c-148 -37.333 -269 -95.166 -363 -173.499s-163.667 -168.833 -209 -271.5c30 12.667 65.167 22.667 105.5 30s78.166 11 113.499 11
c145.333 0 259.5 -37.833 342.5 -113.5s124.5 -181.834 124.5 -318.501zM845.001 434c0 90 -26.168 157.996 -78.501 203.996s-121.5 69 -207.5 69c-37.333 0 -78.5 -4.16699 -123.5 -12.5s-83.167 -19.166 -114.5 -32.499c-2.66699 -23.333 -5 -45.666 -7 -66.999
s-3 -43.666 -3 -66.999c0 -52.667 5.83301 -101.667 17.5 -147s29.334 -84.333 53.001 -117s52.667 -58.167 87 -76.5s73.833 -27.5 118.5 -27.5c40 0 76 7.5 108 22.5s59.333 35.167 82 60.5s39.667 54.333 51 87s17 67.334 17 104.001z" />
    <glyph glyph-name="seven" unicode="7" horiz-adv-x="1058" 
d="M405 -326h-242l537 1241h-627v189h922z" />
    <glyph glyph-name="eight" unicode="8" horiz-adv-x="1157" 
d="M1056 356c0 -56 -11.166 -107.167 -33.499 -153.5s-54.333 -86.166 -96 -119.499s-91.834 -59.333 -150.501 -78s-124.334 -28 -197.001 -28c-72 0 -137.333 9.33301 -196 28s-109.167 44.667 -151.5 78s-74.833 73.166 -97.5 119.499s-34 97.5 -34 153.5
c0 50.667 7.83301 95.5 23.5 134.5s37.5 73.833 65.5 104.5s60.5 58 97.5 82s75.833 46.667 116.5 68c-36.667 20.667 -71.334 42 -104.001 64s-60.667 46.667 -84 74s-41.833 58 -55.5 92s-20.5 73 -20.5 117c0 51.333 10.167 99.333 30.5 144s49.333 83 87 115
s83.834 56.833 138.501 74.5s116 26.5 184 26.5c68.667 0 130.167 -8.83301 184.5 -26.5s100.333 -42.5 138 -74.5s66.834 -70.333 87.501 -115s31 -92.667 31 -144c0 -44 -6.83301 -83 -20.5 -117s-32.167 -64.667 -55.5 -92s-51.333 -52 -84 -74s-67.667 -43.333 -105 -64
c41.333 -21.333 80 -44 116 -68s68 -51.333 96 -82s49.833 -65.5 65.5 -104.5s23.5 -83.833 23.5 -134.5zM817.001 1087c0 62 -19.832 111.667 -59.499 149s-99.167 56 -178.5 56s-138.666 -18.667 -177.999 -56s-59 -87 -59 -149c0 -32.667 6.16699 -61.5 18.5 -86.5
s29 -47.5 50 -67.5s46.167 -38.5 75.5 -55.5l93 -52.5l93 52.5c29.333 17 54.666 35.5 75.999 55.5s38.166 42.5 50.499 67.5s18.5 53.833 18.5 86.5zM848.002 365c0 38 -7.16602 71.333 -21.499 100s-33.5 54.167 -57.5 76.5s-52.333 42.833 -85 61.5
s-67.667 37.334 -105 56.001c-36.667 -18.667 -71.334 -37.334 -104.001 -56.001s-61 -39.167 -85 -61.5s-43.167 -47.833 -57.5 -76.5s-21.5 -62 -21.5 -100c0 -66 24.167 -118.833 72.5 -158.5s113.5 -59.5 195.5 -59.5s147.333 19.833 196 59.5s73 92.5 73 158.5z" />
    <glyph glyph-name="nine" unicode="9" horiz-adv-x="1157" 
d="M1056 575c0 -111.333 -18.999 -216.505 -56.999 -315.505s-91.5 -188.833 -160.5 -269.5s-151.667 -150 -248 -208s-202.5 -101.333 -318.5 -130l-53 182c147.333 36.667 268.166 94.334 362.499 173.001s163.166 169.334 206.499 272.001
c-30 -12.667 -65.5 -22.667 -106.5 -30s-79.167 -11 -114.5 -11c-144.667 0 -258.667 37.833 -342 113.5s-125 181.834 -125 318.501c0 62.667 11.333 121.667 34 177s54.334 103.833 95.001 145.5s90.167 74.334 148.5 98.001s122.833 35.5 193.5 35.5
c83.333 0 155.333 -14.667 216 -44s111.167 -69.166 151.5 -119.499s70 -109 89 -176s28.5 -137.5 28.5 -211.5zM848.001 577.995c0 52.667 -5.83203 101.669 -17.499 147.002s-29.167 84.333 -52.5 117s-52.333 58.167 -87 76.5s-74.667 27.5 -120 27.5
c-39.333 0 -74.833 -7.5 -106.5 -22.5s-58.667 -35.167 -81 -60.5s-39.666 -54.333 -51.999 -87s-18.5 -67.334 -18.5 -104.001c0 -90 26.667 -158 80 -204s123 -69 209 -69c35.333 0 75.166 4.16699 119.499 12.5s82.166 19.166 113.499 32.499
c8.66699 45.333 13 90 13 134z" />
    <glyph glyph-name="colon" unicode=":" horiz-adv-x="569" 
d="M426 795c0 -41.333 -13.667 -76.333 -41 -105s-61 -43 -101 -43c-39.333 0 -72.666 14.333 -99.999 43s-41 63.667 -41 105c0 40.667 13.667 75.334 41 104.001s60.666 43 99.999 43c40 0 73.667 -14.333 101 -43s41 -63.334 41 -104.001zM426 131
c0 -40.667 -13.667 -75.334 -41 -104.001s-61 -43 -101 -43c-39.333 0 -72.666 14.333 -99.999 43s-41 63.334 -41 104.001c0 41.333 13.667 76.333 41 105s60.666 43 99.999 43c40 0 73.667 -14.333 101 -43s41 -63.667 41 -105z" />
    <glyph glyph-name="semicolon" unicode=";" horiz-adv-x="569" 
d="M430 795c0 -40 -13.333 -74.333 -40 -103s-60 -43 -100 -43c-38 0 -71 14.333 -99 43s-42 63 -42 103c0 39.333 14 73.666 42 102.999s61 44 99 44c40 0 73.333 -14.667 100 -44s40 -63.666 40 -102.999zM170 -346h-151.999l174 543
c15.333 22.667 34.166 41.5 56.499 56.5s49.833 22.5 82.5 22.5c34.667 0 59.5 -7.83301 74.5 -23.5s24.5 -34.167 28.5 -55.5z" />
    <glyph glyph-name="less" unicode="&#x3c;" horiz-adv-x="1095" 
d="M129 590v151l836 420v-207l-635 -288l635 -289v-207z" />
    <glyph glyph-name="equal" unicode="=" horiz-adv-x="1095" 
d="M129 795v176h836v-176h-836zM129 360v177h836v-177h-836z" />
    <glyph glyph-name="greater" unicode="&#x3e;" horiz-adv-x="1095" 
d="M129 170v207l635 289l-635 288v207l836 -420v-151z" />
    <glyph glyph-name="question" unicode="?" horiz-adv-x="960" 
d="M874 1126c0 -51.333 -10.1699 -97.5 -30.5029 -138.5s-46.666 -77.667 -78.999 -110s-67.833 -59.666 -106.5 -81.999s-76.667 -40.5 -114 -54.5l-12 -243h-178l-18 356c40.667 9.33301 79.834 21.833 117.501 37.5s70.834 34.5 99.501 56.5s51.5 47 68.5 75
s25.5 59 25.5 93c0 64 -20.5 114.167 -61.5 150.5s-104.5 54.5 -190.5 54.5c-48 0 -96.5 -6.5 -145.5 -19.5s-90.5 -28.5 -124.5 -46.5l-68 172c46.667 23.333 102 42.166 166 56.499s129.333 21.5 196 21.5c148 0 260.833 -32.667 338.5 -98s116.5 -159 116.5 -281z
M582.997 131c0 -39.333 -14 -73.666 -42 -102.999s-61 -44 -99 -44s-70.667 14.667 -98 44s-41 63.666 -41 102.999s13.667 73.333 41 102s60 43 98 43s71 -14.333 99 -43s42 -62.667 42 -102z" />
    <glyph glyph-name="at" unicode="@" horiz-adv-x="2029" 
d="M1918 684c0 -122.667 -18.667 -228.835 -56 -318.502s-88.833 -163.167 -154.5 -220.5s-142.167 -99.666 -229.5 -126.999s-181 -41 -281 -41c-190.667 0 -338.667 48.167 -444 144.5s-158 235.5 -158 417.5c0 83.333 11.333 158 34 224s54.5 121.833 95.5 167.5
s90.833 80.834 149.5 105.501s124.334 37 197.001 37c77.333 0 142.666 -11.167 195.999 -33.5s95.666 -47.166 126.999 -74.499v-797c50.667 14.667 96.834 35.667 138.501 63s77.167 61.833 106.5 103.5s51.833 91.5 67.5 149.5s23.5 124.667 23.5 200
c0 90 -13.333 174.667 -40 254s-67 148.666 -121 207.999s-122.667 106 -206 140s-182.333 51 -297 51c-120 0 -227.333 -20.833 -322 -62.5s-174.834 -99 -240.501 -172s-116 -159.333 -151 -259s-52.5 -208.167 -52.5 -325.5c0 -116 18.5 -223.5 55.5 -322.5
s92 -184.667 165 -257s163.833 -129 272.5 -170s234.667 -61.5 378 -61.5c122.667 0 235.5 16.667 338.5 50s188.833 74.666 257.5 123.999l92 -143c-78 -57.333 -174 -105.166 -288 -143.499s-247.333 -57.5 -400 -57.5c-168 0 -317.833 24.667 -449.5 74
s-243 117.333 -334 204s-160 190 -207 310s-70.5 251 -70.5 393c0 138 21.833 267 65.5 387s106.834 224.5 189.501 313.5s183 159 301 210s251.333 76.5 400 76.5c142 0 266.333 -22.167 373 -66.5s195.5 -103.666 266.5 -177.999s124.167 -161.333 159.5 -261
s53 -204.834 53 -315.501zM1206 878.999c-14 8 -33.334 16 -58.001 24s-52.667 12 -84 12c-87.333 0 -155.5 -32 -204.5 -96s-73.5 -157.333 -73.5 -280c0 -135.333 34.833 -234.833 104.5 -298.5s165.834 -95.5 288.501 -95.5h27v734z" />
    <glyph glyph-name="A" unicode="A" 
d="M1038 0l-127 391h-527l-125 -391h-233l492 1483h260l491 -1483h-231zM692 1116c-7.33301 20.667 -13.667 41.167 -19 61.5s-9.33301 39.5 -12 57.5c-4 19.333 -7.33301 38.333 -10 57h-4c-4.66699 -18.667 -9 -37.667 -13 -57c-4 -18 -8 -37.167 -12 -57.5
s-9.33301 -40.833 -16 -61.5l-177 -553h437z" />
    <glyph glyph-name="B" unicode="B" horiz-adv-x="1202" 
d="M1108 397c0 -132 -46.833 -235.001 -140.5 -309.001s-229.834 -111 -408.501 -111c-38.667 0 -77.334 2.16699 -116.001 6.5s-76.5 9.83301 -113.5 16.5s-71.167 14.834 -102.5 24.501s-58.666 19.834 -81.999 30.501v1372c50.667 23.333 111.834 42.166 183.501 56.499
s147.167 21.5 226.5 21.5c86 0 160.667 -9.5 224 -28.5s116.166 -46 158.499 -81s74.166 -76.667 95.499 -125s32 -101.833 32 -160.5c0 -45.333 -6.83301 -86.666 -20.5 -123.999s-31.5 -70.333 -53.5 -99s-46.667 -52.334 -74 -71.001s-55.333 -32 -84 -40v-4
c28.667 -8 59.334 -21.667 92.001 -41s62.334 -44.333 89.001 -75s49 -67.5 67 -110.5s27 -92.5 27 -148.5zM854 1090c0 73.333 -24.998 131.501 -74.998 174.501s-124.667 64.5 -224 64.5c-38.667 0 -75.667 -3 -111 -9s-64 -14 -86 -24v-454h190
c57.333 0 102.166 4 134.499 12s62.166 22.333 89.499 43c24.667 19.333 44.5 45.666 59.5 78.999s22.5 71.333 22.5 114zM888.002 412c0 98 -36.666 168.999 -109.999 212.999c-28.667 17.333 -59 29.833 -91 37.5s-76 11.5 -132 11.5h-197v-488
c23.333 -8 53.666 -15.333 90.999 -22s74 -10 110 -10c107.333 0 189 21.833 245 65.5s84 107.834 84 192.501z" />
    <glyph glyph-name="C" unicode="C" horiz-adv-x="1046" 
d="M968 55c-32.667 -23.333 -75.167 -42.1689 -127.5 -56.502s-111.5 -21.5 -177.5 -21.5c-76 0 -148.167 15.5 -216.5 46.5s-128.166 78.167 -179.499 141.5s-92 142.833 -122 238.5s-45 208.167 -45 337.5c0 130 15 242.833 45 338.5s70.667 175.167 122 238.5
s111.166 110.333 179.499 141s140.5 46 216.5 46c62.667 0 121 -7.16699 175 -21.5s97.333 -33.166 130 -56.499l-71 -186c-22 16.667 -51.833 31.167 -89.5 43.5s-78.167 18.5 -121.5 18.5c-50.667 0 -97.5 -11.667 -140.5 -35s-80.5 -57.833 -112.5 -103.5
s-57.333 -103.667 -76 -174s-28 -152.833 -28 -247.5c0 -94 9.33301 -176.167 28 -246.5s44 -128.333 76 -174s69.5 -80.167 112.5 -103.5s89.833 -35 140.5 -35c43.333 0 83.833 5.83301 121.5 17.5s67.5 25.834 89.5 42.501l71 -189v0z" />
    <glyph glyph-name="D" unicode="D" horiz-adv-x="1247" 
d="M1147 741c0 -125.333 -14.835 -235.831 -44.502 -331.498s-71.667 -175.5 -126 -239.5s-119.833 -112.167 -196.5 -144.5s-162 -48.5 -256 -48.5c-78 0 -151.167 7.66699 -219.5 23s-122.166 33.666 -161.499 54.999v1372c44 23.333 99.333 42.166 166 56.499
s138.334 21.5 215.001 21.5c94 0 179.333 -16 256 -48s142.167 -80 196.5 -144s96.333 -143.833 126 -239.5s44.5 -206.5 44.5 -332.5zM922.998 741.002c0 100 -9.83105 185.833 -29.498 257.5s-46.667 130.667 -81 177s-75.333 80.5 -123 102.5s-98.834 33 -153.501 33
c-34 0 -66 -2.5 -96 -7.5s-54.667 -12.167 -74 -21.5v-1081c15.333 -8.66699 38.666 -15.667 69.999 -21s64.666 -8 99.999 -8c54.667 0 105.834 11 153.501 33s88.667 56.167 123 102.5s61.333 105.333 81 177s29.5 157.167 29.5 256.5z" />
    <glyph glyph-name="E" unicode="E" horiz-adv-x="983" 
d="M143 0v1483h748v-195h-529v-436h481v-190h-481v-467h529v-195h-748z" />
    <glyph glyph-name="F" unicode="F" horiz-adv-x="958" 
d="M362 1288v-436h471v-190h-471v-662h-219v1483h735v-195h-516z" />
    <glyph glyph-name="G" unicode="G" horiz-adv-x="1259" 
d="M1122 55c-36.667 -21.333 -88.166 -39.666 -154.499 -54.999s-142.5 -23 -228.5 -23c-94 0 -180 17.167 -258 51.5s-145.333 84.166 -202 149.499s-100.667 145.166 -132 239.499s-47 202.166 -47 323.499c0 120.667 16 228.334 48 323.001s77 174.834 135 240.501
s127.333 115.5 208 149.5s168.667 51 264 51c72.667 0 140.334 -7.16699 203.001 -21.5s112 -33.166 148 -56.499l-74 -182c-28.667 18 -65.834 33.167 -111.501 45.5s-98.5 18.5 -158.5 18.5c-60.667 0 -117.5 -11.333 -170.5 -34s-99.667 -57.167 -140 -103.5
s-72.166 -105.333 -95.499 -177s-35 -156.167 -35 -253.5c0 -96.667 11.333 -180.834 34 -252.501s52.667 -131 90 -178s80.333 -81.833 129 -104.5s99 -34 151 -34c43.333 0 82.166 3 116.499 9s58.166 13.333 71.499 22v475h-260v178h469v-801v0z" />
    <glyph glyph-name="H" unicode="H" horiz-adv-x="1253" 
d="M888 0v662h-522v-662h-223v1483h223v-631h522v631h222v-1483h-222z" />
    <glyph glyph-name="I" unicode="I" horiz-adv-x="514" 
d="M145 0v1483h223v-1483h-223z" />
    <glyph glyph-name="J" unicode="J" horiz-adv-x="514" 
d="M370 164c0 -186 -44.168 -328.167 -132.501 -426.5s-208.166 -160.5 -359.499 -186.5v201c80.667 23.333 145.5 67.5 194.5 132.5s73.5 158.167 73.5 279.5v1319h224v-1319v0z" />
    <glyph glyph-name="K" unicode="K" horiz-adv-x="1165" 
d="M884 0l-514 748h-2v-748h-223v1483h223v-680h2l506 680h254l-528 -707l538 -776h-256z" />
    <glyph glyph-name="L" unicode="L" horiz-adv-x="921" 
d="M145 0v1483h223v-1288h490v-195h-713z" />
    <glyph glyph-name="M" unicode="M" horiz-adv-x="1710" 
d="M1411 0l-115.004 1030c-2.66699 22 -5 44.167 -7 66.5s-3.66699 43.166 -5 62.499c-1.33301 22 -2.66602 42.667 -3.99902 62h-4c-4 -19.333 -9 -40 -15 -62l-13 -62.5c-4.66699 -22.333 -10.334 -44.5 -17.001 -66.5l-301 -1030h-152l-299 1030
c-6.66699 22 -12.834 44.167 -18.501 66.5s-10.5 43.166 -14.5 62.499c-5.33301 22 -9.33301 42.667 -12 62h-4c-1.33301 -19.333 -2.66602 -40 -3.99902 -62c-1.33301 -19.333 -2.66602 -40.166 -3.99902 -62.499s-3.33301 -44.5 -6 -66.5l-119 -1030h-207l182 1483h258
l281 -969c6.66699 -22 12.334 -43.5 17.001 -64.5s9.33398 -40.5 14.001 -58.5c5.33301 -20.667 9.33301 -40.334 12 -59.001h4c1.33301 18.667 4.66602 38.334 9.99902 59.001c2.66699 18 6.83398 37.5 12.501 58.5s11.834 42.5 18.501 64.5l281 969h258l182 -1483h-209z
" />
    <glyph glyph-name="N" unicode="N" horiz-adv-x="1337" 
d="M1001 0l-584 984.999l-31.5 58.5c-10.333 19.667 -18.833 37.834 -25.5 54.501l-24 55h-5c0 -19.333 0.666992 -39 2 -59c0 -18 0.5 -38 1.5 -60s1.5 -44.333 1.5 -67v-967h-193v1483h203l569 -965l31.5 -57.5l27.5 -52.5c10 -19.333 19 -38 27 -56h4
c-1.33301 19.333 -2 40 -2 62c-1.33301 18.667 -2 39 -2 61v68v940h193v-1483h-193z" />
    <glyph glyph-name="O" unicode="O" 
d="M1198 741c0 -106 -11.333 -205.5 -34 -298.5s-56.834 -174 -102.501 -243s-103 -123.333 -172 -163s-149.167 -59.5 -240.5 -59.5c-92.667 0 -173.167 19.833 -241.5 59.5s-125.333 94 -171 163s-79.834 150 -102.501 243s-34 192.5 -34 298.5
c0 106.667 11.333 206.5 34 299.5s56.834 173.833 102.501 242.5s102.667 122.834 171 162.501s148.833 59.5 241.5 59.5c91.333 0 171.5 -19.833 240.5 -59.5s126.333 -93.834 172 -162.501s79.834 -149.5 102.501 -242.5s34 -192.833 34 -299.5zM974 741
c0 80.667 -6.66699 155.167 -20 223.5s-34 127.5 -62 177.5s-62.167 88.833 -102.5 116.5s-87.166 41.5 -140.499 41.5s-100.5 -13.833 -141.5 -41.5s-75.5 -66.5 -103.5 -116.5s-48.833 -109.167 -62.5 -177.5s-20.5 -142.833 -20.5 -223.5
c0 -80 6.83301 -154.167 20.5 -222.5s34.5 -127.5 62.5 -177.5s62.5 -89 103.5 -117s88.167 -42 141.5 -42s100.166 14 140.499 42s74.5 67 102.5 117s48.667 109.167 62 177.5s20 142.5 20 222.5z" />
    <glyph glyph-name="P" unicode="P" horiz-adv-x="1138" 
d="M1063 1042c0 -65.333 -12.002 -126.002 -36.002 -182.002s-59.167 -104.5 -105.5 -145.5s-103.666 -72.667 -171.999 -95s-147.5 -33.5 -237.5 -33.5c-27.333 0 -54.666 1.33301 -81.999 4s-50 5.33398 -68 8.00098v-598h-219v1427c52 24.667 111 43.834 177 57.501
s138 20.5 216 20.5c170.667 0 301.167 -41.667 391.5 -125s135.5 -196 135.5 -338zM844.998 1044c0 94.667 -26.1699 165.5 -78.5029 212.5s-128.5 70.5 -228.5 70.5c-35.333 0 -68.666 -3 -99.999 -9s-56.666 -13.333 -75.999 -22v-520c16.667 -2.66699 38 -5 64 -7
s51.667 -3 77 -3c110.667 0 195.334 24.833 254.001 74.5s88 117.5 88 203.5z" />
    <glyph glyph-name="Q" unicode="Q" 
d="M1028 -391l-236.001 387c-43.333 -12.667 -91 -19 -143 -19c-92.667 0 -173.167 19.833 -241.5 59.5s-125.333 94 -171 163s-79.834 150 -102.501 243s-34 192.5 -34 298.5c0 106.667 11.333 206.5 34 299.5s56.834 173.833 102.501 242.5s102.667 122.834 171 162.501
s148.833 59.5 241.5 59.5c91.333 0 171.5 -19.833 240.5 -59.5s126.333 -93.834 172 -162.501s79.834 -149.5 102.501 -242.5s34 -192.833 34 -299.5c0 -140.667 -19.833 -268 -59.5 -382s-98.5 -204.333 -176.5 -271l238 -340zM973.999 741
c0 80.667 -6.66699 155.167 -20 223.5s-34 127.5 -62 177.5s-62.167 88.833 -102.5 116.5s-87.166 41.5 -140.499 41.5s-100.5 -13.833 -141.5 -41.5s-75.5 -66.5 -103.5 -116.5s-48.833 -109.167 -62.5 -177.5s-20.5 -142.833 -20.5 -223.5
c0 -80 6.83301 -154.167 20.5 -222.5s34.5 -127.5 62.5 -177.5s62.5 -89 103.5 -117s88.167 -42 141.5 -42s100.166 14 140.499 42s74.5 67 102.5 117s48.667 109.167 62 177.5s20 142.5 20 222.5z" />
    <glyph glyph-name="R" unicode="R" horiz-adv-x="1202" 
d="M909 0l-200.999 468.999c-23.333 50.667 -52 90 -86 118s-78.333 42 -133 42h-125v-629h-219v1425c53.333 24.667 115.833 44.167 187.5 58.5s144.5 21.5 218.5 21.5c170.667 0 299.667 -39.167 387 -117.5s131 -183.166 131 -314.499
c0 -56 -7.83301 -105.167 -23.5 -147.5s-37.5 -78.833 -65.5 -109.5s-60.5 -55.5 -97.5 -74.5s-76.833 -33.5 -119.5 -43.5v-4c37.333 -18.667 69.666 -46.167 96.999 -82.5s51 -78.5 71 -126.5l213 -485h-235zM852.001 1063c0 82 -24 146.5 -72 193.5s-123 70.5 -225 70.5
c-36 0 -71 -2.66699 -105 -8s-62.667 -13 -86 -23v-499h166c102.667 0 182 20.5 238 61.5s84 109.167 84 204.5z" />
    <glyph glyph-name="S" unicode="S" horiz-adv-x="1013" 
d="M917 416c0 -67.333 -11.3252 -127.829 -33.9922 -181.496s-54.834 -99.667 -96.501 -138s-92.167 -67.833 -151.5 -88.5s-126 -31 -200 -31c-68 0 -133.833 7.16699 -197.5 21.5s-115.834 33.166 -156.501 56.499l78 201c31.333 -19.333 71.166 -36.166 119.499 -50.499
s97.833 -21.5 148.5 -21.5c79.333 0 143.166 19.5 191.499 58.5s72.5 93.5 72.5 163.5c0 31.333 -6.16699 59.166 -18.5 83.499s-29 46.166 -50 65.499s-45.167 36.5 -72.5 51.5s-56 29.167 -86 42.5c-42.667 20.667 -85.834 43.334 -129.501 68.001
s-82.834 53.667 -117.501 87s-63.334 73.166 -86.001 119.499s-34 100.833 -34 163.5c0 64.667 10.667 122.5 32 173.5s51.833 94.667 91.5 131s87.167 64.333 142.5 84s117 29.5 185 29.5s129.667 -7.5 185 -22.5s100 -33.5 134 -55.5l-69 -188
c-27.333 15.333 -62.833 30.5 -106.5 45.5s-88.834 22.5 -135.501 22.5c-69.333 0 -126.166 -18.167 -170.499 -54.5s-66.5 -87.166 -66.5 -152.499c0 -31.333 6.83301 -59.333 20.5 -84s31.667 -46.834 54 -66.501s48.166 -37.834 77.499 -54.501s59 -31.667 89 -45
c40 -19.333 81.167 -40.833 123.5 -64.5s80.833 -52.334 115.5 -86.001s63 -73.667 85 -120s33 -100.833 33 -163.5z" />
    <glyph glyph-name="T" unicode="T" horiz-adv-x="1003" 
d="M614 1288v-1288h-223v1288h-328v195h877v-195h-326z" />
    <glyph glyph-name="U" unicode="U" horiz-adv-x="1234" 
d="M1091 432c0 -72 -12.333 -136 -37 -192s-58 -103.167 -100 -141.5s-92.167 -67.666 -150.5 -87.999s-120.833 -30.5 -187.5 -30.5s-128.667 10.167 -186 30.5s-107.166 49.666 -149.499 87.999s-75.833 85.5 -100.5 141.5s-37 120 -37 192v1051h223v-1053
c0 -79.333 24.333 -141.166 73 -185.499s107.667 -66.5 177 -66.5c71.333 0 131.166 22.167 179.499 66.5s72.5 106.166 72.5 185.499v1053h223v-1051v0z" />
    <glyph glyph-name="V" unicode="V" horiz-adv-x="1208" 
d="M722 0h-235.001l-451 1483h242l280 -1032c6.66699 -23.333 12.5 -47 17.5 -71l13.5 -67c5.33301 -24.667 10 -47.667 14 -69h4c2.66699 21.333 7 44.333 13 69l13 67c4.66699 24 10.334 47.667 17.001 71l281 1032h240z" />
    <glyph glyph-name="W" unicode="W" horiz-adv-x="1789" 
d="M1372 0h-216.996l-224 956c-6.66699 23.333 -12 47.666 -16 72.999s-7.33301 47.666 -10 66.999c-4 22.667 -6.66699 45 -8 67h-4c-3.33301 -22 -7 -44.333 -11 -67c-2.66699 -19.333 -6 -41.666 -10 -66.999s-8.66699 -49.666 -14 -72.999l-224 -956h-217l-358 1483h223
l217 -1008c4 -23.333 8.16699 -46.166 12.5 -68.499s7.83301 -43.166 10.5 -62.499c4 -23.333 7.33301 -45 10 -65h4c2.66699 20 6 41.667 10 65c3.33301 19.333 6.66602 40.166 9.99902 62.499s7.66602 45.166 12.999 68.499l231 1008h191l229 -1008
c5.33301 -23.333 10.166 -46.166 14.499 -68.499s7.83301 -43.166 10.5 -62.499c4 -23.333 6.66699 -45 8 -65h4c2.66699 20 6 41.667 10 65c2.66699 19.333 6.16699 40.166 10.5 62.499s9.16602 45.166 14.499 68.499l213 1008h225z" />
    <glyph glyph-name="X" unicode="X" horiz-adv-x="1165" 
d="M890 0l-305 584h-4l-307 -584h-244l422 768l-391 715h241l279 -531h4l276 531h244l-393 -715l422 -768h-244z" />
    <glyph glyph-name="Y" unicode="Y" horiz-adv-x="1157" 
d="M690 588v-588h-224v588l-438 895h242l307 -662h4l307 662h240z" />
    <glyph glyph-name="Z" unicode="Z" horiz-adv-x="1017" 
d="M49 0l569 1288h-526v195h836l-568 -1288h572v-195h-883z" />
    <glyph glyph-name="bracketleft" unicode="[" horiz-adv-x="733" 
d="M161 -399v2007h475v-176h-268v-1655h268v-176h-475z" />
    <glyph glyph-name="backslash" unicode="\" horiz-adv-x="927" 
d="M728 -408l-657 1985l201 63l659 -1984z" />
    <glyph glyph-name="bracketright" unicode="]" horiz-adv-x="733" 
d="M96 -399v176h268v1655h-268v176h475v-2007h-475z" />
    <glyph glyph-name="asciicircum" unicode="^" horiz-adv-x="1167" 
d="M880 834l-297 378l-297 -378l-133 114l330 418c13.333 15.333 27.833 27.666 43.5 36.999s34.5 14 56.5 14s41.167 -4.66699 57.5 -14s30.5 -21.666 42.5 -36.999l330 -418z" />
    <glyph glyph-name="underscore" unicode="_" horiz-adv-x="1157" 
d="M-8 -426v158h1174v-158h-1174z" />
    <glyph glyph-name="grave" unicode="`" horiz-adv-x="641" 
d="M289 1233l-202.999 268c5.33301 16.667 16.166 29.667 32.499 39s35.5 14 57.5 14s44.167 -4 66.5 -12s41.833 -21.667 58.5 -41l141 -268h-153z" />
    <glyph glyph-name="a" unicode="a" horiz-adv-x="1052" 
d="M919 55c-38.667 -21.333 -93.1699 -39.666 -163.503 -54.999s-142.833 -23 -217.5 -23c-153.333 0 -268.166 30.5 -344.499 91.5s-114.5 146.167 -114.5 255.5c0 76 18.167 138 54.5 186s84.166 85.667 143.499 113s126.833 46.666 202.5 57.999
s153.834 19.333 234.501 24v69c0 70 -20.167 119 -60.5 147s-94.5 42 -162.5 42c-50.667 0 -103.334 -6.83301 -158.001 -20.5s-99.667 -29.5 -135 -47.5l-56 154c42.667 18.667 97.167 36.167 163.5 52.5s135.5 24.5 207.5 24.5c62.667 0 119.334 -6.83301 170.001 -20.5
s93.334 -35.167 128.001 -64.5s61.334 -67.833 80.001 -115.5s28 -105.5 28 -173.5v-697zM713.997 555c-53.333 -2.66699 -106.001 -7.16504 -158.001 -13.498s-98.5 -17 -139.5 -32s-73.667 -36.833 -98 -65.5s-36.5 -67.334 -36.5 -116.001
c0 -58.667 21.167 -104.834 63.5 -138.501s104.5 -50.5 186.5 -50.5c35.333 0 70.333 2.83301 105 8.5s60.334 12.5 77.001 20.5v387z" />
    <glyph glyph-name="b" unicode="b" horiz-adv-x="1105" 
d="M1010 578c0 -104 -12.334 -193.834 -37.001 -269.501s-59.834 -138.167 -105.501 -187.5s-100.667 -85.666 -165 -108.999s-136.166 -35 -215.499 -35c-69.333 0 -135.5 7.66699 -198.5 23s-115.5 33.666 -157.5 54.999v1553h215v-533
c26 12.667 57.833 23.334 95.5 32.001s74.834 13 111.501 13c68 0 130 -12.167 186 -36.5s104.167 -60.166 144.5 -107.499s71.5 -104.333 93.5 -171s33 -142.334 33 -227.001zM796.999 560.999c0 121.333 -25.333 215.832 -76 283.499s-119 101.5 -205 101.5
c-30 0 -60.667 -3.33301 -92 -10s-57.333 -15.667 -78 -27v-725c15.333 -6.66699 37 -13 65 -19s57.667 -9 89 -9c42 0 81.167 7.83301 117.5 23.5s67.833 39.834 94.5 72.501s47.5 74.667 62.5 126s22.5 112.333 22.5 183z" />
    <glyph glyph-name="c" unicode="c" horiz-adv-x="901" 
d="M829 53c-34 -23.333 -73.168 -41.832 -117.501 -55.499s-95.166 -20.5 -152.499 -20.5c-60 0 -118 11.333 -174 34s-105.5 57.5 -148.5 104.5s-77.833 106.667 -104.5 179s-40 158.5 -40 258.5c0 99.333 13.333 185.333 40 258s61.5 132.167 104.5 178.5
s92.5 80.666 148.5 102.999s114 33.5 174 33.5c57.333 0 108.5 -6.83301 153.5 -20.5s83.833 -31.834 116.5 -54.501l-69 -162c-23.333 16 -50 28.833 -80 38.5s-61.333 14.5 -94 14.5c-36 0 -70.333 -7.5 -103 -22.5s-61.334 -38.167 -86.001 -69.5
s-44.5 -71.666 -59.5 -120.999s-22.5 -107.333 -22.5 -174c0 -68 7.5 -126.333 22.5 -175s35.167 -89 60.5 -121s54.333 -55.5 87 -70.5s66.334 -22.5 101.001 -22.5c32.667 0 64 4.83301 94 14.5s56.667 22.5 80 38.5l69 -166v0z" />
    <glyph glyph-name="d" unicode="d" horiz-adv-x="1105" 
d="M973 55c-36 -20 -86.667 -38.001 -152 -54.001s-135.666 -24 -210.999 -24c-83.333 0 -157 13 -221 39s-118.167 63.667 -162.5 113s-77.833 108.833 -100.5 178.5s-34 148.167 -34 235.5c0 84.667 10.5 162.167 31.5 232.5s52.667 130.333 95 180s94 88.5 155 116.5
s131.833 42 212.5 42c32.667 0 64.667 -2.66699 96 -8s56.666 -11.666 75.999 -18.999v521h215v-1553zM758 917.999c-15.333 6.66699 -37.332 12.334 -65.999 17.001s-57.334 7 -86.001 7c-49.333 0 -92.333 -9.83301 -129 -29.5s-67.334 -47.334 -92.001 -83.001
s-43.5 -78 -56.5 -127s-19.5 -102.167 -19.5 -159.5c0 -122 25.333 -217 76 -285s124.334 -102 221.001 -102c28.667 0 57.667 3 87 9s51 12.333 65 19v734z" />
    <glyph glyph-name="e" unicode="e" horiz-adv-x="1101" 
d="M1007 557l-703.998 -102.001c10.667 -100 44.667 -174.833 102 -224.5s131.333 -74.5 222 -74.5c52.667 0 105.667 6.16699 159 18.5s97.666 28.5 132.999 48.5l64 -168c-41.333 -23.333 -94.666 -42.166 -159.999 -56.499s-135 -21.5 -209 -21.5
c-84.667 0 -159.334 13.333 -224.001 40s-118.834 65.334 -162.501 116.001s-77.167 111.167 -100.5 181.5s-35 149.833 -35 238.5c0 84.667 11 162.167 33 232.5s53.333 130.666 94 180.999s90.834 89.5 150.501 117.5s126.167 42 199.5 42
c139.333 0 247.166 -43.667 323.499 -131s114.5 -205.333 114.5 -354v-84zM803.002 675.999c-1.33301 96.667 -23.166 168.667 -65.499 216s-99.833 71 -172.5 71c-82 0 -147.833 -31.167 -197.5 -93.5s-75.834 -151.5 -78.501 -267.5z" />
    <glyph glyph-name="f" unicode="f" horiz-adv-x="706" 
d="M626 1432c-60 0 -109.833 -14.833 -149.5 -44.5s-59.5 -78.5 -59.5 -146.5v-137h219v-168h-219v-936h-211v936h-139v168h139v137c0 62.667 9.66699 117.667 29 165s46 86 80 116s74.5 52.5 121.5 67.5s97.833 22.5 152.5 22.5c11.333 0 23.5 -0.333008 36.5 -1
s23.5 -1.66699 31.5 -3v-176h-31z" />
    <glyph glyph-name="g" unicode="g" horiz-adv-x="1105" 
d="M973 4c0 -151.333 -40.3301 -266.664 -120.997 -345.997s-191.334 -119 -332.001 -119c-78 0 -149.333 8.16699 -214 24.5s-119 36.166 -163 59.499l64 176c34 -18.667 77.333 -34.834 130 -48.501s107.667 -20.5 165 -20.5c87.333 0 152.5 23.167 195.5 69.5
s64.5 114.5 64.5 204.5v82c-27.333 -13.333 -60.833 -24.166 -100.5 -32.499s-77.834 -12.5 -114.501 -12.5c-67.333 0 -129 11.667 -185 35s-103.667 57.5 -143 102.5s-70.333 100.167 -93 165.5s-34 139.666 -34 222.999c0 96 13 178.833 39 248.5
s61.833 127.667 107.5 174s101 80.666 166 102.999s136.167 33.5 213.5 33.5c71.333 0 137.666 -7.16699 198.999 -21.5s113.333 -32.833 156 -55.5v-1045zM762.003 924.002c-18 6.66699 -41.001 12.999 -69.001 18.999s-57.667 9 -89 9
c-42 0 -80.833 -7.16699 -116.5 -21.5s-66.834 -36.833 -93.501 -67.5s-47.5 -69.5 -62.5 -116.5s-22.5 -104.167 -22.5 -171.5c0 -121.333 25.333 -212 76 -272s118.334 -90 203.001 -90c30 0 61.333 3.83301 94 11.5s59.334 16.834 80.001 27.501v672z" />
    <glyph glyph-name="h" unicode="h" horiz-adv-x="1110" 
d="M762 0l-0.00292969 733.001c0 71.333 -20.167 124.333 -60.5 159s-96.166 52 -167.499 52c-32.667 0 -65.667 -4.83301 -99 -14.5s-63 -21.834 -89 -36.501v-893h-215v1608h215v-545c32.667 16 69.834 29.833 111.501 41.5s83.834 17.5 126.501 17.5
c124 0 220.833 -31.667 290.5 -95s104.5 -155 104.5 -275v-752h-217z" />
    <glyph glyph-name="i" unicode="i" horiz-adv-x="491" 
d="M372 1432c0 -36 -12.333 -66.167 -37 -90.5s-54.667 -36.5 -90 -36.5s-65.333 12.167 -90 36.5s-37 54.5 -37 90.5c0 35.333 12.333 65.333 37 90s54.667 37 90 37s65.333 -12.333 90 -37s37 -54.667 37 -90zM136 0v1104h218v-1104h-218z" />
    <glyph glyph-name="j" unicode="j" horiz-adv-x="491" 
d="M373 1432c0 -36 -12.333 -66.167 -37 -90.5s-54.667 -36.5 -90 -36.5s-65.333 12.167 -90 36.5s-37 54.5 -37 90.5c0 35.333 12.333 65.333 37 90s54.667 37 90 37s65.333 -12.333 90 -37s37 -54.667 37 -90zM355 127c0 -96.667 -12.3311 -179.5 -36.998 -248.5
s-57.834 -126.333 -99.501 -172s-89.834 -81.167 -144.501 -106.5s-112 -43.666 -172 -54.999v187c30 9.33301 59.333 24.166 88 44.499s54 46.333 76 78s39.5 70 52.5 115s19.5 97.5 19.5 157.5v977h217v-977z" />
    <glyph glyph-name="k" unicode="k" horiz-adv-x="1056" 
d="M786 0l-434 561h-4v-561h-213v1608h213v-1000h4l408 496h247l-428 -520l455 -584h-248z" />
    <glyph glyph-name="l" unicode="l" horiz-adv-x="491" 
d="M137 0v1608h217v-1608h-217z" />
    <glyph glyph-name="m" unicode="m" horiz-adv-x="1701" 
d="M1356 0l0.000976562 748c0 64 -18.167 113 -54.5 147s-85.166 51 -146.499 51c-84.667 0 -150.334 -24.667 -197.001 -74v-872h-215v768c0 56 -19.333 99.667 -58 131s-91.667 47 -159 47c-72 0 -132 -11 -180 -33v-913h-215v1049c52 22.667 110.333 41.167 175 55.5
s134 21.5 208 21.5c83.333 0 153 -11.833 209 -35.5s99 -51.167 129 -82.5c32.667 30 79.667 57.167 141 81.5s131.666 36.5 210.999 36.5c113.333 0 202.833 -31.667 268.5 -95s98.5 -150.333 98.5 -261v-770h-215z" />
    <glyph glyph-name="n" unicode="n" horiz-adv-x="1110" 
d="M762 0v737c0 66 -18.5 117.333 -55.5 154s-92.167 55 -165.5 55c-40 0 -77 -3 -111 -9s-62 -14 -84 -24v-913h-215v1049c53.333 22.667 113.833 41.167 181.5 55.5s143.167 21.5 226.5 21.5c148.667 0 259.167 -32 331.5 -96s108.5 -154.667 108.5 -272v-758h-217z" />
    <glyph glyph-name="o" unicode="o" horiz-adv-x="1116" 
d="M1024 553c0 -82 -10.333 -158.167 -31 -228.5s-50.334 -131 -89.001 -182s-87 -91.333 -145 -121s-124.667 -44.5 -200 -44.5s-142 14.833 -200 44.5s-106.833 70 -146.5 121s-69.667 111.667 -90 182s-30.5 146.5 -30.5 228.5s10.167 157.833 30.5 227.5
s50.333 130 90 181s88.5 91.167 146.5 120.5s124.667 44 200 44s142 -14.667 200 -44s106.333 -69.5 145 -120.5s68.334 -111.333 89.001 -181s31 -145.5 31 -227.5zM809 555c0 120 -20.833 215.501 -62.5 286.501s-104.167 106.5 -187.5 106.5
c-84.667 0 -147.5 -35.833 -188.5 -107.5s-61.5 -166.834 -61.5 -285.501s20.5 -214.167 61.5 -286.5s103.833 -108.5 188.5 -108.5c83.333 0 145.833 36.167 187.5 108.5s62.5 167.833 62.5 286.5z" />
    <glyph glyph-name="p" unicode="p" horiz-adv-x="1105" 
d="M1010 561c0 -84.667 -10.667 -162.168 -32 -232.501s-52.5 -130.666 -93.5 -180.999s-92.167 -89.5 -153.5 -117.5s-132.333 -42 -213 -42c-31.333 0 -63.333 2.66699 -96 8s-58 11.333 -76 18v-454h-215v1489c38 20 89.833 37.833 155.5 53.5s135.5 23.5 209.5 23.5
c81.333 0 154.166 -12.833 218.499 -38.5s118.333 -63.167 162 -112.5s76.834 -108.833 99.501 -178.5s34 -148.167 34 -235.5zM797 560.999c0 120 -25.332 214.833 -75.999 284.5s-124.334 104.5 -221.001 104.5c-30 0 -59.333 -3 -88 -9s-50.667 -12.333 -66 -19v-736
c14 -6.66699 36 -12.334 66 -17.001s59.333 -7 88 -7c48.667 0 91.5 9.83301 128.5 29.5s67.833 47.334 92.5 83.001s43.5 78 56.5 127s19.5 102.167 19.5 159.5z" />
    <glyph glyph-name="q" unicode="q" horiz-adv-x="1105" 
d="M758 -440l0.000976562 469.001c-26 -12.667 -57.833 -23.334 -95.5 -32.001s-74.167 -13 -109.5 -13c-68.667 0 -131.334 12.167 -188.001 36.5s-105 60.166 -145 107.499s-71.333 104.333 -94 171s-34 142.334 -34 227.001c0 104 12.667 193.833 38 269.5
s60.833 138.167 106.5 187.5s101 85.5 166 108.5s136.833 34.5 215.5 34.5c70 0 136.333 -7.5 199 -22.5s114.667 -33.167 156 -54.5v-1489h-215zM758.001 922.001c-16.667 6.66699 -38.667 13.001 -66 19.001s-56 9 -86 9c-86 0 -157 -32.333 -213 -97
s-84 -167.334 -84 -308.001c0 -122 25.333 -216.667 76 -284s119 -101 205 -101c30 0 60 3.33301 90 10s56 15.667 78 27v725z" />
    <glyph glyph-name="r" unicode="r" horiz-adv-x="712" 
d="M620 932c-31.333 8 -66.668 12 -106.001 12c-31.333 0 -62 -2.33301 -92 -7s-55.333 -12 -76 -22v-915h-215v1049c52 22.667 113.833 41.167 185.5 55.5s147.167 21.5 226.5 21.5c22.667 0 44.334 -0.666992 65.001 -2s39 -3.33301 55 -6z" />
    <glyph glyph-name="s" unicode="s" horiz-adv-x="901" 
d="M810 305c0 -99.333 -35.167 -178.831 -105.5 -238.498s-171.5 -89.5 -303.5 -89.5c-62.667 0 -123.834 7.66699 -183.501 23s-108.5 33.666 -146.5 54.999l72 172c13.333 -8 30.333 -16.5 51 -25.5s42.5 -16.833 65.5 -23.5s46.167 -12 69.5 -16s45.333 -6 66 -6
c58.667 0 105.334 13.667 140.001 41s52 64 52 110c0 24.667 -4.83301 46.167 -14.5 64.5s-22.667 34.333 -39 48s-36 25.667 -59 36s-48.167 20.833 -75.5 31.5c-36 14 -71.667 29.5 -107 46.5s-67.333 37.833 -96 62.5s-52.167 54.667 -70.5 90s-27.5 79 -27.5 131
c0 91.333 32 165.666 96 222.999s155.333 86 274 86c66 0 124.833 -7.16699 176.5 -21.5s96.167 -32.833 133.5 -55.5l-66 -156c-24.667 14.667 -57.834 29.167 -99.501 43.5s-81.5 21.5 -119.5 21.5c-57.333 0 -100.666 -13.5 -129.999 -40.5s-44 -60.5 -44 -100.5
c0 -24.667 4.33301 -45.834 13 -63.501s21.334 -33.334 38.001 -47.001s36.167 -25.667 58.5 -36s46.5 -20.166 72.5 -29.499l110.5 -47.5c37 -16.333 70.167 -36.666 99.5 -60.999s53.166 -55 71.499 -92s27.5 -82.167 27.5 -135.5z" />
    <glyph glyph-name="t" unicode="t" horiz-adv-x="702" 
d="M628 10c-12 -6.66699 -30.333 -12.334 -55 -17.001s-50.667 -7 -78 -7c-94 0 -166 26.833 -216 80.5s-75 134.5 -75 242.5v627h-143v168h143v256l211 67v-323h213v-168h-213v-614c0 -50.667 13.667 -86.667 41 -108s61 -32 101 -32c12 0 24.833 1.33301 38.5 4
s24.5 6.33398 32.5 11.001v-187v0z" />
    <glyph glyph-name="u" unicode="u" horiz-adv-x="1095" 
d="M962 55c-43.333 -23.333 -100.833 -42.167 -172.5 -56.5s-147.834 -21.5 -228.501 -21.5c-140.667 0 -247.5 31.5 -320.5 94.5s-109.5 164.167 -109.5 303.5v729h215v-733c0 -139.333 71.667 -209 215 -209c41.333 0 78.333 3 111 9s58.334 13.333 77.001 22v911h213
v-1049v0z" />
    <glyph glyph-name="v" unicode="v" horiz-adv-x="1107" 
d="M678 0h-248.003l-385 1104h240l225 -737c6.66699 -20.667 12.334 -41.334 17.001 -62.001s9.33398 -39 14.001 -55c5.33301 -19.333 9.33301 -37.666 12 -54.999h4c1.33301 17.333 4.66602 35.666 9.99902 54.999c2.66699 16 6.83398 34.333 12.501 55
s11.834 41.334 18.501 62.001l225 737h240z" />
    <glyph glyph-name="w" unicode="w" horiz-adv-x="1642" 
d="M1265 0l-221.001 0.000976562l-188 700c-6 19.333 -11 38.166 -15 56.499s-7.33301 35.166 -10 50.499c-4 18 -6.66699 35.667 -8 53h-4c-1.33301 -17.333 -4 -35 -8 -53l-11 -50.5c-4 -18.333 -8.66699 -37.166 -14 -56.499l-188 -700h-224l-313 1104h213l184 -729
c4 -19.333 7.83301 -39.5 11.5 -60.5s6.83398 -39.833 9.50098 -56.5c2.66699 -20.667 5.33398 -39.667 8.00098 -57h4c2.66699 17.333 6 36.333 10 57c2.66699 16.667 6.16699 35.5 10.5 56.5s9.16602 41.167 14.499 60.5l192 729h203l193 -729
c10.667 -42.667 19.334 -81.667 26.001 -117l11 -57h4c1.33301 17.333 3.33301 36.333 6 57l9 56.5c3.33301 21 7.66602 41.167 12.999 60.5l183 729h215z" />
    <glyph glyph-name="x" unicode="x" horiz-adv-x="1050" 
d="M773 0l-247 420h-4l-248 -420h-246l365 573l-334 531h241l222 -385h4l223 385h242l-334 -531l362 -573h-246z" />
    <glyph glyph-name="y" unicode="y" horiz-adv-x="1107" 
d="M510 -440l-227 0.00195312l159 440l-397 1104h240l231 -750c5.33301 -18.667 10.5 -38.334 15.5 -59.001s8.83301 -38.334 11.5 -53.001c4 -19.333 7.33301 -37.333 10 -54h4c1.33301 18 4 36.667 8 56c2.66699 16 6.16699 33.667 10.5 53s9.83301 38.333 16.5 57
l231 750h240z" />
    <glyph glyph-name="z" unicode="z" horiz-adv-x="921" 
d="M57 0l467 926h-434v178h739l-467 -926h479v-178h-784z" />
    <glyph glyph-name="braceleft" unicode="{" horiz-adv-x="737" 
d="M552 -399c-116 0 -203 31.3311 -261 93.998s-87 150 -87 262c0 39.333 1.66699 73 5 101s7.16602 54.333 11.499 79s8.16602 50.667 11.499 78s5 59.333 5 96c0 61.333 -15 109.5 -45 144.5s-69.667 53.833 -119 56.5v184c49.333 2.66699 89 21.5 119 56.5
s45 83.167 45 144.5c0 36.667 -1.66699 68.667 -5 96s-7.16602 53.333 -11.499 78s-8.16602 51 -11.499 79s-5 61.667 -5 101c0 112 29 199.5 87 262.5s145 94.5 261 94.5h72v-176h-43c-53.333 0 -94.666 -15.167 -123.999 -45.5s-44 -75.5 -44 -135.5
c0 -39.333 1.66699 -73 5 -101s7 -54.333 11 -79s7.83301 -50.667 11.5 -78s5.5 -59.333 5.5 -96c0 -78 -16.167 -141.167 -48.5 -189.5s-77.166 -82.166 -134.499 -101.499v-4c57.333 -19.333 102.166 -53.166 134.499 -101.499s48.5 -111.5 48.5 -189.5
c0 -36.667 -1.83301 -68.667 -5.5 -96s-7.5 -53.333 -11.5 -78s-7.66699 -51 -11 -79s-5 -61.667 -5 -101c0 -60 14.667 -105 44 -135s70.666 -45 123.999 -45h43v-176h-72z" />
    <glyph glyph-name="bar" unicode="|" horiz-adv-x="497" 
d="M141 -440v2048h215v-2048h-215z" />
    <glyph glyph-name="braceright" unicode="}" horiz-adv-x="737" 
d="M663 512c-49.333 -2.66699 -89 -21.498 -119 -56.498s-45 -83.167 -45 -144.5c0 -36.667 1.66699 -68.667 5 -96s7.16602 -53.333 11.499 -78s8.16602 -51 11.499 -79s5 -61.667 5 -101c0 -112 -29 -199.333 -87 -262s-145 -94 -261 -94h-72v176h43
c53.333 0 94.666 15 123.999 45s44 75 44 135c0 39.333 -1.66699 73 -5 101s-7.16602 54.333 -11.499 79s-8.16602 50.667 -11.499 78s-5 59.333 -5 96c0 78 16 141.167 48 189.5s76.667 82.166 134 101.499v4c-57.333 19.333 -102 53.166 -134 101.499s-48 111.5 -48 189.5
c0 36.667 1.66699 68.667 5 96s7.16602 53.333 11.499 78s8.16602 51 11.499 79s5 61.667 5 101c0 60 -14.667 105.167 -44 135.5s-70.666 45.5 -123.999 45.5h-43v176h72c116 0 203 -31.5 261 -94.5s87 -150.5 87 -262.5c0 -39.333 -1.66699 -73 -5 -101
s-7.16602 -54.333 -11.499 -79s-8.16602 -50.667 -11.499 -78s-5 -59.333 -5 -96c0 -61.333 15 -109.5 45 -144.5s69.667 -53.833 119 -56.5v-184v0z" />
    <glyph glyph-name="asciitilde" unicode="~" horiz-adv-x="1169" 
d="M1024 813c-15.333 -65.333 -45.166 -119.167 -89.499 -161.5s-99.833 -63.5 -166.5 -63.5c-37.333 0 -70.666 6.5 -99.999 19.5s-57 27 -83 42s-51.833 29 -77.5 42s-53.5 19.5 -83.5 19.5c-40 0 -74.333 -12 -103 -36s-49.667 -55 -63 -93l-113 88
c15.333 65.333 45.166 118.833 89.499 160.5s99.166 62.5 164.499 62.5c36.667 0 69.667 -6.16699 99 -18.5s57 -26.333 83 -42s52 -29.667 78 -42s54 -18.5 84 -18.5c39.333 0 73.333 11.667 102 35s50 54 64 92l115 -86v0z" />
    <glyph glyph-name="dieresis" unicode="&#xa8;" horiz-adv-x="1024" 
 />
    <glyph glyph-name="copyright" unicode="&#xa9;" horiz-adv-x="1701" 
d="M1595 741c0 -106 -19.167 -205.5 -57.5 -298.5s-90.5 -174 -156.5 -243s-144.5 -123.333 -235.5 -163s-189.167 -59.5 -294.5 -59.5c-106 0 -204.167 19.833 -294.5 59.5s-168.833 94 -235.5 163s-118.834 150 -156.501 243s-56.5 192.5 -56.5 298.5
c0 106.667 18.833 206.5 56.5 299.5s89.834 173.833 156.501 242.5s145.167 122.834 235.5 162.501s188.5 59.5 294.5 59.5c105.333 0 203.5 -19.833 294.5 -59.5s169.5 -93.834 235.5 -162.501s118.167 -149.5 156.5 -242.5s57.5 -192.833 57.5 -299.5zM1451 741
c0 87.333 -15 169.666 -45 246.999s-71.833 144.333 -125.5 201s-117.167 101.334 -190.5 134.001s-153 49 -239 49s-165.5 -16.333 -238.5 -49s-136.5 -77.334 -190.5 -134.001s-96 -123.667 -126 -201s-45 -159.666 -45 -246.999c0 -88.667 15 -171.167 45 -247.5
s72 -142.833 126 -199.5s117.5 -101.334 190.5 -134.001s152.5 -49 238.5 -49s165.667 16.333 239 49s136.833 77.334 190.5 134.001s95.5 123.167 125.5 199.5s45 158.833 45 247.5zM1081 373c-23.333 -16.667 -53.166 -30.5 -89.499 -41.5s-75.5 -16.5 -117.5 -16.5
c-50.667 0 -98.5 9 -143.5 27s-84.167 44.667 -117.5 80s-59.666 80.333 -78.999 135s-29 118.334 -29 191.001c0 72 9.66699 135 29 189s45.666 98.667 78.999 134s72.5 62 117.5 80s92.833 27 143.5 27c42 0 81.167 -5.5 117.5 -16.5s66.166 -24.833 89.499 -41.5
l-53 -108c-16.667 10.667 -37.667 20.167 -63 28.5s-52.333 12.5 -81 12.5c-30 0 -58.667 -5.83301 -86 -17.5s-51.5 -29.834 -72.5 -54.501s-37.667 -56.167 -50 -94.5s-18.5 -84.5 -18.5 -138.5c0 -54.667 6.16699 -101.167 18.5 -139.5s29 -69.833 50 -94.5
s45.167 -42.5 72.5 -53.5s56 -16.5 86 -16.5c28.667 0 55.667 4.16699 81 12.5s46.333 17.833 63 28.5z" />
    <glyph glyph-name="registered" unicode="&#xae;" horiz-adv-x="1308" 
d="M1208 940c0 -79.333 -14 -153.833 -42 -223.5s-67 -130 -117 -181s-108.667 -91.167 -176 -120.5s-140 -44 -218 -44c-79.333 0 -152.833 14.667 -220.5 44s-126.334 69.5 -176.001 120.5s-88.5 111.333 -116.5 181s-42 144.167 -42 223.5s14 153.833 42 223.5
s66.833 130 116.5 181s108.334 91.167 176.001 120.5s141.167 44 220.5 44c78 0 150.667 -14.667 218 -44s126 -69.5 176 -120.5s89 -111.333 117 -181s42 -144.167 42 -223.5zM1095 940c0 64 -10.833 124.333 -32.5 181s-52.334 105.834 -92.001 147.501
s-86.5 74.5 -140.5 98.5s-112.333 36 -175 36c-64 0 -122.667 -12 -176 -36s-99.833 -56.833 -139.5 -98.5s-70.334 -90.834 -92.001 -147.501s-32.5 -117 -32.5 -181s10.833 -124.333 32.5 -181s52.334 -105.834 92.001 -147.501s86.167 -74.5 139.5 -98.5s112 -36 176 -36
c62.667 0 121 12 175 36s100.833 56.833 140.5 98.5s70.334 90.834 92.001 147.501s32.5 117 32.5 181zM794 637l-89.999 203.001c-9.33301 18.667 -20.5 32.5 -33.5 41.5s-31.167 13.5 -54.5 13.5h-51v-258h-111v600c26 10.667 55 19.5 87 26.5s64.667 10.5 98 10.5
c77.333 0 136.833 -16.333 178.5 -49s62.5 -78.667 62.5 -138c0 -43.333 -12.167 -77.333 -36.5 -102s-54.5 -42.334 -90.5 -53.001v-4c23.333 -14 42.666 -37.333 57.999 -70l104 -221h-121zM768.001 1083c0 67.333 -41.667 100.999 -125 100.999
c-15.333 0 -29.5 -0.666992 -42.5 -2s-24.833 -3.33301 -35.5 -6v-195h67c45.333 0 79.333 7.83301 102 23.5s34 41.834 34 78.501z" />
    <glyph glyph-name="acute" unicode="&#xb4;" horiz-adv-x="641" 
d="M352 1233h-153.999l141 268c16.667 19.333 36.167 33 58.5 41s44.5 12 66.5 12s41.167 -4.66699 57.5 -14s27.166 -22.333 32.499 -39z" />
    <glyph glyph-name="paragraph" unicode="&#xb6;" horiz-adv-x="1155" 
d="M866 -440v1775c-32 14 -71.5 24.333 -118.5 31s-89.5 10 -127.5 10c-6.66699 0 -12.5 -0.333008 -17.5 -1s-9.5 -1 -13.5 -1h-12v-1814h-127v1104c-98.667 18.667 -178.667 62.5 -240 131.5s-92 161.5 -92 277.5c0 142 43 249.5 129 322.5s200.667 109.5 344 109.5
c86 0 162.5 -7.16699 229.5 -21.5s125.167 -33.166 174.5 -56.499v-1867h-129z" />
    <glyph glyph-name="ch270" unicode="&#xb7;" horiz-adv-x="751" 
d="M610 666c0 -34.667 -6.16699 -66.667 -18.5 -96s-29 -54.833 -50 -76.5s-45.833 -39 -74.5 -52s-59.667 -19.5 -93 -19.5c-32.667 0 -63 6.5 -91 19.5s-52.5 30.333 -73.5 52s-37.667 47.167 -50 76.5s-18.5 61.333 -18.5 96c0 34 6.16699 65.667 18.5 95
s29 54.833 50 76.5s45.5 39 73.5 52s58.333 19.5 91 19.5c33.333 0 64.333 -6.5 93 -19.5s53.5 -30.333 74.5 -52s37.667 -47.167 50 -76.5s18.5 -61 18.5 -95z" />
    <glyph glyph-name="ch270" unicode="&#x2219;" horiz-adv-x="751" 
d="M610 666c0 -34.667 -6.16699 -66.667 -18.5 -96s-29 -54.833 -50 -76.5s-45.833 -39 -74.5 -52s-59.667 -19.5 -93 -19.5c-32.667 0 -63 6.5 -91 19.5s-52.5 30.333 -73.5 52s-37.667 47.167 -50 76.5s-18.5 61.333 -18.5 96c0 34 6.16699 65.667 18.5 95
s29 54.833 50 76.5s45.5 39 73.5 52s58.333 19.5 91 19.5c33.333 0 64.333 -6.5 93 -19.5s53.5 -30.333 74.5 -52s37.667 -47.167 50 -76.5s18.5 -61 18.5 -95z" />
    <glyph glyph-name="onequarter" unicode="&#xbc;" horiz-adv-x="1665" 
d="M1479 219v-219h-131v219h-385v107l362 542h154v-542h92v-107h-92zM506 -31l-115 66l754 1478l110 -65zM305 614l-0.000976562 697.001c-13.333 -8.66699 -29.666 -16.667 -48.999 -24s-39.5 -14.5 -60.5 -21.5s-42.5 -13.167 -64.5 -18.5s-42.333 -10 -61 -14l-27 117
c53.333 9.33301 108 25.666 164 48.999s99 51.333 129 84h113v-869h-144zM1352 739.001c-4 -10.667 -9 -20.667 -15 -30c-8 -18 -19.333 -38 -34 -60l-213 -323h262v309v35.5c0 11.667 0.666992 23.167 2 34.5c0 12 0.666992 23.333 2 34h-4z" />
    <glyph glyph-name="onehalf" unicode="&#xbd;" horiz-adv-x="1665" 
d="M969 0l367.999 451c20.667 25.333 38.834 51 54.501 77s23.5 54.667 23.5 86c0 44 -14 79.667 -42 107s-69.333 41 -124 41c-30 0 -62.667 -4.16699 -98 -12.5s-66.666 -18.5 -93.999 -30.5l-41 117c36.667 14.667 76.167 26.5 118.5 35.5s83.166 13.5 122.499 13.5
c100 0 175.667 -24 227 -72s77 -111.333 77 -190c0 -48 -12 -92.833 -36 -134.5s-49 -77.5 -75 -107.5l-229 -256h360v-125h-612zM458.999 -31l-115 66l754 1478l110 -65zM304.999 614l-0.000976562 697.001c-13.333 -8.66699 -29.666 -16.667 -48.999 -24
s-39.5 -14.5 -60.5 -21.5s-42.5 -13.167 -64.5 -18.5s-42.333 -10 -61 -14l-27 117c53.333 9.33301 108 25.666 164 48.999s99 51.333 129 84h113v-869h-144z" />
    <glyph glyph-name="threequarters" unicode="&#xbe;" horiz-adv-x="1665" 
d="M1478 219v-219h-131v219h-385v107l363 542h153v-542h93v-107h-93zM555 -31l-115 66l754 1478l110 -65zM1351 739c-4 -10.667 -8.66699 -20.667 -14 -30c-8 -18 -19.667 -38 -35 -60l-213 -323h262v309v35.5c0 11.667 0.666992 23.167 2 34.5c0 12 1 23.333 3 34h-5z
M626 862c0 -80.667 -28.665 -144.833 -85.998 -192.5s-136.333 -71.5 -237 -71.5c-44 0 -87.833 4.5 -131.5 13.5s-83.167 20.833 -118.5 35.5l45 117c27.333 -12.667 59.166 -22.667 95.499 -30s72.833 -11 109.5 -11c57.333 0 101.666 12.333 132.999 37s47 58.667 47 102
c0 46.667 -22.167 83.334 -66.5 110.001s-104.166 40 -179.499 40h-24v108c77.333 4 136.5 19.333 177.5 46s61.5 60 61.5 100c0 73.333 -49 110 -147 110c-31.333 0 -63.5 -3.66699 -96.5 -11s-62.833 -17.333 -89.5 -30l-46 115c37.333 15.333 76.833 27.333 118.5 36
s84.167 13 127.5 13c90 0 158.667 -19.833 206 -59.5s71 -94.167 71 -163.5c0 -44 -14.333 -82.333 -43 -115s-62.334 -57.334 -101.001 -74.001v-4c22 -6.66699 43.333 -16.5 64 -29.5s39.167 -28.667 55.5 -47s29.5 -39.5 39.5 -63.5s15 -51 15 -81z" />
    <glyph glyph-name="Agrave" unicode="&#xc0;" 
d="M1038 0l-127 391h-527l-125 -391h-233l492 1483h260l491 -1483h-231zM692 1116c-7.33301 20.667 -13.667 41.167 -19 61.5s-9.33301 39.5 -12 57.5c-4 19.333 -7.33301 38.333 -10 57h-4c-4.66699 -18.667 -9 -37.667 -13 -57c-4 -18 -8 -37.167 -12 -57.5
s-9.33301 -40.833 -16 -61.5l-177 -553h437zM383.999 1833c4.66699 16.667 15.5 29.667 32.5 39s36.5 14 58.5 14c20 0 41.333 -4 64 -12s42 -21.667 58 -41l142 -268h-127z" />
    <glyph glyph-name="Aacute" unicode="&#xc1;" 
d="M1038 0l-127 391h-527l-125 -391h-233l492 1483h260l491 -1483h-231zM692 1116c-7.33301 20.667 -13.667 41.167 -19 61.5s-9.33301 39.5 -12 57.5c-4 19.333 -7.33301 38.333 -10 57h-4c-4.66699 -18.667 -9 -37.667 -13 -57c-4 -18 -8 -37.167 -12 -57.5
s-9.33301 -40.833 -16 -61.5l-177 -553h437zM684.999 1565h-127l142 268c16 19.333 35.333 33 58 41s44.334 12 65.001 12c21.333 0 40.666 -4.66699 57.999 -14s28 -22.333 32 -39z" />
    <glyph glyph-name="Acircumflex" unicode="&#xc2;" 
d="M1038 0l-127 391h-527l-125 -391h-233l492 1483h260l491 -1483h-231zM692 1116c-7.33301 20.667 -13.667 41.167 -19 61.5s-9.33301 39.5 -12 57.5c-4 19.333 -7.33301 38.333 -10 57h-4c-4.66699 -18.667 -9 -37.667 -13 -57c-4 -18 -8 -37.167 -12 -57.5
s-9.33301 -40.833 -16 -61.5l-177 -553h437zM838.999 1538l-190.002 139l-193 -139l-88 76l201 211c24.667 24.667 51.334 37 80.001 37s54.334 -12.333 77.001 -37l201 -211z" />
    <glyph glyph-name="Atilde" unicode="&#xc3;" 
d="M1038 0l-127 391h-527l-125 -391h-233l492 1483h260l491 -1483h-231zM692 1116c-7.33301 20.667 -13.667 41.167 -19 61.5s-9.33301 39.5 -12 57.5c-4 19.333 -7.33301 38.333 -10 57h-4c-4.66699 -18.667 -9 -37.667 -13 -57c-4 -18 -8 -37.167 -12 -57.5
s-9.33301 -40.833 -16 -61.5l-177 -553h437zM870.999 1656c-40.667 -38.667 -85.001 -59.001 -133.001 -61.001c-24.667 -1.33301 -44.5 2.83398 -59.5 12.501s-28.333 20.334 -40 32.001s-22 21.334 -31 29.001s-23.5 13.167 -43.5 16.5c-24.667 -1.33301 -48 -12 -70 -32
c-13.333 -14 -25.333 -29.333 -36 -46l-84 61c21.333 40.667 47.333 76 78 106c39.333 37.333 83 57 131 59c20.667 0.666992 41.167 -5 61.5 -17s34.333 -22.167 42 -30.5s17.334 -17.333 29.001 -27s26.5 -14.167 44.5 -13.5c24.667 1.33301 47.667 12 69 32
c14 13.333 26.667 29.666 38 48.999l89 -57c-22.667 -42.667 -51 -80.334 -85 -113.001z" />
    <glyph glyph-name="Egrave" unicode="&#xc8;" horiz-adv-x="983" 
d="M143 0v1483h748v-195h-529v-436h481v-190h-481v-467h529v-195h-748zM290 1833c4.66699 16.667 15.5 29.667 32.5 39s36.5 14 58.5 14c20 0 41.333 -4 64 -12s42 -21.667 58 -41l142 -268h-127z" />
    <glyph glyph-name="Eacute" unicode="&#xc9;" horiz-adv-x="983" 
d="M143 0v1483h748v-195h-529v-436h481v-190h-481v-467h529v-195h-748zM556 1565h-127l142 268c16 19.333 35.333 33 58 41s44.334 12 65.001 12c21.333 0 40.666 -4.66699 57.999 -14s28 -22.333 32 -39z" />
    <glyph glyph-name="Ecircumflex" unicode="&#xca;" horiz-adv-x="983" 
d="M143 0v1483h748v-195h-529v-436h481v-190h-481v-467h529v-195h-748zM708 1538l-190.002 139l-193 -139l-88 76l201 211c24.667 24.667 51.334 37 80.001 37s54.334 -12.333 77.001 -37l201 -211z" />
    <glyph glyph-name="Igrave" unicode="&#xcc;" horiz-adv-x="514" 
d="M146 0v1483h223v-1483h-223zM8 1833c4.66699 16.667 15.5 29.667 32.5 39s36.5 14 58.5 14c20 0 41.333 -4 64 -12s42 -21.667 58 -41l142 -268h-127z" />
    <glyph glyph-name="Iacute" unicode="&#xcd;" horiz-adv-x="514" 
d="M145 0v1483h223v-1483h-223zM315 1565h-127l142 268c16 19.333 35.333 33 58 41s44.334 12 65.001 12c21.333 0 40.666 -4.66699 57.999 -14s28 -22.333 32 -39z" />
    <glyph glyph-name="Dslash" unicode="&#xd0;" horiz-adv-x="1265" 
d="M1165 741c0 -125.333 -14.668 -235.831 -44.001 -331.498s-71.333 -175.5 -126 -239.5s-119.834 -112.167 -195.501 -144.5s-160.5 -48.5 -254.5 -48.5c-78 0 -151.167 7.66699 -219.5 23s-122.166 33.666 -161.499 54.999v617h-111v170h111v585
c43.333 23.333 98.5 42.166 165.5 56.499s138.833 21.5 215.5 21.5c94 0 178.833 -16 254.5 -48s140.834 -80 195.501 -144s96.667 -143.833 126 -239.5s44 -206.5 44 -332.5zM945.999 741.002c0 100 -9.83203 185.833 -29.499 257.5s-47 130.667 -82 177
s-76.333 80.5 -124 102.5s-98.834 33 -153.501 33c-35.333 0 -68.833 -2.16699 -100.5 -6.5s-56.834 -11.166 -75.501 -20.499v-442h225v-170h-225v-473c16 -8.66699 39.667 -15.334 71 -20.001s66.333 -7 105 -7c54.667 0 105.834 11 153.501 33s89 56.167 124 102.5
s62.333 105.333 82 177s29.5 157.167 29.5 256.5z" />
    <glyph glyph-name="Dslash" unicode="&#x110;" horiz-adv-x="1265" 
d="M1165 741c0 -125.333 -14.668 -235.831 -44.001 -331.498s-71.333 -175.5 -126 -239.5s-119.834 -112.167 -195.501 -144.5s-160.5 -48.5 -254.5 -48.5c-78 0 -151.167 7.66699 -219.5 23s-122.166 33.666 -161.499 54.999v617h-111v170h111v585
c43.333 23.333 98.5 42.166 165.5 56.499s138.833 21.5 215.5 21.5c94 0 178.833 -16 254.5 -48s140.834 -80 195.501 -144s96.667 -143.833 126 -239.5s44 -206.5 44 -332.5zM945.999 741.002c0 100 -9.83203 185.833 -29.499 257.5s-47 130.667 -82 177
s-76.333 80.5 -124 102.5s-98.834 33 -153.501 33c-35.333 0 -68.833 -2.16699 -100.5 -6.5s-56.834 -11.166 -75.501 -20.499v-442h225v-170h-225v-473c16 -8.66699 39.667 -15.334 71 -20.001s66.333 -7 105 -7c54.667 0 105.834 11 153.501 33s89 56.167 124 102.5
s62.333 105.333 82 177s29.5 157.167 29.5 256.5z" />
    <glyph glyph-name="Ograve" unicode="&#xd2;" 
d="M1198 741c0 -106 -11.333 -205.5 -34 -298.5s-56.834 -174 -102.501 -243s-103 -123.333 -172 -163s-149.167 -59.5 -240.5 -59.5c-92.667 0 -173.167 19.833 -241.5 59.5s-125.333 94 -171 163s-79.834 150 -102.501 243s-34 192.5 -34 298.5
c0 106.667 11.333 206.5 34 299.5s56.834 173.833 102.501 242.5s102.667 122.834 171 162.501s148.833 59.5 241.5 59.5c91.333 0 171.5 -19.833 240.5 -59.5s126.333 -93.834 172 -162.501s79.834 -149.5 102.501 -242.5s34 -192.833 34 -299.5zM974 741
c0 80.667 -6.66699 155.167 -20 223.5s-34 127.5 -62 177.5s-62.167 88.833 -102.5 116.5s-87.166 41.5 -140.499 41.5s-100.5 -13.833 -141.5 -41.5s-75.5 -66.5 -103.5 -116.5s-48.833 -109.167 -62.5 -177.5s-20.5 -142.833 -20.5 -223.5
c0 -80 6.83301 -154.167 20.5 -222.5s34.5 -127.5 62.5 -177.5s62.5 -89 103.5 -117s88.167 -42 141.5 -42s100.166 14 140.499 42s74.5 67 102.5 117s48.667 109.167 62 177.5s20 142.5 20 222.5zM427 1833c4.66699 16.667 15.5 29.667 32.5 39s36.5 14 58.5 14
c20 0 41.333 -4 64 -12s42 -21.667 58 -41l142 -268h-127z" />
    <glyph glyph-name="Oacute" unicode="&#xd3;" 
d="M1198 741c0 -106 -11.333 -205.5 -34 -298.5s-56.834 -174 -102.501 -243s-103 -123.333 -172 -163s-149.167 -59.5 -240.5 -59.5c-92.667 0 -173.167 19.833 -241.5 59.5s-125.333 94 -171 163s-79.834 150 -102.501 243s-34 192.5 -34 298.5
c0 106.667 11.333 206.5 34 299.5s56.834 173.833 102.501 242.5s102.667 122.834 171 162.501s148.833 59.5 241.5 59.5c91.333 0 171.5 -19.833 240.5 -59.5s126.333 -93.834 172 -162.501s79.834 -149.5 102.501 -242.5s34 -192.833 34 -299.5zM974 741
c0 80.667 -6.66699 155.167 -20 223.5s-34 127.5 -62 177.5s-62.167 88.833 -102.5 116.5s-87.166 41.5 -140.499 41.5s-100.5 -13.833 -141.5 -41.5s-75.5 -66.5 -103.5 -116.5s-48.833 -109.167 -62.5 -177.5s-20.5 -142.833 -20.5 -223.5
c0 -80 6.83301 -154.167 20.5 -222.5s34.5 -127.5 62.5 -177.5s62.5 -89 103.5 -117s88.167 -42 141.5 -42s100.166 14 140.499 42s74.5 67 102.5 117s48.667 109.167 62 177.5s20 142.5 20 222.5zM623 1565h-127l142 268c16 19.333 35.333 33 58 41s44.334 12 65.001 12
c21.333 0 40.666 -4.66699 57.999 -14s28 -22.333 32 -39z" />
    <glyph glyph-name="Ocircumflex" unicode="&#xd4;" 
d="M1198 741c0 -106 -11.333 -205.5 -34 -298.5s-56.834 -174 -102.501 -243s-103 -123.333 -172 -163s-149.167 -59.5 -240.5 -59.5c-92.667 0 -173.167 19.833 -241.5 59.5s-125.333 94 -171 163s-79.834 150 -102.501 243s-34 192.5 -34 298.5
c0 106.667 11.333 206.5 34 299.5s56.834 173.833 102.501 242.5s102.667 122.834 171 162.501s148.833 59.5 241.5 59.5c91.333 0 171.5 -19.833 240.5 -59.5s126.333 -93.834 172 -162.501s79.834 -149.5 102.501 -242.5s34 -192.833 34 -299.5zM974 741
c0 80.667 -6.66699 155.167 -20 223.5s-34 127.5 -62 177.5s-62.167 88.833 -102.5 116.5s-87.166 41.5 -140.499 41.5s-100.5 -13.833 -141.5 -41.5s-75.5 -66.5 -103.5 -116.5s-48.833 -109.167 -62.5 -177.5s-20.5 -142.833 -20.5 -223.5
c0 -80 6.83301 -154.167 20.5 -222.5s34.5 -127.5 62.5 -177.5s62.5 -89 103.5 -117s88.167 -42 141.5 -42s100.166 14 140.499 42s74.5 67 102.5 117s48.667 109.167 62 177.5s20 142.5 20 222.5zM840 1538l-190.002 139l-193 -139l-88 76l201 211
c24.667 24.667 51.334 37 80.001 37s54.334 -12.333 77.001 -37l201 -211z" />
    <glyph glyph-name="Otilde" unicode="&#xd5;" 
d="M1198 741c0 -106 -11.333 -205.5 -34 -298.5s-56.834 -174 -102.501 -243s-103 -123.333 -172 -163s-149.167 -59.5 -240.5 -59.5c-92.667 0 -173.167 19.833 -241.5 59.5s-125.333 94 -171 163s-79.834 150 -102.501 243s-34 192.5 -34 298.5
c0 106.667 11.333 206.5 34 299.5s56.834 173.833 102.501 242.5s102.667 122.834 171 162.501s148.833 59.5 241.5 59.5c91.333 0 171.5 -19.833 240.5 -59.5s126.333 -93.834 172 -162.501s79.834 -149.5 102.501 -242.5s34 -192.833 34 -299.5zM974 741
c0 80.667 -6.66699 155.167 -20 223.5s-34 127.5 -62 177.5s-62.167 88.833 -102.5 116.5s-87.166 41.5 -140.499 41.5s-100.5 -13.833 -141.5 -41.5s-75.5 -66.5 -103.5 -116.5s-48.833 -109.167 -62.5 -177.5s-20.5 -142.833 -20.5 -223.5
c0 -80 6.83301 -154.167 20.5 -222.5s34.5 -127.5 62.5 -177.5s62.5 -89 103.5 -117s88.167 -42 141.5 -42s100.166 14 140.499 42s74.5 67 102.5 117s48.667 109.167 62 177.5s20 142.5 20 222.5zM836 1656c-40.667 -38.667 -85.001 -59.001 -133.001 -61.001
c-24.667 -1.33301 -44.5 2.83398 -59.5 12.501s-28.333 20.334 -40 32.001s-22 21.334 -31 29.001s-23.5 13.167 -43.5 16.5c-24.667 -1.33301 -48 -12 -70 -32c-13.333 -14 -25.333 -29.333 -36 -46l-84 61c21.333 40.667 47.333 76 78 106c39.333 37.333 83 57 131 59
c20.667 0.666992 41.167 -5 61.5 -17s34.333 -22.167 42 -30.5s17.334 -17.333 29.001 -27s26.5 -14.167 44.5 -13.5c24.667 1.33301 47.667 12 69 32c14 13.333 26.667 29.666 38 48.999l89 -57c-22.667 -42.667 -51 -80.334 -85 -113.001z" />
    <glyph glyph-name="Ugrave" unicode="&#xd9;" horiz-adv-x="1234" 
d="M1091 432c0 -72 -12.333 -136 -37 -192s-58 -103.167 -100 -141.5s-92.167 -67.666 -150.5 -87.999s-120.833 -30.5 -187.5 -30.5s-128.667 10.167 -186 30.5s-107.166 49.666 -149.499 87.999s-75.833 85.5 -100.5 141.5s-37 120 -37 192v1051h223v-1053
c0 -79.333 24.333 -141.166 73 -185.499s107.667 -66.5 177 -66.5c71.333 0 131.166 22.167 179.499 66.5s72.5 106.166 72.5 185.499v1053h223v-1051v0zM350 1833c4.66699 16.667 15.5 29.667 32.5 39s36.5 14 58.5 14c20 0 41.333 -4 64 -12s42 -21.667 58 -41l142 -268
h-127z" />
    <glyph glyph-name="Uacute" unicode="&#xda;" horiz-adv-x="1234" 
d="M1091 432c0 -72 -12.333 -136 -37 -192s-58 -103.167 -100 -141.5s-92.167 -67.666 -150.5 -87.999s-120.833 -30.5 -187.5 -30.5s-128.667 10.167 -186 30.5s-107.166 49.666 -149.499 87.999s-75.833 85.5 -100.5 141.5s-37 120 -37 192v1051h223v-1053
c0 -79.333 24.333 -141.166 73 -185.499s107.667 -66.5 177 -66.5c71.333 0 131.166 22.167 179.499 66.5s72.5 106.166 72.5 185.499v1053h223v-1051v0zM633 1565h-127l142 268c16 19.333 35.333 33 58 41s44.334 12 65.001 12c21.333 0 40.666 -4.66699 57.999 -14
s28 -22.333 32 -39z" />
    <glyph glyph-name="Yacute" unicode="&#xdd;" horiz-adv-x="1157" 
d="M690 588v-588h-224v588l-438 895h242l307 -662h4l307 662h240zM633 1565h-127l142 268c16 19.333 35.333 33 58 41s44.334 12 65.001 12c21.333 0 40.666 -4.66699 57.999 -14s28 -22.333 32 -39z" />
    <glyph glyph-name="agrave" unicode="&#xe0;" horiz-adv-x="1052" 
d="M919 55c-38.667 -21.333 -93.1699 -39.666 -163.503 -54.999s-142.833 -23 -217.5 -23c-153.333 0 -268.166 30.5 -344.499 91.5s-114.5 146.167 -114.5 255.5c0 76 18.167 138 54.5 186s84.166 85.667 143.499 113s126.833 46.666 202.5 57.999
s153.834 19.333 234.501 24v69c0 70 -20.167 119 -60.5 147s-94.5 42 -162.5 42c-50.667 0 -103.334 -6.83301 -158.001 -20.5s-99.667 -29.5 -135 -47.5l-56 154c42.667 18.667 97.167 36.167 163.5 52.5s135.5 24.5 207.5 24.5c62.667 0 119.334 -6.83301 170.001 -20.5
s93.334 -35.167 128.001 -64.5s61.334 -67.833 80.001 -115.5s28 -105.5 28 -173.5v-697zM713.997 555c-53.333 -2.66699 -106.001 -7.16504 -158.001 -13.498s-98.5 -17 -139.5 -32s-73.667 -36.833 -98 -65.5s-36.5 -67.334 -36.5 -116.001
c0 -58.667 21.167 -104.834 63.5 -138.501s104.5 -50.5 186.5 -50.5c35.333 0 70.333 2.83301 105 8.5s60.334 12.5 77.001 20.5v387zM254.996 1491c4.66699 16.667 15.5 29.667 32.5 39s36.5 14 58.5 14c20 0 41.333 -4 64 -12s42 -21.667 58 -41l142 -268h-127z" />
    <glyph glyph-name="aacute" unicode="&#xe1;" horiz-adv-x="1052" 
d="M919 55c-38.667 -21.333 -93.1699 -39.666 -163.503 -54.999s-142.833 -23 -217.5 -23c-153.333 0 -268.166 30.5 -344.499 91.5s-114.5 146.167 -114.5 255.5c0 76 18.167 138 54.5 186s84.166 85.667 143.499 113s126.833 46.666 202.5 57.999
s153.834 19.333 234.501 24v69c0 70 -20.167 119 -60.5 147s-94.5 42 -162.5 42c-50.667 0 -103.334 -6.83301 -158.001 -20.5s-99.667 -29.5 -135 -47.5l-56 154c42.667 18.667 97.167 36.167 163.5 52.5s135.5 24.5 207.5 24.5c62.667 0 119.334 -6.83301 170.001 -20.5
s93.334 -35.167 128.001 -64.5s61.334 -67.833 80.001 -115.5s28 -105.5 28 -173.5v-697zM713.997 555c-53.333 -2.66699 -106.001 -7.16504 -158.001 -13.498s-98.5 -17 -139.5 -32s-73.667 -36.833 -98 -65.5s-36.5 -67.334 -36.5 -116.001
c0 -58.667 21.167 -104.834 63.5 -138.501s104.5 -50.5 186.5 -50.5c35.333 0 70.333 2.83301 105 8.5s60.334 12.5 77.001 20.5v387zM494.996 1222h-127l142 268c16 19.333 35.333 33 58 41s44.334 12 65.001 12c21.333 0 40.666 -4.66699 57.999 -14s28 -22.333 32 -39z
" />
    <glyph glyph-name="acircumflex" unicode="&#xe2;" horiz-adv-x="1052" 
d="M919 55c-38.667 -21.333 -93.1699 -39.666 -163.503 -54.999s-142.833 -23 -217.5 -23c-153.333 0 -268.166 30.5 -344.499 91.5s-114.5 146.167 -114.5 255.5c0 76 18.167 138 54.5 186s84.166 85.667 143.499 113s126.833 46.666 202.5 57.999
s153.834 19.333 234.501 24v69c0 70 -20.167 119 -60.5 147s-94.5 42 -162.5 42c-50.667 0 -103.334 -6.83301 -158.001 -20.5s-99.667 -29.5 -135 -47.5l-56 154c42.667 18.667 97.167 36.167 163.5 52.5s135.5 24.5 207.5 24.5c62.667 0 119.334 -6.83301 170.001 -20.5
s93.334 -35.167 128.001 -64.5s61.334 -67.833 80.001 -115.5s28 -105.5 28 -173.5v-697zM713.997 555c-53.333 -2.66699 -106.001 -7.16504 -158.001 -13.498s-98.5 -17 -139.5 -32s-73.667 -36.833 -98 -65.5s-36.5 -67.334 -36.5 -116.001
c0 -58.667 21.167 -104.834 63.5 -138.501s104.5 -50.5 186.5 -50.5c35.333 0 70.333 2.83301 105 8.5s60.334 12.5 77.001 20.5v387zM710.996 1178l-190.002 139l-193 -139l-88 76l201 211c24.667 24.667 51.334 37 80.001 37s54.334 -12.333 77.001 -37l201 -211z" />
    <glyph glyph-name="atilde" unicode="&#xe3;" horiz-adv-x="1052" 
d="M919 55c-38.667 -21.333 -93.1699 -39.666 -163.503 -54.999s-142.833 -23 -217.5 -23c-153.333 0 -268.166 30.5 -344.499 91.5s-114.5 146.167 -114.5 255.5c0 76 18.167 138 54.5 186s84.166 85.667 143.499 113s126.833 46.666 202.5 57.999
s153.834 19.333 234.501 24v69c0 70 -20.167 119 -60.5 147s-94.5 42 -162.5 42c-50.667 0 -103.334 -6.83301 -158.001 -20.5s-99.667 -29.5 -135 -47.5l-56 154c42.667 18.667 97.167 36.167 163.5 52.5s135.5 24.5 207.5 24.5c62.667 0 119.334 -6.83301 170.001 -20.5
s93.334 -35.167 128.001 -64.5s61.334 -67.833 80.001 -115.5s28 -105.5 28 -173.5v-697zM713.997 555c-53.333 -2.66699 -106.001 -7.16504 -158.001 -13.498s-98.5 -17 -139.5 -32s-73.667 -36.833 -98 -65.5s-36.5 -67.334 -36.5 -116.001
c0 -58.667 21.167 -104.834 63.5 -138.501s104.5 -50.5 186.5 -50.5c35.333 0 70.333 2.83301 105 8.5s60.334 12.5 77.001 20.5v387zM740.996 1270c-40.667 -38.667 -85.001 -59.001 -133.001 -61.001c-24.667 -1.33301 -44.5 2.83398 -59.5 12.501
s-28.333 20.334 -40 32.001s-22 21.334 -31 29.001s-23.5 13.167 -43.5 16.5c-24.667 -1.33301 -48 -12 -70 -32c-13.333 -14 -25.333 -29.333 -36 -46l-84 61c21.333 40.667 47.333 76 78 106c39.333 37.333 83 57 131 59c20.667 0.666992 41.167 -5 61.5 -17
s34.333 -22.167 42 -30.5s17.334 -17.333 29.001 -27s26.5 -14.167 44.5 -13.5c24.667 1.33301 47.667 12 69 32c14 13.333 26.667 29.666 38 48.999l89 -57c-22.667 -42.667 -51 -80.334 -85 -113.001z" />
    <glyph glyph-name="egrave" unicode="&#xe8;" horiz-adv-x="1101" 
d="M1007 557l-703.998 -102.001c10.667 -100 44.667 -174.833 102 -224.5s131.333 -74.5 222 -74.5c52.667 0 105.667 6.16699 159 18.5s97.666 28.5 132.999 48.5l64 -168c-41.333 -23.333 -94.666 -42.166 -159.999 -56.499s-135 -21.5 -209 -21.5
c-84.667 0 -159.334 13.333 -224.001 40s-118.834 65.334 -162.501 116.001s-77.167 111.167 -100.5 181.5s-35 149.833 -35 238.5c0 84.667 11 162.167 33 232.5s53.333 130.666 94 180.999s90.834 89.5 150.501 117.5s126.167 42 199.5 42
c139.333 0 247.166 -43.667 323.499 -131s114.5 -205.333 114.5 -354v-84zM803.002 675.999c-1.33301 96.667 -23.166 168.667 -65.499 216s-99.833 71 -172.5 71c-82 0 -147.833 -31.167 -197.5 -93.5s-75.834 -151.5 -78.501 -267.5zM306.002 1491
c4.66699 16.667 15.5 29.667 32.5 39s36.5 14 58.5 14c20 0 41.333 -4 64 -12s42 -21.667 58 -41l142 -268h-127z" />
    <glyph glyph-name="eacute" unicode="&#xe9;" horiz-adv-x="1101" 
d="M1007 557l-703.998 -102.001c10.667 -100 44.667 -174.833 102 -224.5s131.333 -74.5 222 -74.5c52.667 0 105.667 6.16699 159 18.5s97.666 28.5 132.999 48.5l64 -168c-41.333 -23.333 -94.666 -42.166 -159.999 -56.499s-135 -21.5 -209 -21.5
c-84.667 0 -159.334 13.333 -224.001 40s-118.834 65.334 -162.501 116.001s-77.167 111.167 -100.5 181.5s-35 149.833 -35 238.5c0 84.667 11 162.167 33 232.5s53.333 130.666 94 180.999s90.834 89.5 150.501 117.5s126.167 42 199.5 42
c139.333 0 247.166 -43.667 323.499 -131s114.5 -205.333 114.5 -354v-84zM803.002 675.999c-1.33301 96.667 -23.166 168.667 -65.499 216s-99.833 71 -172.5 71c-82 0 -147.833 -31.167 -197.5 -93.5s-75.834 -151.5 -78.501 -267.5zM586.002 1222h-127l142 268
c16 19.333 35.333 33 58 41s44.334 12 65.001 12c21.333 0 40.666 -4.66699 57.999 -14s28 -22.333 32 -39z" />
    <glyph glyph-name="ecircumflex" unicode="&#xea;" horiz-adv-x="1101" 
d="M1007 557l-703.998 -102.001c10.667 -100 44.667 -174.833 102 -224.5s131.333 -74.5 222 -74.5c52.667 0 105.667 6.16699 159 18.5s97.666 28.5 132.999 48.5l64 -168c-41.333 -23.333 -94.666 -42.166 -159.999 -56.499s-135 -21.5 -209 -21.5
c-84.667 0 -159.334 13.333 -224.001 40s-118.834 65.334 -162.501 116.001s-77.167 111.167 -100.5 181.5s-35 149.833 -35 238.5c0 84.667 11 162.167 33 232.5s53.333 130.666 94 180.999s90.834 89.5 150.501 117.5s126.167 42 199.5 42
c139.333 0 247.166 -43.667 323.499 -131s114.5 -205.333 114.5 -354v-84zM803.002 675.999c-1.33301 96.667 -23.166 168.667 -65.499 216s-99.833 71 -172.5 71c-82 0 -147.833 -31.167 -197.5 -93.5s-75.834 -151.5 -78.501 -267.5zM771.002 1178l-190.002 139l-193 -139
l-88 76l201 211c24.667 24.667 51.334 37 80.001 37s54.334 -12.333 77.001 -37l201 -211z" />
    <glyph glyph-name="igrave" unicode="&#xec;" horiz-adv-x="491" 
d="M136 0v1104h217v-1104h-217zM5 1491c4.66699 16.667 15.5 29.667 32.5 39s36.5 14 58.5 14c20 0 41.333 -4 64 -12s42 -21.667 58 -41l142 -268h-127z" />
    <glyph glyph-name="iacute" unicode="&#xed;" horiz-adv-x="491" 
d="M136 0v1104h217v-1104h-217zM267 1222h-127l142 268c16 19.333 35.333 33 58 41s44.334 12 65.001 12c21.333 0 40.666 -4.66699 57.999 -14s28 -22.333 32 -39z" />
    <glyph glyph-name="ograve" unicode="&#xf2;" horiz-adv-x="1116" 
d="M1024 553c0 -82 -10.333 -158.167 -31 -228.5s-50.334 -131 -89.001 -182s-87 -91.333 -145 -121s-124.667 -44.5 -200 -44.5s-142 14.833 -200 44.5s-106.833 70 -146.5 121s-69.667 111.667 -90 182s-30.5 146.5 -30.5 228.5s10.167 157.833 30.5 227.5
s50.333 130 90 181s88.5 91.167 146.5 120.5s124.667 44 200 44s142 -14.667 200 -44s106.333 -69.5 145 -120.5s68.334 -111.333 89.001 -181s31 -145.5 31 -227.5zM809 555c0 120 -20.833 215.501 -62.5 286.501s-104.167 106.5 -187.5 106.5
c-84.667 0 -147.5 -35.833 -188.5 -107.5s-61.5 -166.834 -61.5 -285.501s20.5 -214.167 61.5 -286.5s103.833 -108.5 188.5 -108.5c83.333 0 145.833 36.167 187.5 108.5s62.5 167.833 62.5 286.5zM339 1491c4.66699 16.667 15.5 29.667 32.5 39s36.5 14 58.5 14
c20 0 41.333 -4 64 -12s42 -21.667 58 -41l142 -268h-127z" />
    <glyph glyph-name="oacute" unicode="&#xf3;" horiz-adv-x="1116" 
d="M1024 553c0 -82 -10.333 -158.167 -31 -228.5s-50.334 -131 -89.001 -182s-87 -91.333 -145 -121s-124.667 -44.5 -200 -44.5s-142 14.833 -200 44.5s-106.833 70 -146.5 121s-69.667 111.667 -90 182s-30.5 146.5 -30.5 228.5s10.167 157.833 30.5 227.5
s50.333 130 90 181s88.5 91.167 146.5 120.5s124.667 44 200 44s142 -14.667 200 -44s106.333 -69.5 145 -120.5s68.334 -111.333 89.001 -181s31 -145.5 31 -227.5zM809 555c0 120 -20.833 215.501 -62.5 286.501s-104.167 106.5 -187.5 106.5
c-84.667 0 -147.5 -35.833 -188.5 -107.5s-61.5 -166.834 -61.5 -285.501s20.5 -214.167 61.5 -286.5s103.833 -108.5 188.5 -108.5c83.333 0 145.833 36.167 187.5 108.5s62.5 167.833 62.5 286.5zM559 1222h-127l142 268c16 19.333 35.333 33 58 41s44.334 12 65.001 12
c21.333 0 40.666 -4.66699 57.999 -14s28 -22.333 32 -39z" />
    <glyph glyph-name="ocircumflex" unicode="&#xf4;" horiz-adv-x="1116" 
d="M1024 553c0 -82 -10.333 -158.167 -31 -228.5s-50.334 -131 -89.001 -182s-87 -91.333 -145 -121s-124.667 -44.5 -200 -44.5s-142 14.833 -200 44.5s-106.833 70 -146.5 121s-69.667 111.667 -90 182s-30.5 146.5 -30.5 228.5s10.167 157.833 30.5 227.5
s50.333 130 90 181s88.5 91.167 146.5 120.5s124.667 44 200 44s142 -14.667 200 -44s106.333 -69.5 145 -120.5s68.334 -111.333 89.001 -181s31 -145.5 31 -227.5zM809 555c0 120 -20.833 215.501 -62.5 286.501s-104.167 106.5 -187.5 106.5
c-84.667 0 -147.5 -35.833 -188.5 -107.5s-61.5 -166.834 -61.5 -285.501s20.5 -214.167 61.5 -286.5s103.833 -108.5 188.5 -108.5c83.333 0 145.833 36.167 187.5 108.5s62.5 167.833 62.5 286.5zM749 1178l-190.002 139l-193 -139l-88 76l201 211
c24.667 24.667 51.334 37 80.001 37s54.334 -12.333 77.001 -37l201 -211z" />
    <glyph glyph-name="otilde" unicode="&#xf5;" horiz-adv-x="1116" 
d="M1024 553c0 -82 -10.333 -158.167 -31 -228.5s-50.334 -131 -89.001 -182s-87 -91.333 -145 -121s-124.667 -44.5 -200 -44.5s-142 14.833 -200 44.5s-106.833 70 -146.5 121s-69.667 111.667 -90 182s-30.5 146.5 -30.5 228.5s10.167 157.833 30.5 227.5
s50.333 130 90 181s88.5 91.167 146.5 120.5s124.667 44 200 44s142 -14.667 200 -44s106.333 -69.5 145 -120.5s68.334 -111.333 89.001 -181s31 -145.5 31 -227.5zM809 555c0 120 -20.833 215.501 -62.5 286.501s-104.167 106.5 -187.5 106.5
c-84.667 0 -147.5 -35.833 -188.5 -107.5s-61.5 -166.834 -61.5 -285.501s20.5 -214.167 61.5 -286.5s103.833 -108.5 188.5 -108.5c83.333 0 145.833 36.167 187.5 108.5s62.5 167.833 62.5 286.5zM775 1270c-40.667 -38.667 -85.001 -59.001 -133.001 -61.001
c-24.667 -1.33301 -44.5 2.83398 -59.5 12.501s-28.333 20.334 -40 32.001s-22 21.334 -31 29.001s-23.5 13.167 -43.5 16.5c-24.667 -1.33301 -48 -12 -70 -32c-13.333 -14 -25.333 -29.333 -36 -46l-84 61c21.333 40.667 47.333 76 78 106c39.333 37.333 83 57 131 59
c20.667 0.666992 41.167 -5 61.5 -17s34.333 -22.167 42 -30.5s17.334 -17.333 29.001 -27s26.5 -14.167 44.5 -13.5c24.667 1.33301 47.667 12 69 32c14 13.333 26.667 29.666 38 48.999l89 -57c-22.667 -42.667 -51 -80.334 -85 -113.001z" />
    <glyph glyph-name="divide" unicode="&#xf7;" horiz-adv-x="1095" 
d="M664 1018c0 -34 -11 -62.667 -33 -86s-49.333 -35 -82 -35s-60.667 11.667 -84 35s-35 52 -35 86s11.667 63 35 87s51.333 36 84 36s60 -12 82 -36s33 -53 33 -87zM129 586v159h836v-159h-836zM664 313c0 -34 -11 -63 -33 -87s-49.333 -36 -82 -36s-60.667 12 -84 36
s-35 53 -35 87c0 34.667 11.667 63.5 35 86.5s51.333 34.5 84 34.5s60 -11.5 82 -34.5s33 -51.833 33 -86.5z" />
    <glyph glyph-name="glyph217" unicode="&#xf9;" horiz-adv-x="1095" 
d="M962 55c-43.333 -23.333 -100.833 -42.167 -172.5 -56.5s-147.834 -21.5 -228.501 -21.5c-140.667 0 -247.5 31.5 -320.5 94.5s-109.5 164.167 -109.5 303.5v729h215v-733c0 -139.333 71.667 -209 215 -209c41.333 0 78.333 3 111 9s58.334 13.333 77.001 22v911h213
v-1049v0zM288 1491c4.66699 16.667 15.5 29.667 32.5 39s36.5 14 58.5 14c20 0 41.333 -4 64 -12s42 -21.667 58 -41l142 -268h-127z" />
    <glyph glyph-name="glyph218" unicode="&#xfa;" horiz-adv-x="1095" 
d="M962 55c-43.333 -23.333 -100.833 -42.167 -172.5 -56.5s-147.834 -21.5 -228.501 -21.5c-140.667 0 -247.5 31.5 -320.5 94.5s-109.5 164.167 -109.5 303.5v729h215v-733c0 -139.333 71.667 -209 215 -209c41.333 0 78.333 3 111 9s58.334 13.333 77.001 22v911h213
v-1049v0zM559 1222h-127l142 268c16 19.333 35.333 33 58 41s44.334 12 65.001 12c21.333 0 40.666 -4.66699 57.999 -14s28 -22.333 32 -39z" />
    <glyph glyph-name="glyph235" unicode="&#xfd;" horiz-adv-x="1107" 
d="M510 -440l-227 0.00195312l159 440l-397 1104h240l231 -750c5.33301 -18.667 10.5 -38.334 15.5 -59.001s8.83301 -38.334 11.5 -53.001c4 -19.333 7.33301 -37.333 10 -54h4c1.33301 18 4 36.667 8 56c2.66699 16 6.16699 33.667 10.5 53s9.83301 38.333 16.5 57
l231 750h240zM602 1222h-127l142 268c16 19.333 35.333 33 58 41s44.334 12 65.001 12c21.333 0 40.666 -4.66699 57.999 -14s28 -22.333 32 -39z" />
    <glyph glyph-name="Abreve" unicode="&#x102;" 
d="M1038 0l-127 391h-527l-125 -391h-233l492 1483h260l491 -1483h-231zM692 1116c-7.33301 20.667 -13.667 41.167 -19 61.5s-9.33301 39.5 -12 57.5c-4 19.333 -7.33301 38.333 -10 57h-4c-4.66699 -18.667 -9 -37.667 -13 -57c-4 -18 -8 -37.167 -12 -57.5
s-9.33301 -40.833 -16 -61.5l-177 -553h437zM539.999 1785c24.667 -29.333 60.999 -43.999 108.999 -43.999c47.333 0 83.333 15 108 45c14 16 25 37.667 33 65l129 -26c-12.667 -58.667 -36 -107.334 -70 -146.001c-47.333 -51.333 -114 -77 -200 -77
c-87.333 0 -154.666 25.667 -201.999 77c-34.667 38 -58 86 -70 144l128 31c8 -28 19.667 -51 35 -69z" />
    <glyph glyph-name="abreve" unicode="&#x103;" horiz-adv-x="1052" 
d="M919 55c-38.667 -21.333 -93.1699 -39.666 -163.503 -54.999s-142.833 -23 -217.5 -23c-153.333 0 -268.166 30.5 -344.499 91.5s-114.5 146.167 -114.5 255.5c0 76 18.167 138 54.5 186s84.166 85.667 143.499 113s126.833 46.666 202.5 57.999
s153.834 19.333 234.501 24v69c0 70 -20.167 119 -60.5 147s-94.5 42 -162.5 42c-50.667 0 -103.334 -6.83301 -158.001 -20.5s-99.667 -29.5 -135 -47.5l-56 154c42.667 18.667 97.167 36.167 163.5 52.5s135.5 24.5 207.5 24.5c62.667 0 119.334 -6.83301 170.001 -20.5
s93.334 -35.167 128.001 -64.5s61.334 -67.833 80.001 -115.5s28 -105.5 28 -173.5v-697zM713.997 555c-53.333 -2.66699 -106.001 -7.16504 -158.001 -13.498s-98.5 -17 -139.5 -32s-73.667 -36.833 -98 -65.5s-36.5 -67.334 -36.5 -116.001
c0 -58.667 21.167 -104.834 63.5 -138.501s104.5 -50.5 186.5 -50.5c35.333 0 70.333 2.83301 105 8.5s60.334 12.5 77.001 20.5v387zM395.996 1383c24.667 -29.333 60.998 -43.999 108.998 -43.999c47.333 0 83.333 15 108 45c14 16 25 37.667 33 65l129 -26
c-12 -58.667 -35.333 -107.334 -70 -146.001c-47.333 -51.333 -114 -77 -200 -77c-87.333 0 -154.666 25.667 -201.999 77c-34.667 38 -58 86 -70 144l128 31c8.66699 -28 20.334 -51 35.001 -69z" />
    <glyph glyph-name="Ccaron" unicode="&#x10c;" horiz-adv-x="1274" 
 />
    <glyph glyph-name="ccaron" unicode="&#x10d;" horiz-adv-x="922" 
 />
    <glyph glyph-name="dcroat" unicode="&#x111;" horiz-adv-x="1105" 
d="M973 1280v-1225c-36 -20 -86.667 -38 -152 -54s-135.666 -24 -210.999 -24c-83.333 0 -157 13 -221 39s-118.167 63.667 -162.5 113s-77.833 108.833 -100.5 178.5s-34 148.167 -34 235.5c0 84.667 10.5 162.167 31.5 232.5s52.667 130.333 95 180s94 88.5 155 116.5
s131.833 42 212.5 42c32.667 0 64.667 -2.66699 96 -8s56.666 -11.666 75.999 -18.999v193h-308v135h308v193h215v-193h139v-135h-139zM758 917.999c-15.333 6.66699 -37.332 12.334 -65.999 17.001s-57.334 7 -86.001 7c-49.333 0 -92.333 -9.83301 -129 -29.5
s-67.334 -47.334 -92.001 -83.001s-43.5 -78 -56.5 -127s-19.5 -102.167 -19.5 -159.5c0 -122 25.333 -217 76 -285s124.334 -102 221.001 -102c28.667 0 57.667 3 87 9s51 12.333 65 19v734z" />
    <glyph glyph-name="Itilde" unicode="&#x128;" horiz-adv-x="514" 
d="M146 0v1483h223v-1483h-223zM486 1656c-40.667 -38.667 -85.001 -59.001 -133.001 -61.001c-24.667 -1.33301 -44.5 2.83398 -59.5 12.501s-28.333 20.334 -40 32.001s-22 21.334 -31 29.001s-23.5 13.167 -43.5 16.5c-24.667 -1.33301 -48 -12 -70 -32
c-13.333 -14 -25.333 -29.333 -36 -46l-84 61c21.333 40.667 47.333 76 78 106c39.333 37.333 83 57 131 59c20.667 0.666992 41.167 -5 61.5 -17s34.333 -22.167 42 -30.5s17.334 -17.333 29.001 -27s26.5 -14.167 44.5 -13.5c24.667 1.33301 47.667 12 69 32
c14 13.333 26.667 29.666 38 48.999l89 -57c-22.667 -42.667 -51 -80.334 -85 -113.001z" />
    <glyph glyph-name="itilde" unicode="&#x129;" horiz-adv-x="491" 
d="M136 0v1104h217v-1104h-217zM482 1270c-40.667 -38.667 -85.001 -59.001 -133.001 -61.001c-24.667 -1.33301 -44.5 2.83398 -59.5 12.501s-28.333 20.334 -40 32.001s-22 21.334 -31 29.001s-23.5 13.167 -43.5 16.5c-24.667 -1.33301 -48 -12 -70 -32
c-13.333 -14 -25.333 -29.333 -36 -46l-84 61c21.333 40.667 47.333 76 78 106c39.333 37.333 83 57 131 59c20.667 0.666992 41.167 -5 61.5 -17s34.333 -22.167 42 -30.5s17.334 -17.333 29.001 -27s26.5 -14.167 44.5 -13.5c24.667 1.33301 47.667 12 69 32
c14 13.333 26.667 29.666 38 48.999l89 -57c-22.667 -42.667 -51 -80.334 -85 -113.001z" />
    <glyph glyph-name="Utilde" unicode="&#x168;" horiz-adv-x="1234" 
d="M1091 432c0 -72 -12.333 -136 -37 -192s-58 -103.167 -100 -141.5s-92.167 -67.666 -150.5 -87.999s-120.833 -30.5 -187.5 -30.5s-128.667 10.167 -186 30.5s-107.166 49.666 -149.499 87.999s-75.833 85.5 -100.5 141.5s-37 120 -37 192v1051h223v-1053
c0 -79.333 24.333 -141.166 73 -185.499s107.667 -66.5 177 -66.5c71.333 0 131.166 22.167 179.499 66.5s72.5 106.166 72.5 185.499v1053h223v-1051v0zM836 1656c-40.667 -38.667 -85.001 -59.001 -133.001 -61.001c-24.667 -1.33301 -44.5 2.83398 -59.5 12.501
s-28.333 20.334 -40 32.001s-22 21.334 -31 29.001s-23.5 13.167 -43.5 16.5c-24.667 -1.33301 -48 -12 -70 -32c-13.333 -14 -25.333 -29.333 -36 -46l-84 61c21.333 40.667 47.333 76 78 106c39.333 37.333 83 57 131 59c20.667 0.666992 41.167 -5 61.5 -17
s34.333 -22.167 42 -30.5s17.334 -17.333 29.001 -27s26.5 -14.167 44.5 -13.5c24.667 1.33301 47.667 12 69 32c14 13.333 26.667 29.666 38 48.999l89 -57c-22.667 -42.667 -51 -80.334 -85 -113.001z" />
    <glyph glyph-name="utilde" unicode="&#x169;" horiz-adv-x="1095" 
d="M962 55c-43.333 -23.333 -100.833 -42.167 -172.5 -56.5s-147.834 -21.5 -228.501 -21.5c-140.667 0 -247.5 31.5 -320.5 94.5s-109.5 164.167 -109.5 303.5v729h215v-733c0 -139.333 71.667 -209 215 -209c41.333 0 78.333 3 111 9s58.334 13.333 77.001 22v911h213
v-1049v0zM775 1270c-40.667 -38.667 -85.001 -59.001 -133.001 -61.001c-24.667 -1.33301 -44.5 2.83398 -59.5 12.501s-28.333 20.334 -40 32.001s-22 21.334 -31 29.001s-23.5 13.167 -43.5 16.5c-24.667 -1.33301 -48 -12 -70 -32c-13.333 -14 -25.333 -29.333 -36 -46
l-84 61c21.333 40.667 47.333 76 78 106c39.333 37.333 83 57 131 59c20.667 0.666992 41.167 -5 61.5 -17s34.333 -22.167 42 -30.5s17.334 -17.333 29.001 -27s26.5 -14.167 44.5 -13.5c24.667 1.33301 47.667 12 69 32c14 13.333 26.667 29.666 38 48.999l89 -57
c-22.667 -42.667 -51 -80.334 -85 -113.001z" />
    <glyph glyph-name="Ohorn" unicode="&#x1a0;" 
d="M1198 741c0 -106 -11.333 -205.5 -34 -298.5s-56.834 -174 -102.501 -243s-103 -123.333 -172 -163s-149.167 -59.5 -240.5 -59.5c-92.667 0 -173.167 19.833 -241.5 59.5s-125.333 94 -171 163s-79.834 150 -102.501 243s-34 192.5 -34 298.5
c0 106.667 11.333 206.5 34 299.5s56.834 173.833 102.501 242.5s102.667 122.834 171 162.501s148.833 59.5 241.5 59.5c91.333 0 171.5 -19.833 240.5 -59.5s126.333 -93.834 172 -162.501s79.834 -149.5 102.501 -242.5s34 -192.833 34 -299.5zM974 741
c0 80.667 -6.66699 155.167 -20 223.5s-34 127.5 -62 177.5s-62.167 88.833 -102.5 116.5s-87.166 41.5 -140.499 41.5s-100.5 -13.833 -141.5 -41.5s-75.5 -66.5 -103.5 -116.5s-48.833 -109.167 -62.5 -177.5s-20.5 -142.833 -20.5 -223.5
c0 -80 6.83301 -154.167 20.5 -222.5s34.5 -127.5 62.5 -177.5s62.5 -89 103.5 -117s88.167 -42 141.5 -42s100.166 14 140.499 42s74.5 67 102.5 117s48.667 109.167 62 177.5s20 142.5 20 222.5zM895 1291l159 295.001c19.333 16.667 42.166 28.834 68.499 36.501
s56.833 8.16699 91.5 1.5c33.333 -6.66699 56.333 -18.334 69 -35.001s18.334 -34.334 17.001 -53.001l-320 -359z" />
    <glyph glyph-name="ohorn" unicode="&#x1a1;" horiz-adv-x="1116" 
d="M1024 553c0 -82 -10.333 -158.167 -31 -228.5s-50.334 -131 -89.001 -182s-87 -91.333 -145 -121s-124.667 -44.5 -200 -44.5s-142 14.833 -200 44.5s-106.833 70 -146.5 121s-69.667 111.667 -90 182s-30.5 146.5 -30.5 228.5s10.167 157.833 30.5 227.5
s50.333 130 90 181s88.5 91.167 146.5 120.5s124.667 44 200 44s142 -14.667 200 -44s106.333 -69.5 145 -120.5s68.334 -111.333 89.001 -181s31 -145.5 31 -227.5zM809 555c0 120 -20.833 215.501 -62.5 286.501s-104.167 106.5 -187.5 106.5
c-84.667 0 -147.5 -35.833 -188.5 -107.5s-61.5 -166.834 -61.5 -285.501s20.5 -214.167 61.5 -286.5s103.833 -108.5 188.5 -108.5c83.333 0 145.833 36.167 187.5 108.5s62.5 167.833 62.5 286.5zM761 1044l97 165.001c19.333 16.667 42.166 28.834 68.499 36.501
s56.833 8.16699 91.5 1.5c33.333 -6.66699 56.333 -18.334 69 -35.001s18.334 -34.334 17.001 -53.001l-320 -359z" />
    <glyph glyph-name="Uhorn" unicode="&#x1af;" horiz-adv-x="1234" 
d="M1091 432c0 -72 -12.333 -136 -37 -192s-58 -103.167 -100 -141.5s-92.167 -67.666 -150.5 -87.999s-120.833 -30.5 -187.5 -30.5s-128.667 10.167 -186 30.5s-107.166 49.666 -149.499 87.999s-75.833 85.5 -100.5 141.5s-37 120 -37 192v1051h223v-1053
c0 -79.333 24.333 -141.166 73 -185.499s107.667 -66.5 177 -66.5c71.333 0 131.166 22.167 179.499 66.5s72.5 106.166 72.5 185.499v1053h223v-1051v0zM980 1470l74 116.001c19.333 16.667 42.166 28.834 68.499 36.501s56.833 8.16699 91.5 1.5
c33.333 -6.66699 56.333 -18.334 69 -35.001s18.334 -34.334 17.001 -53.001l-320 -359v293z" />
    <glyph glyph-name="uhorn" unicode="&#x1b0;" horiz-adv-x="1095" 
d="M962 55c-43.333 -23.333 -100.833 -42.167 -172.5 -56.5s-147.834 -21.5 -228.501 -21.5c-140.667 0 -247.5 31.5 -320.5 94.5s-109.5 164.167 -109.5 303.5v729h215v-733c0 -139.333 71.667 -209 215 -209c41.333 0 78.333 3 111 9s58.334 13.333 77.001 22v911h213
v-1049v0zM820 1044l97 165.001c19.333 16.667 42.166 28.834 68.499 36.501s56.833 8.16699 91.5 1.5c33.333 -6.66699 56.333 -18.334 69 -35.001s18.334 -34.334 17.001 -53.001l-320 -359z" />
    <glyph glyph-name="uni1EA0" unicode="&#x1ea0;" 
d="M1038 0l-127 391h-527l-125 -391h-233l492 1483h260l491 -1483h-231zM692 1116c-7.33301 20.667 -13.667 41.167 -19 61.5s-9.33301 39.5 -12 57.5c-4 19.333 -7.33301 38.333 -10 57h-4c-4.66699 -18.667 -9 -37.667 -13 -57c-4 -18 -8 -37.167 -12 -57.5
s-9.33301 -40.833 -16 -61.5l-177 -553h437zM760.999 -181c0 -31.333 -10.833 -57.666 -32.5 -78.999s-48.167 -32 -79.5 -32c-32 0 -59.167 10.667 -81.5 32s-33.5 47.666 -33.5 78.999s11.167 57.666 33.5 78.999s49.5 32 81.5 32c31.333 0 57.833 -10.667 79.5 -32
s32.5 -47.666 32.5 -78.999z" />
    <glyph glyph-name="uni1EA1" unicode="&#x1ea1;" horiz-adv-x="1052" 
d="M919 55c-38.667 -21.333 -93.1699 -39.666 -163.503 -54.999s-142.833 -23 -217.5 -23c-153.333 0 -268.166 30.5 -344.499 91.5s-114.5 146.167 -114.5 255.5c0 76 18.167 138 54.5 186s84.166 85.667 143.499 113s126.833 46.666 202.5 57.999
s153.834 19.333 234.501 24v69c0 70 -20.167 119 -60.5 147s-94.5 42 -162.5 42c-50.667 0 -103.334 -6.83301 -158.001 -20.5s-99.667 -29.5 -135 -47.5l-56 154c42.667 18.667 97.167 36.167 163.5 52.5s135.5 24.5 207.5 24.5c62.667 0 119.334 -6.83301 170.001 -20.5
s93.334 -35.167 128.001 -64.5s61.334 -67.833 80.001 -115.5s28 -105.5 28 -173.5v-697zM713.997 555c-53.333 -2.66699 -106.001 -7.16504 -158.001 -13.498s-98.5 -17 -139.5 -32s-73.667 -36.833 -98 -65.5s-36.5 -67.334 -36.5 -116.001
c0 -58.667 21.167 -104.834 63.5 -138.501s104.5 -50.5 186.5 -50.5c35.333 0 70.333 2.83301 105 8.5s60.334 12.5 77.001 20.5v387zM606.996 -198.998c0 -31.333 -10.833 -57.666 -32.5 -78.999s-48.167 -32 -79.5 -32c-32 0 -59.167 10.667 -81.5 32
s-33.5 47.666 -33.5 78.999s11.167 57.666 33.5 78.999s49.5 32 81.5 32c31.333 0 57.833 -10.667 79.5 -32s32.5 -47.666 32.5 -78.999z" />
    <glyph glyph-name="uni1EA2" unicode="&#x1ea2;" 
d="M1038 0l-127 391h-527l-125 -391h-233l492 1483h260l491 -1483h-231zM692 1116c-7.33301 20.667 -13.667 41.167 -19 61.5s-9.33301 39.5 -12 57.5c-4 19.333 -7.33301 38.333 -10 57h-4c-4.66699 -18.667 -9 -37.667 -13 -57c-4 -18 -8 -37.167 -12 -57.5
s-9.33301 -40.833 -16 -61.5l-177 -553h437zM482.999 1906c38 30.667 88.0049 49.6689 150.005 57.002c61.333 2.66699 111.666 -12.833 150.999 -46.5s59 -77.5 59 -131.5c0 -22.667 -4.5 -43 -13.5 -61s-20.833 -34.5 -35.5 -49.5s-31.167 -27.833 -49.5 -38.5
s-33.833 -18.334 -46.5 -23.001l-4 -68h-112l-6 123c23.333 5.33301 42.666 11.166 57.999 17.499s28.666 14 39.999 23s20.666 19.5 27.999 31.5s11 25.667 11 41c0 28 -7.83301 48.833 -23.5 62.5s-36.834 18.834 -63.501 15.501s-47 -8.83301 -61 -16.5
s-28 -16.834 -42 -27.501z" />
    <glyph glyph-name="uni1EA3" unicode="&#x1ea3;" horiz-adv-x="1052" 
d="M919 55c-38.667 -21.333 -93.1699 -39.666 -163.503 -54.999s-142.833 -23 -217.5 -23c-153.333 0 -268.166 30.5 -344.499 91.5s-114.5 146.167 -114.5 255.5c0 76 18.167 138 54.5 186s84.166 85.667 143.499 113s126.833 46.666 202.5 57.999
s153.834 19.333 234.501 24v69c0 70 -20.167 119 -60.5 147s-94.5 42 -162.5 42c-50.667 0 -103.334 -6.83301 -158.001 -20.5s-99.667 -29.5 -135 -47.5l-56 154c42.667 18.667 97.167 36.167 163.5 52.5s135.5 24.5 207.5 24.5c62.667 0 119.334 -6.83301 170.001 -20.5
s93.334 -35.167 128.001 -64.5s61.334 -67.833 80.001 -115.5s28 -105.5 28 -173.5v-697zM713.997 555c-53.333 -2.66699 -106.001 -7.16504 -158.001 -13.498s-98.5 -17 -139.5 -32s-73.667 -36.833 -98 -65.5s-36.5 -67.334 -36.5 -116.001
c0 -58.667 21.167 -104.834 63.5 -138.501s104.5 -50.5 186.5 -50.5c35.333 0 70.333 2.83301 105 8.5s60.334 12.5 77.001 20.5v387zM352.996 1579c38 30.667 88.0049 49.6689 150.005 57.002c61.333 2.66699 111.666 -12.833 150.999 -46.5s59 -77.5 59 -131.5
c0 -22.667 -4.5 -43 -13.5 -61s-20.833 -34.5 -35.5 -49.5s-31.167 -27.833 -49.5 -38.5s-33.833 -18.334 -46.5 -23.001l-4 -68h-112l-6 123c23.333 5.33301 42.666 11.166 57.999 17.499s28.666 14 39.999 23s20.666 19.5 27.999 31.5s11 25.667 11 41
c0 28 -7.83301 48.833 -23.5 62.5s-36.834 18.834 -63.501 15.501s-47 -8.83301 -61 -16.5s-28 -16.834 -42 -27.501z" />
    <glyph glyph-name="uni1EA4" unicode="&#x1ea4;" 
d="M1038 0l-127 391h-527l-125 -391h-233l492 1483h260l491 -1483h-231zM692 1116c-7.33301 20.667 -13.667 41.167 -19 61.5s-9.33301 39.5 -12 57.5c-4 19.333 -7.33301 38.333 -10 57h-4c-4.66699 -18.667 -9 -37.667 -13 -57c-4 -18 -8 -37.167 -12 -57.5
s-9.33301 -40.833 -16 -61.5l-177 -553h437zM953.999 1777h-127l142 268c16 19.333 35.333 33 58 41s44.334 12 65.001 12c21.333 0 40.666 -4.66699 57.999 -14s28 -22.333 32 -39zM838.999 1538l-190.002 139l-193 -139l-88 76l201 211c24.667 24.667 51.334 37 80.001 37
s54.334 -12.333 77.001 -37l201 -211z" />
    <glyph glyph-name="uni1EA5" unicode="&#x1ea5;" horiz-adv-x="1052" 
d="M919 55c-38.667 -21.333 -93.1699 -39.666 -163.503 -54.999s-142.833 -23 -217.5 -23c-153.333 0 -268.166 30.5 -344.499 91.5s-114.5 146.167 -114.5 255.5c0 76 18.167 138 54.5 186s84.166 85.667 143.499 113s126.833 46.666 202.5 57.999
s153.834 19.333 234.501 24v69c0 70 -20.167 119 -60.5 147s-94.5 42 -162.5 42c-50.667 0 -103.334 -6.83301 -158.001 -20.5s-99.667 -29.5 -135 -47.5l-56 154c42.667 18.667 97.167 36.167 163.5 52.5s135.5 24.5 207.5 24.5c62.667 0 119.334 -6.83301 170.001 -20.5
s93.334 -35.167 128.001 -64.5s61.334 -67.833 80.001 -115.5s28 -105.5 28 -173.5v-697zM713.997 555c-53.333 -2.66699 -106.001 -7.16504 -158.001 -13.498s-98.5 -17 -139.5 -32s-73.667 -36.833 -98 -65.5s-36.5 -67.334 -36.5 -116.001
c0 -58.667 21.167 -104.834 63.5 -138.501s104.5 -50.5 186.5 -50.5c35.333 0 70.333 2.83301 105 8.5s60.334 12.5 77.001 20.5v387zM871.996 1376h-127l142 268c16 19.333 35.333 33 58 41s44.334 12 65.001 12c21.333 0 40.666 -4.66699 57.999 -14s28 -22.333 32 -39z
M710.996 1178l-190.002 139l-193 -139l-88 76l201 211c24.667 24.667 51.334 37 80.001 37s54.334 -12.333 77.001 -37l201 -211z" />
    <glyph glyph-name="uni1EA6" unicode="&#x1ea6;" 
d="M1038 0l-127 391h-527l-125 -391h-233l492 1483h260l491 -1483h-231zM692 1116c-7.33301 20.667 -13.667 41.167 -19 61.5s-9.33301 39.5 -12 57.5c-4 19.333 -7.33301 38.333 -10 57h-4c-4.66699 -18.667 -9 -37.667 -13 -57c-4 -18 -8 -37.167 -12 -57.5
s-9.33301 -40.833 -16 -61.5l-177 -553h437zM672.999 2025c4.66699 16.667 15.5 29.666 32.5 39c17 9.33301 36.5 14 58.5 14c20 0 41.333 -4 64 -12s42 -21.667 58 -41l142 -268h-127zM838.999 1538l-190.002 139l-193 -139l-88 76l201 211
c24.667 24.667 51.334 37 80.001 37s54.334 -12.333 77.001 -37l201 -211z" />
    <glyph glyph-name="uni1EA7" unicode="&#x1ea7;" horiz-adv-x="1052" 
d="M919 55c-38.667 -21.333 -93.1699 -39.666 -163.503 -54.999s-142.833 -23 -217.5 -23c-153.333 0 -268.166 30.5 -344.499 91.5s-114.5 146.167 -114.5 255.5c0 76 18.167 138 54.5 186s84.166 85.667 143.499 113s126.833 46.666 202.5 57.999
s153.834 19.333 234.501 24v69c0 70 -20.167 119 -60.5 147s-94.5 42 -162.5 42c-50.667 0 -103.334 -6.83301 -158.001 -20.5s-99.667 -29.5 -135 -47.5l-56 154c42.667 18.667 97.167 36.167 163.5 52.5s135.5 24.5 207.5 24.5c62.667 0 119.334 -6.83301 170.001 -20.5
s93.334 -35.167 128.001 -64.5s61.334 -67.833 80.001 -115.5s28 -105.5 28 -173.5v-697zM713.997 555c-53.333 -2.66699 -106.001 -7.16504 -158.001 -13.498s-98.5 -17 -139.5 -32s-73.667 -36.833 -98 -65.5s-36.5 -67.334 -36.5 -116.001
c0 -58.667 21.167 -104.834 63.5 -138.501s104.5 -50.5 186.5 -50.5c35.333 0 70.333 2.83301 105 8.5s60.334 12.5 77.001 20.5v387zM537.996 1646c4.66699 16.667 15.5 29.667 32.5 39s36.5 14 58.5 14c20 0 41.333 -4 64 -12s42 -21.667 58 -41l142 -268h-127z
M710.996 1178l-190.002 139l-193 -139l-88 76l201 211c24.667 24.667 51.334 37 80.001 37s54.334 -12.333 77.001 -37l201 -211z" />
    <glyph glyph-name="uni1EA8" unicode="&#x1ea8;" 
d="M1038 0l-127 391h-527l-125 -391h-233l492 1483h260l491 -1483h-231zM692 1116c-7.33301 20.667 -13.667 41.167 -19 61.5s-9.33301 39.5 -12 57.5c-4 19.333 -7.33301 38.333 -10 57h-4c-4.66699 -18.667 -9 -37.667 -13 -57c-4 -18 -8 -37.167 -12 -57.5
s-9.33301 -40.833 -16 -61.5l-177 -553h437zM766.999 2098c38 30.667 88.0049 49.6689 150.005 57.002c61.333 2.66699 111.666 -12.833 150.999 -46.5s59 -77.5 59 -131.5c0 -22.667 -4.5 -43 -13.5 -61s-20.833 -34.5 -35.5 -49.5s-31.167 -27.833 -49.5 -38.5
s-33.833 -18.334 -46.5 -23.001l-4 -68h-112l-6 123c23.333 5.33301 42.666 11.166 57.999 17.499s28.666 14 39.999 23s20.666 19.5 27.999 31.5s11 25.667 11 41c0 28 -7.83301 48.833 -23.5 62.5s-36.834 18.834 -63.501 15.501s-47 -8.83301 -61 -16.5
s-28 -16.834 -42 -27.501zM839.004 1538l-190.002 139l-193 -139l-88 76l201 211c24.667 24.667 51.334 37 80.001 37s54.334 -12.333 77.001 -37l201 -211z" />
    <glyph glyph-name="uni1EA9" unicode="&#x1ea9;" horiz-adv-x="1052" 
d="M919 55c-38.667 -21.333 -93.1699 -39.666 -163.503 -54.999s-142.833 -23 -217.5 -23c-153.333 0 -268.166 30.5 -344.499 91.5s-114.5 146.167 -114.5 255.5c0 76 18.167 138 54.5 186s84.166 85.667 143.499 113s126.833 46.666 202.5 57.999
s153.834 19.333 234.501 24v69c0 70 -20.167 119 -60.5 147s-94.5 42 -162.5 42c-50.667 0 -103.334 -6.83301 -158.001 -20.5s-99.667 -29.5 -135 -47.5l-56 154c42.667 18.667 97.167 36.167 163.5 52.5s135.5 24.5 207.5 24.5c62.667 0 119.334 -6.83301 170.001 -20.5
s93.334 -35.167 128.001 -64.5s61.334 -67.833 80.001 -115.5s28 -105.5 28 -173.5v-697zM713.997 555c-53.333 -2.66699 -106.001 -7.16504 -158.001 -13.498s-98.5 -17 -139.5 -32s-73.667 -36.833 -98 -65.5s-36.5 -67.334 -36.5 -116.001
c0 -58.667 21.167 -104.834 63.5 -138.501s104.5 -50.5 186.5 -50.5c35.333 0 70.333 2.83301 105 8.5s60.334 12.5 77.001 20.5v387zM634.996 1733c38 30.667 88.0049 49.6689 150.005 57.002c61.333 2.66699 111.666 -12.833 150.999 -46.5s59 -77.5 59 -131.5
c0 -22.667 -4.5 -43 -13.5 -61s-20.833 -34.5 -35.5 -49.5s-31.167 -27.833 -49.5 -38.5s-33.833 -18.334 -46.5 -23.001l-4 -68h-112l-6 123c23.333 5.33301 42.666 11.166 57.999 17.499s28.666 14 39.999 23s20.666 19.5 27.999 31.5s11 25.667 11 41
c0 28 -7.83301 48.833 -23.5 62.5s-36.834 18.834 -63.501 15.501s-47 -8.83301 -61 -16.5s-28 -16.834 -42 -27.501zM711.001 1178l-190.002 139l-193 -139l-88 76l201 211c24.667 24.667 51.334 37 80.001 37s54.334 -12.333 77.001 -37l201 -211z" />
    <glyph glyph-name="uni1EAA" unicode="&#x1eaa;" 
d="M1038 0l-127 391h-527l-125 -391h-233l492 1483h260l491 -1483h-231zM692 1116c-7.33301 20.667 -13.667 41.167 -19 61.5s-9.33301 39.5 -12 57.5c-4 19.333 -7.33301 38.333 -10 57h-4c-4.66699 -18.667 -9 -37.667 -13 -57c-4 -18 -8 -37.167 -12 -57.5
s-9.33301 -40.833 -16 -61.5l-177 -553h437zM949.999 1945c-40.667 -38.667 -85.001 -59.001 -133.001 -61.001c-24.667 -1.33301 -44.5 2.83398 -59.5 12.501s-28.333 20.334 -40 32.001s-22 21.334 -31 29.001s-23.5 13.167 -43.5 16.5c-24.667 -1.33301 -48 -12 -70 -32
c-13.333 -14 -25.333 -29.333 -36 -46l-84 61c21.333 40.667 47.333 76 78 106c39.333 37.333 83 57 131 59c20.667 0.666992 41.167 -5 61.5 -17s34.333 -22.167 42 -30.5s17.334 -17.333 29.001 -27s26.5 -14.167 44.5 -13.5c24.667 1.33301 47.667 12 69 32
c14 13.333 26.667 29.666 38 48.999l89 -57c-22.667 -42.667 -51 -80.334 -85 -113.001zM838.998 1538l-190.002 139l-193 -139l-88 76l201 211c24.667 24.667 51.334 37 80.001 37s54.334 -12.333 77.001 -37l201 -211z" />
    <glyph glyph-name="uni1EAB" unicode="&#x1eab;" horiz-adv-x="1052" 
d="M919 55c-38.667 -21.333 -93.1699 -39.666 -163.503 -54.999s-142.833 -23 -217.5 -23c-153.333 0 -268.166 30.5 -344.499 91.5s-114.5 146.167 -114.5 255.5c0 76 18.167 138 54.5 186s84.166 85.667 143.499 113s126.833 46.666 202.5 57.999
s153.834 19.333 234.501 24v69c0 70 -20.167 119 -60.5 147s-94.5 42 -162.5 42c-50.667 0 -103.334 -6.83301 -158.001 -20.5s-99.667 -29.5 -135 -47.5l-56 154c42.667 18.667 97.167 36.167 163.5 52.5s135.5 24.5 207.5 24.5c62.667 0 119.334 -6.83301 170.001 -20.5
s93.334 -35.167 128.001 -64.5s61.334 -67.833 80.001 -115.5s28 -105.5 28 -173.5v-697zM713.997 555c-53.333 -2.66699 -106.001 -7.16504 -158.001 -13.498s-98.5 -17 -139.5 -32s-73.667 -36.833 -98 -65.5s-36.5 -67.334 -36.5 -116.001
c0 -58.667 21.167 -104.834 63.5 -138.501s104.5 -50.5 186.5 -50.5c35.333 0 70.333 2.83301 105 8.5s60.334 12.5 77.001 20.5v387zM799.996 1571c-40.667 -38.667 -85.001 -59.001 -133.001 -61.001c-24.667 -1.33301 -44.5 2.83398 -59.5 12.501
s-28.333 20.334 -40 32.001s-22 21.334 -31 29.001s-23.5 13.167 -43.5 16.5c-24.667 -1.33301 -48 -12 -70 -32c-13.333 -14 -25.333 -29.333 -36 -46l-84 61c21.333 40.667 47.333 76 78 106c39.333 37.333 83 57 131 59c20.667 0.666992 41.167 -5 61.5 -17
s34.333 -22.167 42 -30.5s17.334 -17.333 29.001 -27s26.5 -14.167 44.5 -13.5c24.667 1.33301 47.667 12 69 32c14 13.333 26.667 29.666 38 48.999l89 -57c-22.667 -42.667 -51 -80.334 -85 -113.001zM710.995 1178l-190.002 139l-193 -139l-88 76l201 211
c24.667 24.667 51.334 37 80.001 37s54.334 -12.333 77.001 -37l201 -211z" />
    <glyph glyph-name="uni1EAC" unicode="&#x1eac;" 
d="M1038 0l-127 391h-527l-125 -391h-233l492 1483h260l491 -1483h-231zM692 1116c-7.33301 20.667 -13.667 41.167 -19 61.5s-9.33301 39.5 -12 57.5c-4 19.333 -7.33301 38.333 -10 57h-4c-4.66699 -18.667 -9 -37.667 -13 -57c-4 -18 -8 -37.167 -12 -57.5
s-9.33301 -40.833 -16 -61.5l-177 -553h437zM760.999 -181c0 -31.333 -10.833 -57.666 -32.5 -78.999s-48.167 -32 -79.5 -32c-32 0 -59.167 10.667 -81.5 32s-33.5 47.666 -33.5 78.999s11.167 57.666 33.5 78.999s49.5 32 81.5 32c31.333 0 57.833 -10.667 79.5 -32
s32.5 -47.666 32.5 -78.999zM838.999 1538l-190.002 139l-193 -139l-88 76l201 211c24.667 24.667 51.334 37 80.001 37s54.334 -12.333 77.001 -37l201 -211z" />
    <glyph glyph-name="uni1EAD" unicode="&#x1ead;" horiz-adv-x="1052" 
d="M919 55c-38.667 -21.333 -93.1699 -39.666 -163.503 -54.999s-142.833 -23 -217.5 -23c-153.333 0 -268.166 30.5 -344.499 91.5s-114.5 146.167 -114.5 255.5c0 76 18.167 138 54.5 186s84.166 85.667 143.499 113s126.833 46.666 202.5 57.999
s153.834 19.333 234.501 24v69c0 70 -20.167 119 -60.5 147s-94.5 42 -162.5 42c-50.667 0 -103.334 -6.83301 -158.001 -20.5s-99.667 -29.5 -135 -47.5l-56 154c42.667 18.667 97.167 36.167 163.5 52.5s135.5 24.5 207.5 24.5c62.667 0 119.334 -6.83301 170.001 -20.5
s93.334 -35.167 128.001 -64.5s61.334 -67.833 80.001 -115.5s28 -105.5 28 -173.5v-697zM713.997 555c-53.333 -2.66699 -106.001 -7.16504 -158.001 -13.498s-98.5 -17 -139.5 -32s-73.667 -36.833 -98 -65.5s-36.5 -67.334 -36.5 -116.001
c0 -58.667 21.167 -104.834 63.5 -138.501s104.5 -50.5 186.5 -50.5c35.333 0 70.333 2.83301 105 8.5s60.334 12.5 77.001 20.5v387zM606.996 -198.998c0 -31.333 -10.833 -57.666 -32.5 -78.999s-48.167 -32 -79.5 -32c-32 0 -59.167 10.667 -81.5 32
s-33.5 47.666 -33.5 78.999s11.167 57.666 33.5 78.999s49.5 32 81.5 32c31.333 0 57.833 -10.667 79.5 -32s32.5 -47.666 32.5 -78.999zM710.996 1178l-190.002 139l-193 -139l-88 76l201 211c24.667 24.667 51.334 37 80.001 37s54.334 -12.333 77.001 -37l201 -211z" />
    <glyph glyph-name="uni1EAE" unicode="&#x1eae;" 
d="M1038 0l-127 391h-527l-125 -391h-233l492 1483h260l491 -1483h-231zM692 1116c-7.33301 20.667 -13.667 41.167 -19 61.5s-9.33301 39.5 -12 57.5c-4 19.333 -7.33301 38.333 -10 57h-4c-4.66699 -18.667 -9 -37.667 -13 -57c-4 -18 -8 -37.167 -12 -57.5
s-9.33301 -40.833 -16 -61.5l-177 -553h437zM714.999 1837h-127l142 268c16 19.333 35.333 33 58 41s44.334 12 65.001 12c21.333 0 40.666 -4.66699 57.999 -14s28 -22.333 32 -39zM540.999 1785c24.667 -29.333 60.666 -43.999 107.999 -43.999c48 0 84.333 15 109 45
c13.333 16 24.333 37.667 33 65l129 -26c-12.667 -58.667 -36 -107.334 -70 -146.001c-48 -51.333 -115 -77 -201 -77c-87.333 0 -154.666 25.667 -201.999 77c-34 38 -57 86 -69 144l128 31c8 -28 19.667 -51 35 -69z" />
    <glyph glyph-name="uni1EAF" unicode="&#x1eaf;" horiz-adv-x="1052" 
d="M919 55c-38.667 -21.333 -93.1699 -39.666 -163.503 -54.999s-142.833 -23 -217.5 -23c-153.333 0 -268.166 30.5 -344.499 91.5s-114.5 146.167 -114.5 255.5c0 76 18.167 138 54.5 186s84.166 85.667 143.499 113s126.833 46.666 202.5 57.999
s153.834 19.333 234.501 24v69c0 70 -20.167 119 -60.5 147s-94.5 42 -162.5 42c-50.667 0 -103.334 -6.83301 -158.001 -20.5s-99.667 -29.5 -135 -47.5l-56 154c42.667 18.667 97.167 36.167 163.5 52.5s135.5 24.5 207.5 24.5c62.667 0 119.334 -6.83301 170.001 -20.5
s93.334 -35.167 128.001 -64.5s61.334 -67.833 80.001 -115.5s28 -105.5 28 -173.5v-697zM713.997 555c-53.333 -2.66699 -106.001 -7.16504 -158.001 -13.498s-98.5 -17 -139.5 -32s-73.667 -36.833 -98 -65.5s-36.5 -67.334 -36.5 -116.001
c0 -58.667 21.167 -104.834 63.5 -138.501s104.5 -50.5 186.5 -50.5c35.333 0 70.333 2.83301 105 8.5s60.334 12.5 77.001 20.5v387zM571.996 1462h-127l142 268c16 19.333 35.333 33 58 41s44.334 12 65.001 12c21.333 0 40.666 -4.66699 57.999 -14s28 -22.333 32 -39z
M396.996 1383c24.667 -29.333 60.999 -43.999 108.999 -43.999c47.333 0 83.333 15 108 45c14 16 25 37.667 33 65l129 -26c-12.667 -58.667 -36 -107.334 -70 -146.001c-47.333 -51.333 -114 -77 -200 -77c-87.333 0 -154.666 25.667 -201.999 77
c-34.667 38 -58 86 -70 144l128 31c8 -28 19.667 -51 35 -69z" />
    <glyph glyph-name="uni1EB0" unicode="&#x1eb0;" 
d="M1038 0l-127 391h-527l-125 -391h-233l492 1483h260l491 -1483h-231zM692 1116c-7.33301 20.667 -13.667 41.167 -19 61.5s-9.33301 39.5 -12 57.5c-4 19.333 -7.33301 38.333 -10 57h-4c-4.66699 -18.667 -9 -37.667 -13 -57c-4 -18 -8 -37.167 -12 -57.5
s-9.33301 -40.833 -16 -61.5l-177 -553h437zM376.999 2128c4.66699 16.667 15.5 29.667 32.5 39s36.5 14 58.5 14c20 0 41.333 -4 64 -12s42 -21.667 58 -41l142 -268h-127zM540.999 1785c24.667 -29.333 60.666 -43.999 107.999 -43.999c48 0 84.333 15 109 45
c13.333 16 24.333 37.667 33 65l129 -26c-12.667 -58.667 -36 -107.334 -70 -146.001c-48 -51.333 -115 -77 -201 -77c-87.333 0 -154.666 25.667 -201.999 77c-34 38 -57 86 -69 144l128 31c8 -28 19.667 -51 35 -69z" />
    <glyph glyph-name="uni1EB1" unicode="&#x1eb1;" horiz-adv-x="1052" 
d="M919 55c-38.667 -21.333 -93.1699 -39.666 -163.503 -54.999s-142.833 -23 -217.5 -23c-153.333 0 -268.166 30.5 -344.499 91.5s-114.5 146.167 -114.5 255.5c0 76 18.167 138 54.5 186s84.166 85.667 143.499 113s126.833 46.666 202.5 57.999
s153.834 19.333 234.501 24v69c0 70 -20.167 119 -60.5 147s-94.5 42 -162.5 42c-50.667 0 -103.334 -6.83301 -158.001 -20.5s-99.667 -29.5 -135 -47.5l-56 154c42.667 18.667 97.167 36.167 163.5 52.5s135.5 24.5 207.5 24.5c62.667 0 119.334 -6.83301 170.001 -20.5
s93.334 -35.167 128.001 -64.5s61.334 -67.833 80.001 -115.5s28 -105.5 28 -173.5v-697zM713.997 555c-53.333 -2.66699 -106.001 -7.16504 -158.001 -13.498s-98.5 -17 -139.5 -32s-73.667 -36.833 -98 -65.5s-36.5 -67.334 -36.5 -116.001
c0 -58.667 21.167 -104.834 63.5 -138.501s104.5 -50.5 186.5 -50.5c35.333 0 70.333 2.83301 105 8.5s60.334 12.5 77.001 20.5v387zM237.996 1723c4.66699 16.667 15.5 29.667 32.5 39s36.5 14 58.5 14c20 0 41.333 -4 64 -12s42 -21.667 58 -41l142 -268h-127z
M396.996 1383c24.667 -29.333 60.999 -43.999 108.999 -43.999c47.333 0 83.333 15 108 45c14 16 25 37.667 33 65l129 -26c-12.667 -58.667 -36 -107.334 -70 -146.001c-47.333 -51.333 -114 -77 -200 -77c-87.333 0 -154.666 25.667 -201.999 77
c-34.667 38 -58 86 -70 144l128 31c8 -28 19.667 -51 35 -69z" />
    <glyph glyph-name="uni1EB2" unicode="&#x1eb2;" 
d="M1038 0l-127 391h-527l-125 -391h-233l492 1483h260l491 -1483h-231zM692 1116c-7.33301 20.667 -13.667 41.167 -19 61.5s-9.33301 39.5 -12 57.5c-4 19.333 -7.33301 38.333 -10 57h-4c-4.66699 -18.667 -9 -37.667 -13 -57c-4 -18 -8 -37.167 -12 -57.5
s-9.33301 -40.833 -16 -61.5l-177 -553h437zM491.999 2197c38 30.667 88.0049 49.6689 150.005 57.002c61.333 2.66699 111.666 -12.833 150.999 -46.5s59 -77.5 59 -131.5c0 -22.667 -4.5 -43 -13.5 -61s-20.833 -34.5 -35.5 -49.5s-31.167 -27.833 -49.5 -38.5
s-33.833 -18.334 -46.5 -23.001l-4 -68h-112l-6 123c23.333 5.33301 42.666 11.166 57.999 17.499s28.666 14 39.999 23s20.666 19.5 27.999 31.5s11 25.667 11 41c0 28 -7.83301 48.833 -23.5 62.5s-36.834 18.834 -63.501 15.5c-26.667 -3.33301 -47 -8.83301 -61 -16.5
s-28 -16.834 -42 -27.5zM541.004 1785c24.667 -29.333 60.666 -43.999 107.999 -43.999c48 0 84.333 15 109 45c13.333 16 24.333 37.667 33 65l129 -26c-12.667 -58.667 -36 -107.334 -70 -146.001c-48 -51.333 -115 -77 -201 -77c-87.333 0 -154.666 25.667 -201.999 77
c-34 38 -57 86 -69 144l128 31c8 -28 19.667 -51 35 -69z" />
    <glyph glyph-name="uni1EB3" unicode="&#x1eb3;" horiz-adv-x="1052" 
d="M919 55c-38.667 -21.333 -93.1699 -39.666 -163.503 -54.999s-142.833 -23 -217.5 -23c-153.333 0 -268.166 30.5 -344.499 91.5s-114.5 146.167 -114.5 255.5c0 76 18.167 138 54.5 186s84.166 85.667 143.499 113s126.833 46.666 202.5 57.999
s153.834 19.333 234.501 24v69c0 70 -20.167 119 -60.5 147s-94.5 42 -162.5 42c-50.667 0 -103.334 -6.83301 -158.001 -20.5s-99.667 -29.5 -135 -47.5l-56 154c42.667 18.667 97.167 36.167 163.5 52.5s135.5 24.5 207.5 24.5c62.667 0 119.334 -6.83301 170.001 -20.5
s93.334 -35.167 128.001 -64.5s61.334 -67.833 80.001 -115.5s28 -105.5 28 -173.5v-697zM713.997 555c-53.333 -2.66699 -106.001 -7.16504 -158.001 -13.498s-98.5 -17 -139.5 -32s-73.667 -36.833 -98 -65.5s-36.5 -67.334 -36.5 -116.001
c0 -58.667 21.167 -104.834 63.5 -138.501s104.5 -50.5 186.5 -50.5c35.333 0 70.333 2.83301 105 8.5s60.334 12.5 77.001 20.5v387zM352.996 1801c38 30.667 88.0049 49.6689 150.005 57.002c61.333 2.66699 111.666 -12.833 150.999 -46.5s59 -77.5 59 -131.5
c0 -22.667 -4.5 -43 -13.5 -61s-20.833 -34.5 -35.5 -49.5s-31.167 -27.833 -49.5 -38.5s-33.833 -18.334 -46.5 -23.001l-4 -68h-112l-6 123c23.333 5.33301 42.666 11.166 57.999 17.499s28.666 14 39.999 23s20.666 19.5 27.999 31.5s11 25.667 11 41
c0 28 -7.83301 48.833 -23.5 62.5s-36.834 18.834 -63.501 15.501s-47 -8.83301 -61 -16.5s-28 -16.834 -42 -27.501zM397.001 1383c24.667 -29.333 60.999 -43.999 108.999 -43.999c47.333 0 83.333 15 108 45c14 16 25 37.667 33 65l129 -26
c-12.667 -58.667 -36 -107.334 -70 -146.001c-47.333 -51.333 -114 -77 -200 -77c-87.333 0 -154.666 25.667 -201.999 77c-34.667 38 -58 86 -70 144l128 31c8 -28 19.667 -51 35 -69z" />
    <glyph glyph-name="uni1EB4" unicode="&#x1eb4;" 
d="M1038 0l-127 391h-527l-125 -391h-233l492 1483h260l491 -1483h-231zM692 1116c-7.33301 20.667 -13.667 41.167 -19 61.5s-9.33301 39.5 -12 57.5c-4 19.333 -7.33301 38.333 -10 57h-4c-4.66699 -18.667 -9 -37.667 -13 -57c-4 -18 -8 -37.167 -12 -57.5
s-9.33301 -40.833 -16 -61.5l-177 -553h437zM909.999 1945c-40.667 -38.667 -85.001 -59.001 -133.001 -61.001c-24.667 -1.33301 -44.5 2.83398 -59.5 12.501s-28.333 20.334 -40 32.001s-22 21.334 -31 29.001s-23.5 13.167 -43.5 16.5c-24.667 -1.33301 -48 -12 -70 -32
c-13.333 -14 -25.333 -29.333 -36 -46l-84 61c21.333 40.667 47.333 76 78 106c39.333 37.333 83 57 131 59c20.667 0.666992 41.167 -5 61.5 -17s34.333 -22.167 42 -30.5s17.334 -17.333 29.001 -27s26.5 -14.167 44.5 -13.5c24.667 1.33301 47.667 12 69 32
c14 13.333 26.667 29.666 38 48.999l89 -57c-22.667 -42.667 -51 -80.334 -85 -113.001zM540.998 1785c24.667 -29.333 60.666 -43.999 107.999 -43.999c48 0 84.333 15 109 45c13.333 16 24.333 37.667 33 65l129 -26c-12.667 -58.667 -36 -107.334 -70 -146.001
c-48 -51.333 -115 -77 -201 -77c-87.333 0 -154.666 25.667 -201.999 77c-34 38 -57 86 -69 144l128 31c8 -28 19.667 -51 35 -69z" />
    <glyph glyph-name="uni1EB5" unicode="&#x1eb5;" horiz-adv-x="1052" 
d="M919 55c-38.667 -21.333 -93.1699 -39.666 -163.503 -54.999s-142.833 -23 -217.5 -23c-153.333 0 -268.166 30.5 -344.499 91.5s-114.5 146.167 -114.5 255.5c0 76 18.167 138 54.5 186s84.166 85.667 143.499 113s126.833 46.666 202.5 57.999
s153.834 19.333 234.501 24v69c0 70 -20.167 119 -60.5 147s-94.5 42 -162.5 42c-50.667 0 -103.334 -6.83301 -158.001 -20.5s-99.667 -29.5 -135 -47.5l-56 154c42.667 18.667 97.167 36.167 163.5 52.5s135.5 24.5 207.5 24.5c62.667 0 119.334 -6.83301 170.001 -20.5
s93.334 -35.167 128.001 -64.5s61.334 -67.833 80.001 -115.5s28 -105.5 28 -173.5v-697zM713.997 555c-53.333 -2.66699 -106.001 -7.16504 -158.001 -13.498s-98.5 -17 -139.5 -32s-73.667 -36.833 -98 -65.5s-36.5 -67.334 -36.5 -116.001
c0 -58.667 21.167 -104.834 63.5 -138.501s104.5 -50.5 186.5 -50.5c35.333 0 70.333 2.83301 105 8.5s60.334 12.5 77.001 20.5v387zM782.996 1562c-40.667 -38.667 -85.001 -59.001 -133.001 -61.001c-24.667 -1.33301 -44.5 2.83398 -59.5 12.501
s-28.333 20.334 -40 32.001s-22 21.334 -31 29.001s-23.5 13.167 -43.5 16.5c-24.667 -1.33301 -48 -12 -70 -32c-13.333 -14 -25.333 -29.333 -36 -46l-84 61c21.333 40.667 47.333 76 78 106c39.333 37.333 83 57 131 59c20.667 0.666992 41.167 -5 61.5 -17
s34.333 -22.167 42 -30.5s17.334 -17.333 29.001 -27s26.5 -14.167 44.5 -13.5c24.667 1.33301 47.667 12 69 32c14 13.333 26.667 29.666 38 48.999l89 -57c-22.667 -42.667 -51 -80.334 -85 -113.001zM396.995 1383c24.667 -29.333 60.999 -43.999 108.999 -43.999
c47.333 0 83.333 15 108 45c14 16 25 37.667 33 65l129 -26c-12.667 -58.667 -36 -107.334 -70 -146.001c-47.333 -51.333 -114 -77 -200 -77c-87.333 0 -154.666 25.667 -201.999 77c-34.667 38 -58 86 -70 144l128 31c8 -28 19.667 -51 35 -69z" />
    <glyph glyph-name="uni1EB6" unicode="&#x1eb6;" 
d="M1038 0l-127 391h-527l-125 -391h-233l492 1483h260l491 -1483h-231zM692 1116c-7.33301 20.667 -13.667 41.167 -19 61.5s-9.33301 39.5 -12 57.5c-4 19.333 -7.33301 38.333 -10 57h-4c-4.66699 -18.667 -9 -37.667 -13 -57c-4 -18 -8 -37.167 -12 -57.5
s-9.33301 -40.833 -16 -61.5l-177 -553h437zM760.999 -181c0 -31.333 -10.833 -57.666 -32.5 -78.999s-48.167 -32 -79.5 -32c-32 0 -59.167 10.667 -81.5 32s-33.5 47.666 -33.5 78.999s11.167 57.666 33.5 78.999s49.5 32 81.5 32c31.333 0 57.833 -10.667 79.5 -32
s32.5 -47.666 32.5 -78.999zM540.999 1785c24.667 -29.333 60.666 -43.999 107.999 -43.999c48 0 84.333 15 109 45c13.333 16 24.333 37.667 33 65l129 -26c-12.667 -58.667 -36 -107.334 -70 -146.001c-48 -51.333 -115 -77 -201 -77
c-87.333 0 -154.666 25.667 -201.999 77c-34 38 -57 86 -69 144l128 31c8 -28 19.667 -51 35 -69z" />
    <glyph glyph-name="uni1EB7" unicode="&#x1eb7;" horiz-adv-x="1052" 
d="M919 55c-38.667 -21.333 -93.1699 -39.666 -163.503 -54.999s-142.833 -23 -217.5 -23c-153.333 0 -268.166 30.5 -344.499 91.5s-114.5 146.167 -114.5 255.5c0 76 18.167 138 54.5 186s84.166 85.667 143.499 113s126.833 46.666 202.5 57.999
s153.834 19.333 234.501 24v69c0 70 -20.167 119 -60.5 147s-94.5 42 -162.5 42c-50.667 0 -103.334 -6.83301 -158.001 -20.5s-99.667 -29.5 -135 -47.5l-56 154c42.667 18.667 97.167 36.167 163.5 52.5s135.5 24.5 207.5 24.5c62.667 0 119.334 -6.83301 170.001 -20.5
s93.334 -35.167 128.001 -64.5s61.334 -67.833 80.001 -115.5s28 -105.5 28 -173.5v-697zM713.997 555c-53.333 -2.66699 -106.001 -7.16504 -158.001 -13.498s-98.5 -17 -139.5 -32s-73.667 -36.833 -98 -65.5s-36.5 -67.334 -36.5 -116.001
c0 -58.667 21.167 -104.834 63.5 -138.501s104.5 -50.5 186.5 -50.5c35.333 0 70.333 2.83301 105 8.5s60.334 12.5 77.001 20.5v387zM606.996 -198.998c0 -31.333 -10.833 -57.666 -32.5 -78.999s-48.167 -32 -79.5 -32c-32 0 -59.167 10.667 -81.5 32
s-33.5 47.666 -33.5 78.999s11.167 57.666 33.5 78.999s49.5 32 81.5 32c31.333 0 57.833 -10.667 79.5 -32s32.5 -47.666 32.5 -78.999zM396.996 1383c24.667 -29.333 60.999 -43.999 108.999 -43.999c47.333 0 83.333 15 108 45c14 16 25 37.667 33 65l129 -26
c-12.667 -58.667 -36 -107.334 -70 -146.001c-47.333 -51.333 -114 -77 -200 -77c-87.333 0 -154.666 25.667 -201.999 77c-34.667 38 -58 86 -70 144l128 31c8 -28 19.667 -51 35 -69z" />
    <glyph glyph-name="uni1EB8" unicode="&#x1eb8;" horiz-adv-x="983" 
d="M143 0v1483h748v-195h-529v-436h481v-190h-481v-467h529v-195h-748zM630 -181c0 -31.333 -10.833 -57.666 -32.5 -78.999s-48.167 -32 -79.5 -32c-32 0 -59.167 10.667 -81.5 32s-33.5 47.666 -33.5 78.999s11.167 57.666 33.5 78.999s49.5 32 81.5 32
c31.333 0 57.833 -10.667 79.5 -32s32.5 -47.666 32.5 -78.999z" />
    <glyph glyph-name="uni1EB9" unicode="&#x1eb9;" horiz-adv-x="1101" 
d="M1007 557l-703.998 -102.001c10.667 -100 44.667 -174.833 102 -224.5s131.333 -74.5 222 -74.5c52.667 0 105.667 6.16699 159 18.5s97.666 28.5 132.999 48.5l64 -168c-41.333 -23.333 -94.666 -42.166 -159.999 -56.499s-135 -21.5 -209 -21.5
c-84.667 0 -159.334 13.333 -224.001 40s-118.834 65.334 -162.501 116.001s-77.167 111.167 -100.5 181.5s-35 149.833 -35 238.5c0 84.667 11 162.167 33 232.5s53.333 130.666 94 180.999s90.834 89.5 150.501 117.5s126.167 42 199.5 42
c139.333 0 247.166 -43.667 323.499 -131s114.5 -205.333 114.5 -354v-84zM803.002 675.999c-1.33301 96.667 -23.166 168.667 -65.499 216s-99.833 71 -172.5 71c-82 0 -147.833 -31.167 -197.5 -93.5s-75.834 -151.5 -78.501 -267.5zM676.002 -199.001
c0 -31.333 -10.833 -57.666 -32.5 -78.999s-48.167 -32 -79.5 -32c-32 0 -59.167 10.667 -81.5 32s-33.5 47.666 -33.5 78.999s11.167 57.666 33.5 78.999s49.5 32 81.5 32c31.333 0 57.833 -10.667 79.5 -32s32.5 -47.666 32.5 -78.999z" />
    <glyph glyph-name="uni1EBA" unicode="&#x1eba;" horiz-adv-x="983" 
d="M143 0v1483h748v-195h-529v-436h481v-190h-481v-467h529v-195h-748zM371 1906c38 30.667 88.0049 49.6689 150.005 57.002c61.333 2.66699 111.666 -12.833 150.999 -46.5s59 -77.5 59 -131.5c0 -22.667 -4.5 -43 -13.5 -61s-20.833 -34.5 -35.5 -49.5
s-31.167 -27.833 -49.5 -38.5s-33.833 -18.334 -46.5 -23.001l-4 -68h-112l-6 123c23.333 5.33301 42.666 11.166 57.999 17.499s28.666 14 39.999 23s20.666 19.5 27.999 31.5s11 25.667 11 41c0 28 -7.83301 48.833 -23.5 62.5s-36.834 18.834 -63.501 15.501
s-47 -8.83301 -61 -16.5s-28 -16.834 -42 -27.501z" />
    <glyph glyph-name="uni1EBB" unicode="&#x1ebb;" horiz-adv-x="1101" 
d="M1007 557l-703.998 -102.001c10.667 -100 44.667 -174.833 102 -224.5s131.333 -74.5 222 -74.5c52.667 0 105.667 6.16699 159 18.5s97.666 28.5 132.999 48.5l64 -168c-41.333 -23.333 -94.666 -42.166 -159.999 -56.499s-135 -21.5 -209 -21.5
c-84.667 0 -159.334 13.333 -224.001 40s-118.834 65.334 -162.501 116.001s-77.167 111.167 -100.5 181.5s-35 149.833 -35 238.5c0 84.667 11 162.167 33 232.5s53.333 130.666 94 180.999s90.834 89.5 150.501 117.5s126.167 42 199.5 42
c139.333 0 247.166 -43.667 323.499 -131s114.5 -205.333 114.5 -354v-84zM803.002 675.999c-1.33301 96.667 -23.166 168.667 -65.499 216s-99.833 71 -172.5 71c-82 0 -147.833 -31.167 -197.5 -93.5s-75.834 -151.5 -78.501 -267.5zM400.002 1579
c38 30.667 88.0049 49.6689 150.005 57.002c61.333 2.66699 111.666 -12.833 150.999 -46.5s59 -77.5 59 -131.5c0 -22.667 -4.5 -43 -13.5 -61s-20.833 -34.5 -35.5 -49.5s-31.167 -27.833 -49.5 -38.5s-33.833 -18.334 -46.5 -23.001l-4 -68h-112l-6 123
c23.333 5.33301 42.666 11.166 57.999 17.499s28.666 14 39.999 23s20.666 19.5 27.999 31.5s11 25.667 11 41c0 28 -7.83301 48.833 -23.5 62.5s-36.834 18.834 -63.501 15.501s-47 -8.83301 -61 -16.5s-28 -16.834 -42 -27.501z" />
    <glyph glyph-name="uni1EBC" unicode="&#x1ebc;" horiz-adv-x="983" 
d="M143 0v1483h748v-195h-529v-436h481v-190h-481v-467h529v-195h-748zM742 1656c-40.667 -38.667 -85.001 -59.001 -133.001 -61.001c-24.667 -1.33301 -44.5 2.83398 -59.5 12.501s-28.333 20.334 -40 32.001s-22 21.334 -31 29.001s-23.5 13.167 -43.5 16.5
c-24.667 -1.33301 -48 -12 -70 -32c-13.333 -14 -25.333 -29.333 -36 -46l-84 61c21.333 40.667 47.333 76 78 106c39.333 37.333 83 57 131 59c20.667 0.666992 41.167 -5 61.5 -17s34.333 -22.167 42 -30.5s17.334 -17.333 29.001 -27s26.5 -14.167 44.5 -13.5
c24.667 1.33301 47.667 12 69 32c14 13.333 26.667 29.666 38 48.999l89 -57c-22.667 -42.667 -51 -80.334 -85 -113.001z" />
    <glyph glyph-name="uni1EBD" unicode="&#x1ebd;" horiz-adv-x="1101" 
d="M1007 557l-703.998 -102.001c10.667 -100 44.667 -174.833 102 -224.5s131.333 -74.5 222 -74.5c52.667 0 105.667 6.16699 159 18.5s97.666 28.5 132.999 48.5l64 -168c-41.333 -23.333 -94.666 -42.166 -159.999 -56.499s-135 -21.5 -209 -21.5
c-84.667 0 -159.334 13.333 -224.001 40s-118.834 65.334 -162.501 116.001s-77.167 111.167 -100.5 181.5s-35 149.833 -35 238.5c0 84.667 11 162.167 33 232.5s53.333 130.666 94 180.999s90.834 89.5 150.501 117.5s126.167 42 199.5 42
c139.333 0 247.166 -43.667 323.499 -131s114.5 -205.333 114.5 -354v-84zM803.002 675.999c-1.33301 96.667 -23.166 168.667 -65.499 216s-99.833 71 -172.5 71c-82 0 -147.833 -31.167 -197.5 -93.5s-75.834 -151.5 -78.501 -267.5zM792.002 1270
c-40.667 -38.667 -85.001 -59.001 -133.001 -61.001c-24.667 -1.33301 -44.5 2.83398 -59.5 12.501s-28.333 20.334 -40 32.001s-22 21.334 -31 29.001s-23.5 13.167 -43.5 16.5c-24.667 -1.33301 -48 -12 -70 -32c-13.333 -14 -25.333 -29.333 -36 -46l-84 61
c21.333 40.667 47.333 76 78 106c39.333 37.333 83 57 131 59c20.667 0.666992 41.167 -5 61.5 -17s34.333 -22.167 42 -30.5s17.334 -17.333 29.001 -27s26.5 -14.167 44.5 -13.5c24.667 1.33301 47.667 12 69 32c14 13.333 26.667 29.666 38 48.999l89 -57
c-22.667 -42.667 -51 -80.334 -85 -113.001z" />
    <glyph glyph-name="uni1EBE" unicode="&#x1ebe;" horiz-adv-x="983" 
d="M143 0v1483h748v-195h-529v-436h481v-190h-481v-467h529v-195h-748zM838 1764h-127l142 268c16 19.333 35.333 33 58 41s44.334 12 65.001 12c21.333 0 40.666 -4.66699 57.999 -14s28 -22.333 32 -39zM708 1538l-190.002 139l-193 -139l-88 76l201 211
c24.667 24.667 51.334 37 80.001 37s54.334 -12.333 77.001 -37l201 -211z" />
    <glyph glyph-name="uni1EBF" unicode="&#x1ebf;" horiz-adv-x="1101" 
d="M1007 557l-703.998 -102.001c10.667 -100 44.667 -174.833 102 -224.5s131.333 -74.5 222 -74.5c52.667 0 105.667 6.16699 159 18.5s97.666 28.5 132.999 48.5l64 -168c-41.333 -23.333 -94.666 -42.166 -159.999 -56.499s-135 -21.5 -209 -21.5
c-84.667 0 -159.334 13.333 -224.001 40s-118.834 65.334 -162.501 116.001s-77.167 111.167 -100.5 181.5s-35 149.833 -35 238.5c0 84.667 11 162.167 33 232.5s53.333 130.666 94 180.999s90.834 89.5 150.501 117.5s126.167 42 199.5 42
c139.333 0 247.166 -43.667 323.499 -131s114.5 -205.333 114.5 -354v-84zM803.002 675.999c-1.33301 96.667 -23.166 168.667 -65.499 216s-99.833 71 -172.5 71c-82 0 -147.833 -31.167 -197.5 -93.5s-75.834 -151.5 -78.501 -267.5zM884.002 1402h-127l142 268
c16 19.333 35.333 33 58 41s44.334 12 65.001 12c21.333 0 40.666 -4.66699 57.999 -14s28 -22.333 32 -39zM771.002 1178l-190.002 139l-193 -139l-88 76l201 211c24.667 24.667 51.334 37 80.001 37s54.334 -12.333 77.001 -37l201 -211z" />
    <glyph glyph-name="uni1EC0" unicode="&#x1ec0;" horiz-adv-x="983" 
d="M143 0v1483h748v-195h-529v-436h481v-190h-481v-467h529v-195h-748zM530 2030c4.66699 16.667 15.5 29.666 32.5 39c17 9.33301 36.5 14 58.5 14c20 0 41.333 -4 64 -12s42 -21.667 58 -41l142 -268h-127zM708 1538l-190.002 139l-193 -139l-88 76l201 211
c24.667 24.667 51.334 37 80.001 37s54.334 -12.333 77.001 -37l201 -211z" />
    <glyph glyph-name="uni1EC1" unicode="&#x1ec1;" horiz-adv-x="1101" 
d="M1007 557l-703.998 -102.001c10.667 -100 44.667 -174.833 102 -224.5s131.333 -74.5 222 -74.5c52.667 0 105.667 6.16699 159 18.5s97.666 28.5 132.999 48.5l64 -168c-41.333 -23.333 -94.666 -42.166 -159.999 -56.499s-135 -21.5 -209 -21.5
c-84.667 0 -159.334 13.333 -224.001 40s-118.834 65.334 -162.501 116.001s-77.167 111.167 -100.5 181.5s-35 149.833 -35 238.5c0 84.667 11 162.167 33 232.5s53.333 130.666 94 180.999s90.834 89.5 150.501 117.5s126.167 42 199.5 42
c139.333 0 247.166 -43.667 323.499 -131s114.5 -205.333 114.5 -354v-84zM803.002 675.999c-1.33301 96.667 -23.166 168.667 -65.499 216s-99.833 71 -172.5 71c-82 0 -147.833 -31.167 -197.5 -93.5s-75.834 -151.5 -78.501 -267.5zM597.002 1663
c4.66699 16.667 15.5 29.667 32.5 39s36.5 14 58.5 14c20 0 41.333 -4 64 -12s42 -21.667 58 -41l142 -268h-127zM771.002 1178l-190.002 139l-193 -139l-88 76l201 211c24.667 24.667 51.334 37 80.001 37s54.334 -12.333 77.001 -37l201 -211z" />
    <glyph glyph-name="uni1EC2" unicode="&#x1ec2;" horiz-adv-x="983" 
d="M143 0v1483h748v-195h-529v-436h481v-190h-481v-467h529v-195h-748zM645 2086c38 30.667 88.0049 49.6689 150.005 57.002c61.333 2.66699 111.666 -12.833 150.999 -46.5s59 -77.5 59 -131.5c0 -22.667 -4.5 -43 -13.5 -61s-20.833 -34.5 -35.5 -49.5
s-31.167 -27.833 -49.5 -38.5s-33.833 -18.334 -46.5 -23.001l-4 -68h-112l-6 123c23.333 5.33301 42.666 11.166 57.999 17.499s28.666 14 39.999 23s20.666 19.5 27.999 31.5s11 25.667 11 41c0 28 -7.83301 48.833 -23.5 62.5s-36.834 18.834 -63.501 15.501
s-47 -8.83301 -61 -16.5s-28 -16.834 -42 -27.501zM708.005 1538l-190.002 139l-193 -139l-88 76l201 211c24.667 24.667 51.334 37 80.001 37s54.334 -12.333 77.001 -37l201 -211z" />
    <glyph glyph-name="uni1EC3" unicode="&#x1ec3;" horiz-adv-x="1101" 
d="M1007 557l-703.998 -102.001c10.667 -100 44.667 -174.833 102 -224.5s131.333 -74.5 222 -74.5c52.667 0 105.667 6.16699 159 18.5s97.666 28.5 132.999 48.5l64 -168c-41.333 -23.333 -94.666 -42.166 -159.999 -56.499s-135 -21.5 -209 -21.5
c-84.667 0 -159.334 13.333 -224.001 40s-118.834 65.334 -162.501 116.001s-77.167 111.167 -100.5 181.5s-35 149.833 -35 238.5c0 84.667 11 162.167 33 232.5s53.333 130.666 94 180.999s90.834 89.5 150.501 117.5s126.167 42 199.5 42
c139.333 0 247.166 -43.667 323.499 -131s114.5 -205.333 114.5 -354v-84zM803.002 675.999c-1.33301 96.667 -23.166 168.667 -65.499 216s-99.833 71 -172.5 71c-82 0 -147.833 -31.167 -197.5 -93.5s-75.834 -151.5 -78.501 -267.5zM691.002 1742
c38 30.667 88.0049 49.6689 150.005 57.002c61.333 2.66699 111.666 -12.833 150.999 -46.5s59 -77.5 59 -131.5c0 -22.667 -4.5 -43 -13.5 -61s-20.833 -34.5 -35.5 -49.5s-31.167 -27.833 -49.5 -38.5s-33.833 -18.334 -46.5 -23.001l-4 -68h-112l-6 123
c23.333 5.33301 42.666 11.166 57.999 17.499s28.666 14 39.999 23s20.666 19.5 27.999 31.5s11 25.667 11 41c0 28 -7.83301 48.833 -23.5 62.5s-36.834 18.834 -63.501 15.501s-47 -8.83301 -61 -16.5s-28 -16.834 -42 -27.501zM771.007 1178l-190.002 139l-193 -139
l-88 76l201 211c24.667 24.667 51.334 37 80.001 37s54.334 -12.333 77.001 -37l201 -211z" />
    <glyph glyph-name="uni1EC4" unicode="&#x1ec4;" horiz-adv-x="983" 
d="M143 0v1483h748v-195h-529v-436h481v-190h-481v-467h529v-195h-748zM819 1930c-40.667 -38.667 -85.001 -59.001 -133.001 -61.001c-24.667 -1.33301 -44.5 2.83398 -59.5 12.501s-28.333 20.334 -40 32.001s-22 21.334 -31 29.001s-23.5 13.167 -43.5 16.5
c-24.667 -1.33301 -48 -12 -70 -32c-13.333 -14 -25.333 -29.333 -36 -46l-84 61c21.333 40.667 47.333 76 78 106c39.333 37.333 83 57 131 59c20.667 0.666992 41.167 -5 61.5 -17s34.333 -22.167 42 -30.5s17.334 -17.333 29.001 -27s26.5 -14.167 44.5 -13.5
c24.667 1.33301 47.667 12 69 32c14 13.333 26.667 29.666 38 48.999l89 -57c-22.667 -42.667 -51 -80.334 -85 -113.001zM707.999 1538l-190.002 139l-193 -139l-88 76l201 211c24.667 24.667 51.334 37 80.001 37s54.334 -12.333 77.001 -37l201 -211z" />
    <glyph glyph-name="uni1EC5" unicode="&#x1ec5;" horiz-adv-x="1101" 
d="M1007 557l-703.998 -102.001c10.667 -100 44.667 -174.833 102 -224.5s131.333 -74.5 222 -74.5c52.667 0 105.667 6.16699 159 18.5s97.666 28.5 132.999 48.5l64 -168c-41.333 -23.333 -94.666 -42.166 -159.999 -56.499s-135 -21.5 -209 -21.5
c-84.667 0 -159.334 13.333 -224.001 40s-118.834 65.334 -162.501 116.001s-77.167 111.167 -100.5 181.5s-35 149.833 -35 238.5c0 84.667 11 162.167 33 232.5s53.333 130.666 94 180.999s90.834 89.5 150.501 117.5s126.167 42 199.5 42
c139.333 0 247.166 -43.667 323.499 -131s114.5 -205.333 114.5 -354v-84zM803.002 675.999c-1.33301 96.667 -23.166 168.667 -65.499 216s-99.833 71 -172.5 71c-82 0 -147.833 -31.167 -197.5 -93.5s-75.834 -151.5 -78.501 -267.5zM869.002 1578
c-40.667 -38.667 -85.001 -59.001 -133.001 -61.001c-24.667 -1.33301 -44.5 2.83398 -59.5 12.501s-28.333 20.334 -40 32.001s-22 21.334 -31 29.001s-23.5 13.167 -43.5 16.5c-24.667 -1.33301 -48 -12 -70 -32c-13.333 -14 -25.333 -29.333 -36 -46l-84 61
c21.333 40.667 47.333 76 78 106c39.333 37.333 83 57 131 59c20.667 0.666992 41.167 -5 61.5 -17s34.333 -22.167 42 -30.5s17.334 -17.333 29.001 -27s26.5 -14.167 44.5 -13.5c24.667 1.33301 47.667 12 69 32c14 13.333 26.667 29.666 38 48.999l89 -57
c-22.667 -42.667 -51 -80.334 -85 -113.001zM771.001 1178l-190.002 139l-193 -139l-88 76l201 211c24.667 24.667 51.334 37 80.001 37s54.334 -12.333 77.001 -37l201 -211z" />
    <glyph glyph-name="uni1EC6" unicode="&#x1ec6;" horiz-adv-x="983" 
d="M143 0v1483h748v-195h-529v-436h481v-190h-481v-467h529v-195h-748zM630 -181c0 -31.333 -10.833 -57.666 -32.5 -78.999s-48.167 -32 -79.5 -32c-32 0 -59.167 10.667 -81.5 32s-33.5 47.666 -33.5 78.999s11.167 57.666 33.5 78.999s49.5 32 81.5 32
c31.333 0 57.833 -10.667 79.5 -32s32.5 -47.666 32.5 -78.999zM708 1538l-190.002 139l-193 -139l-88 76l201 211c24.667 24.667 51.334 37 80.001 37s54.334 -12.333 77.001 -37l201 -211z" />
    <glyph glyph-name="uni1EC7" unicode="&#x1ec7;" horiz-adv-x="1101" 
d="M1007 557l-703.998 -102.001c10.667 -100 44.667 -174.833 102 -224.5s131.333 -74.5 222 -74.5c52.667 0 105.667 6.16699 159 18.5s97.666 28.5 132.999 48.5l64 -168c-41.333 -23.333 -94.666 -42.166 -159.999 -56.499s-135 -21.5 -209 -21.5
c-84.667 0 -159.334 13.333 -224.001 40s-118.834 65.334 -162.501 116.001s-77.167 111.167 -100.5 181.5s-35 149.833 -35 238.5c0 84.667 11 162.167 33 232.5s53.333 130.666 94 180.999s90.834 89.5 150.501 117.5s126.167 42 199.5 42
c139.333 0 247.166 -43.667 323.499 -131s114.5 -205.333 114.5 -354v-84zM803.002 675.999c-1.33301 96.667 -23.166 168.667 -65.499 216s-99.833 71 -172.5 71c-82 0 -147.833 -31.167 -197.5 -93.5s-75.834 -151.5 -78.501 -267.5zM676.002 -199.001
c0 -31.333 -10.833 -57.666 -32.5 -78.999s-48.167 -32 -79.5 -32c-32 0 -59.167 10.667 -81.5 32s-33.5 47.666 -33.5 78.999s11.167 57.666 33.5 78.999s49.5 32 81.5 32c31.333 0 57.833 -10.667 79.5 -32s32.5 -47.666 32.5 -78.999zM771.002 1178l-190.002 139
l-193 -139l-88 76l201 211c24.667 24.667 51.334 37 80.001 37s54.334 -12.333 77.001 -37l201 -211z" />
    <glyph glyph-name="uni1EC8" unicode="&#x1ec8;" horiz-adv-x="514" 
d="M146 0v1483h223v-1483h-223zM94 1906c38 30.667 88.0049 49.6689 150.005 57.002c61.333 2.66699 111.666 -12.833 150.999 -46.5s59 -77.5 59 -131.5c0 -22.667 -4.5 -43 -13.5 -61s-20.833 -34.5 -35.5 -49.5s-31.167 -27.833 -49.5 -38.5
s-33.833 -18.334 -46.5 -23.001l-4 -68h-112l-6 123c23.333 5.33301 42.666 11.166 57.999 17.499s28.666 14 39.999 23s20.666 19.5 27.999 31.5s11 25.667 11 41c0 28 -7.83301 48.833 -23.5 62.5s-36.834 18.834 -63.501 15.501s-47 -8.83301 -61 -16.5
s-28 -16.834 -42 -27.501z" />
    <glyph glyph-name="uni1EC9" unicode="&#x1ec9;" horiz-adv-x="491" 
d="M136 0v1104h217v-1104h-217zM85 1579c38 30.667 88.0049 49.6689 150.005 57.002c61.333 2.66699 111.666 -12.833 150.999 -46.5s59 -77.5 59 -131.5c0 -22.667 -4.5 -43 -13.5 -61s-20.833 -34.5 -35.5 -49.5s-31.167 -27.833 -49.5 -38.5
s-33.833 -18.334 -46.5 -23.001l-4 -68h-112l-6 123c23.333 5.33301 42.666 11.166 57.999 17.499s28.666 14 39.999 23s20.666 19.5 27.999 31.5s11 25.667 11 41c0 28 -7.83301 48.833 -23.5 62.5s-36.834 18.834 -63.501 15.501s-47 -8.83301 -61 -16.5
s-28 -16.834 -42 -27.501z" />
    <glyph glyph-name="uni1ECA" unicode="&#x1eca;" horiz-adv-x="514" 
d="M148 0v1483h223v-1483h-223zM373 -181c0 -31.333 -10.833 -57.666 -32.5 -78.999s-48.167 -32 -79.5 -32c-32 0 -59.167 10.667 -81.5 32s-33.5 47.666 -33.5 78.999s11.167 57.666 33.5 78.999s49.5 32 81.5 32c31.333 0 57.833 -10.667 79.5 -32
s32.5 -47.666 32.5 -78.999z" />
    <glyph glyph-name="uni1ECB" unicode="&#x1ecb;" horiz-adv-x="491" 
d="M372 1432c0 -36 -12.333 -66.167 -37 -90.5s-54.667 -36.5 -90 -36.5s-65.333 12.167 -90 36.5s-37 54.5 -37 90.5c0 35.333 12.333 65.333 37 90s54.667 37 90 37s65.333 -12.333 90 -37s37 -54.667 37 -90zM138 0v1104h217v-1104h-217zM360 -199
c0 -31.333 -10.833 -57.666 -32.5 -78.999s-48.167 -32 -79.5 -32c-32 0 -59.167 10.667 -81.5 32s-33.5 47.666 -33.5 78.999s11.167 57.666 33.5 78.999s49.5 32 81.5 32c31.333 0 57.833 -10.667 79.5 -32s32.5 -47.666 32.5 -78.999z" />
    <glyph glyph-name="uni1ECC" unicode="&#x1ecc;" 
d="M1198 741c0 -106 -11.333 -205.5 -34 -298.5s-56.834 -174 -102.501 -243s-103 -123.333 -172 -163s-149.167 -59.5 -240.5 -59.5c-92.667 0 -173.167 19.833 -241.5 59.5s-125.333 94 -171 163s-79.834 150 -102.501 243s-34 192.5 -34 298.5
c0 106.667 11.333 206.5 34 299.5s56.834 173.833 102.501 242.5s102.667 122.834 171 162.501s148.833 59.5 241.5 59.5c91.333 0 171.5 -19.833 240.5 -59.5s126.333 -93.834 172 -162.501s79.834 -149.5 102.501 -242.5s34 -192.833 34 -299.5zM974 741
c0 80.667 -6.66699 155.167 -20 223.5s-34 127.5 -62 177.5s-62.167 88.833 -102.5 116.5s-87.166 41.5 -140.499 41.5s-100.5 -13.833 -141.5 -41.5s-75.5 -66.5 -103.5 -116.5s-48.833 -109.167 -62.5 -177.5s-20.5 -142.833 -20.5 -223.5
c0 -80 6.83301 -154.167 20.5 -222.5s34.5 -127.5 62.5 -177.5s62.5 -89 103.5 -117s88.167 -42 141.5 -42s100.166 14 140.499 42s74.5 67 102.5 117s48.667 109.167 62 177.5s20 142.5 20 222.5zM762 -199c0 -31.333 -10.833 -57.666 -32.5 -78.999s-48.167 -32 -79.5 -32
c-32 0 -59.167 10.667 -81.5 32s-33.5 47.666 -33.5 78.999s11.167 57.666 33.5 78.999s49.5 32 81.5 32c31.333 0 57.833 -10.667 79.5 -32s32.5 -47.666 32.5 -78.999z" />
    <glyph glyph-name="uni1ECD" unicode="&#x1ecd;" horiz-adv-x="1116" 
d="M1024 553c0 -82 -10.333 -158.167 -31 -228.5s-50.334 -131 -89.001 -182s-87 -91.333 -145 -121s-124.667 -44.5 -200 -44.5s-142 14.833 -200 44.5s-106.833 70 -146.5 121s-69.667 111.667 -90 182s-30.5 146.5 -30.5 228.5s10.167 157.833 30.5 227.5
s50.333 130 90 181s88.5 91.167 146.5 120.5s124.667 44 200 44s142 -14.667 200 -44s106.333 -69.5 145 -120.5s68.334 -111.333 89.001 -181s31 -145.5 31 -227.5zM809 555c0 120 -20.833 215.501 -62.5 286.501s-104.167 106.5 -187.5 106.5
c-84.667 0 -147.5 -35.833 -188.5 -107.5s-61.5 -166.834 -61.5 -285.501s20.5 -214.167 61.5 -286.5s103.833 -108.5 188.5 -108.5c83.333 0 145.833 36.167 187.5 108.5s62.5 167.833 62.5 286.5zM671 -198.999c0 -31.333 -10.833 -57.666 -32.5 -78.999
s-48.167 -32 -79.5 -32c-32 0 -59.167 10.667 -81.5 32s-33.5 47.666 -33.5 78.999s11.167 57.666 33.5 78.999s49.5 32 81.5 32c31.333 0 57.833 -10.667 79.5 -32s32.5 -47.666 32.5 -78.999z" />
    <glyph glyph-name="uni1ECE" unicode="&#x1ece;" 
d="M1198 741c0 -106 -11.333 -205.5 -34 -298.5s-56.834 -174 -102.501 -243s-103 -123.333 -172 -163s-149.167 -59.5 -240.5 -59.5c-92.667 0 -173.167 19.833 -241.5 59.5s-125.333 94 -171 163s-79.834 150 -102.501 243s-34 192.5 -34 298.5
c0 106.667 11.333 206.5 34 299.5s56.834 173.833 102.501 242.5s102.667 122.834 171 162.501s148.833 59.5 241.5 59.5c91.333 0 171.5 -19.833 240.5 -59.5s126.333 -93.834 172 -162.501s79.834 -149.5 102.501 -242.5s34 -192.833 34 -299.5zM974 741
c0 80.667 -6.66699 155.167 -20 223.5s-34 127.5 -62 177.5s-62.167 88.833 -102.5 116.5s-87.166 41.5 -140.499 41.5s-100.5 -13.833 -141.5 -41.5s-75.5 -66.5 -103.5 -116.5s-48.833 -109.167 -62.5 -177.5s-20.5 -142.833 -20.5 -223.5
c0 -80 6.83301 -154.167 20.5 -222.5s34.5 -127.5 62.5 -177.5s62.5 -89 103.5 -117s88.167 -42 141.5 -42s100.166 14 140.499 42s74.5 67 102.5 117s48.667 109.167 62 177.5s20 142.5 20 222.5zM504 1948c38 30.667 88.0049 49.6689 150.005 57.002
c61.333 2.66699 111.666 -12.833 150.999 -46.5s59 -77.5 59 -131.5c0 -22.667 -4.5 -43 -13.5 -61s-20.833 -34.5 -35.5 -49.5s-31.167 -27.833 -49.5 -38.5s-33.833 -18.334 -46.5 -23.001l-4 -68h-112l-6 123c23.333 5.33301 42.666 11.166 57.999 17.499
s28.666 14 39.999 23s20.666 19.5 27.999 31.5s11 25.667 11 41c0 28 -7.83301 48.833 -23.5 62.5s-36.834 18.834 -63.501 15.501s-47 -8.83301 -61 -16.5s-28 -16.834 -42 -27.501z" />
    <glyph glyph-name="uni1ECF" unicode="&#x1ecf;" horiz-adv-x="1116" 
d="M1024 553c0 -82 -10.333 -158.167 -31 -228.5s-50.334 -131 -89.001 -182s-87 -91.333 -145 -121s-124.667 -44.5 -200 -44.5s-142 14.833 -200 44.5s-106.833 70 -146.5 121s-69.667 111.667 -90 182s-30.5 146.5 -30.5 228.5s10.167 157.833 30.5 227.5
s50.333 130 90 181s88.5 91.167 146.5 120.5s124.667 44 200 44s142 -14.667 200 -44s106.333 -69.5 145 -120.5s68.334 -111.333 89.001 -181s31 -145.5 31 -227.5zM809 555c0 120 -20.833 215.501 -62.5 286.501s-104.167 106.5 -187.5 106.5
c-84.667 0 -147.5 -35.833 -188.5 -107.5s-61.5 -166.834 -61.5 -285.501s20.5 -214.167 61.5 -286.5s103.833 -108.5 188.5 -108.5c83.333 0 145.833 36.167 187.5 108.5s62.5 167.833 62.5 286.5zM400 1579c38 30.667 88.0049 49.6689 150.005 57.002
c61.333 2.66699 111.666 -12.833 150.999 -46.5s59 -77.5 59 -131.5c0 -22.667 -4.5 -43 -13.5 -61s-20.833 -34.5 -35.5 -49.5s-31.167 -27.833 -49.5 -38.5s-33.833 -18.334 -46.5 -23.001l-4 -68h-112l-6 123c23.333 5.33301 42.666 11.166 57.999 17.499
s28.666 14 39.999 23s20.666 19.5 27.999 31.5s11 25.667 11 41c0 28 -7.83301 48.833 -23.5 62.5s-36.834 18.834 -63.501 15.501s-47 -8.83301 -61 -16.5s-28 -16.834 -42 -27.501z" />
    <glyph glyph-name="uni1ED0" unicode="&#x1ed0;" 
d="M1198 741c0 -106 -11.333 -205.5 -34 -298.5s-56.834 -174 -102.501 -243s-103 -123.333 -172 -163s-149.167 -59.5 -240.5 -59.5c-92.667 0 -173.167 19.833 -241.5 59.5s-125.333 94 -171 163s-79.834 150 -102.501 243s-34 192.5 -34 298.5
c0 106.667 11.333 206.5 34 299.5s56.834 173.833 102.501 242.5s102.667 122.834 171 162.501s148.833 59.5 241.5 59.5c91.333 0 171.5 -19.833 240.5 -59.5s126.333 -93.834 172 -162.501s79.834 -149.5 102.501 -242.5s34 -192.833 34 -299.5zM974 741
c0 80.667 -6.66699 155.167 -20 223.5s-34 127.5 -62 177.5s-62.167 88.833 -102.5 116.5s-87.166 41.5 -140.499 41.5s-100.5 -13.833 -141.5 -41.5s-75.5 -66.5 -103.5 -116.5s-48.833 -109.167 -62.5 -177.5s-20.5 -142.833 -20.5 -223.5
c0 -80 6.83301 -154.167 20.5 -222.5s34.5 -127.5 62.5 -177.5s62.5 -89 103.5 -117s88.167 -42 141.5 -42s100.166 14 140.499 42s74.5 67 102.5 117s48.667 109.167 62 177.5s20 142.5 20 222.5zM947 1777h-127l142 268c16 19.333 35.333 33 58 41s44.334 12 65.001 12
c21.333 0 40.666 -4.66699 57.999 -14s28 -22.333 32 -39zM840 1538l-190.002 139l-193 -139l-88 76l201 211c24.667 24.667 51.334 37 80.001 37s54.334 -12.333 77.001 -37l201 -211z" />
    <glyph glyph-name="uni1ED1" unicode="&#x1ed1;" horiz-adv-x="1116" 
d="M1024 553c0 -82 -10.333 -158.167 -31 -228.5s-50.334 -131 -89.001 -182s-87 -91.333 -145 -121s-124.667 -44.5 -200 -44.5s-142 14.833 -200 44.5s-106.833 70 -146.5 121s-69.667 111.667 -90 182s-30.5 146.5 -30.5 228.5s10.167 157.833 30.5 227.5
s50.333 130 90 181s88.5 91.167 146.5 120.5s124.667 44 200 44s142 -14.667 200 -44s106.333 -69.5 145 -120.5s68.334 -111.333 89.001 -181s31 -145.5 31 -227.5zM809 555c0 120 -20.833 215.501 -62.5 286.501s-104.167 106.5 -187.5 106.5
c-84.667 0 -147.5 -35.833 -188.5 -107.5s-61.5 -166.834 -61.5 -285.501s20.5 -214.167 61.5 -286.5s103.833 -108.5 188.5 -108.5c83.333 0 145.833 36.167 187.5 108.5s62.5 167.833 62.5 286.5zM859 1402h-127l142 268c16 19.333 35.333 33 58 41s44.334 12 65.001 12
c21.333 0 40.666 -4.66699 57.999 -14s28 -22.333 32 -39zM749 1178l-190.002 139l-193 -139l-88 76l201 211c24.667 24.667 51.334 37 80.001 37s54.334 -12.333 77.001 -37l201 -211z" />
    <glyph glyph-name="uni1ED2" unicode="&#x1ed2;" 
d="M1198 741c0 -106 -11.333 -205.5 -34 -298.5s-56.834 -174 -102.501 -243s-103 -123.333 -172 -163s-149.167 -59.5 -240.5 -59.5c-92.667 0 -173.167 19.833 -241.5 59.5s-125.333 94 -171 163s-79.834 150 -102.501 243s-34 192.5 -34 298.5
c0 106.667 11.333 206.5 34 299.5s56.834 173.833 102.501 242.5s102.667 122.834 171 162.501s148.833 59.5 241.5 59.5c91.333 0 171.5 -19.833 240.5 -59.5s126.333 -93.834 172 -162.501s79.834 -149.5 102.501 -242.5s34 -192.833 34 -299.5zM974 741
c0 80.667 -6.66699 155.167 -20 223.5s-34 127.5 -62 177.5s-62.167 88.833 -102.5 116.5s-87.166 41.5 -140.499 41.5s-100.5 -13.833 -141.5 -41.5s-75.5 -66.5 -103.5 -116.5s-48.833 -109.167 -62.5 -177.5s-20.5 -142.833 -20.5 -223.5
c0 -80 6.83301 -154.167 20.5 -222.5s34.5 -127.5 62.5 -177.5s62.5 -89 103.5 -117s88.167 -42 141.5 -42s100.166 14 140.499 42s74.5 67 102.5 117s48.667 109.167 62 177.5s20 142.5 20 222.5zM668 2022c4.66699 16.667 15.5 29.666 32.5 39c17 9.33301 36.5 14 58.5 14
c20 0 41.333 -4 64 -12s42 -21.667 58 -41l142 -268h-127zM840 1538l-190.002 139l-193 -139l-88 76l201 211c24.667 24.667 51.334 37 80.001 37s54.334 -12.333 77.001 -37l201 -211z" />
    <glyph glyph-name="uni1ED3" unicode="&#x1ed3;" horiz-adv-x="1116" 
d="M1024 553c0 -82 -10.333 -158.167 -31 -228.5s-50.334 -131 -89.001 -182s-87 -91.333 -145 -121s-124.667 -44.5 -200 -44.5s-142 14.833 -200 44.5s-106.833 70 -146.5 121s-69.667 111.667 -90 182s-30.5 146.5 -30.5 228.5s10.167 157.833 30.5 227.5
s50.333 130 90 181s88.5 91.167 146.5 120.5s124.667 44 200 44s142 -14.667 200 -44s106.333 -69.5 145 -120.5s68.334 -111.333 89.001 -181s31 -145.5 31 -227.5zM809 555c0 120 -20.833 215.501 -62.5 286.501s-104.167 106.5 -187.5 106.5
c-84.667 0 -147.5 -35.833 -188.5 -107.5s-61.5 -166.834 -61.5 -285.501s20.5 -214.167 61.5 -286.5s103.833 -108.5 188.5 -108.5c83.333 0 145.833 36.167 187.5 108.5s62.5 167.833 62.5 286.5zM587 1671c4.66699 16.667 15.5 29.667 32.5 39s36.5 14 58.5 14
c20 0 41.333 -4 64 -12s42 -21.667 58 -41l142 -268h-127zM749 1178l-190.002 139l-193 -139l-88 76l201 211c24.667 24.667 51.334 37 80.001 37s54.334 -12.333 77.001 -37l201 -211z" />
    <glyph glyph-name="uni1ED4" unicode="&#x1ed4;" 
d="M1198 741c0 -106 -11.333 -205.5 -34 -298.5s-56.834 -174 -102.501 -243s-103 -123.333 -172 -163s-149.167 -59.5 -240.5 -59.5c-92.667 0 -173.167 19.833 -241.5 59.5s-125.333 94 -171 163s-79.834 150 -102.501 243s-34 192.5 -34 298.5
c0 106.667 11.333 206.5 34 299.5s56.834 173.833 102.501 242.5s102.667 122.834 171 162.501s148.833 59.5 241.5 59.5c91.333 0 171.5 -19.833 240.5 -59.5s126.333 -93.834 172 -162.501s79.834 -149.5 102.501 -242.5s34 -192.833 34 -299.5zM974 741
c0 80.667 -6.66699 155.167 -20 223.5s-34 127.5 -62 177.5s-62.167 88.833 -102.5 116.5s-87.166 41.5 -140.499 41.5s-100.5 -13.833 -141.5 -41.5s-75.5 -66.5 -103.5 -116.5s-48.833 -109.167 -62.5 -177.5s-20.5 -142.833 -20.5 -223.5
c0 -80 6.83301 -154.167 20.5 -222.5s34.5 -127.5 62.5 -177.5s62.5 -89 103.5 -117s88.167 -42 141.5 -42s100.166 14 140.499 42s74.5 67 102.5 117s48.667 109.167 62 177.5s20 142.5 20 222.5zM753 2110c38 30.667 88.0049 49.6689 150.005 57.002
c61.333 2.66699 111.666 -12.833 150.999 -46.5s59 -77.5 59 -131.5c0 -22.667 -4.5 -43 -13.5 -61s-20.833 -34.5 -35.5 -49.5s-31.167 -27.833 -49.5 -38.5s-33.833 -18.334 -46.5 -23.001l-4 -68h-112l-6 123c23.333 5.33301 42.666 11.166 57.999 17.499
s28.666 14 39.999 23s20.666 19.5 27.999 31.5s11 25.667 11 41c0 28 -7.83301 48.833 -23.5 62.5s-36.834 18.834 -63.501 15.501s-47 -8.83301 -61 -16.5s-28 -16.834 -42 -27.501zM840.005 1538l-190.002 139l-193 -139l-88 76l201 211
c24.667 24.667 51.334 37 80.001 37s54.334 -12.333 77.001 -37l201 -211z" />
    <glyph glyph-name="uni1ED5" unicode="&#x1ed5;" horiz-adv-x="1116" 
d="M1024 553c0 -82 -10.333 -158.167 -31 -228.5s-50.334 -131 -89.001 -182s-87 -91.333 -145 -121s-124.667 -44.5 -200 -44.5s-142 14.833 -200 44.5s-106.833 70 -146.5 121s-69.667 111.667 -90 182s-30.5 146.5 -30.5 228.5s10.167 157.833 30.5 227.5
s50.333 130 90 181s88.5 91.167 146.5 120.5s124.667 44 200 44s142 -14.667 200 -44s106.333 -69.5 145 -120.5s68.334 -111.333 89.001 -181s31 -145.5 31 -227.5zM809 555c0 120 -20.833 215.501 -62.5 286.501s-104.167 106.5 -187.5 106.5
c-84.667 0 -147.5 -35.833 -188.5 -107.5s-61.5 -166.834 -61.5 -285.501s20.5 -214.167 61.5 -286.5s103.833 -108.5 188.5 -108.5c83.333 0 145.833 36.167 187.5 108.5s62.5 167.833 62.5 286.5zM665 1759c38 30.667 88.0049 49.6689 150.005 57.002
c61.333 2.66699 111.666 -12.833 150.999 -46.5s59 -77.5 59 -131.5c0 -22.667 -4.5 -43 -13.5 -61s-20.833 -34.5 -35.5 -49.5s-31.167 -27.833 -49.5 -38.5s-33.833 -18.334 -46.5 -23.001l-4 -68h-112l-6 123c23.333 5.33301 42.666 11.166 57.999 17.499
s28.666 14 39.999 23s20.666 19.5 27.999 31.5s11 25.667 11 41c0 28 -7.83301 48.833 -23.5 62.5s-36.834 18.834 -63.501 15.501s-47 -8.83301 -61 -16.5s-28 -16.834 -42 -27.501zM749.005 1178l-190.002 139l-193 -139l-88 76l201 211
c24.667 24.667 51.334 37 80.001 37s54.334 -12.333 77.001 -37l201 -211z" />
    <glyph glyph-name="uni1ED6" unicode="&#x1ed6;" 
d="M1198 741c0 -106 -11.333 -205.5 -34 -298.5s-56.834 -174 -102.501 -243s-103 -123.333 -172 -163s-149.167 -59.5 -240.5 -59.5c-92.667 0 -173.167 19.833 -241.5 59.5s-125.333 94 -171 163s-79.834 150 -102.501 243s-34 192.5 -34 298.5
c0 106.667 11.333 206.5 34 299.5s56.834 173.833 102.501 242.5s102.667 122.834 171 162.501s148.833 59.5 241.5 59.5c91.333 0 171.5 -19.833 240.5 -59.5s126.333 -93.834 172 -162.501s79.834 -149.5 102.501 -242.5s34 -192.833 34 -299.5zM974 741
c0 80.667 -6.66699 155.167 -20 223.5s-34 127.5 -62 177.5s-62.167 88.833 -102.5 116.5s-87.166 41.5 -140.499 41.5s-100.5 -13.833 -141.5 -41.5s-75.5 -66.5 -103.5 -116.5s-48.833 -109.167 -62.5 -177.5s-20.5 -142.833 -20.5 -223.5
c0 -80 6.83301 -154.167 20.5 -222.5s34.5 -127.5 62.5 -177.5s62.5 -89 103.5 -117s88.167 -42 141.5 -42s100.166 14 140.499 42s74.5 67 102.5 117s48.667 109.167 62 177.5s20 142.5 20 222.5zM938 1932c-40.667 -38.667 -85.001 -59.001 -133.001 -61.001
c-24.667 -1.33301 -44.5 2.83398 -59.5 12.501s-28.333 20.334 -40 32.001s-22 21.334 -31 29.001s-23.5 13.167 -43.5 16.5c-24.667 -1.33301 -48 -12 -70 -32c-13.333 -14 -25.333 -29.333 -36 -46l-84 61c21.333 40.667 47.333 76 78 106c39.333 37.333 83 57 131 59
c20.667 0.666992 41.167 -5 61.5 -17s34.333 -22.167 42 -30.5s17.334 -17.333 29.001 -27s26.5 -14.167 44.5 -13.5c24.667 1.33301 47.667 12 69 32c14 13.333 26.667 29.666 38 48.999l89 -57c-22.667 -42.667 -51 -80.334 -85 -113.001zM839.999 1538l-190.002 139
l-193 -139l-88 76l201 211c24.667 24.667 51.334 37 80.001 37s54.334 -12.333 77.001 -37l201 -211z" />
    <glyph glyph-name="uni1ED7" unicode="&#x1ed7;" horiz-adv-x="1116" 
d="M1024 553c0 -82 -10.333 -158.167 -31 -228.5s-50.334 -131 -89.001 -182s-87 -91.333 -145 -121s-124.667 -44.5 -200 -44.5s-142 14.833 -200 44.5s-106.833 70 -146.5 121s-69.667 111.667 -90 182s-30.5 146.5 -30.5 228.5s10.167 157.833 30.5 227.5
s50.333 130 90 181s88.5 91.167 146.5 120.5s124.667 44 200 44s142 -14.667 200 -44s106.333 -69.5 145 -120.5s68.334 -111.333 89.001 -181s31 -145.5 31 -227.5zM809 555c0 120 -20.833 215.501 -62.5 286.501s-104.167 106.5 -187.5 106.5
c-84.667 0 -147.5 -35.833 -188.5 -107.5s-61.5 -166.834 -61.5 -285.501s20.5 -214.167 61.5 -286.5s103.833 -108.5 188.5 -108.5c83.333 0 145.833 36.167 187.5 108.5s62.5 167.833 62.5 286.5zM824 1578c-40.667 -38.667 -85.001 -59.001 -133.001 -61.001
c-24.667 -1.33301 -44.5 2.83398 -59.5 12.501s-28.333 20.334 -40 32.001s-22 21.334 -31 29.001s-23.5 13.167 -43.5 16.5c-24.667 -1.33301 -48 -12 -70 -32c-13.333 -14 -25.333 -29.333 -36 -46l-84 61c21.333 40.667 47.333 76 78 106c39.333 37.333 83 57 131 59
c20.667 0.666992 41.167 -5 61.5 -17s34.333 -22.167 42 -30.5s17.334 -17.333 29.001 -27s26.5 -14.167 44.5 -13.5c24.667 1.33301 47.667 12 69 32c14 13.333 26.667 29.666 38 48.999l89 -57c-22.667 -42.667 -51 -80.334 -85 -113.001zM748.999 1178l-190.002 139
l-193 -139l-88 76l201 211c24.667 24.667 51.334 37 80.001 37s54.334 -12.333 77.001 -37l201 -211z" />
    <glyph glyph-name="uni1ED8" unicode="&#x1ed8;" 
d="M1198 741c0 -106 -11.333 -205.5 -34 -298.5s-56.834 -174 -102.501 -243s-103 -123.333 -172 -163s-149.167 -59.5 -240.5 -59.5c-92.667 0 -173.167 19.833 -241.5 59.5s-125.333 94 -171 163s-79.834 150 -102.501 243s-34 192.5 -34 298.5
c0 106.667 11.333 206.5 34 299.5s56.834 173.833 102.501 242.5s102.667 122.834 171 162.501s148.833 59.5 241.5 59.5c91.333 0 171.5 -19.833 240.5 -59.5s126.333 -93.834 172 -162.501s79.834 -149.5 102.501 -242.5s34 -192.833 34 -299.5zM974 741
c0 80.667 -6.66699 155.167 -20 223.5s-34 127.5 -62 177.5s-62.167 88.833 -102.5 116.5s-87.166 41.5 -140.499 41.5s-100.5 -13.833 -141.5 -41.5s-75.5 -66.5 -103.5 -116.5s-48.833 -109.167 -62.5 -177.5s-20.5 -142.833 -20.5 -223.5
c0 -80 6.83301 -154.167 20.5 -222.5s34.5 -127.5 62.5 -177.5s62.5 -89 103.5 -117s88.167 -42 141.5 -42s100.166 14 140.499 42s74.5 67 102.5 117s48.667 109.167 62 177.5s20 142.5 20 222.5zM762 -199c0 -31.333 -10.833 -57.666 -32.5 -78.999s-48.167 -32 -79.5 -32
c-32 0 -59.167 10.667 -81.5 32s-33.5 47.666 -33.5 78.999s11.167 57.666 33.5 78.999s49.5 32 81.5 32c31.333 0 57.833 -10.667 79.5 -32s32.5 -47.666 32.5 -78.999zM840 1538l-190.002 139l-193 -139l-88 76l201 211c24.667 24.667 51.334 37 80.001 37
s54.334 -12.333 77.001 -37l201 -211z" />
    <glyph glyph-name="uni1ED9" unicode="&#x1ed9;" horiz-adv-x="1116" 
d="M1024 553c0 -82 -10.333 -158.167 -31 -228.5s-50.334 -131 -89.001 -182s-87 -91.333 -145 -121s-124.667 -44.5 -200 -44.5s-142 14.833 -200 44.5s-106.833 70 -146.5 121s-69.667 111.667 -90 182s-30.5 146.5 -30.5 228.5s10.167 157.833 30.5 227.5
s50.333 130 90 181s88.5 91.167 146.5 120.5s124.667 44 200 44s142 -14.667 200 -44s106.333 -69.5 145 -120.5s68.334 -111.333 89.001 -181s31 -145.5 31 -227.5zM809 555c0 120 -20.833 215.501 -62.5 286.501s-104.167 106.5 -187.5 106.5
c-84.667 0 -147.5 -35.833 -188.5 -107.5s-61.5 -166.834 -61.5 -285.501s20.5 -214.167 61.5 -286.5s103.833 -108.5 188.5 -108.5c83.333 0 145.833 36.167 187.5 108.5s62.5 167.833 62.5 286.5zM671 -198.999c0 -31.333 -10.833 -57.666 -32.5 -78.999
s-48.167 -32 -79.5 -32c-32 0 -59.167 10.667 -81.5 32s-33.5 47.666 -33.5 78.999s11.167 57.666 33.5 78.999s49.5 32 81.5 32c31.333 0 57.833 -10.667 79.5 -32s32.5 -47.666 32.5 -78.999zM749 1178l-190.002 139l-193 -139l-88 76l201 211
c24.667 24.667 51.334 37 80.001 37s54.334 -12.333 77.001 -37l201 -211z" />
    <glyph glyph-name="uni1EDA" unicode="&#x1eda;" 
d="M974 741c0 80.667 -6.66699 155.167 -20 223.5s-34 127.5 -62 177.5s-62.167 88.833 -102.5 116.5s-87.166 41.5 -140.499 41.5s-100.5 -13.833 -141.5 -41.5s-75.5 -66.5 -103.5 -116.5s-48.833 -109.167 -62.5 -177.5s-20.5 -142.833 -20.5 -223.5
c0 -80 6.83301 -154.167 20.5 -222.5s34.5 -127.5 62.5 -177.5s62.5 -89 103.5 -117s88.167 -42 141.5 -42s100.166 14 140.499 42s74.5 67 102.5 117s48.667 109.167 62 177.5s20 142.5 20 222.5zM623 1565h-127l142 268c16 19.333 35.333 33 58 41s44.334 12 65.001 12
c21.333 0 40.666 -4.66699 57.999 -14s28 -22.333 32 -39zM1067 1275c42.667 -67.333 75.002 -145.333 97.002 -234c22.667 -93.333 34 -193.333 34 -300c0 -106 -11.333 -205.5 -34 -298.5s-56.834 -174 -102.501 -243s-103 -123.333 -172 -163
s-149.167 -59.5 -240.5 -59.5c-92.667 0 -173.167 19.833 -241.5 59.5s-125.333 94 -171 163s-79.834 150 -102.501 243s-34 192.5 -34 298.5c0 106.667 11.333 206.5 34 299.5s56.834 173.833 102.501 242.5s102.667 122.834 171 162.501s148.833 59.5 241.5 59.5
c91.333 0 171.666 -19.667 240.999 -59c22.667 -13.333 44 -28.333 64 -45l100 185c19.333 16.667 42.166 28.834 68.499 36.501s56.833 8.16699 91.5 1.5c33.333 -6.66699 56.333 -18.334 69 -35.001s18.334 -34.334 17.001 -53.001z" />
    <glyph glyph-name="uni1EDB" unicode="&#x1edb;" horiz-adv-x="1116" 
d="M809 555c0 120 -20.833 215.501 -62.5 286.501s-104.167 106.5 -187.5 106.5c-84.667 0 -147.5 -35.833 -188.5 -107.5s-61.5 -166.834 -61.5 -285.501s20.5 -214.167 61.5 -286.5s103.833 -108.5 188.5 -108.5c83.333 0 145.833 36.167 187.5 108.5
s62.5 167.833 62.5 286.5zM559 1222h-127l142 268c16 19.333 35.333 33 58 41s44.334 12 65.001 12c21.333 0 40.666 -4.66699 57.999 -14s28 -22.333 32 -39zM916 946.001c33.333 -47.333 59.333 -102.333 78 -165c20 -70 30 -146 30 -228s-10.167 -158.167 -30.5 -228.5
s-50 -131 -89 -182s-87.5 -91.333 -145.5 -121s-124.667 -44.5 -200 -44.5s-142 14.833 -200 44.5s-106.667 70 -146 121s-69.333 111.667 -90 182s-31 146.5 -31 228.5s10.333 157.833 31 227.5s50.667 130 90 181s88 91.167 146 120.5s124.667 44 200 44
s142 -14.667 200 -44c6.66699 -3.33301 13 -6.66602 19 -9.99902l81 137c19.333 16.667 42.166 28.834 68.499 36.501s56.833 8.16699 91.5 1.5c33.333 -6.66699 56.333 -18.334 69 -35.001s18.334 -34.334 17.001 -53.001z" />
    <glyph glyph-name="uni1EDC" unicode="&#x1edc;" 
d="M974 741c0 80.667 -6.66699 155.167 -20 223.5s-34 127.5 -62 177.5s-62.167 88.833 -102.5 116.5s-87.166 41.5 -140.499 41.5s-100.5 -13.833 -141.5 -41.5s-75.5 -66.5 -103.5 -116.5s-48.833 -109.167 -62.5 -177.5s-20.5 -142.833 -20.5 -223.5
c0 -80 6.83301 -154.167 20.5 -222.5s34.5 -127.5 62.5 -177.5s62.5 -89 103.5 -117s88.167 -42 141.5 -42s100.166 14 140.499 42s74.5 67 102.5 117s48.667 109.167 62 177.5s20 142.5 20 222.5zM427 1833c4.66699 16.667 15.5 29.667 32.5 39s36.5 14 58.5 14
c20 0 41.333 -4 64 -12s42 -21.667 58 -41l142 -268h-127zM1067 1275c42.667 -67.333 75.002 -145.333 97.002 -234c22.667 -93.333 34 -193.333 34 -300c0 -106 -11.333 -205.5 -34 -298.5s-56.834 -174 -102.501 -243s-103 -123.333 -172 -163
s-149.167 -59.5 -240.5 -59.5c-92.667 0 -173.167 19.833 -241.5 59.5s-125.333 94 -171 163s-79.834 150 -102.501 243s-34 192.5 -34 298.5c0 106.667 11.333 206.5 34 299.5s56.834 173.833 102.501 242.5s102.667 122.834 171 162.501s148.833 59.5 241.5 59.5
c91.333 0 171.666 -19.667 240.999 -59c22.667 -13.333 44 -28.333 64 -45l100 185c19.333 16.667 42.166 28.834 68.499 36.501s56.833 8.16699 91.5 1.5c33.333 -6.66699 56.333 -18.334 69 -35.001s18.334 -34.334 17.001 -53.001z" />
    <glyph glyph-name="uni1EDD" unicode="&#x1edd;" horiz-adv-x="1116" 
d="M809 555c0 120 -20.833 215.501 -62.5 286.501s-104.167 106.5 -187.5 106.5c-84.667 0 -147.5 -35.833 -188.5 -107.5s-61.5 -166.834 -61.5 -285.501s20.5 -214.167 61.5 -286.5s103.833 -108.5 188.5 -108.5c83.333 0 145.833 36.167 187.5 108.5
s62.5 167.833 62.5 286.5zM339 1491c4.66699 16.667 15.5 29.667 32.5 39s36.5 14 58.5 14c20 0 41.333 -4 64 -12s42 -21.667 58 -41l142 -268h-127zM916 946.001c33.333 -47.333 59.333 -102.333 78 -165c20 -70 30 -146 30 -228s-10.167 -158.167 -30.5 -228.5
s-50 -131 -89 -182s-87.5 -91.333 -145.5 -121s-124.667 -44.5 -200 -44.5s-142 14.833 -200 44.5s-106.667 70 -146 121s-69.333 111.667 -90 182s-31 146.5 -31 228.5s10.333 157.833 31 227.5s50.667 130 90 181s88 91.167 146 120.5s124.667 44 200 44
s142 -14.667 200 -44c6.66699 -3.33301 13 -6.66602 19 -9.99902l81 137c19.333 16.667 42.166 28.834 68.499 36.501s56.833 8.16699 91.5 1.5c33.333 -6.66699 56.333 -18.334 69 -35.001s18.334 -34.334 17.001 -53.001z" />
    <glyph glyph-name="uni1EDE" unicode="&#x1ede;" 
d="M974 741c0 80.667 -6.66699 155.167 -20 223.5s-34 127.5 -62 177.5s-62.167 88.833 -102.5 116.5s-87.166 41.5 -140.499 41.5s-100.5 -13.833 -141.5 -41.5s-75.5 -66.5 -103.5 -116.5s-48.833 -109.167 -62.5 -177.5s-20.5 -142.833 -20.5 -223.5
c0 -80 6.83301 -154.167 20.5 -222.5s34.5 -127.5 62.5 -177.5s62.5 -89 103.5 -117s88.167 -42 141.5 -42s100.166 14 140.499 42s74.5 67 102.5 117s48.667 109.167 62 177.5s20 142.5 20 222.5zM504 1948c38 30.667 88.0049 49.6689 150.005 57.002
c61.333 2.66699 111.666 -12.833 150.999 -46.5s59 -77.5 59 -131.5c0 -22.667 -4.5 -43 -13.5 -61s-20.833 -34.5 -35.5 -49.5s-31.167 -27.833 -49.5 -38.5s-33.833 -18.334 -46.5 -23.001l-4 -68h-112l-6 123c23.333 5.33301 42.666 11.166 57.999 17.499
s28.666 14 39.999 23s20.666 19.5 27.999 31.5s11 25.667 11 41c0 28 -7.83301 48.833 -23.5 62.5s-36.834 18.834 -63.501 15.501s-47 -8.83301 -61 -16.5s-28 -16.834 -42 -27.501zM1067 1275c42.667 -67.333 75.002 -145.333 97.002 -234
c22.667 -93.333 34 -193.333 34 -300c0 -106 -11.333 -205.5 -34 -298.5s-56.834 -174 -102.501 -243s-103 -123.333 -172 -163s-149.167 -59.5 -240.5 -59.5c-92.667 0 -173.167 19.833 -241.5 59.5s-125.333 94 -171 163s-79.834 150 -102.501 243s-34 192.5 -34 298.5
c0 106.667 11.333 206.5 34 299.5s56.834 173.833 102.501 242.5s102.667 122.834 171 162.501s148.833 59.5 241.5 59.5c91.333 0 171.666 -19.667 240.999 -59c22.667 -13.333 44 -28.333 64 -45l100 185c19.333 16.667 42.166 28.834 68.499 36.501
s56.833 8.16699 91.5 1.5c33.333 -6.66699 56.333 -18.334 69 -35.001s18.334 -34.334 17.001 -53.001z" />
    <glyph glyph-name="uni1EDF" unicode="&#x1edf;" horiz-adv-x="1116" 
d="M809 555c0 120 -20.833 215.501 -62.5 286.501s-104.167 106.5 -187.5 106.5c-84.667 0 -147.5 -35.833 -188.5 -107.5s-61.5 -166.834 -61.5 -285.501s20.5 -214.167 61.5 -286.5s103.833 -108.5 188.5 -108.5c83.333 0 145.833 36.167 187.5 108.5
s62.5 167.833 62.5 286.5zM400 1579c38 30.667 88.0049 49.6689 150.005 57.002c61.333 2.66699 111.666 -12.833 150.999 -46.5s59 -77.5 59 -131.5c0 -22.667 -4.5 -43 -13.5 -61s-20.833 -34.5 -35.5 -49.5s-31.167 -27.833 -49.5 -38.5s-33.833 -18.334 -46.5 -23.001
l-4 -68h-112l-6 123c23.333 5.33301 42.666 11.166 57.999 17.499s28.666 14 39.999 23s20.666 19.5 27.999 31.5s11 25.667 11 41c0 28 -7.83301 48.833 -23.5 62.5s-36.834 18.834 -63.501 15.501s-47 -8.83301 -61 -16.5s-28 -16.834 -42 -27.501zM916.005 946.003
c33.333 -47.333 59.333 -102.333 78 -165c20 -70 30 -146 30 -228s-10.167 -158.167 -30.5 -228.5s-50 -131 -89 -182s-87.5 -91.333 -145.5 -121s-124.667 -44.5 -200 -44.5s-142 14.833 -200 44.5s-106.667 70 -146 121s-69.333 111.667 -90 182s-31 146.5 -31 228.5
s10.333 157.833 31 227.5s50.667 130 90 181s88 91.167 146 120.5s124.667 44 200 44s142 -14.667 200 -44c6.66699 -3.33301 13 -6.66602 19 -9.99902l81 137c19.333 16.667 42.166 28.834 68.499 36.501s56.833 8.16699 91.5 1.5
c33.333 -6.66699 56.333 -18.334 69 -35.001s18.334 -34.334 17.001 -53.001z" />
    <glyph glyph-name="uni1EE0" unicode="&#x1ee0;" 
d="M974 741c0 80.667 -6.66699 155.167 -20 223.5s-34 127.5 -62 177.5s-62.167 88.833 -102.5 116.5s-87.166 41.5 -140.499 41.5s-100.5 -13.833 -141.5 -41.5s-75.5 -66.5 -103.5 -116.5s-48.833 -109.167 -62.5 -177.5s-20.5 -142.833 -20.5 -223.5
c0 -80 6.83301 -154.167 20.5 -222.5s34.5 -127.5 62.5 -177.5s62.5 -89 103.5 -117s88.167 -42 141.5 -42s100.166 14 140.499 42s74.5 67 102.5 117s48.667 109.167 62 177.5s20 142.5 20 222.5zM836 1656c-40.667 -38.667 -85.001 -59.001 -133.001 -61.001
c-24.667 -1.33301 -44.5 2.83398 -59.5 12.501s-28.333 20.334 -40 32.001s-22 21.334 -31 29.001s-23.5 13.167 -43.5 16.5c-24.667 -1.33301 -48 -12 -70 -32c-13.333 -14 -25.333 -29.333 -36 -46l-84 61c21.333 40.667 47.333 76 78 106c39.333 37.333 83 57 131 59
c20.667 0.666992 41.167 -5 61.5 -17s34.333 -22.167 42 -30.5s17.334 -17.333 29.001 -27s26.5 -14.167 44.5 -13.5c24.667 1.33301 47.667 12 69 32c14 13.333 26.667 29.666 38 48.999l89 -57c-22.667 -42.667 -51 -80.334 -85 -113.001zM1067 1275
c42.667 -67.333 75.002 -145.333 97.002 -234c22.667 -93.333 34 -193.333 34 -300c0 -106 -11.333 -205.5 -34 -298.5s-56.834 -174 -102.501 -243s-103 -123.333 -172 -163s-149.167 -59.5 -240.5 -59.5c-92.667 0 -173.167 19.833 -241.5 59.5s-125.333 94 -171 163
s-79.834 150 -102.501 243s-34 192.5 -34 298.5c0 106.667 11.333 206.5 34 299.5s56.834 173.833 102.501 242.5s102.667 122.834 171 162.501s148.833 59.5 241.5 59.5c91.333 0 171.666 -19.667 240.999 -59c22.667 -13.333 44 -28.333 64 -45l100 185
c19.333 16.667 42.166 28.834 68.499 36.501s56.833 8.16699 91.5 1.5c33.333 -6.66699 56.333 -18.334 69 -35.001s18.334 -34.334 17.001 -53.001z" />
    <glyph glyph-name="uni1EE1" unicode="&#x1ee1;" horiz-adv-x="1116" 
d="M809 555c0 120 -20.833 215.501 -62.5 286.501s-104.167 106.5 -187.5 106.5c-84.667 0 -147.5 -35.833 -188.5 -107.5s-61.5 -166.834 -61.5 -285.501s20.5 -214.167 61.5 -286.5s103.833 -108.5 188.5 -108.5c83.333 0 145.833 36.167 187.5 108.5
s62.5 167.833 62.5 286.5zM775 1270c-40.667 -38.667 -85.001 -59.001 -133.001 -61.001c-24.667 -1.33301 -44.5 2.83398 -59.5 12.501s-28.333 20.334 -40 32.001s-22 21.334 -31 29.001s-23.5 13.167 -43.5 16.5c-24.667 -1.33301 -48 -12 -70 -32
c-13.333 -14 -25.333 -29.333 -36 -46l-84 61c21.333 40.667 47.333 76 78 106c39.333 37.333 83 57 131 59c20.667 0.666992 41.167 -5 61.5 -17s34.333 -22.167 42 -30.5s17.334 -17.333 29.001 -27s26.5 -14.167 44.5 -13.5c24.667 1.33301 47.667 12 69 32
c14 13.333 26.667 29.666 38 48.999l89 -57c-22.667 -42.667 -51 -80.334 -85 -113.001zM915.999 946c33.333 -47.333 59.333 -102.333 78 -165c20 -70 30 -146 30 -228s-10.167 -158.167 -30.5 -228.5s-50 -131 -89 -182s-87.5 -91.333 -145.5 -121
s-124.667 -44.5 -200 -44.5s-142 14.833 -200 44.5s-106.667 70 -146 121s-69.333 111.667 -90 182s-31 146.5 -31 228.5s10.333 157.833 31 227.5s50.667 130 90 181s88 91.167 146 120.5s124.667 44 200 44s142 -14.667 200 -44c6.66699 -3.33301 13 -6.66602 19 -9.99902
l81 137c19.333 16.667 42.166 28.834 68.499 36.501s56.833 8.16699 91.5 1.5c33.333 -6.66699 56.333 -18.334 69 -35.001s18.334 -34.334 17.001 -53.001z" />
    <glyph glyph-name="uni1EE2" unicode="&#x1ee2;" 
d="M974 741c0 80.667 -6.66699 155.167 -20 223.5s-34 127.5 -62 177.5s-62.167 88.833 -102.5 116.5s-87.166 41.5 -140.499 41.5s-100.5 -13.833 -141.5 -41.5s-75.5 -66.5 -103.5 -116.5s-48.833 -109.167 -62.5 -177.5s-20.5 -142.833 -20.5 -223.5
c0 -80 6.83301 -154.167 20.5 -222.5s34.5 -127.5 62.5 -177.5s62.5 -89 103.5 -117s88.167 -42 141.5 -42s100.166 14 140.499 42s74.5 67 102.5 117s48.667 109.167 62 177.5s20 142.5 20 222.5zM762 -199c0 -31.333 -10.833 -57.666 -32.5 -78.999s-48.167 -32 -79.5 -32
c-32 0 -59.167 10.667 -81.5 32s-33.5 47.666 -33.5 78.999s11.167 57.666 33.5 78.999s49.5 32 81.5 32c31.333 0 57.833 -10.667 79.5 -32s32.5 -47.666 32.5 -78.999zM1067 1275c42.667 -67.333 75.002 -145.333 97.002 -234c22.667 -93.333 34 -193.333 34 -300
c0 -106 -11.333 -205.5 -34 -298.5s-56.834 -174 -102.501 -243s-103 -123.333 -172 -163s-149.167 -59.5 -240.5 -59.5c-92.667 0 -173.167 19.833 -241.5 59.5s-125.333 94 -171 163s-79.834 150 -102.501 243s-34 192.5 -34 298.5c0 106.667 11.333 206.5 34 299.5
s56.834 173.833 102.501 242.5s102.667 122.834 171 162.501s148.833 59.5 241.5 59.5c91.333 0 171.666 -19.667 240.999 -59c22.667 -13.333 44 -28.333 64 -45l100 185c19.333 16.667 42.166 28.834 68.499 36.501s56.833 8.16699 91.5 1.5
c33.333 -6.66699 56.333 -18.334 69 -35.001s18.334 -34.334 17.001 -53.001z" />
    <glyph glyph-name="uni1EE3" unicode="&#x1ee3;" horiz-adv-x="1116" 
d="M809 555c0 120 -20.833 215.501 -62.5 286.501s-104.167 106.5 -187.5 106.5c-84.667 0 -147.5 -35.833 -188.5 -107.5s-61.5 -166.834 -61.5 -285.501s20.5 -214.167 61.5 -286.5s103.833 -108.5 188.5 -108.5c83.333 0 145.833 36.167 187.5 108.5
s62.5 167.833 62.5 286.5zM672 -198.999c0 -31.333 -10.833 -57.666 -32.5 -78.999s-48.167 -32 -79.5 -32c-32 0 -59.167 10.667 -81.5 32s-33.5 47.666 -33.5 78.999s11.167 57.666 33.5 78.999s49.5 32 81.5 32c31.333 0 57.833 -10.667 79.5 -32
s32.5 -47.666 32.5 -78.999zM916 946.001c33.333 -47.333 59.333 -102.333 78 -165c20 -70 30 -146 30 -228s-10.167 -158.167 -30.5 -228.5s-50 -131 -89 -182s-87.5 -91.333 -145.5 -121s-124.667 -44.5 -200 -44.5s-142 14.833 -200 44.5s-106.667 70 -146 121
s-69.333 111.667 -90 182s-31 146.5 -31 228.5s10.333 157.833 31 227.5s50.667 130 90 181s88 91.167 146 120.5s124.667 44 200 44s142 -14.667 200 -44c6.66699 -3.33301 13 -6.66602 19 -9.99902l81 137c19.333 16.667 42.166 28.834 68.499 36.501
s56.833 8.16699 91.5 1.5c33.333 -6.66699 56.333 -18.334 69 -35.001s18.334 -34.334 17.001 -53.001z" />
    <glyph glyph-name="uni1EE4" unicode="&#x1ee4;" horiz-adv-x="1234" 
d="M1091 432c0 -72 -12.333 -136 -37 -192s-58 -103.167 -100 -141.5s-92.167 -67.666 -150.5 -87.999s-120.833 -30.5 -187.5 -30.5s-128.667 10.167 -186 30.5s-107.166 49.666 -149.499 87.999s-75.833 85.5 -100.5 141.5s-37 120 -37 192v1051h223v-1053
c0 -79.333 24.333 -141.166 73 -185.499s107.667 -66.5 177 -66.5c71.333 0 131.166 22.167 179.499 66.5s72.5 106.166 72.5 185.499v1053h223v-1051v0zM731 -199c0 -31.333 -10.833 -57.666 -32.5 -78.999s-48.167 -32 -79.5 -32c-32 0 -59.167 10.667 -81.5 32
s-33.5 47.666 -33.5 78.999s11.167 57.666 33.5 78.999s49.5 32 81.5 32c31.333 0 57.833 -10.667 79.5 -32s32.5 -47.666 32.5 -78.999z" />
    <glyph glyph-name="uni1EE5" unicode="&#x1ee5;" horiz-adv-x="1095" 
d="M962 55c-43.333 -23.333 -100.833 -42.167 -172.5 -56.5s-147.834 -21.5 -228.501 -21.5c-140.667 0 -247.5 31.5 -320.5 94.5s-109.5 164.167 -109.5 303.5v729h215v-733c0 -139.333 71.667 -209 215 -209c41.333 0 78.333 3 111 9s58.334 13.333 77.001 22v911h213
v-1049v0zM672 -199.001c0 -31.333 -10.833 -57.666 -32.5 -78.999s-48.167 -32 -79.5 -32c-32 0 -59.167 10.667 -81.5 32s-33.5 47.666 -33.5 78.999s11.167 57.666 33.5 78.999s49.5 32 81.5 32c31.333 0 57.833 -10.667 79.5 -32s32.5 -47.666 32.5 -78.999z" />
    <glyph glyph-name="uni1EE6" unicode="&#x1ee6;" horiz-adv-x="1234" 
d="M1091 432c0 -72 -12.333 -136 -37 -192s-58 -103.167 -100 -141.5s-92.167 -67.666 -150.5 -87.999s-120.833 -30.5 -187.5 -30.5s-128.667 10.167 -186 30.5s-107.166 49.666 -149.499 87.999s-75.833 85.5 -100.5 141.5s-37 120 -37 192v1051h223v-1053
c0 -79.333 24.333 -141.166 73 -185.499s107.667 -66.5 177 -66.5c71.333 0 131.166 22.167 179.499 66.5s72.5 106.166 72.5 185.499v1053h223v-1051v0zM474 1930c38 30.667 88.0049 49.6689 150.005 57.002c61.333 2.66699 111.666 -12.833 150.999 -46.5
s59 -77.5 59 -131.5c0 -22.667 -4.5 -43 -13.5 -61s-20.833 -34.5 -35.5 -49.5s-31.167 -27.833 -49.5 -38.5s-33.833 -18.334 -46.5 -23.001l-4 -68h-112l-6 123c23.333 5.33301 42.666 11.166 57.999 17.499s28.666 14 39.999 23s20.666 19.5 27.999 31.5s11 25.667 11 41
c0 28 -7.83301 48.833 -23.5 62.5s-36.834 18.834 -63.501 15.501s-47 -8.83301 -61 -16.5s-28 -16.834 -42 -27.501z" />
    <glyph glyph-name="uni1EE7" unicode="&#x1ee7;" horiz-adv-x="1095" 
d="M962 55c-43.333 -23.333 -100.833 -42.167 -172.5 -56.5s-147.834 -21.5 -228.501 -21.5c-140.667 0 -247.5 31.5 -320.5 94.5s-109.5 164.167 -109.5 303.5v729h215v-733c0 -139.333 71.667 -209 215 -209c41.333 0 78.333 3 111 9s58.334 13.333 77.001 22v911h213
v-1049v0zM400 1579c38 30.667 88.0049 49.6689 150.005 57.002c61.333 2.66699 111.666 -12.833 150.999 -46.5s59 -77.5 59 -131.5c0 -22.667 -4.5 -43 -13.5 -61s-20.833 -34.5 -35.5 -49.5s-31.167 -27.833 -49.5 -38.5s-33.833 -18.334 -46.5 -23.001l-4 -68h-112
l-6 123c23.333 5.33301 42.666 11.166 57.999 17.499s28.666 14 39.999 23s20.666 19.5 27.999 31.5s11 25.667 11 41c0 28 -7.83301 48.833 -23.5 62.5s-36.834 18.834 -63.501 15.501s-47 -8.83301 -61 -16.5s-28 -16.834 -42 -27.501z" />
    <glyph glyph-name="uni1EE8" unicode="&#x1ee8;" horiz-adv-x="1234" 
d="M633 1565h-127l142 268c16 19.333 35.333 33 58 41s44.334 12 65.001 12c21.333 0 40.666 -4.66699 57.999 -14s28 -22.333 32 -39zM1092 1303l0.000976562 -870.999c0 -72 -12.333 -136 -37 -192s-58.167 -103.167 -100.5 -141.5s-92.5 -67.666 -150.5 -87.999
s-120.667 -30.5 -188 -30.5c-66.667 0 -128.667 10.167 -186 30.5s-107.166 49.666 -149.499 87.999s-75.833 85.5 -100.5 141.5s-37 120 -37 192v1051h224v-1053c0 -79.333 24.167 -141.166 72.5 -185.499s107.166 -66.5 176.499 -66.5
c71.333 0 131.166 22.167 179.499 66.5s72.5 106.166 72.5 185.499v1053h120l66 103c19.333 16.667 42.166 28.834 68.499 36.501s56.833 8.16699 91.5 1.5c33.333 -6.66699 56.333 -18.334 69 -35.001s18.334 -34.334 17.001 -53.001z" />
    <glyph glyph-name="uni1EE9" unicode="&#x1ee9;" horiz-adv-x="1095" 
d="M559 1222h-127l142 268c16 19.333 35.333 33 58 41s44.334 12 65.001 12c21.333 0 40.666 -4.66699 57.999 -14s28 -22.333 32 -39zM963 935l0.000976562 -880c-44 -23.333 -101.833 -42.166 -173.5 -56.499s-147.834 -21.5 -228.501 -21.5
c-140.667 0 -247.5 31.5 -320.5 94.5s-109.5 164.167 -109.5 303.5v729h215v-733c0 -139.333 71.667 -209 215 -209c41.333 0 78.333 3 111 9s58.667 13.333 78 22v911h105l62 105c19.333 16.667 42.166 28.834 68.499 36.501s56.833 8.16699 91.5 1.5
c33.333 -6.66699 56.333 -18.334 69 -35.001s18.334 -34.334 17.001 -53.001z" />
    <glyph glyph-name="uni1EEA" unicode="&#x1eea;" horiz-adv-x="1234" 
d="M350 1833c4.66699 16.667 15.5 29.667 32.5 39s36.5 14 58.5 14c20 0 41.333 -4 64 -12s42 -21.667 58 -41l142 -268h-127zM1092 1303l0.000976562 -870.999c0 -72 -12.333 -136 -37 -192s-58.167 -103.167 -100.5 -141.5s-92.5 -67.666 -150.5 -87.999
s-120.667 -30.5 -188 -30.5c-66.667 0 -128.667 10.167 -186 30.5s-107.166 49.666 -149.499 87.999s-75.833 85.5 -100.5 141.5s-37 120 -37 192v1051h224v-1053c0 -79.333 24.167 -141.166 72.5 -185.499s107.166 -66.5 176.499 -66.5
c71.333 0 131.166 22.167 179.499 66.5s72.5 106.166 72.5 185.499v1053h120l66 103c19.333 16.667 42.166 28.834 68.499 36.501s56.833 8.16699 91.5 1.5c33.333 -6.66699 56.333 -18.334 69 -35.001s18.334 -34.334 17.001 -53.001z" />
    <glyph glyph-name="uni1EEB" unicode="&#x1eeb;" horiz-adv-x="1095" 
d="M288 1491c4.66699 16.667 15.5 29.667 32.5 39s36.5 14 58.5 14c20 0 41.333 -4 64 -12s42 -21.667 58 -41l142 -268h-127zM963 935l0.000976562 -880c-44 -23.333 -101.833 -42.166 -173.5 -56.499s-147.834 -21.5 -228.501 -21.5c-140.667 0 -247.5 31.5 -320.5 94.5
s-109.5 164.167 -109.5 303.5v729h215v-733c0 -139.333 71.667 -209 215 -209c41.333 0 78.333 3 111 9s58.667 13.333 78 22v911h105l62 105c19.333 16.667 42.166 28.834 68.499 36.501s56.833 8.16699 91.5 1.5c33.333 -6.66699 56.333 -18.334 69 -35.001
s18.334 -34.334 17.001 -53.001z" />
    <glyph glyph-name="uni1EEC" unicode="&#x1eec;" horiz-adv-x="1234" 
d="M474 1930c38 30.667 88.0049 49.6689 150.005 57.002c61.333 2.66699 111.666 -12.833 150.999 -46.5s59 -77.5 59 -131.5c0 -22.667 -4.5 -43 -13.5 -61s-20.833 -34.5 -35.5 -49.5s-31.167 -27.833 -49.5 -38.5s-33.833 -18.334 -46.5 -23.001l-4 -68h-112l-6 123
c23.333 5.33301 42.666 11.166 57.999 17.499s28.666 14 39.999 23s20.666 19.5 27.999 31.5s11 25.667 11 41c0 28 -7.83301 48.833 -23.5 62.5s-36.834 18.834 -63.501 15.501s-47 -8.83301 -61 -16.5s-28 -16.834 -42 -27.501zM1092 1303l0.000976562 -870.999
c0 -72 -12.333 -136 -37 -192s-58.167 -103.167 -100.5 -141.5s-92.5 -67.666 -150.5 -87.999s-120.667 -30.5 -188 -30.5c-66.667 0 -128.667 10.167 -186 30.5s-107.166 49.666 -149.499 87.999s-75.833 85.5 -100.5 141.5s-37 120 -37 192v1051h224v-1053
c0 -79.333 24.167 -141.166 72.5 -185.499s107.166 -66.5 176.499 -66.5c71.333 0 131.166 22.167 179.499 66.5s72.5 106.166 72.5 185.499v1053h120l66 103c19.333 16.667 42.166 28.834 68.499 36.501s56.833 8.16699 91.5 1.5
c33.333 -6.66699 56.333 -18.334 69 -35.001s18.334 -34.334 17.001 -53.001z" />
    <glyph glyph-name="uni1EED" unicode="&#x1eed;" horiz-adv-x="1095" 
d="M400 1579c38 30.667 88.0049 49.6689 150.005 57.002c61.333 2.66699 111.666 -12.833 150.999 -46.5s59 -77.5 59 -131.5c0 -22.667 -4.5 -43 -13.5 -61s-20.833 -34.5 -35.5 -49.5s-31.167 -27.833 -49.5 -38.5s-33.833 -18.334 -46.5 -23.001l-4 -68h-112l-6 123
c23.333 5.33301 42.666 11.166 57.999 17.499s28.666 14 39.999 23s20.666 19.5 27.999 31.5s11 25.667 11 41c0 28 -7.83301 48.833 -23.5 62.5s-36.834 18.834 -63.501 15.501s-47 -8.83301 -61 -16.5s-28 -16.834 -42 -27.501zM963.005 935.002l0.000976562 -880
c-44 -23.333 -101.833 -42.166 -173.5 -56.499s-147.834 -21.5 -228.501 -21.5c-140.667 0 -247.5 31.5 -320.5 94.5s-109.5 164.167 -109.5 303.5v729h215v-733c0 -139.333 71.667 -209 215 -209c41.333 0 78.333 3 111 9s58.667 13.333 78 22v911h105l62 105
c19.333 16.667 42.166 28.834 68.499 36.501s56.833 8.16699 91.5 1.5c33.333 -6.66699 56.333 -18.334 69 -35.001s18.334 -34.334 17.001 -53.001z" />
    <glyph glyph-name="uni1EEE" unicode="&#x1eee;" horiz-adv-x="1234" 
d="M836 1656c-40.667 -38.667 -85.001 -59.001 -133.001 -61.001c-24.667 -1.33301 -44.5 2.83398 -59.5 12.501s-28.333 20.334 -40 32.001s-22 21.334 -31 29.001s-23.5 13.167 -43.5 16.5c-24.667 -1.33301 -48 -12 -70 -32c-13.333 -14 -25.333 -29.333 -36 -46l-84 61
c21.333 40.667 47.333 76 78 106c39.333 37.333 83 57 131 59c20.667 0.666992 41.167 -5 61.5 -17s34.333 -22.167 42 -30.5s17.334 -17.333 29.001 -27s26.5 -14.167 44.5 -13.5c24.667 1.33301 47.667 12 69 32c14 13.333 26.667 29.666 38 48.999l89 -57
c-22.667 -42.667 -51 -80.334 -85 -113.001zM1092 1303l0.000976562 -870.999c0 -72 -12.333 -136 -37 -192s-58.167 -103.167 -100.5 -141.5s-92.5 -67.666 -150.5 -87.999s-120.667 -30.5 -188 -30.5c-66.667 0 -128.667 10.167 -186 30.5
s-107.166 49.666 -149.499 87.999s-75.833 85.5 -100.5 141.5s-37 120 -37 192v1051h224v-1053c0 -79.333 24.167 -141.166 72.5 -185.499s107.166 -66.5 176.499 -66.5c71.333 0 131.166 22.167 179.499 66.5s72.5 106.166 72.5 185.499v1053h120l66 103
c19.333 16.667 42.166 28.834 68.499 36.501s56.833 8.16699 91.5 1.5c33.333 -6.66699 56.333 -18.334 69 -35.001s18.334 -34.334 17.001 -53.001z" />
    <glyph glyph-name="uni1EEF" unicode="&#x1eef;" horiz-adv-x="1095" 
d="M775 1270c-40.667 -38.667 -85.001 -59.001 -133.001 -61.001c-24.667 -1.33301 -44.5 2.83398 -59.5 12.501s-28.333 20.334 -40 32.001s-22 21.334 -31 29.001s-23.5 13.167 -43.5 16.5c-24.667 -1.33301 -48 -12 -70 -32c-13.333 -14 -25.333 -29.333 -36 -46l-84 61
c21.333 40.667 47.333 76 78 106c39.333 37.333 83 57 131 59c20.667 0.666992 41.167 -5 61.5 -17s34.333 -22.167 42 -30.5s17.334 -17.333 29.001 -27s26.5 -14.167 44.5 -13.5c24.667 1.33301 47.667 12 69 32c14 13.333 26.667 29.666 38 48.999l89 -57
c-22.667 -42.667 -51 -80.334 -85 -113.001zM962.999 934.999l0.000976562 -880c-44 -23.333 -101.833 -42.166 -173.5 -56.499s-147.834 -21.5 -228.501 -21.5c-140.667 0 -247.5 31.5 -320.5 94.5s-109.5 164.167 -109.5 303.5v729h215v-733
c0 -139.333 71.667 -209 215 -209c41.333 0 78.333 3 111 9s58.667 13.333 78 22v911h105l62 105c19.333 16.667 42.166 28.834 68.499 36.501s56.833 8.16699 91.5 1.5c33.333 -6.66699 56.333 -18.334 69 -35.001s18.334 -34.334 17.001 -53.001z" />
    <glyph glyph-name="uni1EF0" unicode="&#x1ef0;" horiz-adv-x="1234" 
d="M731 -199c0 -31.333 -10.833 -57.666 -32.5 -78.999s-48.167 -32 -79.5 -32c-32 0 -59.167 10.667 -81.5 32s-33.5 47.666 -33.5 78.999s11.167 57.666 33.5 78.999s49.5 32 81.5 32c31.333 0 57.833 -10.667 79.5 -32s32.5 -47.666 32.5 -78.999zM1092 1303
l0.000976562 -870.999c0 -72 -12.333 -136 -37 -192s-58.167 -103.167 -100.5 -141.5s-92.5 -67.666 -150.5 -87.999s-120.667 -30.5 -188 -30.5c-66.667 0 -128.667 10.167 -186 30.5s-107.166 49.666 -149.499 87.999s-75.833 85.5 -100.5 141.5s-37 120 -37 192v1051h224
v-1053c0 -79.333 24.167 -141.166 72.5 -185.499s107.166 -66.5 176.499 -66.5c71.333 0 131.166 22.167 179.499 66.5s72.5 106.166 72.5 185.499v1053h120l66 103c19.333 16.667 42.166 28.834 68.499 36.501s56.833 8.16699 91.5 1.5
c33.333 -6.66699 56.333 -18.334 69 -35.001s18.334 -34.334 17.001 -53.001z" />
    <glyph glyph-name="uni1EF1" unicode="&#x1ef1;" horiz-adv-x="1095" 
d="M672 -199c0 -31.333 -10.833 -57.666 -32.5 -78.999s-48.167 -32 -79.5 -32c-32 0 -59.167 10.667 -81.5 32s-33.5 47.666 -33.5 78.999s11.167 57.666 33.5 78.999s49.5 32 81.5 32c31.333 0 57.833 -10.667 79.5 -32s32.5 -47.666 32.5 -78.999zM963 935
l0.000976562 -880c-44 -23.333 -101.833 -42.166 -173.5 -56.499s-147.834 -21.5 -228.501 -21.5c-140.667 0 -247.5 31.5 -320.5 94.5s-109.5 164.167 -109.5 303.5v729h215v-733c0 -139.333 71.667 -209 215 -209c41.333 0 78.333 3 111 9s58.667 13.333 78 22v911h105
l62 105c19.333 16.667 42.166 28.834 68.499 36.501s56.833 8.16699 91.5 1.5c33.333 -6.66699 56.333 -18.334 69 -35.001s18.334 -34.334 17.001 -53.001z" />
    <glyph glyph-name="Ygrave" unicode="&#x1ef2;" horiz-adv-x="1157" 
d="M690 588v-588h-224v588l-438 895h242l307 -662h4l307 662h240zM350 1833c4.66699 16.667 15.5 29.667 32.5 39s36.5 14 58.5 14c20 0 41.333 -4 64 -12s42 -21.667 58 -41l142 -268h-127z" />
    <glyph glyph-name="ygrave" unicode="&#x1ef3;" horiz-adv-x="1107" 
d="M510 -440l-227 0.00195312l159 440l-397 1104h240l231 -750c5.33301 -18.667 10.5 -38.334 15.5 -59.001s8.83301 -38.334 11.5 -53.001c4 -19.333 7.33301 -37.333 10 -54h4c1.33301 18 4 36.667 8 56c2.66699 16 6.16699 33.667 10.5 53s9.83301 38.333 16.5 57
l231 750h240zM288 1491c4.66699 16.667 15.5 29.667 32.5 39s36.5 14 58.5 14c20 0 41.333 -4 64 -12s42 -21.667 58 -41l142 -268h-127z" />
    <glyph glyph-name="uni1EF4" unicode="&#x1ef4;" horiz-adv-x="1157" 
d="M690 588v-588h-224v588l-438 895h242l307 -662h4l307 662h240zM691 -199c0 -31.333 -10.833 -57.666 -32.5 -78.999s-48.167 -32 -79.5 -32c-32 0 -59.167 10.667 -81.5 32s-33.5 47.666 -33.5 78.999s11.167 57.666 33.5 78.999s49.5 32 81.5 32
c31.333 0 57.833 -10.667 79.5 -32s32.5 -47.666 32.5 -78.999z" />
    <glyph glyph-name="uni1EF5" unicode="&#x1ef5;" horiz-adv-x="1107" 
d="M510 -440l-227 0.00195312l159 440l-397 1104h240l231 -750c5.33301 -18.667 10.5 -38.334 15.5 -59.001s8.83301 -38.334 11.5 -53.001c4 -19.333 7.33301 -37.333 10 -54h4c1.33301 18 4 36.667 8 56c2.66699 16 6.16699 33.667 10.5 53s9.83301 38.333 16.5 57
l231 750h240zM894 -198.998c0 -31.333 -10.833 -57.666 -32.5 -78.999s-48.167 -32 -79.5 -32c-32 0 -59.167 10.667 -81.5 32s-33.5 47.666 -33.5 78.999s11.167 57.666 33.5 78.999s49.5 32 81.5 32c31.333 0 57.833 -10.667 79.5 -32s32.5 -47.666 32.5 -78.999z" />
    <glyph glyph-name="uni1EF6" unicode="&#x1ef6;" horiz-adv-x="1157" 
d="M690 588v-588h-224v588l-438 895h242l307 -662h4l307 662h240zM474 1930c38 30.667 88.0049 49.6689 150.005 57.002c61.333 2.66699 111.666 -12.833 150.999 -46.5s59 -77.5 59 -131.5c0 -22.667 -4.5 -43 -13.5 -61s-20.833 -34.5 -35.5 -49.5
s-31.167 -27.833 -49.5 -38.5s-33.833 -18.334 -46.5 -23.001l-4 -68h-112l-6 123c23.333 5.33301 42.666 11.166 57.999 17.499s28.666 14 39.999 23s20.666 19.5 27.999 31.5s11 25.667 11 41c0 28 -7.83301 48.833 -23.5 62.5s-36.834 18.834 -63.501 15.501
s-47 -8.83301 -61 -16.5s-28 -16.834 -42 -27.501z" />
    <glyph glyph-name="uni1EF7" unicode="&#x1ef7;" horiz-adv-x="1107" 
d="M510 -440l-227 0.00195312l159 440l-397 1104h240l231 -750c5.33301 -18.667 10.5 -38.334 15.5 -59.001s8.83301 -38.334 11.5 -53.001c4 -19.333 7.33301 -37.333 10 -54h4c1.33301 18 4 36.667 8 56c2.66699 16 6.16699 33.667 10.5 53s9.83301 38.333 16.5 57
l231 750h240zM400 1579c38 30.667 88.0049 49.6689 150.005 57.002c61.333 2.66699 111.666 -12.833 150.999 -46.5s59 -77.5 59 -131.5c0 -22.667 -4.5 -43 -13.5 -61s-20.833 -34.5 -35.5 -49.5s-31.167 -27.833 -49.5 -38.5s-33.833 -18.334 -46.5 -23.001l-4 -68h-112
l-6 123c23.333 5.33301 42.666 11.166 57.999 17.499s28.666 14 39.999 23s20.666 19.5 27.999 31.5s11 25.667 11 41c0 28 -7.83301 48.833 -23.5 62.5s-36.834 18.834 -63.501 15.501s-47 -8.83301 -61 -16.5s-28 -16.834 -42 -27.501z" />
    <glyph glyph-name="uni1EF8" unicode="&#x1ef8;" horiz-adv-x="1157" 
d="M690 588v-588h-224v588l-438 895h242l307 -662h4l307 662h240zM836 1656c-40.667 -38.667 -85.001 -59.001 -133.001 -61.001c-24.667 -1.33301 -44.5 2.83398 -59.5 12.501s-28.333 20.334 -40 32.001s-22 21.334 -31 29.001s-23.5 13.167 -43.5 16.5
c-24.667 -1.33301 -48 -12 -70 -32c-13.333 -14 -25.333 -29.333 -36 -46l-84 61c21.333 40.667 47.333 76 78 106c39.333 37.333 83 57 131 59c20.667 0.666992 41.167 -5 61.5 -17s34.333 -22.167 42 -30.5s17.334 -17.333 29.001 -27s26.5 -14.167 44.5 -13.5
c24.667 1.33301 47.667 12 69 32c14 13.333 26.667 29.666 38 48.999l89 -57c-22.667 -42.667 -51 -80.334 -85 -113.001z" />
    <glyph glyph-name="uni1EF9" unicode="&#x1ef9;" horiz-adv-x="1107" 
d="M510 -440l-227 0.00195312l159 440l-397 1104h240l231 -750c5.33301 -18.667 10.5 -38.334 15.5 -59.001s8.83301 -38.334 11.5 -53.001c4 -19.333 7.33301 -37.333 10 -54h4c1.33301 18 4 36.667 8 56c2.66699 16 6.16699 33.667 10.5 53s9.83301 38.333 16.5 57
l231 750h240zM775 1270c-40.667 -38.667 -85.001 -59.001 -133.001 -61.001c-24.667 -1.33301 -44.5 2.83398 -59.5 12.501s-28.333 20.334 -40 32.001s-22 21.334 -31 29.001s-23.5 13.167 -43.5 16.5c-24.667 -1.33301 -48 -12 -70 -32
c-13.333 -14 -25.333 -29.333 -36 -46l-84 61c21.333 40.667 47.333 76 78 106c39.333 37.333 83 57 131 59c20.667 0.666992 41.167 -5 61.5 -17s34.333 -22.167 42 -30.5s17.334 -17.333 29.001 -27s26.5 -14.167 44.5 -13.5c24.667 1.33301 47.667 12 69 32
c14 13.333 26.667 29.666 38 48.999l89 -57c-22.667 -42.667 -51 -80.334 -85 -113.001z" />
    <glyph glyph-name="endash" unicode="&#x2013;" horiz-adv-x="813" 
d="M-8 578v176h829v-176h-829z" />
    <glyph glyph-name="emdash" unicode="&#x2014;" horiz-adv-x="1626" 
d="M0 578v176h1626v-176h-1626z" />
    <glyph glyph-name="quoteleft" unicode="&#x2018;" horiz-adv-x="573" 
d="M312 1065c-14.667 -23.333 -33 -42.5 -55 -57.5s-48 -22.5 -78 -22.5c-28.667 0 -51.5 8.5 -68.5 25.5s-26.833 35.167 -29.5 54.5l258 543h150z" />
    <glyph glyph-name="quoteright" unicode="&#x2019;" horiz-adv-x="573" 
d="M231 997h-150l180 545c15.333 23.333 33.5 42.166 54.5 56.499s46.5 21.5 76.5 21.5s52.833 -8.16699 68.5 -24.5s25.167 -34.166 28.5 -53.499z" />
    <glyph glyph-name="quotedblleft" unicode="&#x201c;" horiz-adv-x="970" 
d="M710 1065c-15.333 -23.333 -33.832 -42.5 -55.499 -57.5s-47.5 -22.5 -77.5 -22.5s-53.333 8.5 -70 25.5s-26.334 35.167 -29.001 54.5l258 543h150zM312.001 1065c-14.667 -23.333 -33 -42.5 -55 -57.5s-48 -22.5 -78 -22.5c-28.667 0 -51.5 8.5 -68.5 25.5
s-26.833 35.167 -29.5 54.5l258 543h150z" />
    <glyph glyph-name="quotedblright" unicode="&#x201d;" horiz-adv-x="970" 
d="M628 997h-150.001l178 545c15.333 23.333 34 42.166 56 56.499s48 21.5 78 21.5s52.833 -8.16699 68.5 -24.5s24.834 -34.166 27.501 -53.499zM230.999 997h-150l180 545c15.333 23.333 33.5 42.166 54.5 56.499s46.5 21.5 76.5 21.5s52.833 -8.16699 68.5 -24.5
s25.167 -34.166 28.5 -53.499z" />
    <glyph glyph-name="ellipsis" unicode="&#x2026;" horiz-adv-x="1546" 
d="M1429 131c0 -40.667 -13.667 -75.334 -41 -104.001s-61 -43 -101 -43c-39.333 0 -72.666 14.333 -99.999 43s-41 63.334 -41 104.001c0 41.333 13.667 76.333 41 105s60.666 43 99.999 43c40 0 73.667 -14.333 101 -43s41 -63.667 41 -105zM913 131
c0 -40.667 -13.667 -75.334 -41 -104.001s-61 -43 -101 -43c-39.333 0 -72.666 14.333 -99.999 43s-41 63.334 -41 104.001c0 41.333 13.667 76.333 41 105s60.666 43 99.999 43c40 0 73.667 -14.333 101 -43s41 -63.667 41 -105zM399 131
c0 -40.667 -13.667 -75.334 -41 -104.001s-61 -43 -101 -43c-39.333 0 -72.666 14.333 -99.999 43s-41 63.334 -41 104.001c0 41.333 13.667 76.333 41 105s60.666 43 99.999 43c40 0 73.667 -14.333 101 -43s41 -63.667 41 -105z" />
    <glyph glyph-name="minus" unicode="&#x2212;" horiz-adv-x="1626" 
d="M149 578v176h1327v-176h-1327z" />
    <glyph glyph-name=".null" horiz-adv-x="0" 
 />
    <glyph glyph-name="nonmarkingreturn" horiz-adv-x="571" 
 />
    <glyph glyph-name="Eth" horiz-adv-x="1516" 
 />
    <glyph glyph-name="ugrave" horiz-adv-x="582" 
 />
    <glyph glyph-name="uacute" horiz-adv-x="580" 
 />
    <glyph glyph-name="yacute" horiz-adv-x="629" 
 />
    </font>
</defs>
</svg>
