<svg xmlns="http://www.w3.org/2000/svg">
<defs>
<font id="UTMDaxlineBold" horiz-adv-x="1282" >
  <font-face 
    font-family="UTM Daxline"
    font-weight="700"
    font-stretch="normal"
    units-per-em="2048"
    panose-1="2 4 6 3 5 5 6 2 2 4"
    ascent="1638"
    descent="-410"
    x-height="1104"
    cap-height="1483"
    bbox="-116 -465.001 4942 2232.09"
    underline-thickness="109"
    underline-position="-143"
    unicode-range="U+0020-U+2212"
  />
<missing-glyph horiz-adv-x="5040" 
d="M3351 2045h10c24.667 -6.66699 37 -24 37 -52c0 -8 -10.667 -27 -32 -57h-28c0 16 9.33301 34 28 54l2 10c-3.33301 8.66699 -6.66602 13.667 -10 15h-9c-5.33301 0 -8.66602 -6.33301 -10 -19h-30c4 32.667 18 49 42 49zM2019 2016l29.001 -31
c0 -10.667 -13.333 -20.667 -40 -30h-19l-59 12l-11 -12l-28 25c7.33301 19.333 21.666 29 42.999 29h11l42 -11h2c6.66699 0 16.667 6 30 18zM468.001 1980h142v-60h-94v-75h89v-59h-89v-129l-5 -5h-49v323zM1155 1980h43l6 -5v-78h30v-52h-30v-188l-6 -5h-49v193h-25v52
h25v78zM1621 1980h41.999l4 -5v-94h3c15.333 16 33.333 24 54 24h2c38.667 0 66.334 -23.667 83.001 -71l2 -39v-143h-52v115c0 53.333 -14 80 -42 80h-7c-28.667 0 -43 -28.667 -43 -86v-109h-51v323zM2200 1980l49 -0.000976562l5 -5v-222c6.66699 -34 21.667 -51 45 -51
c29.333 4.66699 44 24.334 44 59.001v214l5 5h49v-216c0 -56.667 -22 -94 -66 -112c-10 -5.33301 -21.667 -8 -35 -8c-31.333 0 -58.666 18.333 -82 55c-9.33301 16 -14 35 -14 57v224zM2435 1980h159v-60h-56v-268h-53v268h-55v55zM2621 1980l71 0.000976562
c4.66699 -2.66699 32.334 -86.334 83 -251.001h2l80 251h73v-328h-54v242h-2l-74 -242h-44c-2.66699 0 -22 60.667 -58 182l-19 60h-3v-242h-55v328zM3760 1980l52 -0.000976562v-328h-45l-5 5v11l3 2l-3 14c-19.333 -26.667 -45.333 -40 -78 -40
c-44.667 0 -78 30.333 -100 91l-5 39v3c0 62.667 30.667 104.334 92 125.001l23 3c23.333 0 44.333 -10.667 63 -32h3v107zM2057 1928l36 0.00195312l4 -6v-49h-45v-221h-48v23c-15.333 -20.667 -35 -31 -59 -31c-59.333 9.33301 -89 41.666 -89 96.999v156h51v-104

<glyph glyph-name=".notdef" horiz-adv-x="5040" 
d="M3351 2045h10c24.667 -6.66699 37 -24 37 -52c0 -8 -10.667 -27 -32 -57h-28c0 16 9.33301 34 28 54l2 10c-3.33301 8.66699 -6.66602 13.667 -10 15h-9c-5.33301 0 -8.66602 -6.33301 -10 -19h-30c4 32.667 18 49 42 49zM2019 2016l29.001 -31
c0 -10.667 -13.333 -20.667 -40 -30h-19l-59 12l-11 -12l-28 25c7.33301 19.333 21.666 29 42.999 29h11l42 -11h2c6.66699 0 16.667 6 30 18zM468.001 1980h142v-60h-94v-75h89v-59h-89v-129l-5 -5h-49v323zM1155 1980h43l6 -5v-78h30v-52h-30v-188l-6 -5h-49v193h-25v52
h25v78zM1621 1980h41.999l4 -5v-94h3c15.333 16 33.333 24 54 24h2c38.667 0 66.334 -23.667 83.001 -71l2 -39v-143h-52v115c0 53.333 -14 80 -42 80h-7c-28.667 0 -43 -28.667 -43 -86v-109h-51v323zM2200 1980l49 -0.000976562l5 -5v-222c6.66699 -34 21.667 -51 45 -51
c29.333 4.66699 44 24.334 44 59.001v214l5 5h49v-216c0 -56.667 -22 -94 -66 -112c-10 -5.33301 -21.667 -8 -35 -8c-31.333 0 -58.666 18.333 -82 55c-9.33301 16 -14 35 -14 57v224zM2435 1980h159v-60h-56v-268h-53v268h-55v55zM2621 1980l71 0.000976562
c4.66699 -2.66699 32.334 -86.334 83 -251.001h2l80 251h73v-328h-54v242h-2l-74 -242h-44c-2.66699 0 -22 60.667 -58 182l-19 60h-3v-242h-55v328zM3760 1980l52 -0.000976562v-328h-45l-5 5v11l3 2l-3 14c-19.333 -26.667 -45.333 -40 -78 -40
c-44.667 0 -78 30.333 -100 91l-5 39v3c0 62.667 30.667 104.334 92 125.001l23 3c23.333 0 44.333 -10.667 63 -32h3v107zM2057 1928l36 0.00195312l4 -6v-49h-45v-221h-48v23c-15.333 -20.667 -35 -31 -59 -31c-59.333 9.33301 -89 41.666 -89 96.999v156h51v-104
c0 -52.667 8.66699 -81.334 26 -86.001l18 -5h6c17.333 0 30.333 12 39 36l3 26v133h53v25zM3476 1928v-55h-31v-221h-47v25h-2c-10 -22 -29 -33 -57 -33c-45.333 0 -74 26 -86 78l-3 29v146h52v-120c0 -33.333 6.33301 -56 19 -68l21 -7h9c28 0 42 23 42 69v126h27
c2.66699 0 4 9.33301 4 28l3 3h49zM758 1905c45.333 0 79.667 -25.667 103 -77c6 -12 10 -30 12 -54c0 -58.667 -30 -101 -90 -127l-32 -3c-42 0 -75.667 24.333 -101 73c-8 14.667 -12 32 -12 52v10c0 62.667 33.667 104.667 101 126h19zM1011 1905h3
c49.333 0 77 -33.667 83 -101v-152h-51v119c0 50.667 -14 76 -42 76h-5c-29.333 0 -44 -25.333 -44 -76v-119h-52v245h46v-21c20 19.333 40.667 29 62 29zM1466 1905l7 -0.000976562c48 0 83 -29.667 105 -89h-60c-10.667 20.667 -24.667 31 -42 31h-17
c-35.333 -9.33301 -53 -29.666 -53 -60.999l-3 -15c8 -46 28.333 -69 61 -69h9c14.667 0 30.334 9 47.001 27h40l2 3h3l2 -3l2 3l3 -3l2 3l2 -7c-22 -54 -58.667 -81 -110 -81c-50.667 0 -87.334 31.333 -110.001 94l-4 36v3c0 56.667 25.667 96.667 77 120
c10 5.33301 22.333 8 37 8zM3141 1905h1.99902c32.667 0 56 -20 70 -60v-14h-52c0 10.667 -5.33301 16 -16 16h-4c-9.33301 0 -15.666 -4.33301 -18.999 -13v-13c0 -6 22.667 -17.667 68 -35c20 -12.667 30 -32.334 30 -59.001c0 -38.667 -20.333 -65.334 -61 -80.001
l-23 -3c-50.667 8 -76 35.667 -76 83h54c0 -13.333 9 -21.666 27 -24.999h4c12.667 0 20.667 7.66699 24 23c0 14.667 -22.667 29.334 -68 44.001c-22.667 18 -34 37.667 -34 59c0 44 24.667 69.667 74 77zM4203 1905c36.666 0 62.333 -21 77 -63
c4.66602 -12 7 -33.667 7 -65v-125h-52v112c0 55.333 -13.334 83 -40 83h-11c-22 0 -35.334 -18 -40 -54v-141h-52v5h-2l2 2v238h47v-21c16.666 19.333 38 29 64 29zM4432 1905h5c26.666 0 49.666 -13.333 69 -40v18l-3 3l3 11h47v-208c0 -64.667 -28.334 -108.667 -85 -132
l-33 -4h-7c-46.666 0 -81.333 26.667 -104 80h59c16 -14.667 31 -22.334 45 -23.001h13c14.666 0 29 7.33301 43 22c10 8.66699 17.334 26 22 52h-3c-21.334 -26.667 -45.667 -40 -73 -40c-38 0 -70 23.333 -96 70c-6.66602 12 -11.333 33 -14 63
c0 58.667 29 100.334 87 125.001zM3851 1897l53 -0.000976562v-136c4 -39.333 17.333 -59 40 -59h7c30.667 0 46 31 46 93v102h51v-245h-47l-3 10h3l-3 3v5l3 2v3h-4c0 -15.333 -19 -25.666 -57 -30.999h-3c-39.333 0 -67.333 25 -84 75l-2 85v93zM690 1771
c6.66699 -46 27.6689 -69 63.002 -69h7c39.333 9.33301 59 31 59 65v15c-8.66699 43.333 -28.334 65 -59.001 65h-5c-38.667 0 -60.334 -25.333 -65.001 -76zM3630 1774c8.66699 -48 29 -72 61 -72h5c38.667 0 60.667 25 66 75c0 32.667 -17 56 -51 70h-22
c-24.667 0 -43.334 -19 -56 -57zM4374 1774c5.33398 -48 27 -71.999 65 -71.999h5c39.334 8 59 32 59 72c0 40.667 -19.666 65 -59 73h-14c-37.334 -10.667 -56 -31.334 -56 -62.001v-11zM3928 1620h52v-57h-52v57zM1054 1402c28.667 -7.33301 43 -23.667 43 -49v-4
c0 -11.333 -10.667 -31.333 -32 -60h-28c0 16.667 10.333 35.667 31 57v7c0 8 -2.33301 13 -7 15h-12c-6.66699 -2.66699 -10 -9 -10 -19h-28v6c0 21.333 11 36 33 44zM3349 1339c61.333 0 107.333 -33.001 138 -99.001h-60c-24.667 28 -51.334 42 -80 42
c-36.667 0 -65.667 -22.667 -87 -68c-6.66699 -14.667 -10 -30.334 -10 -47.001c0 -52 27 -88.667 81 -110l18 -1c24 0 49 13 75 39h61c-29.333 -64.667 -75.333 -97 -138 -97c-62 0 -109 37.333 -141 112c-6.66699 20.667 -10 41.334 -10 62.001
c0 64.667 30 115.334 90 152.001c19.333 10 40.333 15 63 15zM3664 1339c38 0 72.333 -15.666 103 -46.999c30.667 -34 46 -72.333 46 -115v-20c0 -59.333 -30.333 -108 -91 -146c-22 -8.66699 -43 -13 -63 -13c-59.333 0 -105.333 33.667 -138 101
c-8.66699 22 -13 42 -13 60v18c0 65.333 32.667 115.666 98 150.999c19.333 7.33301 38.666 11 58 11zM2261 1337h2l47 -11h3c7.33301 0 16 3.66699 26 11l18 -36c-12 -12.667 -23.667 -19 -35 -19h-3l-54 10l-20 -7l-20 36c12 10.667 24 16 36 16zM716.002 1334h19
c78.667 0 121.667 -8.66699 129 -26c16.667 -17.333 25 -38 25 -62c-6.66699 -38 -16.667 -57 -30 -57v-6c31.333 -15.333 47 -37.333 47 -66v-18c0 -42 -23 -71.333 -69 -88l-54 -5h-67v328zM2550 1334h53v-217c4 -40.667 19 -61 45 -61c19.333 0 34 13 44 39l3 30v203l4 6
h45l5 -6v-171c0 -78.667 -13.333 -123 -40 -133c-16 -17.333 -37.333 -26 -64 -26c-36.667 0 -67 25.333 -91 76l-4 54v206zM2805 1334h59c2.66699 0 43.334 -79 122 -237h4v237h50l4 -6v-322h-58c-19.333 32 -61 111.333 -125 238h-3v-238h-53v328zM3101 1334h54v-328h-54
v328zM3859 1334l8 0.000976562c103.333 0 161.333 -13.333 174 -40c15.333 -7.33301 31 -32.333 47 -75l4 -36v-11l3 -2c0 -62.667 -27.333 -112.334 -82 -149.001c-23.333 -10 -56.333 -15 -99 -15h-55v328zM4141 1334h153v-60h-103v-75h101v-57h-101v-74l4 -5h99v-57h-157
v322zM3563 1175v-10c0 -50.667 26.333 -86.667 79 -108l19 -1c45.333 0 77.333 28.667 96 86l3 20v15c0 40.667 -20 72 -60 94c-8 5.33301 -21 9 -39 11c-44 0 -76 -27.667 -96 -83zM770.002 1274v-67h9c36 0 54 9.33301 54 28l3 14c-7.33301 16.667 -17 25 -29 25h-37z
M3912 1274v-206.001l2 -3v-2c69.333 0 110 25.333 122 76l2 15v29c0 22.667 -10.667 45.334 -32 68.001c-16.667 15.333 -42.667 23 -78 23h-16zM1041 1259h5c25.333 0 49 -13.333 71 -40v32h49v-245h-49v32c-24 -26.667 -50.667 -40 -80 -40c-50 0 -83.667 32.333 -101 97
l-5 36c0 59.333 28.333 101 85 125zM1314 1259h3c49.333 0 77 -34 83 -102v-151h-51v128c0 44.667 -14 67 -42 67h-10c-22.667 0 -35.667 -20.667 -39 -62v-133h-52v245h47v-21c18.667 19.333 39 29 61 29zM1543 1259h5c30 0 53.667 -13.333 71 -40v32h47v-219
c0 -63.333 -34.667 -105.333 -104 -126h-16c-49.333 0 -85.333 27.333 -108 82h59c17.333 -16.667 32 -25 44 -25h14c34.667 0 56 25.667 64 77c-22 -28 -47.333 -42 -76 -42c-40 0 -73.667 27 -101 81l-7 44v16c0 52.667 28.333 91.667 85 117zM1912 1259l2 0.000976562
c28.667 0 49 -12.333 61 -37h2c21.333 24.667 44.333 37 69 37h4c38 0 64.333 -18.333 79 -55c5.33301 -16.667 8 -31.667 8 -45v-153h-52v138c0 29.333 -7.66699 47.666 -23 54.999l-12 2h-15c-21.333 0 -33.333 -21.667 -36 -65v-130h-52v136c0 39.333 -14.333 59 -43 59
h-8c-21.333 0 -33.333 -19 -36 -57v-138h-54v245h50v-21h2c4 16 22 25.667 54 29zM2282 1259c31.333 0 56.333 -14 75 -42v34h47v-245h-47v32c-24 -26.667 -50 -40 -78 -40c-49.333 0 -83.333 30.667 -102 92l-6 41c0 60 28.333 101.667 85 125zM985.002 1117
c0 -32 20.333 -52.333 61 -61h4c30 0 50.667 15.333 62 46l3 15v22c-8 41.333 -27 62 -57 62h-14c-27.333 0 -47 -19 -59 -57v-27zM1487 1128c0 -32 14.332 -54.667 42.999 -68l18 -4h5c31.333 0 52.333 19 63 57v23c-7.33301 43.333 -26.666 65 -57.999 65h-12
c-33.333 0 -53 -24.333 -59 -73zM2225 1131v-14.001c10 -40.667 29 -61 57 -61h14c38.667 8 58 29.333 58 64v11c0 30 -12.333 51.667 -37 65l-18 5h-10c-42.667 -5.33301 -64 -28.666 -64 -69.999zM770.001 1150v-82c0 -3.33301 2.33301 -5 7 -5c51.333 0 77 15 77 45
c0 22.667 -15.667 36.667 -47 42h-37zM2966 752.999l24 -28l-51 -55c-12 8 -21 16.667 -27 26zM1524 726.999l85 -54c0 -10 -7 -24 -21 -42l-87 54c12 27.333 19.667 41.333 23 42zM2850 692.999h38l55 -60h-54l-21 26l-23 -26h-54c36 40 55.667 60 59 60zM3422 692.999h40
l56 -60h-54l-24 26h-1c0 -3.33301 -6.33301 -12 -19 -26h-54zM622.001 684.999l52 0.00195312c5.33301 -2.66699 21 -48.334 47 -137.001l34 -110c6 5.33301 17.333 38.666 34 99.999l48 147h54v-2l-112 -326h-44zM1159 685.001h51v-54h-51v54zM1354 685.001h46l6 -5v-323
h-52v328zM2317 685.001h45l4 -5v-78h31v-52h-31v-193h-53v193h-26v52h26v78zM2425 685.001h52v-98h2c15.333 15.333 33.333 23 54 23h3c38 0 65 -23.667 81 -71l3 -38v-144h-52v115c0 54 -13 81 -39 81h-10c-28 0 -42 -29 -42 -87v-109h-52v328zM2664 685.001h52v-54h-52v54
zM3028 685.001h44l6 -5v-78h29v-52h-29v-193h-54v193h-27v52h27v78zM3234 685.001h52v-328h-52v328zM3957 685.001h52v-328h-52v328zM4316 685.001h51v-54h-51v54zM1555 610.001h5c55.333 0 92 -34 110 -102l3 -23v-11c0 -55.333 -28.333 -95.333 -85 -120l-35 -5
c-50.667 0 -87.667 32.333 -111 97l-4 32c0 64.667 31 108 93 130zM1811 610.001h4c35.333 0 61.333 -20 78 -60c4.66699 -16.667 7 -43.667 7 -81v-112h-54v146c-4.66699 33.333 -17 50 -37 50h-10c-25.333 0 -39.333 -19 -42 -57v-139h-54v245h49v-21
c17.333 19.333 37 29 59 29zM2046 610.001h4.00098c30 0 51 -13 63 -39h3v31h49v-206c0 -68 -29.667 -113 -89 -135l-28 -3h-5c-48.667 0 -84 27 -106 81h52l37 -20l15 -3h14c33.333 0 53.666 24 60.999 72c-22 -26 -46.333 -39 -73 -39c-41.333 0 -74 25.333 -98 76
c-7.33301 15.333 -11.333 35.333 -12 60c0 56.667 28.667 97.667 86 123zM2866 610.001l2 -0.000976562c54.667 0 91.667 -34.667 111 -104l2 -25l-2 -27h-172c10 -30 25 -45 45 -45l14 -3c19.333 0 35.666 7.33301 49 22h57v-3c-23.333 -50.667 -59.333 -76 -108 -76
c-51.333 0 -88.333 32.333 -111 97l-1 28v8c0 32.667 10.667 62.334 32 89.001c22.667 26 50 39 82 39zM3429 610h5c27.333 0 50.666 -13 70 -39h2v31h47v-245h-47v31h-2c-23.333 -26 -49 -39 -77 -39c-47.333 0 -81 29.667 -101 89l-5 36v14c0 57.333 28 97.333 84 120z
M3711 610l7 -0.000976562c58.667 0 94.334 -42.667 107 -128l-2 -1v-15c0 -43.333 -22 -78.666 -66 -105.999c-14 -7.33301 -29.333 -11 -46 -11c-22.667 0 -44 10.667 -64 32v-99l-5 -5h-49v325h49v-28c20.667 24 43.667 36 69 36zM4151 609.999
c29.334 0 54.334 -13 75 -39v31h49v-245h-49v31c-23.334 -26 -49 -39 -77 -39c-61.333 0 -97.333 44 -108 132c0 56 24.333 96.333 73 121c10 5.33301 22.334 8 37 8zM922.002 601.999h50v-136c2 -40 16 -60 42 -60h5c29.333 0 44 29 44 87v109h52v-245h-47v24h-5
c0 -15.333 -18.667 -26 -56 -32h-3c-36.667 0 -64 22.667 -82 68c-2.66699 23.333 -4 56.333 -4 99v81zM1159 601.999h51v-245h-51v245zM2664 601.999h52v-245h-52v245zM4316 601.999h51v-245h-51v245zM1492 487.999v-15.999c8.66699 -44 28.334 -66 59.001 -66h4
c39.333 0 61.333 25.333 66 76c-8.66699 47.333 -28.334 71 -59.001 71h-11c-39.333 -10.667 -59 -32.334 -59 -65.001zM1987 472c10 -44 29.667 -66 59 -66h11c32 0 51.667 25 59 75v1c-8.66699 47.333 -28.334 71 -59 71h-14c-26 0 -44.667 -19 -56 -57v-24zM2805 506h122
v2c-10.667 30 -30.334 45 -59 45h-7c-23.333 0 -42 -15.667 -56 -47zM3373 474c8.66699 -45.333 29 -68 61 -68h5c34.667 0 56.334 21 65 63v12c-6.66699 48 -25.667 72 -57 72h-16c-37.333 -9.33301 -56 -30.333 -56 -63zM3642 478c8 -48 28.333 -72.001 61 -72.001h3
c33.333 0 55 20 65 60v22c0 28.667 -16.333 50.334 -49 65.001h-22c-31.333 0 -50.666 -24 -58 -72v-3zM4095 471.999c6.66602 -44 28.666 -66 66 -66c28.666 0 49 16 61 48l2 15v16c0 36 -17.334 58.667 -52 68h-18c-28 0 -47.666 -20 -59 -60v-21zM3416 320.999h51v-52
h-51v52zM4137 320.999h51v-52h-51v52zM2733 132.999h4c23.333 0 37.666 -16.667 43 -50v-2c0 -10.667 -8 -24.334 -24 -41.001l-10 -17h-28c0 16.667 9.33301 35.334 28 56.001l3 2v2c-2 12.667 -5 19 -9 19h-10c-5.33301 0 -8.33301 -6.33301 -9 -19h-30
c4 33.333 18 50 42 50zM1546 115.999l52 -60l-26 -19l-52 52zM352.002 78.999h4c50 -32 78.333 -52 85 -60l-20 -37c-58.667 32.667 -88 52 -88 58zM3490 78.999l86 -58l-18 -39c-6.66699 0 -37 18.333 -91 55c10 24 17.667 38 23 42zM4578 75.999l19 -42l-91 -52l-20 39
l92 58v-3zM1204 52.999h51v-19l5 -5h14v-36h-14l-5 -5v-279h-46v31c-22.667 -26.667 -49.667 -40 -81 -40c-48 0 -82 35 -102 105l-3 26c0 68 33.667 111.667 101 131h14c22 0 44 -11 66 -33v59l-6 5h-43v36h49v24zM1480 44.999h40l56 -61h-53l-23 27l-23 -27h-53z
M2641 44.999h33c8 0 29 -20.333 63 -61h-54l-23 27c-12.667 -14 -19 -23 -19 -27h-58v4zM49.002 36.999h160v-60h-56v-268h-50l-4 5v245l2 3v2l-2 2l2 3l-2 2l2 3l-2 3h-54v54zM699.002 36.999h47v-73l2 -2l-2 -3v-3l2 -2l-2 -3v-3l2 -2v-2l-2 -3l2 -3h3
c11.333 16 28.333 24 51 24h3c35.333 0 61 -19.333 77 -58c4.66699 -11.333 7 -25.333 7 -42v-153h-52v127c0 45.333 -13.333 68 -40 68h-8c-28.667 0 -43 -28.667 -43 -86v-109h-52v322zM1297 36.999h47l5 -6v-49h-52v55zM1987 36.999h52v-198l70 115h62l-78 -118l90 -125
v-2h-70c-6.66699 14.667 -31.334 53 -74 115v-115h-52v328zM2271 36.999v-98.999c16 16 33.667 24 53 24c38 0 64.667 -18.667 80 -56c6.66699 -12.667 10 -38.334 10 -77.001v-120h-54v133c0 41.333 -13.667 62 -41 62h-11c-20.667 0 -33 -18.333 -37 -55v-140h-53v314
l-1 3v3l1 2l-1 3l1 3h53zM2458 37h51v-55h-51v55zM3148 37h51v-108c18 22 40.667 33 68 33h3c50 0 85 -31.333 105 -94l5 -37c0 -50 -21.333 -90 -64 -120c-20 -7.33301 -36.333 -11 -49 -11c-27.333 0 -51.333 13.333 -72 40v-31h-47v328zM4275 37h52v-99h2
c15.334 16 33.334 24 54 24h3c40 0 67.334 -24.667 82 -74l2 -41v-138h-52v111c0 54.667 -10.666 82 -32 82l-10 2h-12c-24.666 0 -37 -26.667 -37 -80v-115h-52v328zM329.002 -38h3v-58h-5c-28 0 -42 -19 -42 -57v-138h-53v245h47v-21c12 19.333 28.667 29 50 29z
M564.002 -38c47.333 0 75.999 -29 85.999 -87v-166h-51v136c-4 39.333 -17.667 59 -41 59h-6c-30 0 -45 -28 -45 -84v-111h-52v245h50v-21c16.667 19.333 36.334 29 59.001 29zM1504 -38c48 0 83 -31.333 105 -94l5 -39c-1.33301 -16 -3.66602 -24 -6.99902 -24h-169
c11.333 -31.333 32 -47 62 -47c16 0 32 7 48 21h57c-22 -52.667 -58 -79 -108 -79c-54.667 0 -92.334 35 -113.001 105v37c0 54 29.667 93 89 117zM2657 -38h5c51.333 0 87 -32.333 107 -97l3 -26v-21l-3 -13h-170c12 -31.333 29.667 -47 53 -47h12c14 0 28 7 42 21h59
c-22.667 -52.667 -57.667 -79 -105 -79c-56 0 -94.333 34 -115 102l-2 29c0 62 30.333 104.667 91 128zM2915 -38h3.99902c36 0 62 -20 78 -60c4.66699 -16.667 7 -44 7 -82v-111h-54v138c0 32 -11.667 51 -35 57h-11c-25.333 0 -39.666 -19 -42.999 -57v-138h-54v245h50
v-21c16.667 19.333 36 29 58 29zM3508 -38h6c26.667 0 50 -13.333 70 -40h2v32h47v-245h-47v31h-2c-22.667 -26.667 -48.667 -40 -78 -40c-47.333 0 -81 30 -101 90l-4 37v12c0 54.667 25.667 93.667 77 117c7.33301 4 17.333 6 30 6zM3781 -38h4
c41.333 0 68.666 -26 82 -78l3 -84v-91h-54v138c0 32 -12.667 51 -38 57h-9c-25.333 0 -39.333 -17.333 -42 -52v-143h-54v245h49v-21c17.333 19.333 37 29 59 29zM4133 -38h1c49.334 0 84 -31 104 -93l4 -40c0 -58.667 -28 -100.667 -84 -126l-25 -3
c-27.333 0 -50 11.333 -68 34v-106h-52v326h47v-29c20 24.667 44.334 37 73 37zM4714 -38h5c22.666 0 43.666 -12.333 63 -37c18 24.667 41 37 69 37h6c37.334 0 63.667 -22 79 -66l6 -51v-136h-52v122c0 48.667 -13 73 -39 73h-7c-23.334 0 -37 -16.667 -41 -50v-140l-5 -5
h-48v140c0 28 -10.334 46.333 -31 55h-17c-26.666 0 -40 -25.667 -40 -77v-118h-51v245h47v-21c14.666 19.333 33.333 29 56 29zM359 -46h49l5 -6v-234l-5 -5h-49v245zM1297 -46h52v-245h-52v245zM1649 -46h52v-136c2.66699 -40 17 -60 43 -60h4c29.333 0 44 27 44 81v115
h52v-245h-47v24h-5c-8 -22 -27.667 -33 -59 -33c-34.667 0 -61 21 -79 63c-3.33301 8 -5 19.333 -5 34v157zM2458 -46h51v-245h-51v245zM4515 -46h51v-245h-51v245zM1077 -169c0 -35.333 16.999 -59.666 50.999 -72.999h12c36 0 58 22 66 66v10
c0 35.333 -18 58.666 -54 69.999h-17c-25.333 0 -44.666 -19 -57.999 -57v-16zM1438 -143h122.001c-12 31.333 -29.667 47 -53 47h-7c-28.667 0 -49.334 -14.667 -62.001 -44v-3zM2599 -143h122c-14 31.333 -32 47 -54 47h-7c-30.667 0 -51 -15.667 -61 -47zM3196 -158v-11
c6.66699 -48.667 27 -73 61 -73h5c42.667 5.33301 64 29 64 71v5c0 30 -12.667 51.667 -38 65l-18 5h-14c-40 -9.33301 -60 -30 -60 -62zM3452 -173c9.33301 -46 30 -69 62 -69h11c27.333 0 47 20 59 60v13c-5.33301 48.667 -24 73 -56 73h-17
c-31.333 0 -51 -24.333 -59 -73v-4zM4062 -158v-22c0 -31.333 19.667 -52 59 -62h9c33.334 0 53.667 25.333 61 76c-8.66602 46.667 -28 70 -58 70h-15c-37.333 -11.333 -56 -32 -56 -62z" />
    <glyph glyph-name="space" unicode=" " horiz-adv-x="394" 
 />
    <glyph glyph-name="exclam" unicode="!" horiz-adv-x="575" 
d="M405 518h-234l-43 965h318zM456 158c0 -24.667 -4.5 -47.667 -13.5 -69s-21.333 -39.833 -37 -55.5s-33.667 -28.167 -54 -37.5s-42.166 -14 -65.499 -14s-44.833 4.66699 -64.5 14s-37 21.833 -52 37.5s-27 34.167 -36 55.5s-13.5 44.333 -13.5 69s4.5 47.5 13.5 68.5
s21 39.333 36 55s32.333 28.334 52 38.001s41.167 14.5 64.5 14.5s45.166 -4.83301 65.499 -14.5s38.333 -22.334 54 -38.001s28 -34 37 -55s13.5 -43.833 13.5 -68.5z" />
    <glyph glyph-name="quotedbl" unicode="&#x22;" horiz-adv-x="925" 
d="M753 813h-154.001l-49 623c15.333 21.333 33.833 37.5 55.5 48.5s44.834 16.5 69.501 16.5c52 0 93.667 -21.667 125 -65zM324.999 813h-153.999l-49 623c15.333 21.333 34.166 37.5 56.499 48.5s45.833 16.5 70.5 16.5s47.5 -5.5 68.5 -16.5s39.167 -27.167 54.5 -48.5z
" />
    <glyph glyph-name="numbersign" unicode="#" horiz-adv-x="1484" 
d="M1116 911l-45 -323h217v-193h-242l-53 -395h-209l55 395h-305l-53 -395h-207l53 395h-217v193h244l45 323h-217v193h243l52 379h206l-51 -379h305l52 379h206l-51 -379h215v-193h-243zM606 911l-45 -323h303l45 323h-303z" />
    <glyph glyph-name="dollar" unicode="$" horiz-adv-x="1122" 
d="M1009 428c0 -118.667 -34.8359 -216.672 -104.503 -294.005s-166.5 -126 -290.5 -146l14 -314h-219l31 303c-60 3.33301 -121.167 12.5 -183.5 27.5s-113.166 31.833 -152.499 50.5l98 248c34.667 -19.333 78.167 -36.166 130.5 -50.499s101.166 -21.5 146.499 -21.5
c78 0 138.5 15.167 181.5 45.5s64.5 74.833 64.5 133.5c0 27.333 -5.83301 51.5 -17.5 72.5s-27.167 39.667 -46.5 56s-41.5 31.333 -66.5 45s-51.167 26.834 -78.5 39.501c-42.667 18.667 -87.167 40.334 -133.5 65.001s-88.666 54.334 -126.999 89.001
s-70.166 76 -95.499 124s-38 104.667 -38 170c0 116 33.5 210.833 100.5 284.5s158.5 120.167 274.5 139.5l-16 299h215l-33 -289c61.333 -2.66699 118 -11.5 170 -26.5s95.667 -32.167 131 -51.5l-92 -229c-27.333 15.333 -63.5 29.833 -108.5 43.5s-91.5 20.5 -139.5 20.5
c-73.333 0 -128.833 -14.667 -166.5 -44s-56.5 -71.333 -56.5 -126c0 -26 6.16699 -49.667 18.5 -71s28.333 -40.833 48 -58.5s42.5 -33.667 68.5 -48l80 -42.5l131 -66c46.667 -24 89.334 -53 128.001 -87s70.667 -74.667 96 -122s38 -103.666 38 -168.999z" />
    <glyph glyph-name="percent" unicode="%" horiz-adv-x="1931" 
d="M1824 440c0 -66.667 -7.16699 -128.334 -21.5 -185.001s-35.833 -105.834 -64.5 -147.501s-64.5 -74.167 -107.5 -97.5s-92.5 -35 -148.5 -35c-57.333 0 -107.166 11.667 -149.499 35s-77.5 55.833 -105.5 97.5s-49.167 90.834 -63.5 147.501
s-21.5 118.334 -21.5 185.001c0 67.333 7.16699 129.333 21.5 186s35.5 105.834 63.5 147.501s63.167 74 105.5 97s92.166 34.5 149.499 34.5c56 0 105.5 -11.5 148.5 -34.5s78.833 -55.333 107.5 -97s50.167 -90.834 64.5 -147.501s21.5 -118.667 21.5 -186zM786 -25
l-168 54l524 1478l168 -53zM788 1042c0 -66.667 -7.16699 -128.334 -21.5 -185.001s-35.833 -105.834 -64.5 -147.501s-64.5 -74 -107.5 -97s-92.5 -34.5 -148.5 -34.5s-105.5 11.5 -148.5 34.5s-78.833 55.333 -107.5 97s-50.167 90.834 -64.5 147.501
s-21.5 118.334 -21.5 185.001c0 67.333 7.16699 129.333 21.5 186s35.833 105.834 64.5 147.501s64.5 74 107.5 97s92.5 34.5 148.5 34.5s105.5 -11.5 148.5 -34.5s78.833 -55.333 107.5 -97s50.167 -90.834 64.5 -147.501s21.5 -118.667 21.5 -186zM1617 442
c0 92 -11.5 161.833 -34.5 209.5s-56.5 71.5 -100.5 71.5c-43.333 0 -76.333 -23.833 -99 -71.5s-34 -117.5 -34 -209.5c0 -185.333 44.333 -278 133 -278c90 0 135 92.667 135 278zM581 1044c0 92 -11.5 161.833 -34.5 209.5s-56.5 71.5 -100.5 71.5
s-77.5 -23.833 -100.5 -71.5s-34.5 -117.5 -34.5 -209.5c0 -185.333 45 -278 135 -278s135 92.667 135 278z" />
    <glyph glyph-name="ampersand" unicode="&#x26;" horiz-adv-x="1394" 
d="M1104 758l-0.00195312 -702.995c-46.667 -21.333 -108.5 -40 -185.5 -56s-162.833 -24 -257.5 -24c-181.333 0 -322.166 35.5 -422.499 106.5s-150.5 176.833 -150.5 317.5c0 101.333 27 184 81 248s120.667 110.333 200 139v5c-78 26.667 -135.167 69.167 -171.5 127.5
s-54.5 122.166 -54.5 191.499c0 53.333 10 104.166 30 152.499s49.333 90.666 88 126.999s87.167 65 145.5 86s124.833 31.5 199.5 31.5c70 0 135.667 -7.5 197 -22.5s112.333 -34.167 153 -57.5l-86 -215c-30 16.667 -65.5 30.167 -106.5 40.5s-82.5 15.5 -124.5 15.5
c-72.667 0 -128.667 -15.333 -168 -46s-59 -76.334 -59 -137.001c0 -57.333 19 -102.333 57 -135s88.333 -49 151 -49c19.333 0 40.333 0.666992 63 2s48.334 4.66602 77.001 9.99902l536 97l33 -213zM839.998 713.005l-212.999 -37.002
c-86 -15.333 -151.333 -43.833 -196 -85.5s-67 -98.5 -67 -170.5c0 -79.333 26.333 -136.666 79 -171.999s127.667 -53 225 -53c31.333 0 63.666 2.33301 96.999 7s58.333 10.334 75 17.001v494z" />
    <glyph glyph-name="quotesingle" unicode="'" horiz-adv-x="499" 
d="M325 813h-153.999l-49 623c15.333 21.333 34.166 37.5 56.499 48.5s45.833 16.5 70.5 16.5s47.5 -5.5 68.5 -16.5s39.167 -27.167 54.5 -48.5z" />
    <glyph glyph-name="parenleft" unicode="(" horiz-adv-x="784" 
d="M530 -451c-130 145.333 -233.5 305.669 -310.5 481.002s-115.5 368 -115.5 578c0 210.667 38.5 404 115.5 580s180.5 336.333 310.5 481l199 -115c-49.333 -62.667 -94.166 -129.834 -134.499 -201.501s-75.5 -146.667 -105.5 -225s-53.167 -160.833 -69.5 -247.5
s-24.5 -177.334 -24.5 -272.001c0 -94 8.16699 -184 24.5 -270s39.5 -168.667 69.5 -248s65.167 -154.5 105.5 -225.5s85.166 -137.833 134.499 -200.5z" />
    <glyph glyph-name="parenright" unicode=")" horiz-adv-x="784" 
d="M680 608c0 -210 -38.667 -402.67 -116 -578.003s-180.666 -335.666 -309.999 -480.999l-199 115c49.333 62.667 94.166 129.5 134.499 200.5s75.5 146.167 105.5 225.5s53.167 162 69.5 248s24.5 176 24.5 270c0 94.667 -8.16699 185.334 -24.5 272.001
s-39.5 169.167 -69.5 247.5s-65.167 153.333 -105.5 225s-85.166 138.834 -134.499 201.501l199 115c129.333 -144.667 232.666 -305 309.999 -481s116 -369.333 116 -580z" />
    <glyph glyph-name="asterisk" unicode="*" horiz-adv-x="1140" 
d="M1044 1237c0 -15.333 -1.33398 -28.6689 -4.00098 -40.002s-7.66699 -22.666 -15 -33.999l-317 -76l213 -253c-1.33301 -19.333 -6.16602 -37.5 -14.499 -54.5s-19.333 -32.333 -33 -46s-29.334 -24.334 -47.001 -32.001s-35.5 -11.5 -53.5 -11.5
c-6.66699 0 -12 0.333008 -16 1s-9.33301 1.66699 -16 3l-162 285l-162 -285c-5.33301 -1.33301 -10.333 -2.33301 -15 -3s-10.667 -1 -18 -1c-17.333 0 -34.666 3.83301 -51.999 11.5s-32.666 18.334 -45.999 32.001s-24.5 29 -33.5 46s-14.167 35.167 -15.5 54.5l215 253
l-320 76c-10.667 20.667 -16 45.334 -16 74.001c0 30 7.16699 57.667 21.5 83s35.166 44 62.499 56l293 -129l-27 334c27.333 35.333 65 53 113 53s86.333 -17.667 115 -53l-29 -334l293 129c27.333 -12 48.5 -30.667 63.5 -56s22.5 -53 22.5 -83z" />
    <glyph glyph-name="plus" unicode="+" horiz-adv-x="1077" 
d="M650 557v-330h-225v330h-305v217h305v330h225v-330h308v-217h-308z" />
    <glyph glyph-name="comma" unicode="," horiz-adv-x="532" 
d="M172 -346h-186l182 582c18 26.667 41.333 49.667 70 69s62.667 29 102 29c40 0 69.5 -9.66699 88.5 -29s31.167 -42.333 36.5 -69z" />
    <glyph glyph-name="hyphen" unicode="-" horiz-adv-x="786" 
d="M112 547v237h561v-237h-561z" />
    <glyph glyph-name="hyphen" unicode="&#x2010;" horiz-adv-x="786" 
d="M112 547v237h561v-237h-561z" />
    <glyph glyph-name="period" unicode="." horiz-adv-x="534" 
d="M436 158c0 -24.667 -4.5 -47.667 -13.5 -69s-21 -39.833 -36 -55.5s-32.667 -28.167 -53 -37.5s-42.166 -14 -65.499 -14s-45.5 4.66699 -66.5 14s-39 21.833 -54 37.5s-27 34.167 -36 55.5s-13.5 44.333 -13.5 69s4.5 47.5 13.5 68.5s21 39.333 36 55
s33 28.334 54 38.001s43.167 14.5 66.5 14.5s45.166 -4.83301 65.499 -14.5s38 -22.334 53 -38.001s27 -34 36 -55s13.5 -43.833 13.5 -68.5z" />
    <glyph glyph-name="slash" unicode="/" horiz-adv-x="952" 
d="M238 -414l-252 76l653 1985l252 -78z" />
    <glyph glyph-name="zero" unicode="0" horiz-adv-x="1175" 
d="M1079 741c0 -108.667 -9.16699 -209.5 -27.5 -302.5s-47.666 -174 -87.999 -243s-91.5 -123 -153.5 -162s-136 -58.5 -222 -58.5c-86.667 0 -161 19.5 -223 58.5s-113.167 93 -153.5 162s-69.666 150 -87.999 243s-27.5 193.833 -27.5 302.5
c0 108 9.16699 208.833 27.5 302.5s47.666 175 87.999 244s91.5 122.833 153.5 161.5s136.333 58 223 58c86 0 160 -19.333 222 -58s113.167 -92.5 153.5 -161.5s69.666 -150.333 87.999 -244s27.5 -194.5 27.5 -302.5zM809 743c0 80.667 -4.16699 154.167 -12.5 220.5
s-21.333 123.333 -39 171s-40.5 84.834 -68.5 111.501s-61.667 40 -101 40c-40 0 -74 -13.333 -102 -40s-50.833 -63.834 -68.5 -111.501s-30.334 -104.667 -38.001 -171s-11.5 -139.833 -11.5 -220.5c0 -80 3.83301 -153.167 11.5 -219.5s20.334 -123.333 38.001 -171
s40.5 -84.834 68.5 -111.501s62 -40 102 -40c39.333 0 73 13.333 101 40s50.833 63.834 68.5 111.501s30.667 104.667 39 171s12.5 139.5 12.5 219.5z" />
    <glyph glyph-name="one" unicode="1" horiz-adv-x="882" 
d="M448 0l0.00195312 1169c-23.333 -13.333 -50 -26.5 -80 -39.5s-62.333 -24.667 -97 -35s-69.834 -19.5 -105.501 -27.5s-69.834 -14.667 -102.501 -20l-39 213c46.667 8 93.5 18.833 140.5 32.5s92 30 135 49s82.167 40.5 117.5 64.5s65.333 49.667 90 77h213v-1483h-272
z" />
    <glyph glyph-name="two" unicode="2" horiz-adv-x="1144" 
d="M20 0l608 791c30 39.333 56.333 79.833 79 121.5s34 86.5 34 134.5c0 68 -23.5 122.833 -70.5 164.5s-114.167 62.5 -201.5 62.5c-49.333 0 -100.666 -5.83301 -153.999 -17.5s-101.666 -27.167 -144.999 -46.5l-80 217c58.667 26 123.167 45.833 193.5 59.5
s140.166 20.5 209.499 20.5c173.333 0 305.166 -39.833 395.499 -119.5s135.5 -188.5 135.5 -326.5c0 -40 -5.5 -78.333 -16.5 -115s-25 -71.667 -42 -105s-36.167 -64.833 -57.5 -94.5s-42.333 -56.5 -63 -80.5l-372 -435h581v-231h-1034z" />
    <glyph glyph-name="three" unicode="3" horiz-adv-x="1079" 
d="M997 426c0 -68 -12.333 -129.665 -37 -184.998s-60.5 -102.5 -107.5 -141.5s-104.333 -69.5 -172 -91.5s-144.5 -33 -230.5 -33c-75.333 0 -150.5 7.16699 -225.5 21.5s-141.833 33.833 -200.5 58.5l86 217c44 -18.667 95.333 -33.5 154 -44.5
s119.334 -16.5 182.001 -16.5c86 0 152.833 19.833 200.5 59.5s71.5 92.167 71.5 157.5c0 38 -10.167 71.667 -30.5 101s-48.666 53.666 -84.999 72.999s-78.666 34.166 -126.999 44.499s-100.5 15.5 -156.5 15.5h-23v204c116 7.33301 208.167 32.833 276.5 76.5
s102.5 98.167 102.5 163.5c0 53.333 -19.333 95 -58 125s-95 45 -169 45c-49.333 0 -102 -6.16699 -158 -18.5s-106.333 -28.166 -151 -47.499l-78 217c60 26 126.5 45.833 199.5 59.5s147.833 20.5 224.5 20.5c154 0 269.667 -34.833 347 -104.5s116 -161.834 116 -276.501
c0 -36.667 -6.83301 -72 -20.5 -106s-31.834 -65 -54.501 -93s-48.334 -53 -77.001 -75s-58.667 -39.667 -90 -53v-4c36.667 -12.667 72.5 -29.167 107.5 -49.5s66.167 -45.5 93.5 -75.5s49.166 -65.167 65.499 -105.5s24.5 -86.5 24.5 -138.5z" />
    <glyph glyph-name="four" unicode="4" horiz-adv-x="1155" 
d="M948 367v-367h-250v367h-637v198l592 918h295v-918h141v-198h-141zM708 1237l-29 -54.999c-17.333 -36 -39 -74.333 -65 -115l-320 -502h412v477v70c0 23.333 0.666992 44.666 2 63.999l4 61h-4z" />
    <glyph glyph-name="five" unicode="5" horiz-adv-x="1083" 
d="M1001 446c0 -77.333 -14.0039 -145.331 -42.0039 -203.998s-67.333 -107.834 -118 -147.501s-110.167 -69.5 -178.5 -89.5s-142.5 -30 -222.5 -30c-74 0 -146.833 7.5 -218.5 22.5s-136.167 34.167 -193.5 57.5l86 217c39.333 -18.667 88.833 -33.5 148.5 -44.5
s115.834 -16.5 168.501 -16.5c92 0 163.5 20.167 214.5 60.5s76.5 96.5 76.5 168.5c0 38.667 -7.16699 73.667 -21.5 105s-37.166 58.166 -68.499 80.499s-71.833 40 -121.5 53s-109.5 19.5 -179.5 19.5c-31.333 0 -64.666 -1 -99.999 -3s-73 -6.33301 -113 -13l88 801h764
v-232h-530l-41 -348h41c186.667 0 326.834 -40.167 420.501 -120.5s140.5 -192.5 140.5 -336.5z" />
    <glyph glyph-name="six" unicode="6" horiz-adv-x="1177" 
d="M1093 461c0 -68.667 -11.8281 -132.332 -35.4951 -190.999s-57.334 -109.834 -101.001 -153.501s-96 -78.167 -157 -103.5s-128.167 -38 -201.5 -38c-87.333 0 -162.833 15.5 -226.5 46.5s-116.334 73 -158.001 126s-72.334 114.333 -92.001 184s-29.5 143.5 -29.5 221.5
c0 124 20.833 238.667 62.5 344s99 198.5 172 279.5s159 149.5 258 205.5s205.833 97.667 320.5 125l66 -233c-140.667 -34 -256.834 -86.167 -348.501 -156.5s-159.834 -154.833 -204.501 -253.5c27.333 11.333 59 20.666 95 27.999s69.667 11 101 11
c74 0 140.667 -10.167 200 -30.5s109.5 -49.666 150.5 -87.999s72.667 -84.833 95 -139.5s33.5 -116 33.5 -184zM827.005 457.002c0 82 -24.166 144.83 -72.499 188.497s-110.833 65.5 -187.5 65.5c-32.667 0 -67.834 -4.16699 -105.501 -12.5s-70.167 -17.833 -97.5 -28.5
c-2.66699 -19.333 -5 -39.166 -7 -59.499s-3 -40.166 -3 -59.499c0 -102.667 20.5 -186.667 61.5 -252s101.833 -98 182.5 -98c35.333 0 67 6.83301 95 20.5s51.833 32.334 71.5 56.001s35 51 46 82s16.5 63.5 16.5 97.5z" />
    <glyph glyph-name="seven" unicode="7" horiz-adv-x="1105" 
d="M457 0h-306l555 1251h-659v232h1032z" />
    <glyph glyph-name="eight" unicode="8" horiz-adv-x="1171" 
d="M1089 373c0 -60 -12.6719 -114.666 -38.0049 -163.999s-60.166 -91.333 -104.499 -126s-97.333 -61.334 -159 -80.001s-129.167 -28 -202.5 -28c-74 0 -141.667 9 -203 27s-114.166 43.667 -158.499 77s-78.833 74.5 -103.5 123.5s-37 105.833 -37 170.5
c0 53.333 7.83301 100 23.5 140s36.834 75.833 63.501 107.5s57.334 59 92.001 82s70.667 44.167 108 63.5c-34 18 -66.167 38.167 -96.5 60.5s-56.666 47.5 -78.999 75.5s-40.333 59.833 -54 95.5s-20.5 75.834 -20.5 120.501c0 60 11.5 114.333 34.5 163s55 89.667 96 123
s89.833 58.833 146.5 76.5s119.334 26.5 188.001 26.5c65.333 0 126.666 -9.5 183.999 -28.5s106.833 -45.5 148.5 -79.5s74.5 -75 98.5 -123s36 -100.667 36 -158c0 -44.667 -6.83301 -84.834 -20.5 -120.501s-32.167 -67.5 -55.5 -95.5s-50 -53.167 -80 -75.5
s-62 -42.5 -96 -60.5c38 -19.333 74.5 -40.5 109.5 -63.5s65.667 -50.333 92 -82s47.5 -67.5 63.5 -107.5s24 -86.667 24 -140zM795.995 1118c0 52 -17.833 97.167 -53.5 135.5s-88.167 57.5 -157.5 57.5c-70 0 -122.667 -19.167 -158 -57.5s-53 -83.5 -53 -135.5
c0 -31.333 5.5 -59.333 16.5 -84s26 -47.167 45 -67.5s41.5 -38.666 67.5 -54.999s53.333 -31.5 82 -45.5c28.667 14 56 29.167 82 45.5s48.5 34.666 67.5 54.999s34 42.833 45 67.5s16.5 52.667 16.5 84zM819.995 383.001c0 34 -6.5 64.667 -19.5 92s-30 52 -51 74
s-45.833 41.833 -74.5 59.5s-58.667 34.5 -90 50.5c-31.333 -16 -61.333 -32.833 -90 -50.5s-54 -37.5 -76 -59.5s-39.167 -46.667 -51.5 -74s-18.5 -58 -18.5 -92c0 -61.333 21.833 -110.5 65.5 -147.5s100.5 -55.5 170.5 -55.5c69.333 0 125.833 18.5 169.5 55.5
s65.5 86.167 65.5 147.5z" />
    <glyph glyph-name="nine" unicode="9" horiz-adv-x="1177" 
d="M1084 930c0 -124.667 -20.666 -239.501 -61.999 -344.501s-98.666 -198.167 -171.999 -279.5s-159.5 -150.333 -258.5 -207s-205.833 -98 -320.5 -124l-65 234c140.667 34 256.667 86.167 348 156.5s159.666 154.5 204.999 252.5
c-27.333 -10.667 -58.833 -19.667 -94.5 -27s-69.167 -11 -100.5 -11c-148.667 0 -266 39.167 -352 117.5s-129 186.5 -129 324.5c0 66.667 12 129.667 36 189s57.5 111 100.5 155s94.833 78.5 155.5 103.5s128 37.5 202 37.5c87.333 0 162.666 -15.333 225.999 -46
s115.833 -72.667 157.5 -126s72.667 -114.666 93 -183.999s30.5 -143 30.5 -221zM822.001 933.999c0 102 -20.833 186.167 -62.5 252.5s-102.5 99.5 -182.5 99.5c-36 0 -68 -7.16699 -96 -21.5s-51.833 -33.5 -71.5 -57.5s-34.667 -51.333 -45 -82s-15.5 -63 -15.5 -97
c0 -82 24.333 -144.833 73 -188.5s111 -65.5 187 -65.5c32.667 0 68.167 4.5 106.5 13.5s70.5 18.833 96.5 29.5c2.66699 19.333 5 38.833 7 58.5s3 39.167 3 58.5z" />
    <glyph glyph-name="colon" unicode=":" horiz-adv-x="587" 
d="M464 825c0 -24.667 -4.5 -47.5 -13.5 -68.5s-21.333 -39.333 -37 -55s-33.667 -28 -54 -37s-42.166 -13.5 -65.499 -13.5s-45.166 4.5 -65.499 13.5s-38.333 21.333 -54 37s-28 34 -37 55s-13.5 43.833 -13.5 68.5s4.5 47.667 13.5 69s21.333 39.833 37 55.5
s33.667 28.167 54 37.5s42.166 14 65.499 14s45.166 -4.66699 65.499 -14s38.333 -21.833 54 -37.5s28 -34.167 37 -55.5s13.5 -44.333 13.5 -69zM464 158c0 -24.667 -4.5 -47.667 -13.5 -69s-21.333 -39.833 -37 -55.5s-33.667 -28.167 -54 -37.5s-42.166 -14 -65.499 -14
s-45.166 4.66699 -65.499 14s-38.333 21.833 -54 37.5s-28 34.167 -37 55.5s-13.5 44.333 -13.5 69s4.5 47.5 13.5 68.5s21.333 39.333 37 55s33.667 28.334 54 38.001s42.166 14.5 65.499 14.5s45.166 -4.83301 65.499 -14.5s38.333 -22.334 54 -38.001s28 -34 37 -55
s13.5 -43.833 13.5 -68.5z" />
    <glyph glyph-name="semicolon" unicode=";" horiz-adv-x="587" 
d="M469 825c0 -24.667 -4.5 -47.5 -13.5 -68.5s-21 -39.333 -36 -55s-32.667 -28 -53 -37s-42.166 -13.5 -65.499 -13.5s-45.166 4.5 -65.499 13.5s-38 21.333 -53 37s-27 34 -36 55s-13.5 43.833 -13.5 68.5s4.5 47.667 13.5 69s21 39.833 36 55.5s32.667 28.167 53 37.5
s42.166 14 65.499 14s45.166 -4.66699 65.499 -14s38 -21.833 53 -37.5s27 -34.167 36 -55.5s13.5 -44.333 13.5 -69zM182 -346h-186l180 582c19.333 26.667 43.333 49.667 72 69s62.667 29 102 29c40 0 69.5 -9.66699 88.5 -29s30.5 -42.333 34.5 -69z" />
    <glyph glyph-name="less" unicode="&#x3c;" horiz-adv-x="1077" 
d="M120 573v185l838 420v-254l-592 -258l592 -258v-254z" />
    <glyph glyph-name="equal" unicode="=" horiz-adv-x="1077" 
d="M120 784v215h838v-215h-838zM120 332v215h838v-215h-838z" />
    <glyph glyph-name="greater" unicode="&#x3e;" horiz-adv-x="1077" 
d="M120 154v254l592 258l-592 258v254l838 -420v-185z" />
    <glyph glyph-name="question" unicode="?" horiz-adv-x="985" 
d="M907 1120c0 -52 -9.83105 -98.332 -29.498 -138.999s-45.334 -76.834 -77.001 -108.501s-66.834 -58.667 -105.501 -81s-76.667 -40.5 -114 -54.5l-16 -219h-221l-23 356c40 10 78 21.833 114 35.5s68 30.334 96 50.001s50.167 41.5 66.5 65.5s24.5 51 24.5 81
c0 54.667 -17.667 97 -53 127s-92.666 45 -171.999 45c-43.333 0 -89.666 -6.16699 -138.999 -18.5s-90.333 -26.5 -123 -42.5l-84 210c49.333 23.333 108.166 42.5 176.499 57.5s137.166 22.5 206.499 22.5c152.667 0 269.667 -32.333 351 -97s122 -161.334 122 -290.001z
M624.002 158.001c0 -24.667 -4.33301 -47.667 -13 -69s-20.5 -39.833 -35.5 -55.5s-32.833 -28.167 -53.5 -37.5s-42.334 -14 -65.001 -14c-23.333 0 -45.333 4.66699 -66 14s-38.834 21.833 -54.501 37.5s-27.834 34.167 -36.501 55.5s-13 44.333 -13 69
s4.33301 47.5 13 68.5s20.834 39.333 36.501 55s33.834 28.334 54.501 38.001s42.667 14.5 66 14.5c22.667 0 44.334 -4.83301 65.001 -14.5s38.5 -22.334 53.5 -38.001s26.833 -34 35.5 -55s13 -43.833 13 -68.5z" />
    <glyph glyph-name="at" unicode="@" horiz-adv-x="2023" 
d="M1925 684c0 -124 -19.502 -230.503 -58.502 -319.503s-92 -162.167 -159 -219.5s-145.167 -99.666 -234.5 -126.999s-185.333 -41 -288 -41c-190.667 0 -338.667 48.5 -444 145.5s-158 235.833 -158 416.5c0 83.333 11.333 158.333 34 225s54.834 122.834 96.501 168.501
s92.167 80.834 151.5 105.501s126 37 200 37c82 0 150.5 -11.833 205.5 -35.5s98.5 -49.834 130.5 -78.501v-752c42 14.667 81.167 34.667 117.5 60s67 57.166 92 95.499s44.667 83.833 59 136.5s21.5 113.667 21.5 183c0 87.333 -12.5 168.5 -37.5 243.5
s-63.5 140.167 -115.5 195.5s-117.333 99.166 -196 131.499s-171 48.5 -277 48.5c-114.667 0 -217.5 -19.5 -308.5 -58.5s-167.833 -93 -230.5 -162s-110.834 -151.667 -144.501 -248s-50.5 -201.833 -50.5 -316.5c0 -113.333 18.167 -217 54.5 -311s90 -175.167 161 -243.5
s158.333 -121.666 262 -159.999s223.167 -57.5 358.5 -57.5c118.667 0 229.167 16 331.5 48s187.166 72 254.499 120l114 -178c-80 -57.333 -178.167 -105.166 -294.5 -143.499s-251.5 -57.5 -405.5 -57.5c-165.333 0 -314.166 23.833 -446.499 71.5
s-244.666 115 -336.999 202s-163 190.833 -212 311.5s-73.5 253.334 -73.5 398.001c0 140.667 22.167 271.5 66.5 392.5s108.5 225.5 192.5 313.5s185.333 157.167 304 207.5s253.334 75.5 404.001 75.5c139.333 0 262.5 -21.5 369.5 -64.5s196.667 -102 269 -177
s127.333 -162.333 165 -262s56.5 -206.167 56.5 -319.5zM1173 851.997c-10.667 6.66699 -26.667 13.165 -48 19.498s-44.333 9.5 -69 9.5c-77.333 0 -136.5 -28.667 -177.5 -86s-61.5 -142.666 -61.5 -255.999c0 -123.333 30.667 -213.666 92 -270.999s144 -86 248 -86h16
v670z" />
    <glyph glyph-name="A" unicode="A" horiz-adv-x="1304" 
d="M1003 0l-104 346h-492l-104 -346h-289l475 1483h326l477 -1483h-289zM694 1065c-6.66699 20.667 -12.5 41.5 -17.5 62.5s-8.83301 40.5 -11.5 58.5c-4 20.667 -7.33301 40.334 -10 59.001h-4c-2.66699 -18.667 -6 -38.334 -10 -59.001
c-2.66699 -18 -6.5 -37.5 -11.5 -58.5s-10.833 -41.833 -17.5 -62.5l-149 -506h380z" />
    <glyph glyph-name="B" unicode="B" horiz-adv-x="1210" 
d="M1128 403c0 -133.333 -46.998 -237.998 -140.998 -313.998s-234.667 -114 -422 -114c-40.667 0 -81.5 2.16699 -122.5 6.5s-80.333 9.83301 -118 16.5s-73.167 15.167 -106.5 25.5s-62.333 20.833 -87 31.5v1372c53.333 23.333 117.833 42.5 193.5 57.5
s154.5 22.5 236.5 22.5c90 0 168.167 -10.167 234.5 -30.5s121.666 -48.333 165.999 -84s77.166 -78.334 98.499 -128.001s32 -103.834 32 -162.501c0 -42.667 -6.16699 -82 -18.5 -118s-29.166 -68.333 -50.499 -97s-45.333 -52.667 -72 -72s-54.334 -33 -83.001 -41v-4
c28.667 -9.33301 58.334 -24 89.001 -44s58.667 -45 84 -75s46.166 -65.5 62.499 -106.5s24.5 -88.167 24.5 -141.5zM827.002 1075c0 67.333 -21.5 119.668 -64.5 157.001s-110.167 56 -201.5 56c-31.333 0 -62 -2.33301 -92 -7s-54.667 -10.334 -74 -17.001v-408h174
c48 0 86.333 3.83301 115 11.5s54 20.167 76 37.5c20 18 36.167 41.667 48.5 71s18.5 62.333 18.5 99zM856.002 422.004c0 83.333 -29.999 144.001 -89.999 182.001c-23.333 15.333 -49.333 27 -78 35s-67 12 -115 12h-178v-432
c19.333 -6.66699 44.666 -12.334 75.999 -17.001s62 -7 92 -7c195.333 0 293 75.667 293 227z" />
    <glyph glyph-name="C" unicode="C" horiz-adv-x="1030" 
d="M962 55c-32.667 -23.333 -75.502 -42.499 -128.502 -57.499s-112.5 -22.5 -178.5 -22.5c-77.333 0 -150.5 15.833 -219.5 47.5s-129.167 79.167 -180.5 142.5s-91.666 142.833 -120.999 238.5s-44 208.167 -44 337.5c0 128.667 14.667 241.167 44 337.5
s69.666 176.166 120.999 239.499s111.5 110.666 180.5 141.999s142.167 47 219.5 47c62.667 0 121.334 -7.5 176.001 -22.5s98.334 -34.167 131.001 -57.5l-86 -231c-18.667 15.333 -44.834 29 -78.501 41s-70.167 18 -109.5 18c-91.333 0 -166.333 -43 -225 -129
s-88 -213.667 -88 -383s29.333 -296.666 88 -381.999s133.667 -128 225 -128c39.333 0 75.833 5.83301 109.5 17.5s59.834 25.167 78.501 40.5l86 -236v0z" />
    <glyph glyph-name="D" unicode="D" horiz-adv-x="1243" 
d="M1153 741c0 -249.333 -55.333 -439.333 -166 -570s-265.667 -196 -465 -196c-79.333 0 -153.333 7.5 -222 22.5s-125 34.167 -169 57.5v1372c45.333 23.333 102.333 42.5 171 57.5s142 22.5 220 22.5c199.333 0 354.333 -65.167 465 -195.5s166 -320.5 166 -570.5z
M874 741c0 92 -8.16699 171.001 -24.5 237.001s-39.5 120.167 -69.5 162.5s-65.5 73.5 -106.5 93.5s-85.833 30 -134.5 30c-54.667 0 -97.667 -7 -129 -21v-1003c26.667 -14 69.667 -21 129 -21c48.667 0 93.5 10 134.5 30s76.5 51.167 106.5 93.5
s53.167 96.166 69.5 161.499s24.5 144.333 24.5 237z" />
    <glyph glyph-name="E" unicode="E" horiz-adv-x="976" 
d="M131 0v1483h758v-242h-486v-371h439v-237h-439v-391h486v-242h-758z" />
    <glyph glyph-name="F" unicode="F" horiz-adv-x="956" 
d="M403 1241v-371h433v-237h-433v-633h-272v1483h750v-242h-478z" />
    <glyph glyph-name="G" unicode="G" horiz-adv-x="1253" 
d="M1128 55c-38 -21.333 -91.1699 -40.001 -159.503 -56.001s-145.5 -24 -231.5 -24c-99.333 0 -189 17.833 -269 53.5s-148 87 -204 154s-99 147.5 -129 241.5s-45 199.667 -45 317c0 118 16 224 48 318s77.333 174.5 136 241.5s129.334 118.167 212.001 153.5
s174.667 53 276 53c73.333 0 141.833 -7.5 205.5 -22.5s113.167 -34.167 148.5 -57.5l-86 -225c-27.333 16.667 -63.166 30.834 -107.499 42.501s-95.166 17.5 -152.499 17.5c-56 0 -108.167 -10.333 -156.5 -31s-90.666 -52.5 -126.999 -95.5s-65 -96.833 -86 -161.5
s-31.5 -141.667 -31.5 -231c0 -88.667 9.5 -165.667 28.5 -231s44.5 -119.833 76.5 -163.5s69.167 -76.167 111.5 -97.5s86.166 -32 131.499 -32c35.333 0 66.333 2 93 6s46 9.66699 58 17v413h-217v219h477v-819v0z" />
    <glyph glyph-name="H" unicode="H" horiz-adv-x="1253" 
d="M846 0v633h-436v-633h-279v1483h279v-613h436v613h276v-1483h-276z" />
    <glyph glyph-name="I" unicode="I" horiz-adv-x="540" 
d="M131 0v1483h279v-1483h-279z" />
    <glyph glyph-name="J" unicode="J" horiz-adv-x="540" 
d="M410 164c0 -188.667 -46.667 -332.498 -140 -431.498s-222 -159.5 -386 -181.5v248c75.333 19.333 135.5 57.666 180.5 114.999s67.5 140.666 67.5 249.999v1319h278v-1319v0z" />
    <glyph glyph-name="K" unicode="K" horiz-adv-x="1200" 
d="M866 0l-452 737h-4v-737h-279v1483h279v-672h4l446 672h311l-477 -709l488 -774h-316z" />
    <glyph glyph-name="L" unicode="L" horiz-adv-x="911" 
d="M131 0v1483h279v-1241h442v-242h-721z" />
    <glyph glyph-name="M" unicode="M" horiz-adv-x="1712" 
d="M1380 0l-101.002 944c-2.66699 23.333 -4.66699 47 -6 71s-2.66602 45.333 -3.99902 64c-1.33301 23.333 -2.66602 45.333 -3.99902 66h-4c-2.66699 -20.667 -6.66699 -42.667 -12 -66l-16 -64c-6 -24 -12.333 -47.667 -19 -71l-269 -944h-178l-270 944l-19.5 71
c-6.33301 24 -11.5 45.333 -15.5 64c-5.33301 23.333 -9.33301 45.333 -12 66h-4c-1.33301 -20.667 -2.66602 -42.667 -3.99902 -66l-4.5 -64c-1.66699 -24 -3.83398 -47.667 -6.50098 -71l-100 -944h-258l178 1483h314l247 -867c7.33301 -21.333 13.333 -43 18 -65l13 -62
c5.33301 -21.333 9.33301 -42.333 12 -63h4c1.33301 20.667 5 41.667 11 63c2.66699 19.333 6.66699 40 12 62s11.333 43.667 18 65l246 867h313l179 -1483h-258z" />
    <glyph glyph-name="N" unicode="N" horiz-adv-x="1320" 
d="M960 0l-507 879.001c-12.667 20 -24.167 40.333 -34.5 61s-18.833 39 -25.5 55l-24 58h-5c0 -19.333 1 -40 3 -62c0 -18.667 0.333008 -39.334 1 -62.001s1 -45.667 1 -69v-860h-238v1483h238l497 -856c11.333 -20.667 22 -41.167 32 -61.5l28 -55.5
c9.33301 -19.333 18 -38.333 26 -57h4c-1.33301 18.667 -2 39.667 -2 63c-1.33301 19.333 -2 40.833 -2 64.5v70.5v832h238v-1483h-230z" />
    <glyph glyph-name="O" unicode="O" 
d="M1192 741c0 -107.333 -11.333 -207.833 -34 -301.5s-56.834 -174.667 -102.501 -243s-103 -122.333 -172 -162s-149.833 -59.5 -242.5 -59.5s-173.5 19.833 -242.5 59.5s-126.333 93.667 -172 162s-79.834 149.333 -102.501 243s-34 194.167 -34 301.5
c0 108 11.333 208.833 34 302.5s56.834 174.667 102.501 243s103 122.166 172 161.499s149.833 59 242.5 59s173.5 -19.667 242.5 -59s126.333 -93.166 172 -161.499s79.834 -149.333 102.501 -243s34 -194.5 34 -302.5zM913 741c0 76.667 -5.83301 146.334 -17.5 209.001
s-28.667 116.334 -51 161.001s-50.666 79.167 -84.999 103.5s-73.833 36.5 -118.5 36.5c-45.333 0 -85 -12.167 -119 -36.5s-62.333 -58.833 -85 -103.5s-39.667 -98.334 -51 -161.001s-17 -132.334 -17 -209.001c0 -76 5.66699 -145.5 17 -208.5s28.333 -116.667 51 -161
s51 -78.833 85 -103.5s73.667 -37 119 -37c44.667 0 84.167 12.333 118.5 37s62.666 59.167 84.999 103.5s39.333 98 51 161s17.5 132.5 17.5 208.5z" />
    <glyph glyph-name="P" unicode="P" horiz-adv-x="1157" 
d="M1092 1032c0 -66.667 -11.667 -128.667 -35 -186s-58.5 -106.833 -105.5 -148.5s-105.333 -74.167 -175 -97.5s-150.5 -35 -242.5 -35c-22.667 0 -46.334 1 -71.001 3s-44.667 4.33301 -60 7v-575h-272v1427c54.667 24.667 116.5 44.167 185.5 58.5
s144.5 21.5 226.5 21.5c178.667 0 314.834 -43 408.501 -129s140.5 -201.333 140.5 -346zM819 1034c0 168 -90.667 252 -272 252c-27.333 0 -54 -2 -80 -6s-47.333 -9.33301 -64 -16v-469c30 -7.33301 69 -11 117 -11c98.667 0 173.167 22.333 223.5 67
s75.5 105.667 75.5 183z" />
    <glyph glyph-name="Q" unicode="Q" 
d="M983 -401l-227.002 389c-37.333 -8.66699 -75.666 -13 -114.999 -13c-92.667 0 -173.5 19.833 -242.5 59.5s-126.333 93.667 -172 162s-79.834 149.333 -102.501 243s-34 194.167 -34 301.5c0 108 11.333 208.833 34 302.5s56.834 174.667 102.501 243
s103 122.166 172 161.499s149.833 59 242.5 59s173.5 -19.667 242.5 -59s126.333 -93.166 172 -161.499s79.834 -149.333 102.501 -243s34 -194.5 34 -302.5c0 -137.333 -18.5 -262 -55.5 -374s-92.167 -202.333 -165.5 -271l223 -321zM912.998 741
c0 76.667 -5.83301 146.334 -17.5 209.001s-28.667 116.334 -51 161.001s-50.666 79.167 -84.999 103.5s-73.833 36.5 -118.5 36.5c-45.333 0 -85 -12.167 -119 -36.5s-62.333 -58.833 -85 -103.5s-39.667 -98.334 -51 -161.001s-17 -132.334 -17 -209.001
c0 -76 5.66699 -145.5 17 -208.5s28.333 -116.667 51 -161s51 -78.833 85 -103.5s73.667 -37 119 -37c44.667 0 84.167 12.333 118.5 37s62.666 59.167 84.999 103.5s39.333 98 51 161s17.5 132.5 17.5 208.5z" />
    <glyph glyph-name="R" unicode="R" horiz-adv-x="1218" 
d="M881 0l-178.998 454.999c-18.667 44.667 -43 80.334 -73 107.001s-69.667 40 -119 40h-105v-602h-274v1427c57.333 26 123.166 45.833 197.499 59.5s151.166 20.5 230.499 20.5c178.667 0 312.834 -39.5 402.501 -118.5s134.5 -188.167 134.5 -327.5
c0 -53.333 -7.5 -100.5 -22.5 -141.5s-35.5 -76.5 -61.5 -106.5s-55.833 -54.833 -89.5 -74.5s-68.834 -35.167 -105.501 -46.5v-4c38 -22 70.333 -51.667 97 -89s49.667 -80 69 -128l190 -471h-292zM823.002 1044c0 78 -20.499 138.169 -61.499 180.502
s-106.5 63.5 -196.5 63.5c-30 0 -59.333 -2.33301 -88 -7s-52.667 -10.334 -72 -17.001v-457h148c87.333 0 154.166 19.167 200.499 57.5s69.5 98.166 69.5 179.499z" />
    <glyph glyph-name="S" unicode="S" horiz-adv-x="1007" 
d="M923 430c0 -68 -10.9971 -129.67 -32.9971 -185.003s-53.833 -103.166 -95.5 -143.499s-92.5 -71.5 -152.5 -93.5s-128 -33 -204 -33c-70 0 -138.5 7.5 -205.5 22.5s-120.167 34.167 -159.5 57.5l90 250c31.333 -19.333 70.666 -35.666 117.999 -48.999
s94.666 -20 141.999 -20c67.333 0 120.333 16.333 159 49s58 76.334 58 131.001c0 26 -5 49.167 -15 69.5s-24 38.666 -42 54.999s-38.833 31 -62.5 44s-48.5 25.833 -74.5 38.5c-40 18.667 -81.167 40.334 -123.5 65.001s-80.833 54.334 -115.5 89.001
s-63.334 75.667 -86.001 123s-34 103.666 -34 168.999s11 125 33 179s52.833 100.167 92.5 138.5s88.167 68 145.5 89s121.333 31.5 192 31.5c70 0 134 -7.5 192 -22.5s104.667 -34.167 140 -57.5l-86 -233c-26 15.333 -60.167 30.166 -102.5 44.499
s-86.166 21.5 -131.499 21.5c-61.333 0 -109.333 -16.167 -144 -48.5s-52 -74.5 -52 -126.5c0 -25.333 5.5 -48 16.5 -68s25.667 -38.5 44 -55.5s39.5 -32.333 63.5 -46l75 -41.5l120.5 -66c42.333 -24 81.166 -53 116.499 -87s64.333 -74.667 87 -122
s34 -103.666 34 -168.999z" />
    <glyph glyph-name="T" unicode="T" horiz-adv-x="999" 
d="M639 1241v-1241h-277v1241h-301v242h877v-242h-299z" />
    <glyph glyph-name="U" unicode="U" horiz-adv-x="1234" 
d="M1104 438c0 -73.333 -12.3301 -138.333 -36.9971 -195s-58.834 -104.5 -102.501 -143.5s-95.167 -68.667 -154.5 -89s-124 -30.5 -194 -30.5c-69.333 0 -133.333 10.167 -192 30.5s-109.834 50 -153.501 89s-77.834 86.833 -102.501 143.5s-37 121.667 -37 195v1045h279
v-1047c0 -65.333 20 -116.5 60 -153.5s88.667 -55.5 146 -55.5c58.667 0 108.167 18.5 148.5 55.5s60.5 88.167 60.5 153.5v1047h279v-1045v0z" />
    <glyph glyph-name="V" unicode="V" horiz-adv-x="1214" 
d="M755 0h-292.998l-438 1483h299l242 -965c5.33301 -23.333 10.333 -47.5 15 -72.5l13 -68.5c6 -24.667 10.333 -48.667 13 -72h4c1.33301 23.333 4.66602 47.333 9.99902 72c2.66699 20.667 6.66699 43.5 12 68.5s11.666 49.167 18.999 72.5l239 965h301z" />
    <glyph glyph-name="W" unicode="W" horiz-adv-x="1794" 
d="M1399 0l-271.001 -0.000976562l-194 860c-6.66699 24.667 -12.167 49.334 -16.5 74.001s-7.83301 47 -10.5 67c-4 24.667 -6.66699 48 -8 70h-4c-2.66699 -22 -6 -45.333 -10 -70c-2.66699 -20 -6.16699 -42.333 -10.5 -67s-9.16602 -49.334 -14.499 -74.001l-194 -860
h-269l-352 1483h279l186 -932c4 -23.333 7.66699 -46.166 11 -68.499l9 -62.5c4.66699 -23.333 8.33398 -45.333 11.001 -66h4c1.33301 20.667 4 42.667 8 66l9 62.5c3.33301 22.333 7.66602 45.166 12.999 68.499l207 932h230l207 -932
c5.33301 -23.333 10 -46.166 14 -68.499s7.33301 -43.166 10 -62.499c4 -23.333 6.66699 -45.333 8 -66h2c2.66699 20.667 6.33398 42.667 11.001 66l9 62.5c3.33301 22.333 7.66602 45.166 12.999 68.499l184 932h279z" />
    <glyph glyph-name="X" unicode="X" horiz-adv-x="1181" 
d="M860 0l-266 539h-5l-270 -539h-303l410 768l-381 715h303l241 -486h5l239 486h303l-381 -715l410 -768h-305z" />
    <glyph glyph-name="Y" unicode="Y" horiz-adv-x="1150" 
d="M712 582v-582h-276v582l-422 901h299l258 -611h4l262 611h299z" />
    <glyph glyph-name="Z" unicode="Z" horiz-adv-x="1019" 
d="M40 0l516 1241h-469v242h848l-514 -1241h518v-242h-899z" />
    <glyph glyph-name="bracketleft" unicode="[" horiz-adv-x="751" 
d="M147 -399v2007h516v-217h-254v-1573h254v-217h-516z" />
    <glyph glyph-name="backslash" unicode="\" horiz-adv-x="952" 
d="M712 -414l-651 1983l252 78l653 -1985z" />
    <glyph glyph-name="bracketright" unicode="]" horiz-adv-x="751" 
d="M88 -399v217h254v1573h-254v217h516v-2007h-516z" />
    <glyph glyph-name="asciicircum" unicode="^" horiz-adv-x="1191" 
d="M889 786l-293 377l-293 -377l-166 140l338 430c32.667 39.333 73 59 121 59c47.333 0 87 -19.667 119 -59l340 -430z" />
    <glyph glyph-name="underscore" unicode="_" horiz-adv-x="1163" 
d="M-8 -444v190h1180v-190h-1180z" />
    <glyph glyph-name="grave" unicode="`" horiz-adv-x="673" 
d="M292 1231l-213 270c6.66699 19.333 20.334 34.5 41.001 45.5s44 16.5 70 16.5s52.167 -4.83301 78.5 -14.5s49.166 -25.5 68.499 -47.5l137 -270h-182z" />
    <glyph glyph-name="a" unicode="a" horiz-adv-x="1062" 
d="M945 55c-20 -10.667 -44.333 -20.8291 -73 -30.4961s-60.5 -18.167 -95.5 -25.5s-71.833 -13.166 -110.5 -17.499s-78 -6.5 -118 -6.5c-160.667 0 -280.334 31.167 -359.001 93.5s-118 150.166 -118 263.499c0 74.667 17.333 135.667 52 183s80.667 84.666 138 111.999
s123.333 47.166 198 59.499s152.334 20.5 233.001 24.5v57c0 57.333 -17.833 98 -53.5 122s-84.167 36 -145.5 36c-50.667 0 -103.667 -6.83301 -159 -20.5s-101.333 -28.834 -138 -45.501l-68 189c45.333 18.667 102.833 36.5 172.5 53.5s143.5 25.5 221.5 25.5
c136 0 240.5 -30.333 313.5 -91s109.5 -161.334 109.5 -302.001v-680zM692 532.005c-49.333 -2.66699 -96.5 -6.33008 -141.5 -10.9971s-84.333 -13.834 -118 -27.501s-60.667 -32.834 -81 -57.501s-30.5 -57.334 -30.5 -98.001c0 -52 19.167 -92.333 57.5 -121
s92.166 -43 161.499 -43c28.667 0 57.334 2 86.001 6s50.667 9.66699 66 17v335z" />
    <glyph glyph-name="b" unicode="b" horiz-adv-x="1118" 
d="M1035 582c0 -208 -47.667 -361.166 -143 -459.499s-227.666 -147.5 -396.999 -147.5c-74 0 -144 8 -210 24s-121 34.667 -165 56v1553h266v-527c23.333 11.333 52.5 20.333 87.5 27s68.167 10 99.5 10c69.333 0 132.333 -11.833 189 -35.5
s105.167 -58.834 145.5 -105.501s71.666 -103 93.999 -169s33.5 -141.333 33.5 -226zM765 559.001c0 109.333 -21.499 194.333 -64.499 255s-102.833 91 -179.5 91c-24 0 -48.333 -2.66699 -73 -8s-45.334 -12 -62.001 -20v-660c14 -6.66699 32.167 -12 54.5 -16
s45.833 -6 70.5 -6c76.667 0 138.167 30 184.5 90s69.5 151.333 69.5 274z" />
    <glyph glyph-name="c" unicode="c" horiz-adv-x="899" 
d="M837 51c-36 -23.333 -76.166 -41.833 -120.499 -55.5s-97.833 -20.5 -160.5 -20.5c-61.333 0 -120.666 11.667 -177.999 35s-108.166 58.833 -152.499 106.5s-79.5 107.834 -105.5 180.501s-39 158 -39 256s13 183.333 39 256s61.167 132.5 105.5 179.5
s95.166 82 152.499 105s116.666 34.5 177.999 34.5c62.667 0 116.667 -6.83301 162 -20.5s85 -31.834 119 -54.501l-84 -201c-42.667 31.333 -95.334 47 -158.001 47c-65.333 0 -120.833 -28.333 -166.5 -85s-68.5 -143 -68.5 -259c0 -57.333 6 -107.5 18 -150.5
s29 -78.833 51 -107.5s47 -50.167 75 -64.5s58.333 -21.5 91 -21.5c61.333 0 114 16.333 158 49l84 -209v0z" />
    <glyph glyph-name="d" unicode="d" horiz-adv-x="1118" 
d="M999 55c-40 -21.333 -94.5 -40.001 -163.5 -56.001s-143.833 -24 -224.5 -24c-172 0 -303.333 49.833 -394 149.5s-136 239.834 -136 420.501c0 84.667 10.5 162.167 31.5 232.5s52.333 130.333 94 180s93.667 88.167 156 115.5s133.833 41 214.5 41
c28.667 0 57 -2 85 -6s50 -9.33301 66 -16v516h271v-1553zM728 882.999c-10.667 5.33301 -28 9.99902 -52 13.999s-47.667 6 -71 6c-84.667 0 -148.5 -32.667 -191.5 -98s-64.5 -150.666 -64.5 -255.999c0 -112 21.833 -199 65.5 -261s107.167 -93 190.5 -93
c23.333 0 47 2 71 6s41.333 9.33301 52 16v666z" />
    <glyph glyph-name="e" unicode="e" horiz-adv-x="1112" 
d="M1029 627v-46.499c0 -15.667 -1.33301 -31.834 -4 -48.501l-682 -96c12.667 -82 45.167 -142.667 97.5 -182s117.5 -59 195.5 -59c53.333 0 106.666 6.33301 159.999 19s98.333 29.334 135 50.001l76 -209c-44 -23.333 -100.833 -42.5 -170.5 -57.5
s-143.167 -22.5 -220.5 -22.5c-88 0 -165 14 -231 42s-121.5 67.667 -166.5 119s-79.167 112.5 -102.5 183.5s-35 148.833 -35 233.5s11.333 162.167 34 232.5s55.167 131 97.5 182s93.833 90.5 154.5 118.5s129.334 42 206.001 42c73.333 0 138.333 -11.833 195 -35.5
s104.5 -57.667 143.5 -102s68.333 -97.333 88 -159s29.5 -129.834 29.5 -204.501zM769 676.001c0 83.333 -18.001 145.833 -54.001 187.5s-85.667 62.5 -149 62.5c-69.333 0 -126.166 -26.333 -170.499 -79s-67.833 -131 -70.5 -235z" />
    <glyph glyph-name="f" unicode="f" horiz-adv-x="727" 
d="M679 1391c-2.66699 0 -6.66895 0.333008 -12.002 1s-12.666 1 -21.999 1c-53.333 0 -98.166 -12.667 -134.499 -38s-54.5 -68 -54.5 -128v-123h205v-209h-205v-895h-264v895h-131v209h131v123c0 66.667 9.83301 124.334 29.5 173.001s47.667 88.667 84 120
s79 54.833 128 70.5s102.167 23.5 159.5 23.5c14 0 29.167 -0.333008 45.5 -1s29.833 -2.33398 40.5 -5.00098v-217v0z" />
    <glyph glyph-name="g" unicode="g" horiz-adv-x="1118" 
d="M999 14c0 -77.333 -11.001 -145.829 -33.001 -205.496s-53.5 -109.167 -94.5 -148.5s-90.5 -69.333 -148.5 -90s-122.333 -31 -193 -31c-84.667 0 -161.167 8.16699 -229.5 24.5s-126.5 36.833 -174.5 61.5l78 219c35.333 -18.667 79 -34.5 131 -47.5
s108 -19.5 168 -19.5c79.333 0 137.333 20.167 174 60.5s55 99.166 55 176.499v68c-26 -12.667 -56.333 -22.334 -91 -29.001s-69.667 -10 -105 -10c-67.333 0 -129 12 -185 36s-103.667 58.5 -143 103.5s-70.333 99.833 -93 164.5s-34 138.667 -34 222
c0 93.333 12.667 175.166 38 245.499s61.5 128.666 108.5 174.999s104 81 171 104s142.167 34.5 225.5 34.5c74.667 0 144.834 -7.5 210.501 -22.5s120.5 -33.833 164.5 -56.5v-1035zM731.999 891.004c-13.333 6.66699 -31.6709 12 -55.0039 16s-48.666 6 -75.999 6
c-73.333 0 -133.666 -26.5 -180.999 -79.5s-71 -137.5 -71 -253.5c0 -109.333 22.167 -191 66.5 -245s103.5 -81 177.5 -81c24.667 0 50.334 3 77.001 9s47.334 13.333 62.001 22v606z" />
    <glyph glyph-name="h" unicode="h" horiz-adv-x="1122" 
d="M732 0l-0.00195312 721c0 61.333 -16.667 107 -50 137s-80.666 45 -141.999 45c-27.333 0 -54.666 -3.66699 -81.999 -11s-51.333 -17.333 -72 -30v-862h-266v1608h266v-537c31.333 15.333 66.5 27.666 105.5 36.999s78.167 14 117.5 14c126 0 223.167 -31.667 291.5 -95
s102.5 -155.666 102.5 -276.999v-750h-271z" />
    <glyph glyph-name="i" unicode="i" horiz-adv-x="516" 
d="M411 1432c0 -42.667 -15 -78.667 -45 -108s-66 -44 -108 -44c-44 0 -80.667 14.667 -110 44s-44 65.333 -44 108c0 42 14.667 77.333 44 106s66 43 110 43c42 0 78 -14.333 108 -43s45 -64 45 -106zM122 0v1104h269v-1104h-269z" />
    <glyph glyph-name="j" unicode="j" horiz-adv-x="516" 
d="M412 1432c0 -42.667 -15 -78.667 -45 -108s-66.333 -44 -109 -44c-43.333 0 -79.666 14.667 -108.999 44s-44 65.333 -44 108c0 42 14.667 77.333 44 106s65.666 43 108.999 43c42.667 0 79 -14.333 109 -43s45 -64 45 -106zM391 139
c0 -102 -12.833 -188.834 -38.5 -260.501s-60.834 -130.834 -105.501 -177.501s-96 -82.167 -154 -106.5s-119.667 -41.5 -185 -51.5v232c28.667 9.33301 56 22.833 82 40.5s48.833 40.834 68.5 69.501s35.334 63.834 47.001 105.501s17.5 91.167 17.5 148.5v965h268v-965z
" />
    <glyph glyph-name="k" unicode="k" horiz-adv-x="1089" 
d="M771 0l-381 557h-4v-557h-264v1608h264v-987h4l350 483h310l-383 -516l407 -588h-303z" />
    <glyph glyph-name="l" unicode="l" horiz-adv-x="516" 
d="M122 0v1608h268v-1608h-268z" />
    <glyph glyph-name="m" unicode="m" horiz-adv-x="1708" 
d="M1320 0l0.00195312 735c0 54.667 -15.667 96.667 -47 126s-73.666 44 -126.999 44c-65.333 0 -118 -18.333 -158 -55v-850h-270v748c0 48.667 -16.333 87 -49 115s-77.667 42 -135 42c-58.667 0 -108 -8.66699 -148 -26v-879h-266v1049
c53.333 22.667 114.166 41.5 182.499 56.5s139.833 22.5 214.5 22.5c86 0 156.667 -11.5 212 -34.5s98.666 -48.833 129.999 -77.5c32.667 27.333 80.167 52.833 142.5 76.5s133.166 35.5 212.499 35.5c118.667 0 211 -32.667 277 -98s99 -154 99 -266v-764h-270z" />
    <glyph glyph-name="n" unicode="n" horiz-adv-x="1122" 
d="M732 0l-0.000976562 727c0 56 -15.667 99.667 -47 131s-77.666 47 -138.999 47c-31.333 0 -61.333 -2.66699 -90 -8s-52 -11.333 -70 -18v-879h-266v1049c56 22.667 118.5 41.5 187.5 56.5s147.167 22.5 234.5 22.5c158 0 274.333 -32 349 -96s112 -156 112 -276v-756
h-271z" />
    <glyph glyph-name="o" unicode="o" horiz-adv-x="1124" 
d="M1042 553c0 -82 -10.667 -158.5 -32 -229.5s-52.5 -132.167 -93.5 -183.5s-91.167 -91.666 -150.5 -120.999s-127.333 -44 -204 -44c-77.333 0 -145.833 14.667 -205.5 44s-110 69.666 -151 120.999s-72 112.5 -93 183.5s-31.5 147.5 -31.5 229.5
s10.5 158.167 31.5 228.5s52 131 93 182s91.333 91.167 151 120.5s128.167 44 205.5 44c76.667 0 144.667 -14.667 204 -44s109.5 -69.5 150.5 -120.5s72.167 -111.667 93.5 -182s32 -146.5 32 -228.5zM773 555c0 110.667 -17.333 197.334 -52 260.001s-87.667 94 -159 94
c-72 0 -125.5 -31.333 -160.5 -94s-52.5 -149.334 -52.5 -260.001s17.5 -197 52.5 -259s88.5 -93 160.5 -93c71.333 0 124.333 31 159 93s52 148.333 52 259z" />
    <glyph glyph-name="p" unicode="p" horiz-adv-x="1118" 
d="M1035 557c0 -84.667 -10.498 -162.168 -31.498 -232.501s-52.333 -130.333 -94 -180s-93.5 -88.167 -155.5 -115.5s-133.333 -41 -214 -41c-28.667 0 -57.334 2.33301 -86.001 7s-51.334 10.334 -68.001 17.001v-452h-266v1489c39.333 21.333 93.5 39.833 162.5 55.5
s143.833 23.5 224.5 23.5c172 0 303 -50.167 393 -150.5s135 -240.5 135 -420.5zM765.002 556.999c0 112 -21.832 199 -65.499 261s-106.5 93 -188.5 93c-24.667 0 -48.5 -2 -71.5 -6s-40.833 -9.33301 -53.5 -16v-668c11.333 -5.33301 29.5 -10 54.5 -14s49.167 -6 72.5 -6
c41.333 0 77.666 8.83301 108.999 26.5s57.5 42.167 78.5 73.5s37 68.833 48 112.5s16.5 91.5 16.5 143.5z" />
    <glyph glyph-name="q" unicode="q" horiz-adv-x="1118" 
d="M728 -440l0.00292969 462.999c-23.333 -11.333 -52.333 -20.333 -87 -27s-67.667 -10 -99 -10c-68.667 0 -131.334 11.833 -188.001 35.5s-105 58.834 -145 105.501s-71.333 103 -94 169s-34 141.333 -34 226c0 206 48.167 358.5 144.5 457.5
s229.166 148.5 398.499 148.5c73.333 0 143.166 -7.83301 209.499 -23.5s121.5 -34.167 165.5 -55.5v-1489h-271zM728.003 888.999c-12 6.66699 -29.333 12 -52 16s-46.334 6 -71.001 6c-77.333 0 -139.333 -30 -186 -90s-70 -151.333 -70 -274
c0 -109.333 21.5 -194.333 64.5 -255s102.833 -91 179.5 -91c24.667 0 49.334 2.66699 74.001 8s45 12 61 20v660z" />
    <glyph glyph-name="r" unicode="r" horiz-adv-x="735" 
d="M640 887c-35.333 10.667 -75.666 16 -120.999 16c-24.667 0 -48.834 -2 -72.501 -6s-43.834 -9.33301 -60.501 -16v-881h-266v1049c54.667 22.667 118.834 41.5 192.501 56.5s153.5 22.5 239.5 22.5c53.333 0 99 -3.33301 137 -10z" />
    <glyph glyph-name="s" unicode="s" horiz-adv-x="909" 
d="M833 317c0 -103.333 -36.1699 -186.168 -108.503 -248.501s-179.5 -93.5 -321.5 -93.5c-66.667 0 -130.5 8 -191.5 24s-111.167 34.667 -150.5 56l86 213c13.333 -8 30.333 -16.5 51 -25.5s42.334 -16.833 65.001 -23.5s45.5 -12 68.5 -16s44.167 -6 63.5 -6
c48 0 86.667 10.833 116 32.5s44 50.834 44 87.501c0 41.333 -15.5 72.5 -46.5 93.5s-70.167 40.5 -117.5 58.5c-32.667 12 -67.167 26.333 -103.5 43s-69.166 37.167 -98.499 61.5s-53.5 55 -72.5 92s-28.5 82.833 -28.5 137.5c0 98 33.667 176.667 101 236
s163.333 89 288 89c69.333 0 131 -7.5 185 -22.5s101.333 -33.833 142 -56.5l-84 -191c-22.667 15.333 -54.167 29.833 -94.5 43.5s-78.166 20.5 -113.499 20.5c-48 0 -85 -11 -111 -33s-39 -49.333 -39 -82c0 -42.667 15 -74.167 45 -94.5s68.333 -39.5 115 -57.5
c35.333 -13.333 71.5 -27.833 108.5 -43.5s70.5 -36.167 100.5 -61.5s54.5 -56.5 73.5 -93.5s28.5 -83.5 28.5 -139.5z" />
    <glyph glyph-name="t" unicode="t" horiz-adv-x="722" 
d="M653 14c-16.667 -8 -39.667 -15 -69 -21s-60.333 -9 -93 -9c-102 0 -177.667 29 -227 87s-74 145 -74 261v563h-135v209h135v246l264 80v-326h199v-209h-199v-545c0 -44.667 11.667 -76 35 -94s52 -27 86 -27c15.333 0 29.833 1.83301 43.5 5.5s25.167 7.5 34.5 11.5
v-232v0z" />
    <glyph glyph-name="u" unicode="u" horiz-adv-x="1107" 
d="M988 55c-46 -23.333 -107.334 -42.501 -184.001 -57.501s-156.667 -22.5 -240 -22.5c-146 0 -256.5 32.5 -331.5 97.5s-112.5 169.167 -112.5 312.5v719h266v-725c0 -116 59.333 -174 178 -174c36 0 67.333 2.33301 94 7s47.334 10.334 62.001 17.001v875h268v-1049v0z
" />
    <glyph glyph-name="v" unicode="v" horiz-adv-x="1136" 
d="M722 0l-308.998 -0.000976562l-385 1104h303l195 -688c12 -45.333 21.333 -85.666 28 -120.999l11 -57h4c1.33301 17.333 4.66602 36.333 9.99902 57c2.66699 18 6.66699 37.167 12 57.5s11.666 41.5 18.999 63.5l194 688h301z" />
    <glyph glyph-name="w" unicode="w" horiz-adv-x="1656" 
d="M1302 0h-277.999l-164 629c-5.33301 18.667 -9.33301 37.667 -12 57s-5.33398 37 -8.00098 53c-3.33301 19.333 -6.33301 38 -9 56h-4c-1.33301 -18 -4 -36.667 -8 -56c-2.66699 -16 -6 -33.667 -10 -53l-12 -57l-164 -629h-277l-309 1104h270l150 -676
c4 -20.667 7.66699 -41.5 11 -62.5l9 -58.5c2.66699 -20.667 5.66699 -40.334 9 -59.001h4c2.66699 18.667 6 38.334 10 59.001c2.66699 18 6 37.5 10 58.5s8.66699 41.833 14 62.5l172 676h246l170 -676c5.33301 -20.667 10.166 -41.5 14.499 -62.5
s7.83301 -40.5 10.5 -58.5c4 -20.667 7.33301 -40.334 10 -59.001h4c2.66699 18.667 5.33398 38.334 8.00098 59.001l8.5 58.5c3 21 7.16699 41.833 12.5 62.5l151 676h269z" />
    <glyph glyph-name="x" unicode="x" horiz-adv-x="1083" 
d="M762 0l-220 383h-4l-217 -383h-307l360 571l-331 533h303l192 -352h4l195 352h301l-330 -533l361 -571h-307z" />
    <glyph glyph-name="y" unicode="y" horiz-adv-x="1134" 
d="M550 -440h-280.001l157 440l-399 1104h303l199 -694c6.66699 -20.667 12 -41.667 16 -63s7.33301 -40 10 -56c4.66699 -19.333 7.66699 -37.666 9 -54.999h4c1.33301 17.333 4 35.666 8 54.999c2.66699 16 6.33398 34.667 11.001 56s10.667 42.333 18 63l198 694h301z
" />
    <glyph glyph-name="z" unicode="z" horiz-adv-x="931" 
d="M49 0l426 885h-391v219h766l-426 -885h434v-219h-809z" />
    <glyph glyph-name="braceleft" unicode="{" horiz-adv-x="759" 
d="M571 -399c-128.667 0 -223.666 33.335 -284.999 100.002s-92 159.667 -92 279c0 34 1.66699 64.333 5 91s6.66602 51.834 9.99902 75.501l10.5 73.5c3.66699 25.333 5.5 54.333 5.5 87c0 56 -14.333 100 -43 132s-67 49.667 -115 53v225c48 2.66699 86.333 20 115 52
s43 76 43 132c0 32.667 -1.83301 61.667 -5.5 87l-10.5 74l-10 75c-3.33301 26 -5 56.667 -5 92c0 118.667 30.667 211.5 92 278.5s156.333 100.5 285 100.5h86v-217h-43c-49.333 0 -88 -13.333 -116 -40s-42 -67.334 -42 -122.001c0 -35.333 1.66699 -66 5 -92
s6.83301 -51 10.5 -75s7.16699 -48.667 10.5 -74s5 -54.333 5 -87c0 -78 -17.167 -141.833 -51.5 -191.5s-82.166 -84.167 -143.499 -103.5v-4c61.333 -19.333 109.166 -53.833 143.499 -103.5s51.5 -113.5 51.5 -191.5c0 -32.667 -1.66699 -61.667 -5 -87
s-6.83301 -49.833 -10.5 -73.5s-7.16699 -48.834 -10.5 -75.501s-5 -57 -5 -91c0 -54.667 14 -95.334 42 -122.001s66.667 -40 116 -40h43v-217h-86z" />
    <glyph glyph-name="bar" unicode="|" horiz-adv-x="522" 
d="M126 -440v2048h268v-2048h-268z" />
    <glyph glyph-name="braceright" unicode="}" horiz-adv-x="759" 
d="M692 492c-48 -3.33301 -86.667 -21.002 -116 -53.002s-44 -76 -44 -132c0 -32.667 1.66699 -61.667 5 -87s7.16602 -49.833 11.499 -73.5s8.16602 -48.834 11.499 -75.501s5 -57 5 -91c0 -119.333 -31.167 -212.333 -93.5 -279s-157.5 -100 -285.5 -100h-84v217h43
c49.333 0 88 13.333 116 40s42 67.334 42 122.001c0 34 -1.83301 64.333 -5.5 91s-7.5 51.834 -11.5 75.501s-7.66699 48.167 -11 73.5s-5 54.333 -5 87c0 78 17.333 141.833 52 191.5s83 84.167 145 103.5v4c-62 19.333 -110.333 53.833 -145 103.5s-52 113.5 -52 191.5
c0 32.667 1.66699 61.667 5 87s7 50 11 74s7.83301 49 11.5 75s5.5 56.667 5.5 92c0 54.667 -14 95.334 -42 122.001s-66.667 40 -116 40h-43v217h84c128 0 223.167 -33.5 285.5 -100.5s93.5 -159.833 93.5 -278.5c0 -35.333 -1.66699 -66 -5 -92s-7.16602 -51 -11.499 -75
s-8.16602 -48.667 -11.499 -74s-5 -54.333 -5 -87c0 -56 14.667 -100 44 -132s68 -49.333 116 -52v-225v0z" />
    <glyph glyph-name="asciitilde" unicode="~" horiz-adv-x="1191" 
d="M1057 819c-12.667 -72 -42.498 -131.668 -89.498 -179.001s-107.5 -71 -181.5 -71c-36.667 0 -69.667 6.16699 -99 18.5s-57.333 26 -84 41s-53.334 28.667 -80.001 41s-55 18.5 -85 18.5c-39.333 0 -74 -12 -104 -36s-52 -55 -66 -93l-137 105
c13.333 72 44 131.5 92 178.5s108.667 70.5 182 70.5c37.333 0 70.666 -6 99.999 -18s57.333 -25.667 84 -41s52.5 -29 77.5 -41s53.5 -18 85.5 -18c39.333 0 74.333 11.833 105 35.5s53 54.834 67 93.501l133 -105v0z" />
    <glyph glyph-name="dieresis" unicode="&#xa8;" horiz-adv-x="673" 
d="M668 1374c0 -35.333 -12.667 -65.666 -38 -90.999s-56.666 -38 -93.999 -38c-35.333 0 -65.666 12.667 -90.999 38s-38 55.666 -38 90.999s12.667 65.333 38 90s55.666 37 90.999 37c37.333 0 68.666 -12.333 93.999 -37s38 -54.667 38 -90zM270 1374
c0 -35.333 -13 -65.666 -39 -90.999s-57.333 -38 -94 -38c-35.333 0 -66 12.667 -92 38s-39 55.666 -39 90.999s13 65.333 39 90s56.667 37 92 37c36.667 0 68 -12.333 94 -37s39 -54.667 39 -90z" />
    <glyph glyph-name="copyright" unicode="&#xa9;" horiz-adv-x="1691" 
d="M1593 741c0 -107.333 -18.833 -207.5 -56.5 -300.5s-89.834 -174 -156.501 -243s-145.5 -123.333 -236.5 -163s-190.167 -59.5 -297.5 -59.5c-108 0 -207.833 19.833 -299.5 59.5s-170.5 94 -236.5 163s-117.833 150 -155.5 243s-56.5 193.167 -56.5 300.5
c0 108 18.833 208.5 56.5 301.5s89.5 174 155.5 243s144.833 123.167 236.5 162.5s191.5 59 299.5 59c107.333 0 206.5 -19.667 297.5 -59s169.833 -93.5 236.5 -162.5s118.834 -150 156.501 -243s56.5 -193.5 56.5 -301.5zM1423 741c0 86 -14.333 166 -43 240
s-68.667 138.167 -120 192.5s-112.5 97.333 -183.5 129s-147.833 47.5 -230.5 47.5c-84.667 0 -162.167 -15.833 -232.5 -47.5s-131.166 -74.667 -182.499 -129s-91.333 -118.5 -120 -192.5s-43 -154 -43 -240s14.333 -165.833 43 -239.5s68.667 -137.834 120 -192.501
s112.166 -97.667 182.499 -129s147.833 -47 232.5 -47c82.667 0 159.5 15.667 230.5 47s132.167 74.333 183.5 129s91.333 118.834 120 192.501s43 153.5 43 239.5zM1077 377c-23.333 -15.333 -53 -28.335 -89 -39.002s-75.333 -16 -118 -16
c-52 0 -100.167 8.83301 -144.5 26.5s-82.833 43.834 -115.5 78.501s-58.5 78.667 -77.5 132s-28.5 116.333 -28.5 189c0 70.667 9.5 132.667 28.5 186s44.833 97.666 77.5 132.999s71.167 61.5 115.5 78.5s92.5 25.5 144.5 25.5c42.667 0 82 -5.33301 118 -16
s65.667 -23.667 89 -39l-64 -127c-14.667 11.333 -33.334 20.333 -56.001 27s-47 10 -73 10c-27.333 0 -52.833 -5.16699 -76.5 -15.5s-45.167 -26.666 -64.5 -48.999s-34.333 -51 -45 -86s-16 -76.833 -16 -125.5c0 -49.333 5.33301 -91.5 16 -126.5s25.667 -63.667 45 -86
s40.833 -38.666 64.5 -48.999s49.167 -15.5 76.5 -15.5c26 0 50.333 3.5 73 10.5s41.334 15.833 56.001 26.5z" />
    <glyph glyph-name="registered" unicode="&#xae;" horiz-adv-x="1290" 
d="M1200 940c0 -80.667 -14 -155.5 -42 -224.5s-66.5 -129 -115.5 -180s-107.667 -91.167 -176 -120.5s-142.166 -44 -221.499 -44c-80.667 0 -154.834 14.667 -222.501 44s-126 69.5 -175 120.5s-87.5 111 -115.5 180s-42 143.833 -42 224.5c0 79.333 14 153.833 42 223.5
s66.5 130 115.5 181s107.333 91.167 175 120.5s141.834 44 222.501 44c79.333 0 153.166 -14.667 221.499 -44s127 -69.5 176 -120.5s87.5 -111.333 115.5 -181s42 -144.167 42 -223.5zM1069 940c0 62.667 -10.667 121 -32 175s-50.666 101.167 -87.999 141.5
s-82 72 -134 95s-108.667 34.5 -170 34.5s-118 -11.5 -170 -34.5s-96.667 -54.667 -134 -95s-66.666 -87.5 -87.999 -141.5s-32 -112.333 -32 -175s10.667 -121 32 -175s50.666 -101.167 87.999 -141.5s82 -72 134 -95s108.667 -34.5 170 -34.5s118 11.5 170 34.5
s96.667 54.667 134 95s66.666 87.5 87.999 141.5s32 112.333 32 175zM768 645l-78 192.998c-6.66699 18.667 -15.834 32.167 -27.501 40.5s-27.834 12.5 -48.501 12.5h-47v-246h-127v592c26 10.667 55.333 18.834 88 24.501s66.334 8.5 101.001 8.5
c78.667 0 139.167 -16 181.5 -48s63.5 -78.333 63.5 -139c0 -39.333 -11.167 -71.666 -33.5 -96.999s-49.166 -43.333 -80.499 -54v-4c26 -14 45 -38 57 -72l92 -211h-141zM745 1077c0 61.333 -37.334 92.001 -112.001 92.001c-11.333 0 -23.166 -0.333008 -35.499 -1
s-22.5 -2.33398 -30.5 -5.00098v-178h62c77.333 0 116 30.667 116 92z" />
    <glyph glyph-name="acute" unicode="&#xb4;" horiz-adv-x="673" 
d="M382 1231h-184l137 270c19.333 22 42.666 37.833 69.999 47.5s54 14.5 80 14.5s48.833 -5.5 68.5 -16.5s32.834 -26.167 39.501 -45.5z" />
    <glyph glyph-name="paragraph" unicode="&#xb6;" horiz-adv-x="1196" 
d="M862 -440l0.000976562 1724c-23.333 8 -52.666 14.833 -87.999 20.5s-75 8.5 -119 8.5h-26v-1753h-191v1042c-102 22 -185.167 70.5 -249.5 145.5s-96.5 172.5 -96.5 292.5c0 78 13 146.333 39 205s62.167 107.5 108.5 146.5s101.666 68 165.999 87
s135.166 28.5 212.499 28.5c102.667 0 189.5 -7.83301 260.5 -23.5s130.5 -34.5 178.5 -56.5v-1867h-195z" />
    <glyph glyph-name="ch270" unicode="&#xb7;" horiz-adv-x="534" 
d="M436 666c0 -24.667 -4.5 -47.667 -13.5 -69s-21 -39.833 -36 -55.5s-32.667 -28.334 -53 -38.001s-42.166 -14.5 -65.499 -14.5s-45.5 4.83301 -66.5 14.5s-39 22.334 -54 38.001s-27 34.167 -36 55.5s-13.5 44.333 -13.5 69c0 24 4.5 46.667 13.5 68s21 39.833 36 55.5
s33 28.334 54 38.001s43.167 14.5 66.5 14.5s45.166 -4.83301 65.499 -14.5s38 -22.334 53 -38.001s27 -34.167 36 -55.5s13.5 -44 13.5 -68z" />
    <glyph glyph-name="ch270" unicode="&#x2219;" horiz-adv-x="534" 
d="M436 666c0 -24.667 -4.5 -47.667 -13.5 -69s-21 -39.833 -36 -55.5s-32.667 -28.334 -53 -38.001s-42.166 -14.5 -65.499 -14.5s-45.5 4.83301 -66.5 14.5s-39 22.334 -54 38.001s-27 34.167 -36 55.5s-13.5 44.333 -13.5 69c0 24 4.5 46.667 13.5 68s21 39.833 36 55.5
s33 28.334 54 38.001s43.167 14.5 66.5 14.5s45.166 -4.83301 65.499 -14.5s38 -22.334 53 -38.001s27 -34.167 36 -55.5s13.5 -44 13.5 -68z" />
    <glyph glyph-name="onequarter" unicode="&#xbc;" horiz-adv-x="1687" 
d="M1510 213v-213h-155v213h-375v125l350 530h180v-530h86v-125h-86zM529 -33l-133 74l752 1475l131 -74zM294 614v671.998c-27.333 -14.667 -62.5 -28.5 -105.5 -41.5s-82.167 -22.167 -117.5 -27.5l-31 135c27.333 4 55 10 83 18s55 17.833 81 29.5
s49.833 24.334 71.5 38.001s40.167 28.834 55.5 45.501h135v-869h-172zM1361 716.998c-4 -10 -8.66699 -20.333 -14 -31l-16 -30.5c-6 -11 -12.333 -21.833 -19 -32.5l-185 -285h234v270v38.5c0 13 0.666992 24.833 2 35.5c0 12 0.666992 23.667 2 35h-4z" />
    <glyph glyph-name="onehalf" unicode="&#xbd;" horiz-adv-x="1687" 
d="M984 0l365 465.002c17.333 23.333 32.166 46.166 44.499 68.499s18.5 47.166 18.5 74.499c0 38.667 -12.667 70.167 -38 94.5s-62.333 36.5 -111 36.5c-30 0 -61.833 -3.33301 -95.5 -10s-64.167 -16.334 -91.5 -29.001l-47 136c36.667 14.667 76.667 26.5 120 35.5
s85.333 13.5 126 13.5c102.667 0 180.834 -24.333 234.501 -73s80.5 -114 80.5 -196c0 -47.333 -11.5 -90.166 -34.5 -128.499s-46.833 -71.833 -71.5 -100.5l-211 -242h332v-145h-621zM482 -32.998l-131 74l750 1475l133 -74zM294 614.002v671.998
c-27.333 -14.667 -62.5 -28.5 -105.5 -41.5s-82.167 -22.167 -117.5 -27.5l-31 135c27.333 4 55 10 83 18s55 17.833 81 29.5s49.833 24.334 71.5 38.001s40.167 28.834 55.5 45.501h135v-869h-172z" />
    <glyph glyph-name="threequarters" unicode="&#xbe;" horiz-adv-x="1687" 
d="M1511 213v-213h-155v213h-375v125l350 530h180v-530h86v-125h-86zM571 -33l-131 74l752 1475l131 -74zM1362 717c-4 -10 -9 -20.333 -15 -31c-4 -9.33301 -9 -19.5 -15 -30.5s-12.333 -21.833 -19 -32.5l-185 -285h234v270v38.5c0 13 0.666992 24.833 2 35.5
c0 12 0.666992 23.667 2 35h-4zM635 864c0 -80.667 -28.665 -145.168 -85.998 -193.501s-138 -72.5 -242 -72.5c-45.333 0 -90.5 4.5 -135.5 13.5s-85.833 20.833 -122.5 35.5l53 135c27.333 -10.667 58.833 -19.5 94.5 -26.5s72.5 -10.5 110.5 -10.5
c52 0 91.333 10.667 118 32s40 50.333 40 87c0 41.333 -21.833 73.833 -65.5 97.5s-100.5 35.5 -170.5 35.5h-16v129c73.333 4.66699 128.833 18.834 166.5 42.501s56.5 53.167 56.5 88.5c0 64.667 -43.667 97 -131 97c-30 0 -61.667 -3.5 -95 -10.5
s-63.666 -16.5 -90.999 -28.5l-50 135c38.667 15.333 80.167 27.333 124.5 36s89.166 13 134.499 13c94 0 164.167 -20.833 210.5 -62.5s69.5 -97.167 69.5 -166.5c0 -42.667 -13.333 -79.667 -40 -111s-58.334 -56 -95.001 -74v-4c43.333 -16 81.166 -41.833 113.499 -77.5
s48.5 -82.167 48.5 -139.5z" />
    <glyph glyph-name="Agrave" unicode="&#xc0;" horiz-adv-x="1304" 
d="M1003 0l-104 346h-492l-104 -346h-289l475 1483h326l477 -1483h-289zM694 1065c-6.66699 20.667 -12.5 41.5 -17.5 62.5s-8.83301 40.5 -11.5 58.5c-4 20.667 -7.33301 40.334 -10 59.001h-4c-2.66699 -18.667 -6 -38.334 -10 -59.001
c-2.66699 -18 -6.5 -37.5 -11.5 -58.5s-10.833 -41.833 -17.5 -62.5l-149 -506h380zM635 1558l-238.999 270c12.667 41.333 50.667 62 114 62s108.666 -20.667 135.999 -62l118 -269z" />
    <glyph glyph-name="Aacute" unicode="&#xc1;" horiz-adv-x="1304" 
d="M1003 0l-104 346h-492l-104 -346h-289l475 1483h326l477 -1483h-289zM694 1065c-6.66699 20.667 -12.5 41.5 -17.5 62.5s-8.83301 40.5 -11.5 58.5c-4 20.667 -7.33301 40.334 -10 59.001h-4c-2.66699 -18.667 -6 -38.334 -10 -59.001
c-2.66699 -18 -6.5 -37.5 -11.5 -58.5s-10.833 -41.833 -17.5 -62.5l-149 -506h380zM540 1559l118 269c26.667 41.333 72 62 136 62c63.333 0 101.333 -20.667 114 -62l-239 -270z" />
    <glyph glyph-name="Acircumflex" unicode="&#xc2;" horiz-adv-x="1304" 
d="M1003 0l-104 346h-492l-104 -346h-289l475 1483h326l477 -1483h-289zM694 1065c-6.66699 20.667 -12.5 41.5 -17.5 62.5s-8.83301 40.5 -11.5 58.5c-4 20.667 -7.33301 40.334 -10 59.001h-4c-2.66699 -18.667 -6 -38.334 -10 -59.001
c-2.66699 -18 -6.5 -37.5 -11.5 -58.5s-10.833 -41.833 -17.5 -62.5l-149 -506h380zM887 1533l-230 178l-231 -179l-90 84l222 223c26 28.667 58 43 96 43c36.667 0 68 -14.333 94 -43l222 -223z" />
    <glyph glyph-name="Atilde" unicode="&#xc3;" horiz-adv-x="1304" 
d="M1003 0l-104 346h-492l-104 -346h-289l475 1483h326l477 -1483h-289zM694 1065c-6.66699 20.667 -12.5 41.5 -17.5 62.5s-8.83301 40.5 -11.5 58.5c-4 20.667 -7.33301 40.334 -10 59.001h-4c-2.66699 -18.667 -6 -38.334 -10 -59.001
c-2.66699 -18 -6.5 -37.5 -11.5 -58.5s-10.833 -41.833 -17.5 -62.5l-149 -506h380zM939 1801c0.666992 -55.333 -14.1699 -105.333 -44.5029 -150s-62.5 -69.334 -96.5 -74.001s-74 4.33301 -120 27c-32 16.667 -66.5 32.167 -103.5 46.5s-64.667 9.5 -83 -14.5
s-30.166 -45 -35.499 -63l-88 25c2.66699 54 16.334 102 41.001 144s61 67.333 109 76c20.667 4 46.334 1.16699 77.001 -8.5s59.167 -22.167 85.5 -37.5s50 -24.666 71 -27.999s38.167 -0.333008 51.5 9s27 31.333 41 66z" />
    <glyph glyph-name="Egrave" unicode="&#xc8;" horiz-adv-x="976" 
d="M131 0v1483h758v-242h-486v-371h439v-237h-439v-391h486v-242h-758zM481 1558l-239.998 270c13.333 41.333 51.666 62 114.999 62s108.666 -20.667 135.999 -62l118 -269z" />
    <glyph glyph-name="Eacute" unicode="&#xc9;" horiz-adv-x="976" 
d="M131 0v1483h758v-242h-486v-371h439v-237h-439v-391h486v-242h-758zM395 1559l119 269c26.667 41.333 71.667 62 135 62c64 0 102.333 -20.667 115 -62l-239 -270z" />
    <glyph glyph-name="Ecircumflex" unicode="&#xca;" horiz-adv-x="976" 
d="M131 0v1483h758v-242h-486v-371h439v-237h-439v-391h486v-242h-758zM744 1533l-230 178l-231 -179l-90 84l222 223c26 28.667 58 43 96 43c36 0 67.333 -14.333 94 -43l222 -223z" />
    <glyph glyph-name="Igrave" unicode="&#xcc;" horiz-adv-x="540" 
d="M132 0v1483h278v-1483h-278zM267 1558l-239 270c12.667 41.333 51 62 115 62c63.333 0 108.333 -20.667 135 -62l119 -269z" />
    <glyph glyph-name="Iacute" unicode="&#xcd;" horiz-adv-x="540" 
d="M131 0v1483h279v-1483h-279zM171 1559l119 269c26.667 41.333 71.667 62 135 62c64 0 102.333 -20.667 115 -62l-239 -270z" />
    <glyph glyph-name="Dslash" unicode="&#xd0;" horiz-adv-x="1261" 
d="M1171 741c0 -249.333 -54.833 -439.333 -164.5 -570s-264.167 -196 -463.5 -196c-80.667 0 -155.167 7.5 -223.5 22.5s-124.5 34.167 -168.5 57.5v596h-100v207h100v569c44 23.333 100.833 42.5 170.5 57.5s143.5 22.5 221.5 22.5
c199.333 0 353.833 -65.167 463.5 -195.5s164.5 -320.5 164.5 -570.5zM899 741c0 92 -8.5 171.002 -25.5 237.002s-40.5 120.5 -70.5 163.5s-65.833 74.5 -107.5 94.5s-87.167 30 -136.5 30c-27.333 0 -53.333 -1.83301 -78 -5.5s-44.334 -8.83398 -59.001 -15.501v-387h192
v-207h-192v-415c13.333 -7.33301 32.333 -12.333 57 -15s51.334 -4 80.001 -4c49.333 0 94.833 9.83301 136.5 29.5s77.5 51.167 107.5 94.5s53.5 97.666 70.5 162.999s25.5 144.333 25.5 237z" />
    <glyph glyph-name="Dslash" unicode="&#x110;" horiz-adv-x="1261" 
d="M1171 741c0 -249.333 -54.833 -439.333 -164.5 -570s-264.167 -196 -463.5 -196c-80.667 0 -155.167 7.5 -223.5 22.5s-124.5 34.167 -168.5 57.5v596h-100v207h100v569c44 23.333 100.833 42.5 170.5 57.5s143.5 22.5 221.5 22.5
c199.333 0 353.833 -65.167 463.5 -195.5s164.5 -320.5 164.5 -570.5zM899 741c0 92 -8.5 171.002 -25.5 237.002s-40.5 120.5 -70.5 163.5s-65.833 74.5 -107.5 94.5s-87.167 30 -136.5 30c-27.333 0 -53.333 -1.83301 -78 -5.5s-44.334 -8.83398 -59.001 -15.501v-387h192
v-207h-192v-415c13.333 -7.33301 32.333 -12.333 57 -15s51.334 -4 80.001 -4c49.333 0 94.833 9.83301 136.5 29.5s77.5 51.167 107.5 94.5s53.5 97.666 70.5 162.999s25.5 144.333 25.5 237z" />
    <glyph glyph-name="Ograve" unicode="&#xd2;" 
d="M1192 741c0 -107.333 -11.333 -207.833 -34 -301.5s-56.834 -174.667 -102.501 -243s-103 -122.333 -172 -162s-149.833 -59.5 -242.5 -59.5s-173.5 19.833 -242.5 59.5s-126.333 93.667 -172 162s-79.834 149.333 -102.501 243s-34 194.167 -34 301.5
c0 108 11.333 208.833 34 302.5s56.834 174.667 102.501 243s103 122.166 172 161.499s149.833 59 242.5 59s173.5 -19.667 242.5 -59s126.333 -93.166 172 -161.499s79.834 -149.333 102.501 -243s34 -194.5 34 -302.5zM913 741c0 76.667 -5.83301 146.334 -17.5 209.001
s-28.667 116.334 -51 161.001s-50.666 79.167 -84.999 103.5s-73.833 36.5 -118.5 36.5c-45.333 0 -85 -12.167 -119 -36.5s-62.333 -58.833 -85 -103.5s-39.667 -98.334 -51 -161.001s-17 -132.334 -17 -209.001c0 -76 5.66699 -145.5 17 -208.5s28.333 -116.667 51 -161
s51 -78.833 85 -103.5s73.667 -37 119 -37c44.667 0 84.167 12.333 118.5 37s62.666 59.167 84.999 103.5s39.333 98 51 161s17.5 132.5 17.5 208.5zM618 1558l-239.998 270c13.333 41.333 51.666 62 114.999 62s108.666 -20.667 135.999 -62l118 -269z" />
    <glyph glyph-name="Oacute" unicode="&#xd3;" 
d="M1192 741c0 -107.333 -11.333 -207.833 -34 -301.5s-56.834 -174.667 -102.501 -243s-103 -122.333 -172 -162s-149.833 -59.5 -242.5 -59.5s-173.5 19.833 -242.5 59.5s-126.333 93.667 -172 162s-79.834 149.333 -102.501 243s-34 194.167 -34 301.5
c0 108 11.333 208.833 34 302.5s56.834 174.667 102.501 243s103 122.166 172 161.499s149.833 59 242.5 59s173.5 -19.667 242.5 -59s126.333 -93.166 172 -161.499s79.834 -149.333 102.501 -243s34 -194.5 34 -302.5zM913 741c0 76.667 -5.83301 146.334 -17.5 209.001
s-28.667 116.334 -51 161.001s-50.666 79.167 -84.999 103.5s-73.833 36.5 -118.5 36.5c-45.333 0 -85 -12.167 -119 -36.5s-62.333 -58.833 -85 -103.5s-39.667 -98.334 -51 -161.001s-17 -132.334 -17 -209.001c0 -76 5.66699 -145.5 17 -208.5s28.333 -116.667 51 -161
s51 -78.833 85 -103.5s73.667 -37 119 -37c44.667 0 84.167 12.333 118.5 37s62.666 59.167 84.999 103.5s39.333 98 51 161s17.5 132.5 17.5 208.5zM514 1559l119 269c26.667 41.333 71.667 62 135 62c64 0 102.333 -20.667 115 -62l-239 -270z" />
    <glyph glyph-name="Ocircumflex" unicode="&#xd4;" 
d="M1192 741c0 -107.333 -11.333 -207.833 -34 -301.5s-56.834 -174.667 -102.501 -243s-103 -122.333 -172 -162s-149.833 -59.5 -242.5 -59.5s-173.5 19.833 -242.5 59.5s-126.333 93.667 -172 162s-79.834 149.333 -102.501 243s-34 194.167 -34 301.5
c0 108 11.333 208.833 34 302.5s56.834 174.667 102.501 243s103 122.166 172 161.499s149.833 59 242.5 59s173.5 -19.667 242.5 -59s126.333 -93.166 172 -161.499s79.834 -149.333 102.501 -243s34 -194.5 34 -302.5zM913 741c0 76.667 -5.83301 146.334 -17.5 209.001
s-28.667 116.334 -51 161.001s-50.666 79.167 -84.999 103.5s-73.833 36.5 -118.5 36.5c-45.333 0 -85 -12.167 -119 -36.5s-62.333 -58.833 -85 -103.5s-39.667 -98.334 -51 -161.001s-17 -132.334 -17 -209.001c0 -76 5.66699 -145.5 17 -208.5s28.333 -116.667 51 -161
s51 -78.833 85 -103.5s73.667 -37 119 -37c44.667 0 84.167 12.333 118.5 37s62.666 59.167 84.999 103.5s39.333 98 51 161s17.5 132.5 17.5 208.5zM875 1533l-230 178l-231 -179l-90 84l222 223c26 28.667 58 43 96 43c36 0 67.333 -14.333 94 -43l222 -223z" />
    <glyph glyph-name="Otilde" unicode="&#xd5;" 
d="M1192 741c0 -107.333 -11.333 -207.833 -34 -301.5s-56.834 -174.667 -102.501 -243s-103 -122.333 -172 -162s-149.833 -59.5 -242.5 -59.5s-173.5 19.833 -242.5 59.5s-126.333 93.667 -172 162s-79.834 149.333 -102.501 243s-34 194.167 -34 301.5
c0 108 11.333 208.833 34 302.5s56.834 174.667 102.501 243s103 122.166 172 161.499s149.833 59 242.5 59s173.5 -19.667 242.5 -59s126.333 -93.166 172 -161.499s79.834 -149.333 102.501 -243s34 -194.5 34 -302.5zM913 741c0 76.667 -5.83301 146.334 -17.5 209.001
s-28.667 116.334 -51 161.001s-50.666 79.167 -84.999 103.5s-73.833 36.5 -118.5 36.5c-45.333 0 -85 -12.167 -119 -36.5s-62.333 -58.833 -85 -103.5s-39.667 -98.334 -51 -161.001s-17 -132.334 -17 -209.001c0 -76 5.66699 -145.5 17 -208.5s28.333 -116.667 51 -161
s51 -78.833 85 -103.5s73.667 -37 119 -37c44.667 0 84.167 12.333 118.5 37s62.666 59.167 84.999 103.5s39.333 98 51 161s17.5 132.5 17.5 208.5zM929 1801c0.666992 -55.333 -14.1699 -105.333 -44.5029 -150s-62.5 -69.334 -96.5 -74.001s-74 4.33301 -120 27
c-32 16.667 -66.5 32.167 -103.5 46.5s-64.667 9.5 -83 -14.5s-30.166 -45 -35.499 -63l-88 25c2.66699 54 16.334 102 41.001 144s61 67.333 109 76c20.667 4 46.334 1.16699 77.001 -8.5s59.167 -22.167 85.5 -37.5s50 -24.666 71 -27.999s38.167 -0.333008 51.5 9
s27 31.333 41 66z" />
    <glyph glyph-name="Ugrave" unicode="&#xd9;" horiz-adv-x="1234" 
d="M1104 438c0 -73.333 -12.3301 -138.333 -36.9971 -195s-58.834 -104.5 -102.501 -143.5s-95.167 -68.667 -154.5 -89s-124 -30.5 -194 -30.5c-69.333 0 -133.333 10.167 -192 30.5s-109.834 50 -153.501 89s-77.834 86.833 -102.501 143.5s-37 121.667 -37 195v1045h279
v-1047c0 -65.333 20 -116.5 60 -153.5s88.667 -55.5 146 -55.5c58.667 0 108.167 18.5 148.5 55.5s60.5 88.167 60.5 153.5v1047h279v-1045v0zM618.003 1558l-239.998 270c13.333 41.333 51.666 62 114.999 62s108.666 -20.667 135.999 -62l118 -269z" />
    <glyph glyph-name="Uacute" unicode="&#xda;" horiz-adv-x="1234" 
d="M1104 438c0 -73.333 -12.3301 -138.333 -36.9971 -195s-58.834 -104.5 -102.501 -143.5s-95.167 -68.667 -154.5 -89s-124 -30.5 -194 -30.5c-69.333 0 -133.333 10.167 -192 30.5s-109.834 50 -153.501 89s-77.834 86.833 -102.501 143.5s-37 121.667 -37 195v1045h279
v-1047c0 -65.333 20 -116.5 60 -153.5s88.667 -55.5 146 -55.5c58.667 0 108.167 18.5 148.5 55.5s60.5 88.167 60.5 153.5v1047h279v-1045v0zM514.003 1559l119 269c26.667 41.333 71.667 62 135 62c64 0 102.333 -20.667 115 -62l-239 -270z" />
    <glyph glyph-name="Yacute" unicode="&#xdd;" horiz-adv-x="1150" 
d="M712 582v-582h-276v582l-422 901h299l258 -611h4l262 611h299zM514 1559l119.001 269c26.667 41.333 71.667 62 135 62s101.666 -20.667 114.999 -62l-239 -270z" />
    <glyph glyph-name="agrave" unicode="&#xe0;" horiz-adv-x="1062" 
d="M945 55c-20 -10.667 -44.333 -20.8291 -73 -30.4961s-60.5 -18.167 -95.5 -25.5s-71.833 -13.166 -110.5 -17.499s-78 -6.5 -118 -6.5c-160.667 0 -280.334 31.167 -359.001 93.5s-118 150.166 -118 263.499c0 74.667 17.333 135.667 52 183s80.667 84.666 138 111.999
s123.333 47.166 198 59.499s152.334 20.5 233.001 24.5v57c0 57.333 -17.833 98 -53.5 122s-84.167 36 -145.5 36c-50.667 0 -103.667 -6.83301 -159 -20.5s-101.333 -28.834 -138 -45.501l-68 189c45.333 18.667 102.833 36.5 172.5 53.5s143.5 25.5 221.5 25.5
c136 0 240.5 -30.333 313.5 -91s109.5 -161.334 109.5 -302.001v-680zM692 532.005c-49.333 -2.66699 -96.5 -6.33008 -141.5 -10.9971s-84.333 -13.834 -118 -27.501s-60.667 -32.834 -81 -57.501s-30.5 -57.334 -30.5 -98.001c0 -52 19.167 -92.333 57.5 -121
s92.166 -43 161.499 -43c28.667 0 57.334 2 86.001 6s50.667 9.66699 66 17v335zM497 1199.01l-239 270c12.667 41.333 51 62 115 62c63.333 0 108.333 -20.667 135 -62l119 -269z" />
    <glyph glyph-name="aacute" unicode="&#xe1;" horiz-adv-x="1062" 
d="M945 55c-20 -10.667 -44.333 -20.8291 -73 -30.4961s-60.5 -18.167 -95.5 -25.5s-71.833 -13.166 -110.5 -17.499s-78 -6.5 -118 -6.5c-160.667 0 -280.334 31.167 -359.001 93.5s-118 150.166 -118 263.499c0 74.667 17.333 135.667 52 183s80.667 84.666 138 111.999
s123.333 47.166 198 59.499s152.334 20.5 233.001 24.5v57c0 57.333 -17.833 98 -53.5 122s-84.167 36 -145.5 36c-50.667 0 -103.667 -6.83301 -159 -20.5s-101.333 -28.834 -138 -45.501l-68 189c45.333 18.667 102.833 36.5 172.5 53.5s143.5 25.5 221.5 25.5
c136 0 240.5 -30.333 313.5 -91s109.5 -161.334 109.5 -302.001v-680zM692 532.005c-49.333 -2.66699 -96.5 -6.33008 -141.5 -10.9971s-84.333 -13.834 -118 -27.501s-60.667 -32.834 -81 -57.501s-30.5 -57.334 -30.5 -98.001c0 -52 19.167 -92.333 57.5 -121
s92.166 -43 161.499 -43c28.667 0 57.334 2 86.001 6s50.667 9.66699 66 17v335zM403 1200.01l118.002 269c27.333 41.333 72.666 62 135.999 62s101.666 -20.667 114.999 -62l-240 -270z" />
    <glyph glyph-name="acircumflex" unicode="&#xe2;" horiz-adv-x="1062" 
d="M945 55c-20 -10.667 -44.333 -20.8291 -73 -30.4961s-60.5 -18.167 -95.5 -25.5s-71.833 -13.166 -110.5 -17.499s-78 -6.5 -118 -6.5c-160.667 0 -280.334 31.167 -359.001 93.5s-118 150.166 -118 263.499c0 74.667 17.333 135.667 52 183s80.667 84.666 138 111.999
s123.333 47.166 198 59.499s152.334 20.5 233.001 24.5v57c0 57.333 -17.833 98 -53.5 122s-84.167 36 -145.5 36c-50.667 0 -103.667 -6.83301 -159 -20.5s-101.333 -28.834 -138 -45.501l-68 189c45.333 18.667 102.833 36.5 172.5 53.5s143.5 25.5 221.5 25.5
c136 0 240.5 -30.333 313.5 -91s109.5 -161.334 109.5 -302.001v-680zM692 532.005c-49.333 -2.66699 -96.5 -6.33008 -141.5 -10.9971s-84.333 -13.834 -118 -27.501s-60.667 -32.834 -81 -57.501s-30.5 -57.334 -30.5 -98.001c0 -52 19.167 -92.333 57.5 -121
s92.166 -43 161.499 -43c28.667 0 57.334 2 86.001 6s50.667 9.66699 66 17v335zM744 1173.01l-230 178l-230 -179l-91 84l222 223c26.667 28.667 58.667 43 96 43c36.667 0 68 -14.333 94 -43l222 -223z" />
    <glyph glyph-name="atilde" unicode="&#xe3;" horiz-adv-x="1062" 
d="M945 55c-20 -10.667 -44.333 -20.8291 -73 -30.4961s-60.5 -18.167 -95.5 -25.5s-71.833 -13.166 -110.5 -17.499s-78 -6.5 -118 -6.5c-160.667 0 -280.334 31.167 -359.001 93.5s-118 150.166 -118 263.499c0 74.667 17.333 135.667 52 183s80.667 84.666 138 111.999
s123.333 47.166 198 59.499s152.334 20.5 233.001 24.5v57c0 57.333 -17.833 98 -53.5 122s-84.167 36 -145.5 36c-50.667 0 -103.667 -6.83301 -159 -20.5s-101.333 -28.834 -138 -45.501l-68 189c45.333 18.667 102.833 36.5 172.5 53.5s143.5 25.5 221.5 25.5
c136 0 240.5 -30.333 313.5 -91s109.5 -161.334 109.5 -302.001v-680zM692 532.005c-49.333 -2.66699 -96.5 -6.33008 -141.5 -10.9971s-84.333 -13.834 -118 -27.501s-60.667 -32.834 -81 -57.501s-30.5 -57.334 -30.5 -98.001c0 -52 19.167 -92.333 57.5 -121
s92.166 -43 161.499 -43c28.667 0 57.334 2 86.001 6s50.667 9.66699 66 17v335zM809 1425.01c0.666992 -55.333 -13.999 -105.333 -43.999 -150s-62 -69.334 -96 -74.001s-74 4.33301 -120 27c-32.667 16.667 -67.5 32.167 -104.5 46.5s-64.5 9.5 -82.5 -14.5
s-30 -45 -36 -63l-88 25c2.66699 54 16.5 102 41.5 144s61.167 67.333 108.5 76c21.333 4 47.166 1.16699 77.499 -8.5s58.833 -22.167 85.5 -37.5s50.5 -24.666 71.5 -27.999s38 -0.333008 51 9s26.5 31.333 40.5 66z" />
    <glyph glyph-name="egrave" unicode="&#xe8;" horiz-adv-x="1112" 
d="M1029 627v-46.499c0 -15.667 -1.33301 -31.834 -4 -48.501l-682 -96c12.667 -82 45.167 -142.667 97.5 -182s117.5 -59 195.5 -59c53.333 0 106.666 6.33301 159.999 19s98.333 29.334 135 50.001l76 -209c-44 -23.333 -100.833 -42.5 -170.5 -57.5
s-143.167 -22.5 -220.5 -22.5c-88 0 -165 14 -231 42s-121.5 67.667 -166.5 119s-79.167 112.5 -102.5 183.5s-35 148.833 -35 233.5s11.333 162.167 34 232.5s55.167 131 97.5 182s93.833 90.5 154.5 118.5s129.334 42 206.001 42c73.333 0 138.333 -11.833 195 -35.5
s104.5 -57.667 143.5 -102s68.333 -97.333 88 -159s29.5 -129.834 29.5 -204.501zM769 676.001c0 83.333 -18.001 145.833 -54.001 187.5s-85.667 62.5 -149 62.5c-69.333 0 -126.166 -26.333 -170.499 -79s-67.833 -131 -70.5 -235zM536.999 1199l-238.999 270
c12.667 41.333 50.667 62 114 62s108.666 -20.667 135.999 -62l118 -269z" />
    <glyph glyph-name="eacute" unicode="&#xe9;" horiz-adv-x="1112" 
d="M1029 627v-46.499c0 -15.667 -1.33301 -31.834 -4 -48.501l-682 -96c12.667 -82 45.167 -142.667 97.5 -182s117.5 -59 195.5 -59c53.333 0 106.666 6.33301 159.999 19s98.333 29.334 135 50.001l76 -209c-44 -23.333 -100.833 -42.5 -170.5 -57.5
s-143.167 -22.5 -220.5 -22.5c-88 0 -165 14 -231 42s-121.5 67.667 -166.5 119s-79.167 112.5 -102.5 183.5s-35 148.833 -35 233.5s11.333 162.167 34 232.5s55.167 131 97.5 182s93.833 90.5 154.5 118.5s129.334 42 206.001 42c73.333 0 138.333 -11.833 195 -35.5
s104.5 -57.667 143.5 -102s68.333 -97.333 88 -159s29.5 -129.834 29.5 -204.501zM769 676.001c0 83.333 -18.001 145.833 -54.001 187.5s-85.667 62.5 -149 62.5c-69.333 0 -126.166 -26.333 -170.499 -79s-67.833 -131 -70.5 -235zM457.999 1200l118 269
c26.667 41.333 72 62 136 62c63.333 0 101.333 -20.667 114 -62l-239 -270z" />
    <glyph glyph-name="ecircumflex" unicode="&#xea;" horiz-adv-x="1112" 
d="M1029 627v-46.499c0 -15.667 -1.33301 -31.834 -4 -48.501l-682 -96c12.667 -82 45.167 -142.667 97.5 -182s117.5 -59 195.5 -59c53.333 0 106.666 6.33301 159.999 19s98.333 29.334 135 50.001l76 -209c-44 -23.333 -100.833 -42.5 -170.5 -57.5
s-143.167 -22.5 -220.5 -22.5c-88 0 -165 14 -231 42s-121.5 67.667 -166.5 119s-79.167 112.5 -102.5 183.5s-35 148.833 -35 233.5s11.333 162.167 34 232.5s55.167 131 97.5 182s93.833 90.5 154.5 118.5s129.334 42 206.001 42c73.333 0 138.333 -11.833 195 -35.5
s104.5 -57.667 143.5 -102s68.333 -97.333 88 -159s29.5 -129.834 29.5 -204.501zM769 676.001c0 83.333 -18.001 145.833 -54.001 187.5s-85.667 62.5 -149 62.5c-69.333 0 -126.166 -26.333 -170.499 -79s-67.833 -131 -70.5 -235zM813.999 1173l-230 178l-231 -179
l-90 84l222 223c26 28.667 58 43 96 43c36.667 0 68 -14.333 94 -43l222 -223z" />
    <glyph glyph-name="igrave" unicode="&#xec;" horiz-adv-x="516" 
d="M123 0v1104h269v-1104h-269zM247 1199l-239 270c12.667 41.333 51 62 115 62c63.333 0 108.333 -20.667 135 -62l119 -269z" />
    <glyph glyph-name="iacute" unicode="&#xed;" horiz-adv-x="516" 
d="M123 0v1104h268v-1104h-268zM159 1200l118.001 269c27.333 41.333 72.666 62 135.999 62s101.333 -20.667 114 -62l-239 -270z" />
    <glyph glyph-name="ograve" unicode="&#xf2;" horiz-adv-x="1124" 
d="M1042 553c0 -82 -10.667 -158.5 -32 -229.5s-52.5 -132.167 -93.5 -183.5s-91.167 -91.666 -150.5 -120.999s-127.333 -44 -204 -44c-77.333 0 -145.833 14.667 -205.5 44s-110 69.666 -151 120.999s-72 112.5 -93 183.5s-31.5 147.5 -31.5 229.5
s10.5 158.167 31.5 228.5s52 131 93 182s91.333 91.167 151 120.5s128.167 44 205.5 44c76.667 0 144.667 -14.667 204 -44s109.5 -69.5 150.5 -120.5s72.167 -111.667 93.5 -182s32 -146.5 32 -228.5zM773 555c0 110.667 -17.333 197.334 -52 260.001s-87.667 94 -159 94
c-72 0 -125.5 -31.333 -160.5 -94s-52.5 -149.334 -52.5 -260.001s17.5 -197 52.5 -259s88.5 -93 160.5 -93c71.333 0 124.333 31 159 93s52 148.333 52 259zM520 1199l-238.999 270c12.667 41.333 50.667 62 114 62s108.666 -20.667 135.999 -62l118 -269z" />
    <glyph glyph-name="oacute" unicode="&#xf3;" horiz-adv-x="1124" 
d="M1042 553c0 -82 -10.667 -158.5 -32 -229.5s-52.5 -132.167 -93.5 -183.5s-91.167 -91.666 -150.5 -120.999s-127.333 -44 -204 -44c-77.333 0 -145.833 14.667 -205.5 44s-110 69.666 -151 120.999s-72 112.5 -93 183.5s-31.5 147.5 -31.5 229.5
s10.5 158.167 31.5 228.5s52 131 93 182s91.333 91.167 151 120.5s128.167 44 205.5 44c76.667 0 144.667 -14.667 204 -44s109.5 -69.5 150.5 -120.5s72.167 -111.667 93.5 -182s32 -146.5 32 -228.5zM773 555c0 110.667 -17.333 197.334 -52 260.001s-87.667 94 -159 94
c-72 0 -125.5 -31.333 -160.5 -94s-52.5 -149.334 -52.5 -260.001s17.5 -197 52.5 -259s88.5 -93 160.5 -93c71.333 0 124.333 31 159 93s52 148.333 52 259zM443 1200l118 269c26.667 41.333 72 62 136 62c63.333 0 101.333 -20.667 114 -62l-239 -270z" />
    <glyph glyph-name="ocircumflex" unicode="&#xf4;" horiz-adv-x="1124" 
d="M1042 553c0 -82 -10.667 -158.5 -32 -229.5s-52.5 -132.167 -93.5 -183.5s-91.167 -91.666 -150.5 -120.999s-127.333 -44 -204 -44c-77.333 0 -145.833 14.667 -205.5 44s-110 69.666 -151 120.999s-72 112.5 -93 183.5s-31.5 147.5 -31.5 229.5
s10.5 158.167 31.5 228.5s52 131 93 182s91.333 91.167 151 120.5s128.167 44 205.5 44c76.667 0 144.667 -14.667 204 -44s109.5 -69.5 150.5 -120.5s72.167 -111.667 93.5 -182s32 -146.5 32 -228.5zM773 555c0 110.667 -17.333 197.334 -52 260.001s-87.667 94 -159 94
c-72 0 -125.5 -31.333 -160.5 -94s-52.5 -149.334 -52.5 -260.001s17.5 -197 52.5 -259s88.5 -93 160.5 -93c71.333 0 124.333 31 159 93s52 148.333 52 259zM795 1173l-230 178l-230 -179l-91 84l222 223c26.667 28.667 58.667 43 96 43c36.667 0 68 -14.333 94 -43
l222 -223z" />
    <glyph glyph-name="otilde" unicode="&#xf5;" horiz-adv-x="1124" 
d="M1042 553c0 -82 -10.667 -158.5 -32 -229.5s-52.5 -132.167 -93.5 -183.5s-91.167 -91.666 -150.5 -120.999s-127.333 -44 -204 -44c-77.333 0 -145.833 14.667 -205.5 44s-110 69.666 -151 120.999s-72 112.5 -93 183.5s-31.5 147.5 -31.5 229.5
s10.5 158.167 31.5 228.5s52 131 93 182s91.333 91.167 151 120.5s128.167 44 205.5 44c76.667 0 144.667 -14.667 204 -44s109.5 -69.5 150.5 -120.5s72.167 -111.667 93.5 -182s32 -146.5 32 -228.5zM773 555c0 110.667 -17.333 197.334 -52 260.001s-87.667 94 -159 94
c-72 0 -125.5 -31.333 -160.5 -94s-52.5 -149.334 -52.5 -260.001s17.5 -197 52.5 -259s88.5 -93 160.5 -93c71.333 0 124.333 31 159 93s52 148.333 52 259zM869 1425c0.666992 -55.333 -14.1689 -105.333 -44.502 -150s-62.5 -69.334 -96.5 -74.001
s-73.667 4.33301 -119 27c-32.667 16.667 -67.5 32.167 -104.5 46.5s-64.5 9.5 -82.5 -14.5s-30 -45 -36 -63l-88 25c2.66699 54 16.334 102 41.001 144s61 67.333 109 76c20.667 4 46.334 1.16699 77.001 -8.5s59.167 -22.167 85.5 -37.5s50 -24.666 71 -27.999
s38.167 -0.333008 51.5 9s27 31.333 41 66z" />
    <glyph glyph-name="divide" unicode="&#xf7;" horiz-adv-x="1077" 
d="M675 1034c0 -39.333 -13.333 -73 -40 -101s-59 -42 -97 -42c-37.333 0 -69.166 14 -95.499 42s-39.5 61.667 -39.5 101c0 40 13.167 73.667 39.5 101s58.166 41 95.499 41c38 0 70.333 -13.667 97 -41s40 -61 40 -101zM120 569v193h838v-193h-838zM675 297
c0 -39.333 -13.333 -72.666 -40 -99.999s-59 -41 -97 -41c-37.333 0 -69.166 13.667 -95.499 41s-39.5 60.666 -39.5 99.999s13.167 73 39.5 101s58.166 42 95.499 42c38 0 70.333 -14 97 -42s40 -61.667 40 -101z" />
    <glyph glyph-name="glyph217" unicode="&#xf9;" horiz-adv-x="1107" 
d="M988 55c-46 -23.333 -107.334 -42.501 -184.001 -57.501s-156.667 -22.5 -240 -22.5c-146 0 -256.5 32.5 -331.5 97.5s-112.5 169.167 -112.5 312.5v719h266v-725c0 -116 59.333 -174 178 -174c36 0 67.333 2.33301 94 7s47.334 10.334 62.001 17.001v875h268v-1049v0z
M519.999 1199l-238.999 270c12.667 41.333 50.667 62 114 62s108.666 -20.667 135.999 -62l118 -269z" />
    <glyph glyph-name="glyph218" unicode="&#xfa;" horiz-adv-x="1107" 
d="M988 55c-46 -23.333 -107.334 -42.501 -184.001 -57.501s-156.667 -22.5 -240 -22.5c-146 0 -256.5 32.5 -331.5 97.5s-112.5 169.167 -112.5 312.5v719h266v-725c0 -116 59.333 -174 178 -174c36 0 67.333 2.33301 94 7s47.334 10.334 62.001 17.001v875h268v-1049v0z
M476.999 1200l118.001 269c27.333 41.333 72.666 62 135.999 62s101.333 -20.667 114 -62l-239 -270z" />
    <glyph glyph-name="glyph235" unicode="&#xfd;" horiz-adv-x="1134" 
d="M550 -440h-280.001l157 440l-399 1104h303l199 -694c6.66699 -20.667 12 -41.667 16 -63s7.33301 -40 10 -56c4.66699 -19.333 7.66699 -37.666 9 -54.999h4c1.33301 17.333 4 35.666 8 54.999c2.66699 16 6.33398 34.667 11.001 56s10.667 42.333 18 63l198 694h301z
M476.999 1200l118.002 269c27.333 41.333 72.666 62 135.999 62s101.666 -20.667 114.999 -62l-240 -270z" />
    <glyph glyph-name="Abreve" unicode="&#x102;" horiz-adv-x="1304" 
d="M1003 0l-104 346h-492l-104 -346h-289l475 1483h326l477 -1483h-289zM694 1065c-6.66699 20.667 -12.5 41.5 -17.5 62.5s-8.83301 40.5 -11.5 58.5c-4 20.667 -7.33301 40.334 -10 59.001h-4c-2.66699 -18.667 -6 -38.334 -10 -59.001
c-2.66699 -18 -6.5 -37.5 -11.5 -58.5s-10.833 -41.833 -17.5 -62.5l-149 -506h380zM552 1744c22.667 -26.667 56.3359 -39.998 101.003 -39.998c45.333 0 78.666 13.333 99.999 40c11.333 14.667 20.666 33 27.999 55l154 -36
c-12.667 -52.667 -35.667 -97.334 -69 -134.001c-48.667 -52.667 -119.667 -79 -213 -79c-94 0 -165 26.333 -213 79c-32.667 35.333 -55.667 78.666 -69 129.999l153 36c7.33301 -20.667 16.666 -37.667 27.999 -51z" />
    <glyph glyph-name="abreve" unicode="&#x103;" horiz-adv-x="1062" 
d="M945 55c-20 -10.667 -44.333 -20.8291 -73 -30.4961s-60.5 -18.167 -95.5 -25.5s-71.833 -13.166 -110.5 -17.499s-78 -6.5 -118 -6.5c-160.667 0 -280.334 31.167 -359.001 93.5s-118 150.166 -118 263.499c0 74.667 17.333 135.667 52 183s80.667 84.666 138 111.999
s123.333 47.166 198 59.499s152.334 20.5 233.001 24.5v57c0 57.333 -17.833 98 -53.5 122s-84.167 36 -145.5 36c-50.667 0 -103.667 -6.83301 -159 -20.5s-101.333 -28.834 -138 -45.501l-68 189c45.333 18.667 102.833 36.5 172.5 53.5s143.5 25.5 221.5 25.5
c136 0 240.5 -30.333 313.5 -91s109.5 -161.334 109.5 -302.001v-680zM692 532.005c-49.333 -2.66699 -96.5 -6.33008 -141.5 -10.9971s-84.333 -13.834 -118 -27.501s-60.667 -32.834 -81 -57.501s-30.5 -57.334 -30.5 -98.001c0 -52 19.167 -92.333 57.5 -121
s92.166 -43 161.499 -43c28.667 0 57.334 2 86.001 6s50.667 9.66699 66 17v335zM417 1382.01c22.667 -26.667 56.3359 -39.998 101.003 -39.998c45.333 0 78.666 13.333 99.999 40c11.333 14.667 20.666 33 27.999 55l154 -36
c-12.667 -52.667 -35.667 -97.334 -69 -134.001c-48.667 -52.667 -119.667 -79 -213 -79c-94 0 -165 26.333 -213 79c-32.667 35.333 -55.667 78.666 -69 129.999l153 36c7.33301 -20.667 16.666 -37.667 27.999 -51z" />
    <glyph glyph-name="Ccaron" unicode="&#x10c;" horiz-adv-x="1274" 
 />
    <glyph glyph-name="ccaron" unicode="&#x10d;" horiz-adv-x="922" 
 />
    <glyph glyph-name="dcroat" unicode="&#x111;" horiz-adv-x="1118" 
d="M999 1264v-1209c-40 -21.333 -94.5 -40 -163.5 -56s-143.833 -24 -224.5 -24c-172 0 -303.333 49.833 -394 149.5s-136 239.834 -136 420.501c0 84.667 10.5 162.167 31.5 232.5s52.333 130.333 94 180s93.667 88.167 156 115.5s133.833 41 214.5 41
c28.667 0 57 -2 85 -6s50 -9.33301 66 -16v172h-293v166h293v178h271v-178h131v-166h-131zM728 882.999c-10.667 5.33301 -28 9.99902 -52 13.999s-47.667 6 -71 6c-84.667 0 -148.5 -32.667 -191.5 -98s-64.5 -150.666 -64.5 -255.999c0 -112 21.833 -199 65.5 -261
s107.167 -93 190.5 -93c23.333 0 47 2 71 6s41.333 9.33301 52 16v666z" />
    <glyph glyph-name="Itilde" unicode="&#x128;" horiz-adv-x="540" 
d="M131 0v1483h279v-1483h-279zM602 1785c-6.66699 -60 -25.332 -109.502 -55.999 -148.502s-71.334 -58.5 -122.001 -58.5c-26 0 -47.833 4.83301 -65.5 14.5s-34 20.167 -49 31.5l-43 31.5c-13.667 9.66699 -29.5 14.5 -47.5 14.5
c-24.667 0 -44.834 -9.16699 -60.501 -27.5s-26.167 -43.166 -31.5 -74.499l-119 73c6.66699 60.667 24.667 110.334 54 149.001s69.333 58 120 58c26 0 47.833 -4.66699 65.5 -14s34.334 -19.833 50.001 -31.5l44 -32c13.667 -9.66699 29.5 -14.5 47.5 -14.5
c24.667 0 44.5 9.16699 59.5 27.5s25.167 43.5 30.5 75.5z" />
    <glyph glyph-name="itilde" unicode="&#x129;" horiz-adv-x="516" 
d="M123 0v1104h268v-1104h-268zM588 1425c0.666992 -55.333 -14.1699 -105.333 -44.5029 -150s-62.5 -69.334 -96.5 -74.001s-74 4.33301 -120 27c-32 16.667 -66.5 32.167 -103.5 46.5s-64.667 9.5 -83 -14.5s-30.166 -45 -35.499 -63l-88 25
c2.66699 54 16.334 102 41.001 144s61 67.333 109 76c20.667 4 46.334 1.16699 77.001 -8.5s59.167 -22.167 85.5 -37.5s50 -24.666 71 -27.999s38.167 -0.333008 51.5 9s27 31.333 41 66z" />
    <glyph glyph-name="Utilde" unicode="&#x168;" horiz-adv-x="1234" 
d="M1104 438c0 -73.333 -12.3301 -138.333 -36.9971 -195s-58.834 -104.5 -102.501 -143.5s-95.167 -68.667 -154.5 -89s-124 -30.5 -194 -30.5c-69.333 0 -133.333 10.167 -192 30.5s-109.834 50 -153.501 89s-77.834 86.833 -102.501 143.5s-37 121.667 -37 195v1045h279
v-1047c0 -65.333 20 -116.5 60 -153.5s88.667 -55.5 146 -55.5c58.667 0 108.167 18.5 148.5 55.5s60.5 88.167 60.5 153.5v1047h279v-1045v0zM922.003 1775c-6 -54.667 -26.5 -102.667 -61.5 -144s-69.667 -62.166 -104 -62.499s-72.833 13.167 -115.5 40.5
c-30.667 20 -63.5 39.167 -98.5 57.5s-62.833 16.666 -83.5 -5.00098s-35 -40.834 -43 -57.501l-84 34c8.66699 54 27.667 100.333 57 139s68.333 59.334 117 62.001c21.333 2 46.5 -3.5 75.5 -16.5s55.833 -28.667 80.5 -47s47.167 -30.333 67.5 -36s37.5 -4.66699 51.5 3
s30.333 28.167 49 61.5z" />
    <glyph glyph-name="utilde" unicode="&#x169;" horiz-adv-x="1107" 
d="M988 55c-46 -23.333 -107.334 -42.501 -184.001 -57.501s-156.667 -22.5 -240 -22.5c-146 0 -256.5 32.5 -331.5 97.5s-112.5 169.167 -112.5 312.5v719h266v-725c0 -116 59.333 -174 178 -174c36 0 67.333 2.33301 94 7s47.334 10.334 62.001 17.001v875h268v-1049v0z
M868.999 1425c0.666992 -55.333 -14.167 -105.333 -44.5 -150s-62.5 -69.334 -96.5 -74.001s-73.667 4.33301 -119 27c-32.667 16.667 -67.5 32.167 -104.5 46.5s-64.5 9.5 -82.5 -14.5s-30 -45 -36 -63l-88 25c2.66699 54 16.334 102 41.001 144s61 67.333 109 76
c21.333 4 47.166 1.16699 77.499 -8.5s58.833 -22.167 85.5 -37.5s50.5 -24.666 71.5 -27.999s38 -0.333008 51 9s26.5 31.333 40.5 66z" />
    <glyph glyph-name="Ohorn" unicode="&#x1a0;" 
d="M913 741c0 76.667 -5.83301 146.334 -17.5 209.001s-28.667 116.334 -51 161.001s-50.666 79.167 -84.999 103.5s-73.833 36.5 -118.5 36.5c-45.333 0 -85 -12.167 -119 -36.5s-62.333 -58.833 -85 -103.5s-39.667 -98.334 -51 -161.001s-17 -132.334 -17 -209.001
c0 -76 5.66699 -145.5 17 -208.5s28.333 -116.667 51 -161s51 -78.833 85 -103.5s73.667 -37 119 -37c44.667 0 84.167 12.333 118.5 37s62.666 59.167 84.999 103.5s39.333 98 51 161s17.5 132.5 17.5 208.5zM1014 1341c14.667 -17.333 28.668 -35.3311 42.001 -53.998
c45.333 -68.667 79.333 -149.834 102 -243.501s34 -194.5 34 -302.5c0 -107.333 -11.333 -207.833 -34 -301.5s-56.834 -174.667 -102.501 -243s-103 -122.333 -172 -162s-149.833 -59.5 -242.5 -59.5s-173.5 19.833 -242.5 59.5s-126.333 93.667 -172 162
s-79.834 149.333 -102.501 243s-34 194.167 -34 301.5c0 108 11.333 208.833 34 302.5s56.834 174.667 102.501 243s103 122.166 172 161.499s149.833 59 242.5 59c92 0 172.333 -19.333 241 -58l78 139c18 12.667 41 23 69 31s61.333 10.667 100 8
c35.333 -3.33301 63.833 -11.5 85.5 -24.5s33.167 -24.833 34.5 -35.5z" />
    <glyph glyph-name="ohorn" unicode="&#x1a1;" horiz-adv-x="1124" 
d="M773 555c0 110.667 -17.333 197.334 -52 260.001s-87.667 94 -159 94c-72 0 -125.5 -31.333 -160.5 -94s-52.5 -149.334 -52.5 -260.001s17.5 -197 52.5 -259s88.5 -93 160.5 -93c71.333 0 124.333 31 159 93s52 148.333 52 259zM907 975
c3.33301 -4 6.66699 -7.66797 10 -11.001c40.667 -51.333 71.667 -112.166 93 -182.499s32 -146.5 32 -228.5s-10.667 -158.5 -32 -229.5s-52.5 -132.167 -93.5 -183.5s-91.167 -91.666 -150.5 -120.999s-127.333 -44 -204 -44c-77.333 0 -145.833 14.667 -205.5 44
s-110 69.666 -151 120.999s-72 112.5 -93 183.5s-31.5 147.5 -31.5 229.5s10.5 158.167 31.5 228.5s52 131 93 182s91.333 91.167 151 120.5s128.167 44 205.5 44c76 0 143.667 -14.667 203 -44l66 118c18 12.667 41 23 69 31s61.333 10.667 100 8
c35.333 -3.33301 63.833 -11.5 85.5 -24.5s33.167 -24.833 34.5 -35.5z" />
    <glyph glyph-name="Uhorn" unicode="&#x1af;" horiz-adv-x="1234" 
d="M1104 1344l0.00292969 -906c0 -73.333 -12.333 -138.333 -37 -195s-58.834 -104.5 -102.501 -143.5s-95.167 -68.667 -154.5 -89s-124 -30.5 -194 -30.5c-69.333 0 -133.333 10.167 -192 30.5s-109.834 50 -153.501 89s-77.834 86.833 -102.501 143.5
s-37 121.667 -37 195v1045h279v-1047c0 -65.333 20 -116.5 60 -153.5s88.667 -55.5 146 -55.5c58.667 0 108.167 18.5 148.5 55.5s60.5 88.167 60.5 153.5v1047h162l59 105c18 12.667 41 23 69 31s61.333 10.667 100 8c35.333 -3.33301 63.833 -11.5 85.5 -24.5
s33.167 -24.833 34.5 -35.5z" />
    <glyph glyph-name="uhorn" unicode="&#x1b0;" horiz-adv-x="1107" 
d="M988 946l-0.00292969 -891.001c-46 -23.333 -107.333 -42.5 -184 -57.5s-156.667 -22.5 -240 -22.5c-146 0 -256.5 32.5 -331.5 97.5s-112.5 169.167 -112.5 312.5v719h266v-725c0 -116 59.333 -174 178 -174c36 0 67.333 2.33301 94 7s47.334 10.334 62.001 17.001v875
h167l55 98c18.667 12.667 41.834 23 69.501 31s60.834 10.667 99.501 8c35.333 -3.33301 63.833 -11.5 85.5 -24.5s33.167 -24.833 34.5 -35.5z" />
    <glyph glyph-name="uni1EA0" unicode="&#x1ea0;" horiz-adv-x="1304" 
d="M785 -191c0 -35.333 -13 -65.666 -39 -90.999s-56.667 -38 -92 -38c-37.333 0 -68.833 12.667 -94.5 38s-38.5 55.666 -38.5 90.999s12.833 65.333 38.5 90s57.167 37 94.5 37c35.333 0 66 -12.333 92 -37s39 -54.667 39 -90zM1003 0l-104 346h-492l-104 -346h-289
l475 1483h326l477 -1483h-289zM694 1065c-6.66699 20.667 -12.5 41.5 -17.5 62.5s-8.83301 40.5 -11.5 58.5c-4 20.667 -7.33301 40.334 -10 59.001h-4c-2.66699 -18.667 -6 -38.334 -10 -59.001c-2.66699 -18 -6.5 -37.5 -11.5 -58.5s-10.833 -41.833 -17.5 -62.5
l-149 -506h380z" />
    <glyph glyph-name="uni1EA1" unicode="&#x1ea1;" horiz-adv-x="1062" 
d="M945 55c-20 -10.667 -44.333 -20.8291 -73 -30.4961s-60.5 -18.167 -95.5 -25.5s-71.833 -13.166 -110.5 -17.499s-78 -6.5 -118 -6.5c-160.667 0 -280.334 31.167 -359.001 93.5s-118 150.166 -118 263.499c0 74.667 17.333 135.667 52 183s80.667 84.666 138 111.999
s123.333 47.166 198 59.499s152.334 20.5 233.001 24.5v57c0 57.333 -17.833 98 -53.5 122s-84.167 36 -145.5 36c-50.667 0 -103.667 -6.83301 -159 -20.5s-101.333 -28.834 -138 -45.501l-68 189c45.333 18.667 102.833 36.5 172.5 53.5s143.5 25.5 221.5 25.5
c136 0 240.5 -30.333 313.5 -91s109.5 -161.334 109.5 -302.001v-680zM692 532.005c-49.333 -2.66699 -96.5 -6.33008 -141.5 -10.9971s-84.333 -13.834 -118 -27.501s-60.667 -32.834 -81 -57.501s-30.5 -57.334 -30.5 -98.001c0 -52 19.167 -92.333 57.5 -121
s92.166 -43 161.499 -43c28.667 0 57.334 2 86.001 6s50.667 9.66699 66 17v335zM677 -207.991c0 -35.333 -13 -65.666 -39 -90.999s-57 -38 -93 -38c-36.667 0 -68 12.667 -94 38s-39 55.666 -39 90.999s13 65.333 39 90s57.333 37 94 37c36 0 67 -12.333 93 -37
s39 -54.667 39 -90z" />
    <glyph glyph-name="uni1EA2" unicode="&#x1ea2;" horiz-adv-x="1304" 
d="M596 1537l-9.00293 147.001c20.667 4.66699 39.334 10.167 56.001 16.5s31.167 14 43.5 23s22.333 19.167 30 30.5s11.5 24 11.5 38c0 25.333 -8.66699 46 -26 62s-43 21 -77 15s-68.667 -24 -104 -54l-41 103c22 20.667 48.333 36.667 79 48s59.334 17 86.001 17
c64.667 5.33301 118.334 -9 161.001 -43s64 -81 64 -141c0 -24.667 -4.66699 -46.667 -14 -66s-21.5 -36.5 -36.5 -51.5s-31.667 -27.833 -50 -38.5s-35.5 -19.334 -51.5 -26.001l-18 -80h-104zM1008 0.000976562l-104 346h-492l-104 -346h-289l475 1483h326l477 -1483h-289
zM698.997 1065c-6.66699 20.667 -12.5 41.5 -17.5 62.5s-8.83301 40.5 -11.5 58.5c-4 20.667 -7.33301 40.334 -10 59.001h-4c-2.66699 -18.667 -6 -38.334 -10 -59.001c-2.66699 -18 -6.5 -37.5 -11.5 -58.5s-10.833 -41.833 -17.5 -62.5l-149 -506h380z" />
    <glyph glyph-name="uni1EA3" unicode="&#x1ea3;" horiz-adv-x="1062" 
d="M945 55c-20 -10.667 -44.333 -20.8291 -73 -30.4961s-60.5 -18.167 -95.5 -25.5s-71.833 -13.166 -110.5 -17.499s-78 -6.5 -118 -6.5c-160.667 0 -280.334 31.167 -359.001 93.5s-118 150.166 -118 263.499c0 74.667 17.333 135.667 52 183s80.667 84.666 138 111.999
s123.333 47.166 198 59.499s152.334 20.5 233.001 24.5v57c0 57.333 -17.833 98 -53.5 122s-84.167 36 -145.5 36c-50.667 0 -103.667 -6.83301 -159 -20.5s-101.333 -28.834 -138 -45.501l-68 189c45.333 18.667 102.833 36.5 172.5 53.5s143.5 25.5 221.5 25.5
c136 0 240.5 -30.333 313.5 -91s109.5 -161.334 109.5 -302.001v-680zM692 532.005c-49.333 -2.66699 -96.5 -6.33008 -141.5 -10.9971s-84.333 -13.834 -118 -27.501s-60.667 -32.834 -81 -57.501s-30.5 -57.334 -30.5 -98.001c0 -52 19.167 -92.333 57.5 -121
s92.166 -43 161.499 -43c28.667 0 57.334 2 86.001 6s50.667 9.66699 66 17v335zM458 1178.01l-9.00098 147.001c20 4.66699 38.333 10.167 55 16.5s31.167 14 43.5 23s22.333 19.167 30 30.5s11.5 24 11.5 38c0 25.333 -8.66699 46 -26 62s-43 21 -77 15
s-68.667 -24 -104 -54l-41 103c22 20.667 48.333 36.667 79 48s59.334 17 86.001 17c64.667 5.33301 118.334 -9 161.001 -43s64 -81 64 -141c0 -24.667 -4.66699 -46.667 -14 -66s-21.333 -36.5 -36 -51.5s-31.334 -27.833 -50.001 -38.5s-36 -19.334 -52 -26.001l-18 -80
h-103z" />
    <glyph glyph-name="uni1EA4" unicode="&#x1ea4;" horiz-adv-x="1304" 
d="M1003 0l-104 346h-492l-104 -346h-289l475 1483h326l477 -1483h-289zM694 1065c-6.66699 20.667 -12.5 41.5 -17.5 62.5s-8.83301 40.5 -11.5 58.5c-4 20.667 -7.33301 40.334 -10 59.001h-4c-2.66699 -18.667 -6 -38.334 -10 -59.001
c-2.66699 -18 -6.5 -37.5 -11.5 -58.5s-10.833 -41.833 -17.5 -62.5l-149 -506h380zM887 1533l-230 178l-231 -179l-90 84l222 223c26 28.667 58 43 96 43c36.667 0 68 -14.333 94 -43l222 -223zM875 1739l118 269c26.667 41.333 72 62 136 62
c63.333 0 101.333 -20.667 114 -62l-239 -270z" />
    <glyph glyph-name="uni1EA5" unicode="&#x1ea5;" horiz-adv-x="1062" 
d="M945 55c-20 -10.667 -44.333 -20.8291 -73 -30.4961s-60.5 -18.167 -95.5 -25.5s-71.833 -13.166 -110.5 -17.499s-78 -6.5 -118 -6.5c-160.667 0 -280.334 31.167 -359.001 93.5s-118 150.166 -118 263.499c0 74.667 17.333 135.667 52 183s80.667 84.666 138 111.999
s123.333 47.166 198 59.499s152.334 20.5 233.001 24.5v57c0 57.333 -17.833 98 -53.5 122s-84.167 36 -145.5 36c-50.667 0 -103.667 -6.83301 -159 -20.5s-101.333 -28.834 -138 -45.501l-68 189c45.333 18.667 102.833 36.5 172.5 53.5s143.5 25.5 221.5 25.5
c136 0 240.5 -30.333 313.5 -91s109.5 -161.334 109.5 -302.001v-680zM692 532.005c-49.333 -2.66699 -96.5 -6.33008 -141.5 -10.9971s-84.333 -13.834 -118 -27.501s-60.667 -32.834 -81 -57.501s-30.5 -57.334 -30.5 -98.001c0 -52 19.167 -92.333 57.5 -121
s92.166 -43 161.499 -43c28.667 0 57.334 2 86.001 6s50.667 9.66699 66 17v335zM754 1388.01l118.002 269c27.333 41.333 72.666 62 135.999 62s101.666 -20.667 114.999 -62l-240 -270zM744.002 1173.01l-230 178l-230 -179l-91 84l222 223c26.667 28.667 58.667 43 96 43
c36.667 0 68 -14.333 94 -43l222 -223z" />
    <glyph glyph-name="uni1EA6" unicode="&#x1ea6;" horiz-adv-x="1304" 
d="M934 1738l-238.999 270c12.667 41.333 50.667 62 114 62s108.666 -20.667 135.999 -62l118 -269zM1003 0l-104 346h-492l-104 -346h-289l475 1483h326l477 -1483h-289zM694.001 1065c-6.66699 20.667 -12.5 41.5 -17.5 62.5s-8.83301 40.5 -11.5 58.5
c-4 20.667 -7.33301 40.334 -10 59.001h-4c-2.66699 -18.667 -6 -38.334 -10 -59.001c-2.66699 -18 -6.5 -37.5 -11.5 -58.5s-10.833 -41.833 -17.5 -62.5l-149 -506h380zM887.001 1533l-230 178l-231 -179l-90 84l222 223c26 28.667 58 43 96 43
c36.667 0 68 -14.333 94 -43l222 -223z" />
    <glyph glyph-name="uni1EA7" unicode="&#x1ea7;" horiz-adv-x="1062" 
d="M945 55c-20 -10.667 -44.333 -20.8291 -73 -30.4961s-60.5 -18.167 -95.5 -25.5s-71.833 -13.166 -110.5 -17.499s-78 -6.5 -118 -6.5c-160.667 0 -280.334 31.167 -359.001 93.5s-118 150.166 -118 263.499c0 74.667 17.333 135.667 52 183s80.667 84.666 138 111.999
s123.333 47.166 198 59.499s152.334 20.5 233.001 24.5v57c0 57.333 -17.833 98 -53.5 122s-84.167 36 -145.5 36c-50.667 0 -103.667 -6.83301 -159 -20.5s-101.333 -28.834 -138 -45.501l-68 189c45.333 18.667 102.833 36.5 172.5 53.5s143.5 25.5 221.5 25.5
c136 0 240.5 -30.333 313.5 -91s109.5 -161.334 109.5 -302.001v-680zM692 532.005c-49.333 -2.66699 -96.5 -6.33008 -141.5 -10.9971s-84.333 -13.834 -118 -27.501s-60.667 -32.834 -81 -57.501s-30.5 -57.334 -30.5 -98.001c0 -52 19.167 -92.333 57.5 -121
s92.166 -43 161.499 -43c28.667 0 57.334 2 86.001 6s50.667 9.66699 66 17v335zM779 1387.01l-239 270c12.667 41.333 51 62 115 62c63.333 0 108.333 -20.667 135 -62l119 -269zM744 1173.01l-230 178l-230 -179l-91 84l222 223c26.667 28.667 58.667 43 96 43
c36.667 0 68 -14.333 94 -43l222 -223z" />
    <glyph glyph-name="uni1EA8" unicode="&#x1ea8;" horiz-adv-x="1304" 
d="M878 1759l-9.00293 147.001c20.667 4.66699 39.334 10.167 56.001 16.5s31.167 14 43.5 23s22.333 19.167 30 30.5s11.5 24 11.5 38c0 25.333 -8.66699 46 -26 62s-43 21 -77 15s-68.667 -24 -104 -54l-41 103c22 20.667 48.333 36.667 79 48s59.334 17 86.001 17
c64.667 5.33301 118.334 -9 161.001 -43s64 -81 64 -141c0 -24.667 -4.66699 -46.667 -14 -66s-21.5 -36.5 -36.5 -51.5s-31.667 -27.833 -50 -38.5s-35.5 -19.334 -51.5 -26.001l-18 -80h-104zM1008 0.000976562l-104 346h-492l-104 -346h-289l475 1483h326l477 -1483h-289
zM698.997 1065c-6.66699 20.667 -12.5 41.5 -17.5 62.5s-8.83301 40.5 -11.5 58.5c-4 20.667 -7.33301 40.334 -10 59.001h-4c-2.66699 -18.667 -6 -38.334 -10 -59.001c-2.66699 -18 -6.5 -37.5 -11.5 -58.5s-10.833 -41.833 -17.5 -62.5l-149 -506h380zM886.997 1533
l-230 178l-231 -179l-90 84l222 223c26 28.667 58 43 96 43c36.667 0 68 -14.333 94 -43l222 -223z" />
    <glyph glyph-name="uni1EA9" unicode="&#x1ea9;" horiz-adv-x="1062" 
d="M945 55c-20 -10.667 -44.333 -20.8291 -73 -30.4961s-60.5 -18.167 -95.5 -25.5s-71.833 -13.166 -110.5 -17.499s-78 -6.5 -118 -6.5c-160.667 0 -280.334 31.167 -359.001 93.5s-118 150.166 -118 263.499c0 74.667 17.333 135.667 52 183s80.667 84.666 138 111.999
s123.333 47.166 198 59.499s152.334 20.5 233.001 24.5v57c0 57.333 -17.833 98 -53.5 122s-84.167 36 -145.5 36c-50.667 0 -103.667 -6.83301 -159 -20.5s-101.333 -28.834 -138 -45.501l-68 189c45.333 18.667 102.833 36.5 172.5 53.5s143.5 25.5 221.5 25.5
c136 0 240.5 -30.333 313.5 -91s109.5 -161.334 109.5 -302.001v-680zM692 532.005c-49.333 -2.66699 -96.5 -6.33008 -141.5 -10.9971s-84.333 -13.834 -118 -27.501s-60.667 -32.834 -81 -57.501s-30.5 -57.334 -30.5 -98.001c0 -52 19.167 -92.333 57.5 -121
s92.166 -43 161.499 -43c28.667 0 57.334 2 86.001 6s50.667 9.66699 66 17v335zM731 1401.01l-9.00098 147.001c20 4.66699 38.333 10.167 55 16.5s31.167 14 43.5 23s22.333 19.167 30 30.5s11.5 24 11.5 38c0 25.333 -8.66699 46 -26 62s-43 21 -77 15
s-68.667 -24 -104 -54l-41 103c22 20.667 48.333 36.667 79 48s59.334 17 86.001 17c64.667 5.33301 118.334 -9 161.001 -43s64 -81 64 -141c0 -24.667 -4.66699 -46.667 -14 -66s-21.333 -36.5 -36 -51.5s-31.334 -27.833 -50.001 -38.5s-36 -19.334 -52 -26.001l-18 -80
h-103zM743.999 1173.01l-230 178l-230 -179l-91 84l222 223c26.667 28.667 58.667 43 96 43c36.667 0 68 -14.333 94 -43l222 -223z" />
    <glyph glyph-name="uni1EAA" unicode="&#x1eaa;" horiz-adv-x="1304" 
d="M1003 0l-104 346h-492l-104 -346h-289l475 1483h326l477 -1483h-289zM694 1065c-6.66699 20.667 -12.5 41.5 -17.5 62.5s-8.83301 40.5 -11.5 58.5c-4 20.667 -7.33301 40.334 -10 59.001h-4c-2.66699 -18.667 -6 -38.334 -10 -59.001
c-2.66699 -18 -6.5 -37.5 -11.5 -58.5s-10.833 -41.833 -17.5 -62.5l-149 -506h380zM887 1533l-230 178l-231 -179l-90 84l222 223c26 28.667 58 43 96 43c36.667 0 68 -14.333 94 -43l222 -223zM990 2096c0.666992 -55.333 -14.1699 -105.333 -44.5029 -150
s-62.5 -69.334 -96.5 -74.001s-74 4.33301 -120 27c-32 16.667 -66.5 32.167 -103.5 46.5s-64.667 9.5 -83 -14.5s-30.166 -45 -35.499 -63l-88 25c2.66699 54 16.334 102 41.001 144s61 67.333 109 76c20.667 4 46.334 1.16699 77.001 -8.5s59.167 -22.167 85.5 -37.5
s50 -24.666 71 -27.999s38.167 -0.333008 51.5 9s27 31.333 41 66z" />
    <glyph glyph-name="uni1EAB" unicode="&#x1eab;" horiz-adv-x="1062" 
d="M945 55c-20 -10.667 -44.333 -20.8291 -73 -30.4961s-60.5 -18.167 -95.5 -25.5s-71.833 -13.166 -110.5 -17.499s-78 -6.5 -118 -6.5c-160.667 0 -280.334 31.167 -359.001 93.5s-118 150.166 -118 263.499c0 74.667 17.333 135.667 52 183s80.667 84.666 138 111.999
s123.333 47.166 198 59.499s152.334 20.5 233.001 24.5v57c0 57.333 -17.833 98 -53.5 122s-84.167 36 -145.5 36c-50.667 0 -103.667 -6.83301 -159 -20.5s-101.333 -28.834 -138 -45.501l-68 189c45.333 18.667 102.833 36.5 172.5 53.5s143.5 25.5 221.5 25.5
c136 0 240.5 -30.333 313.5 -91s109.5 -161.334 109.5 -302.001v-680zM692 532.005c-49.333 -2.66699 -96.5 -6.33008 -141.5 -10.9971s-84.333 -13.834 -118 -27.501s-60.667 -32.834 -81 -57.501s-30.5 -57.334 -30.5 -98.001c0 -52 19.167 -92.333 57.5 -121
s92.166 -43 161.499 -43c28.667 0 57.334 2 86.001 6s50.667 9.66699 66 17v335zM869 1742.01c0.666992 -55.333 -13.999 -105.333 -43.999 -150s-62 -69.334 -96 -74.001s-74 4.33301 -120 27c-32.667 16.667 -67.5 32.167 -104.5 46.5s-64.5 9.5 -82.5 -14.5
s-30 -45 -36 -63l-88 25c2.66699 54 16.5 102 41.5 144s61.167 67.333 108.5 76c21.333 4 47.166 1.16699 77.499 -8.5s58.833 -22.167 85.5 -37.5s50.5 -24.666 71.5 -27.999s38 -0.333008 51 9s26.5 31.333 40.5 66zM744.001 1173.01l-230 178l-230 -179l-91 84l222 223
c26.667 28.667 58.667 43 96 43c36.667 0 68 -14.333 94 -43l222 -223z" />
    <glyph glyph-name="uni1EAC" unicode="&#x1eac;" horiz-adv-x="1304" 
d="M785 -191c0 -35.333 -13 -65.666 -39 -90.999s-56.667 -38 -92 -38c-37.333 0 -68.833 12.667 -94.5 38s-38.5 55.666 -38.5 90.999s12.833 65.333 38.5 90s57.167 37 94.5 37c35.333 0 66 -12.333 92 -37s39 -54.667 39 -90zM1003 0l-104 346h-492l-104 -346h-289
l475 1483h326l477 -1483h-289zM694 1065c-6.66699 20.667 -12.5 41.5 -17.5 62.5s-8.83301 40.5 -11.5 58.5c-4 20.667 -7.33301 40.334 -10 59.001h-4c-2.66699 -18.667 -6 -38.334 -10 -59.001c-2.66699 -18 -6.5 -37.5 -11.5 -58.5s-10.833 -41.833 -17.5 -62.5
l-149 -506h380zM887 1533l-230 178l-231 -179l-90 84l222 223c26 28.667 58 43 96 43c36.667 0 68 -14.333 94 -43l222 -223z" />
    <glyph glyph-name="uni1EAD" unicode="&#x1ead;" horiz-adv-x="1062" 
d="M945 55c-20 -10.667 -44.333 -20.8291 -73 -30.4961s-60.5 -18.167 -95.5 -25.5s-71.833 -13.166 -110.5 -17.499s-78 -6.5 -118 -6.5c-160.667 0 -280.334 31.167 -359.001 93.5s-118 150.166 -118 263.499c0 74.667 17.333 135.667 52 183s80.667 84.666 138 111.999
s123.333 47.166 198 59.499s152.334 20.5 233.001 24.5v57c0 57.333 -17.833 98 -53.5 122s-84.167 36 -145.5 36c-50.667 0 -103.667 -6.83301 -159 -20.5s-101.333 -28.834 -138 -45.501l-68 189c45.333 18.667 102.833 36.5 172.5 53.5s143.5 25.5 221.5 25.5
c136 0 240.5 -30.333 313.5 -91s109.5 -161.334 109.5 -302.001v-680zM692 532.005c-49.333 -2.66699 -96.5 -6.33008 -141.5 -10.9971s-84.333 -13.834 -118 -27.501s-60.667 -32.834 -81 -57.501s-30.5 -57.334 -30.5 -98.001c0 -52 19.167 -92.333 57.5 -121
s92.166 -43 161.499 -43c28.667 0 57.334 2 86.001 6s50.667 9.66699 66 17v335zM677 -207.991c0 -35.333 -13 -65.666 -39 -90.999s-57 -38 -93 -38c-36.667 0 -68 12.667 -94 38s-39 55.666 -39 90.999s13 65.333 39 90s57.333 37 94 37c36 0 67 -12.333 93 -37
s39 -54.667 39 -90zM744 1173.01l-230 178l-230 -179l-91 84l222 223c26.667 28.667 58.667 43 96 43c36.667 0 68 -14.333 94 -43l222 -223z" />
    <glyph glyph-name="uni1EAE" unicode="&#x1eae;" horiz-adv-x="1304" 
d="M1003 0l-104 346h-492l-104 -346h-289l475 1483h326l477 -1483h-289zM694 1065c-6.66699 20.667 -12.5 41.5 -17.5 62.5s-8.83301 40.5 -11.5 58.5c-4 20.667 -7.33301 40.334 -10 59.001h-4c-2.66699 -18.667 -6 -38.334 -10 -59.001
c-2.66699 -18 -6.5 -37.5 -11.5 -58.5s-10.833 -41.833 -17.5 -62.5l-149 -506h380zM592 1791l118 269c26.667 41.333 72 62 136 62c63.333 0 101.333 -20.667 114 -62l-239 -270zM552 1744c22.667 -26.667 56.3359 -39.998 101.003 -39.998
c45.333 0 78.666 13.333 99.999 40c11.333 14.667 20.666 33 27.999 55l154 -36c-12.667 -52.667 -35.667 -97.334 -69 -134.001c-48.667 -52.667 -119.667 -79 -213 -79c-94 0 -165 26.333 -213 79c-32.667 35.333 -55.667 78.666 -69 129.999l153 36
c7.33301 -20.667 16.666 -37.667 27.999 -51z" />
    <glyph glyph-name="uni1EAF" unicode="&#x1eaf;" horiz-adv-x="1062" 
d="M945 55c-20 -10.667 -44.333 -20.8291 -73 -30.4961s-60.5 -18.167 -95.5 -25.5s-71.833 -13.166 -110.5 -17.499s-78 -6.5 -118 -6.5c-160.667 0 -280.334 31.167 -359.001 93.5s-118 150.166 -118 263.499c0 74.667 17.333 135.667 52 183s80.667 84.666 138 111.999
s123.333 47.166 198 59.499s152.334 20.5 233.001 24.5v57c0 57.333 -17.833 98 -53.5 122s-84.167 36 -145.5 36c-50.667 0 -103.667 -6.83301 -159 -20.5s-101.333 -28.834 -138 -45.501l-68 189c45.333 18.667 102.833 36.5 172.5 53.5s143.5 25.5 221.5 25.5
c136 0 240.5 -30.333 313.5 -91s109.5 -161.334 109.5 -302.001v-680zM692 532.005c-49.333 -2.66699 -96.5 -6.33008 -141.5 -10.9971s-84.333 -13.834 -118 -27.501s-60.667 -32.834 -81 -57.501s-30.5 -57.334 -30.5 -98.001c0 -52 19.167 -92.333 57.5 -121
s92.166 -43 161.499 -43c28.667 0 57.334 2 86.001 6s50.667 9.66699 66 17v335zM455 1431.01l118.002 269c27.333 41.333 72.666 62 135.999 62s101.666 -20.667 114.999 -62l-240 -270zM417.002 1382.01c22.667 -26.667 56.3359 -39.998 101.003 -39.998
c45.333 0 78.666 13.333 99.999 40c11.333 14.667 20.666 33 27.999 55l154 -36c-12.667 -52.667 -35.667 -97.334 -69 -134.001c-48.667 -52.667 -119.667 -79 -213 -79c-94 0 -165 26.333 -213 79c-32.667 35.333 -55.667 78.666 -69 129.999l153 36
c7.33301 -20.667 16.666 -37.667 27.999 -51z" />
    <glyph glyph-name="uni1EB0" unicode="&#x1eb0;" horiz-adv-x="1304" 
d="M611 1790l-238.999 270c12.667 41.333 50.667 62 114 62s108.666 -20.667 135.999 -62l118 -269zM1003 0l-104 346h-492l-104 -346h-289l475 1483h326l477 -1483h-289zM694.001 1065c-6.66699 20.667 -12.5 41.5 -17.5 62.5s-8.83301 40.5 -11.5 58.5
c-4 20.667 -7.33301 40.334 -10 59.001h-4c-2.66699 -18.667 -6 -38.334 -10 -59.001c-2.66699 -18 -6.5 -37.5 -11.5 -58.5s-10.833 -41.833 -17.5 -62.5l-149 -506h380zM552.001 1744c22.667 -26.667 56.3359 -39.998 101.003 -39.998c45.333 0 78.666 13.333 99.999 40
c11.333 14.667 20.666 33 27.999 55l154 -36c-12.667 -52.667 -35.667 -97.334 -69 -134.001c-48.667 -52.667 -119.667 -79 -213 -79c-94 0 -165 26.333 -213 79c-32.667 35.333 -55.667 78.666 -69 129.999l153 36c7.33301 -20.667 16.666 -37.667 27.999 -51z" />
    <glyph glyph-name="uni1EB1" unicode="&#x1eb1;" horiz-adv-x="1062" 
d="M945 55c-20 -10.667 -44.333 -20.8291 -73 -30.4961s-60.5 -18.167 -95.5 -25.5s-71.833 -13.166 -110.5 -17.499s-78 -6.5 -118 -6.5c-160.667 0 -280.334 31.167 -359.001 93.5s-118 150.166 -118 263.499c0 74.667 17.333 135.667 52 183s80.667 84.666 138 111.999
s123.333 47.166 198 59.499s152.334 20.5 233.001 24.5v57c0 57.333 -17.833 98 -53.5 122s-84.167 36 -145.5 36c-50.667 0 -103.667 -6.83301 -159 -20.5s-101.333 -28.834 -138 -45.501l-68 189c45.333 18.667 102.833 36.5 172.5 53.5s143.5 25.5 221.5 25.5
c136 0 240.5 -30.333 313.5 -91s109.5 -161.334 109.5 -302.001v-680zM692 532.005c-49.333 -2.66699 -96.5 -6.33008 -141.5 -10.9971s-84.333 -13.834 -118 -27.501s-60.667 -32.834 -81 -57.501s-30.5 -57.334 -30.5 -98.001c0 -52 19.167 -92.333 57.5 -121
s92.166 -43 161.499 -43c28.667 0 57.334 2 86.001 6s50.667 9.66699 66 17v335zM478 1438.01l-239 270c12.667 41.333 51 62 115 62c63.333 0 108.333 -20.667 135 -62l119 -269zM417 1382.01c22.667 -26.667 56.3359 -39.998 101.003 -39.998
c45.333 0 78.666 13.333 99.999 40c11.333 14.667 20.666 33 27.999 55l154 -36c-12.667 -52.667 -35.667 -97.334 -69 -134.001c-48.667 -52.667 -119.667 -79 -213 -79c-94 0 -165 26.333 -213 79c-32.667 35.333 -55.667 78.666 -69 129.999l153 36
c7.33301 -20.667 16.666 -37.667 27.999 -51z" />
    <glyph glyph-name="uni1EB2" unicode="&#x1eb2;" horiz-adv-x="1304" 
d="M604 1785l-9.00293 147.001c20.667 4.66699 39.334 10.167 56.001 16.5s31.167 14 43.5 23s22.333 19.167 30 30.5s11.5 24 11.5 38c0 25.333 -8.66699 46 -26 62s-43 21 -77 15s-68.667 -24 -104 -54l-41 103c22 20.667 48.333 36.667 79 48s59.334 17 86.001 17
c64.667 5.33301 118.334 -9 161.001 -43s64 -81 64 -141c0 -24.667 -4.66699 -46.667 -14 -66s-21.5 -36.5 -36.5 -51.5s-31.667 -27.833 -50 -38.5s-35.5 -19.334 -51.5 -26.001l-18 -80h-104zM1008 0.000976562l-104 346h-492l-104 -346h-289l475 1483h326l477 -1483h-289
zM698.997 1065c-6.66699 20.667 -12.5 41.5 -17.5 62.5s-8.83301 40.5 -11.5 58.5c-4 20.667 -7.33301 40.334 -10 59.001h-4c-2.66699 -18.667 -6 -38.334 -10 -59.001c-2.66699 -18 -6.5 -37.5 -11.5 -58.5s-10.833 -41.833 -17.5 -62.5l-149 -506h380zM551.997 1744
c22.667 -26.667 56.3359 -39.998 101.003 -39.998c45.333 0 78.666 13.333 99.999 40c11.333 14.667 20.666 33 27.999 55l154 -36c-12.667 -52.667 -35.667 -97.334 -69 -134.001c-48.667 -52.667 -119.667 -79 -213 -79c-94 0 -165 26.333 -213 79
c-32.667 35.333 -55.667 78.666 -69 129.999l153 36c7.33301 -20.667 16.666 -37.667 27.999 -51z" />
    <glyph glyph-name="uni1EB3" unicode="&#x1eb3;" horiz-adv-x="1062" 
d="M945 55c-20 -10.667 -44.333 -20.8291 -73 -30.4961s-60.5 -18.167 -95.5 -25.5s-71.833 -13.166 -110.5 -17.499s-78 -6.5 -118 -6.5c-160.667 0 -280.334 31.167 -359.001 93.5s-118 150.166 -118 263.499c0 74.667 17.333 135.667 52 183s80.667 84.666 138 111.999
s123.333 47.166 198 59.499s152.334 20.5 233.001 24.5v57c0 57.333 -17.833 98 -53.5 122s-84.167 36 -145.5 36c-50.667 0 -103.667 -6.83301 -159 -20.5s-101.333 -28.834 -138 -45.501l-68 189c45.333 18.667 102.833 36.5 172.5 53.5s143.5 25.5 221.5 25.5
c136 0 240.5 -30.333 313.5 -91s109.5 -161.334 109.5 -302.001v-680zM692 532.005c-49.333 -2.66699 -96.5 -6.33008 -141.5 -10.9971s-84.333 -13.834 -118 -27.501s-60.667 -32.834 -81 -57.501s-30.5 -57.334 -30.5 -98.001c0 -52 19.167 -92.333 57.5 -121
s92.166 -43 161.499 -43c28.667 0 57.334 2 86.001 6s50.667 9.66699 66 17v335zM475 1425.01l-9.00098 147.001c20 4.66699 38.333 10.167 55 16.5s31.167 14 43.5 23s22.333 19.167 30 30.5s11.5 24 11.5 38c0 25.333 -8.66699 46 -26 62s-43 21 -77 15
s-68.667 -24 -104 -54l-41 103c22 20.667 48.333 36.667 79 48s59.334 17 86.001 17c64.667 5.33301 118.334 -9 161.001 -43s64 -81 64 -141c0 -24.667 -4.66699 -46.667 -14 -66s-21.333 -36.5 -36 -51.5s-31.334 -27.833 -50.001 -38.5s-36 -19.334 -52 -26.001l-18 -80
h-103zM416.999 1382.01c22.667 -26.667 56.3359 -39.998 101.003 -39.998c45.333 0 78.666 13.333 99.999 40c11.333 14.667 20.666 33 27.999 55l154 -36c-12.667 -52.667 -35.667 -97.334 -69 -134.001c-48.667 -52.667 -119.667 -79 -213 -79c-94 0 -165 26.333 -213 79
c-32.667 35.333 -55.667 78.666 -69 129.999l153 36c7.33301 -20.667 16.666 -37.667 27.999 -51z" />
    <glyph glyph-name="uni1EB4" unicode="&#x1eb4;" horiz-adv-x="1304" 
d="M1003 0l-104 346h-492l-104 -346h-289l475 1483h326l477 -1483h-289zM694 1065c-6.66699 20.667 -12.5 41.5 -17.5 62.5s-8.83301 40.5 -11.5 58.5c-4 20.667 -7.33301 40.334 -10 59.001h-4c-2.66699 -18.667 -6 -38.334 -10 -59.001
c-2.66699 -18 -6.5 -37.5 -11.5 -58.5s-10.833 -41.833 -17.5 -62.5l-149 -506h380zM552 1744c22.667 -26.667 56.3359 -39.998 101.003 -39.998c45.333 0 78.666 13.333 99.999 40c11.333 14.667 20.666 33 27.999 55l154 -36
c-12.667 -52.667 -35.667 -97.334 -69 -134.001c-48.667 -52.667 -119.667 -79 -213 -79c-94 0 -165 26.333 -213 79c-32.667 35.333 -55.667 78.666 -69 129.999l153 36c7.33301 -20.667 16.666 -37.667 27.999 -51zM960.002 2060
c0.666992 -55.333 -14.1699 -105.333 -44.5029 -150s-62.5 -69.334 -96.5 -74.001s-74 4.33301 -120 27c-32 16.667 -66.5 32.167 -103.5 46.5s-64.667 9.5 -83 -14.5s-30.166 -45 -35.499 -63l-88 25c2.66699 54 16.334 102 41.001 144s61 67.333 109 76
c20.667 4 46.334 1.16699 77.001 -8.5s59.167 -22.167 85.5 -37.5s50 -24.666 71 -27.999s38.167 -0.333008 51.5 9s27 31.333 41 66z" />
    <glyph glyph-name="uni1EB5" unicode="&#x1eb5;" horiz-adv-x="1062" 
d="M945 55c-20 -10.667 -44.333 -20.8291 -73 -30.4961s-60.5 -18.167 -95.5 -25.5s-71.833 -13.166 -110.5 -17.499s-78 -6.5 -118 -6.5c-160.667 0 -280.334 31.167 -359.001 93.5s-118 150.166 -118 263.499c0 74.667 17.333 135.667 52 183s80.667 84.666 138 111.999
s123.333 47.166 198 59.499s152.334 20.5 233.001 24.5v57c0 57.333 -17.833 98 -53.5 122s-84.167 36 -145.5 36c-50.667 0 -103.667 -6.83301 -159 -20.5s-101.333 -28.834 -138 -45.501l-68 189c45.333 18.667 102.833 36.5 172.5 53.5s143.5 25.5 221.5 25.5
c136 0 240.5 -30.333 313.5 -91s109.5 -161.334 109.5 -302.001v-680zM692 532.005c-49.333 -2.66699 -96.5 -6.33008 -141.5 -10.9971s-84.333 -13.834 -118 -27.501s-60.667 -32.834 -81 -57.501s-30.5 -57.334 -30.5 -98.001c0 -52 19.167 -92.333 57.5 -121
s92.166 -43 161.499 -43c28.667 0 57.334 2 86.001 6s50.667 9.66699 66 17v335zM869 1700.01c0.666992 -55.333 -13.999 -105.333 -43.999 -150s-62 -69.334 -96 -74.001s-74 4.33301 -120 27c-32.667 16.667 -67.5 32.167 -104.5 46.5s-64.5 9.5 -82.5 -14.5
s-30 -45 -36 -63l-88 25c2.66699 54 16.5 102 41.5 144s61.167 67.333 108.5 76c21.333 4 47.166 1.16699 77.499 -8.5s58.833 -22.167 85.5 -37.5s50.5 -24.666 71.5 -27.999s38 -0.333008 51 9s26.5 31.333 40.5 66zM417.001 1382.01
c22.667 -26.667 56.3359 -39.998 101.003 -39.998c45.333 0 78.666 13.333 99.999 40c11.333 14.667 20.666 33 27.999 55l154 -36c-12.667 -52.667 -35.667 -97.334 -69 -134.001c-48.667 -52.667 -119.667 -79 -213 -79c-94 0 -165 26.333 -213 79
c-32.667 35.333 -55.667 78.666 -69 129.999l153 36c7.33301 -20.667 16.666 -37.667 27.999 -51z" />
    <glyph glyph-name="uni1EB6" unicode="&#x1eb6;" horiz-adv-x="1304" 
d="M785 -191c0 -35.333 -13 -65.666 -39 -90.999s-56.667 -38 -92 -38c-37.333 0 -68.833 12.667 -94.5 38s-38.5 55.666 -38.5 90.999s12.833 65.333 38.5 90s57.167 37 94.5 37c35.333 0 66 -12.333 92 -37s39 -54.667 39 -90zM1003 0l-104 346h-492l-104 -346h-289
l475 1483h326l477 -1483h-289zM694 1065c-6.66699 20.667 -12.5 41.5 -17.5 62.5s-8.83301 40.5 -11.5 58.5c-4 20.667 -7.33301 40.334 -10 59.001h-4c-2.66699 -18.667 -6 -38.334 -10 -59.001c-2.66699 -18 -6.5 -37.5 -11.5 -58.5s-10.833 -41.833 -17.5 -62.5
l-149 -506h380zM552 1744c22.667 -26.667 56.3359 -39.998 101.003 -39.998c45.333 0 78.666 13.333 99.999 40c11.333 14.667 20.666 33 27.999 55l154 -36c-12.667 -52.667 -35.667 -97.334 -69 -134.001c-48.667 -52.667 -119.667 -79 -213 -79
c-94 0 -165 26.333 -213 79c-32.667 35.333 -55.667 78.666 -69 129.999l153 36c7.33301 -20.667 16.666 -37.667 27.999 -51z" />
    <glyph glyph-name="uni1EB7" unicode="&#x1eb7;" horiz-adv-x="1062" 
d="M945 55c-20 -10.667 -44.333 -20.8291 -73 -30.4961s-60.5 -18.167 -95.5 -25.5s-71.833 -13.166 -110.5 -17.499s-78 -6.5 -118 -6.5c-160.667 0 -280.334 31.167 -359.001 93.5s-118 150.166 -118 263.499c0 74.667 17.333 135.667 52 183s80.667 84.666 138 111.999
s123.333 47.166 198 59.499s152.334 20.5 233.001 24.5v57c0 57.333 -17.833 98 -53.5 122s-84.167 36 -145.5 36c-50.667 0 -103.667 -6.83301 -159 -20.5s-101.333 -28.834 -138 -45.501l-68 189c45.333 18.667 102.833 36.5 172.5 53.5s143.5 25.5 221.5 25.5
c136 0 240.5 -30.333 313.5 -91s109.5 -161.334 109.5 -302.001v-680zM692 532.005c-49.333 -2.66699 -96.5 -6.33008 -141.5 -10.9971s-84.333 -13.834 -118 -27.501s-60.667 -32.834 -81 -57.501s-30.5 -57.334 -30.5 -98.001c0 -52 19.167 -92.333 57.5 -121
s92.166 -43 161.499 -43c28.667 0 57.334 2 86.001 6s50.667 9.66699 66 17v335zM677 -207.991c0 -35.333 -13 -65.666 -39 -90.999s-57 -38 -93 -38c-36.667 0 -68 12.667 -94 38s-39 55.666 -39 90.999s13 65.333 39 90s57.333 37 94 37c36 0 67 -12.333 93 -37
s39 -54.667 39 -90zM417 1382.01c22.667 -26.667 56.3359 -39.998 101.003 -39.998c45.333 0 78.666 13.333 99.999 40c11.333 14.667 20.666 33 27.999 55l154 -36c-12.667 -52.667 -35.667 -97.334 -69 -134.001c-48.667 -52.667 -119.667 -79 -213 -79
c-94 0 -165 26.333 -213 79c-32.667 35.333 -55.667 78.666 -69 129.999l153 36c7.33301 -20.667 16.666 -37.667 27.999 -51z" />
    <glyph glyph-name="uni1EB8" unicode="&#x1eb8;" horiz-adv-x="976" 
d="M131 0v1483h758v-242h-486v-371h439v-237h-439v-391h486v-242h-758zM642 -191c0 -35.333 -13 -65.666 -39 -90.999s-56.667 -38 -92 -38c-36.667 0 -68 12.667 -94 38s-39 55.666 -39 90.999s13 65.333 39 90s57.333 37 94 37c35.333 0 66 -12.333 92 -37
s39 -54.667 39 -90z" />
    <glyph glyph-name="uni1EB9" unicode="&#x1eb9;" horiz-adv-x="1112" 
d="M1029 627v-46.499c0 -15.667 -1.33301 -31.834 -4 -48.501l-682 -96c12.667 -82 45.167 -142.667 97.5 -182s117.5 -59 195.5 -59c53.333 0 106.666 6.33301 159.999 19s98.333 29.334 135 50.001l76 -209c-44 -23.333 -100.833 -42.5 -170.5 -57.5
s-143.167 -22.5 -220.5 -22.5c-88 0 -165 14 -231 42s-121.5 67.667 -166.5 119s-79.167 112.5 -102.5 183.5s-35 148.833 -35 233.5s11.333 162.167 34 232.5s55.167 131 97.5 182s93.833 90.5 154.5 118.5s129.334 42 206.001 42c73.333 0 138.333 -11.833 195 -35.5
s104.5 -57.667 143.5 -102s68.333 -97.333 88 -159s29.5 -129.834 29.5 -204.501zM769 676.001c0 83.333 -18.001 145.833 -54.001 187.5s-85.667 62.5 -149 62.5c-69.333 0 -126.166 -26.333 -170.499 -79s-67.833 -131 -70.5 -235zM705.999 -207.999
c0 -35.333 -12.833 -65.666 -38.5 -90.999s-56.5 -38 -92.5 -38c-36.667 0 -68 12.667 -94 38s-39 55.666 -39 90.999s13 65.333 39 90s57.333 37 94 37c36 0 66.833 -12.333 92.5 -37s38.5 -54.667 38.5 -90z" />
    <glyph glyph-name="uni1EBA" unicode="&#x1eba;" horiz-adv-x="976" 
d="M131 0v1483h758v-242h-486v-371h439v-237h-439v-391h486v-242h-758zM450 1537l-9.00293 147.001c20.667 4.66699 39.167 10.167 55.5 16.5s30.833 14 43.5 23s22.834 19.167 30.501 30.5s11.5 24 11.5 38c0 25.333 -8.66699 46 -26 62s-43 21 -77 15
s-68.667 -24 -104 -54l-41 103c22 20.667 48.333 36.667 79 48s59.334 17 86.001 17c64.667 5.33301 118.334 -9 161.001 -43s64 -81 64 -141c0 -24.667 -4.66699 -46.667 -14 -66s-21.5 -36.5 -36.5 -51.5s-31.667 -27.833 -50 -38.5s-35.5 -19.334 -51.5 -26.001l-18 -80
h-104z" />
    <glyph glyph-name="uni1EBB" unicode="&#x1ebb;" horiz-adv-x="1112" 
d="M1029 627v-46.499c0 -15.667 -1.33301 -31.834 -4 -48.501l-682 -96c12.667 -82 45.167 -142.667 97.5 -182s117.5 -59 195.5 -59c53.333 0 106.666 6.33301 159.999 19s98.333 29.334 135 50.001l76 -209c-44 -23.333 -100.833 -42.5 -170.5 -57.5
s-143.167 -22.5 -220.5 -22.5c-88 0 -165 14 -231 42s-121.5 67.667 -166.5 119s-79.167 112.5 -102.5 183.5s-35 148.833 -35 233.5s11.333 162.167 34 232.5s55.167 131 97.5 182s93.833 90.5 154.5 118.5s129.334 42 206.001 42c73.333 0 138.333 -11.833 195 -35.5
s104.5 -57.667 143.5 -102s68.333 -97.333 88 -159s29.5 -129.834 29.5 -204.501zM769 676.001c0 83.333 -18.001 145.833 -54.001 187.5s-85.667 62.5 -149 62.5c-69.333 0 -126.166 -26.333 -170.499 -79s-67.833 -131 -70.5 -235zM507.999 1178l-10.0029 147.001
c20.667 4.66699 39.334 10.167 56.001 16.5s31.167 14 43.5 23s22.333 19.167 30 30.5s11.5 24 11.5 38c0 25.333 -8.66699 46 -26 62s-43 21 -77 15s-68.667 -24 -104 -54l-41 103c22 20.667 48.333 36.667 79 48s59.334 17 86.001 17
c64.667 5.33301 118.334 -9 161.001 -43s64 -81 64 -141c0 -24.667 -4.66699 -46.667 -14 -66s-21.5 -36.5 -36.5 -51.5s-31.667 -27.833 -50 -38.5s-35.5 -19.334 -51.5 -26.001l-18 -80h-103z" />
    <glyph glyph-name="uni1EBC" unicode="&#x1ebc;" horiz-adv-x="976" 
d="M131 0v1483h758v-242h-486v-371h439v-237h-439v-391h486v-242h-758zM789 1801c0.666992 -55.333 -14.1699 -105.333 -44.5029 -150s-62.5 -69.334 -96.5 -74.001s-74 4.33301 -120 27c-32 16.667 -66.5 32.167 -103.5 46.5s-64.667 9.5 -83 -14.5
s-30.166 -45 -35.499 -63l-88 25c2.66699 54 16.334 102 41.001 144s61 67.333 109 76c20.667 4 46.334 1.16699 77.001 -8.5s59.167 -22.167 85.5 -37.5s50 -24.666 71 -27.999s38.167 -0.333008 51.5 9s27 31.333 41 66z" />
    <glyph glyph-name="uni1EBD" unicode="&#x1ebd;" horiz-adv-x="1112" 
d="M1029 627v-46.499c0 -15.667 -1.33301 -31.834 -4 -48.501l-682 -96c12.667 -82 45.167 -142.667 97.5 -182s117.5 -59 195.5 -59c53.333 0 106.666 6.33301 159.999 19s98.333 29.334 135 50.001l76 -209c-44 -23.333 -100.833 -42.5 -170.5 -57.5
s-143.167 -22.5 -220.5 -22.5c-88 0 -165 14 -231 42s-121.5 67.667 -166.5 119s-79.167 112.5 -102.5 183.5s-35 148.833 -35 233.5s11.333 162.167 34 232.5s55.167 131 97.5 182s93.833 90.5 154.5 118.5s129.334 42 206.001 42c73.333 0 138.333 -11.833 195 -35.5
s104.5 -57.667 143.5 -102s68.333 -97.333 88 -159s29.5 -129.834 29.5 -204.501zM769 676.001c0 83.333 -18.001 145.833 -54.001 187.5s-85.667 62.5 -149 62.5c-69.333 0 -126.166 -26.333 -170.499 -79s-67.833 -131 -70.5 -235zM868.999 1425
c0.666992 -55.333 -14.1689 -105.333 -44.502 -150s-62.5 -69.334 -96.5 -74.001s-73.667 4.33301 -119 27c-32.667 16.667 -67.5 32.167 -104.5 46.5s-64.5 9.5 -82.5 -14.5s-30 -45 -36 -63l-88 25c2.66699 54 16.334 102 41.001 144s61 67.333 109 76
c20.667 4 46.334 1.16699 77.001 -8.5s59.167 -22.167 85.5 -37.5s50 -24.666 71 -27.999s38.167 -0.333008 51.5 9s27 31.333 41 66z" />
    <glyph glyph-name="uni1EBE" unicode="&#x1ebe;" horiz-adv-x="976" 
d="M131 0v1483h758v-242h-486v-371h439v-237h-439v-391h486v-242h-758zM746 1747l119 269c26.667 41.333 71.667 62 135 62c64 0 102.333 -20.667 115 -62l-239 -270zM744 1533l-230 178l-231 -179l-90 84l222 223c26 28.667 58 43 96 43c36 0 67.333 -14.333 94 -43
l222 -223z" />
    <glyph glyph-name="uni1EBF" unicode="&#x1ebf;" horiz-adv-x="1112" 
d="M1029 627v-46.499c0 -15.667 -1.33301 -31.834 -4 -48.501l-682 -96c12.667 -82 45.167 -142.667 97.5 -182s117.5 -59 195.5 -59c53.333 0 106.666 6.33301 159.999 19s98.333 29.334 135 50.001l76 -209c-44 -23.333 -100.833 -42.5 -170.5 -57.5
s-143.167 -22.5 -220.5 -22.5c-88 0 -165 14 -231 42s-121.5 67.667 -166.5 119s-79.167 112.5 -102.5 183.5s-35 148.833 -35 233.5s11.333 162.167 34 232.5s55.167 131 97.5 182s93.833 90.5 154.5 118.5s129.334 42 206.001 42c73.333 0 138.333 -11.833 195 -35.5
s104.5 -57.667 143.5 -102s68.333 -97.333 88 -159s29.5 -129.834 29.5 -204.501zM769 676.001c0 83.333 -18.001 145.833 -54.001 187.5s-85.667 62.5 -149 62.5c-69.333 0 -126.166 -26.333 -170.499 -79s-67.833 -131 -70.5 -235zM800.999 1387l118 269
c26.667 41.333 72 62 136 62c63.333 0 101.333 -20.667 114 -62l-239 -270zM813.999 1173l-230 178l-231 -179l-90 84l222 223c26 28.667 58 43 96 43c36.667 0 68 -14.333 94 -43l222 -223z" />
    <glyph glyph-name="uni1EC0" unicode="&#x1ec0;" horiz-adv-x="976" 
d="M131 0v1483h758v-242h-486v-371h439v-237h-439v-391h486v-242h-758zM799 1738l-239.998 270c13.333 41.333 51.666 62 114.999 62s108.666 -20.667 135.999 -62l118 -269zM744.002 1533l-230 178l-231 -179l-90 84l222 223c26 28.667 58 43 96 43
c36 0 67.333 -14.333 94 -43l222 -223z" />
    <glyph glyph-name="uni1EC1" unicode="&#x1ec1;" horiz-adv-x="1112" 
d="M1029 627v-46.499c0 -15.667 -1.33301 -31.834 -4 -48.501l-682 -96c12.667 -82 45.167 -142.667 97.5 -182s117.5 -59 195.5 -59c53.333 0 106.666 6.33301 159.999 19s98.333 29.334 135 50.001l76 -209c-44 -23.333 -100.833 -42.5 -170.5 -57.5
s-143.167 -22.5 -220.5 -22.5c-88 0 -165 14 -231 42s-121.5 67.667 -166.5 119s-79.167 112.5 -102.5 183.5s-35 148.833 -35 233.5s11.333 162.167 34 232.5s55.167 131 97.5 182s93.833 90.5 154.5 118.5s129.334 42 206.001 42c73.333 0 138.333 -11.833 195 -35.5
s104.5 -57.667 143.5 -102s68.333 -97.333 88 -159s29.5 -129.834 29.5 -204.501zM769 676.001c0 83.333 -18.001 145.833 -54.001 187.5s-85.667 62.5 -149 62.5c-69.333 0 -126.166 -26.333 -170.499 -79s-67.833 -131 -70.5 -235zM852.999 1379l-238.999 270
c12.667 41.333 50.667 62 114 62s108.666 -20.667 135.999 -62l118 -269zM814 1173l-230 178l-231 -179l-90 84l222 223c26 28.667 58 43 96 43c36.667 0 68 -14.333 94 -43l222 -223z" />
    <glyph glyph-name="uni1EC2" unicode="&#x1ec2;" horiz-adv-x="976" 
d="M131 0v1483h758v-242h-486v-371h439v-237h-439v-391h486v-242h-758zM759 1726l-9.00293 147.001c20.667 4.66699 39.167 10.167 55.5 16.5s30.833 14 43.5 23s22.834 19.167 30.501 30.5s11.5 24 11.5 38c0 25.333 -8.66699 46 -26 62s-43 21 -77 15
s-68.667 -24 -104 -54l-41 103c22 20.667 48.333 36.667 79 48s59.334 17 86.001 17c64.667 5.33301 118.334 -9 161.001 -43s64 -81 64 -141c0 -24.667 -4.66699 -46.667 -14 -66s-21.5 -36.5 -36.5 -51.5s-31.667 -27.833 -50 -38.5s-35.5 -19.334 -51.5 -26.001l-18 -80
h-104zM743.997 1533l-230 178l-231 -179l-90 84l222 223c26 28.667 58 43 96 43c36 0 67.333 -14.333 94 -43l222 -223z" />
    <glyph glyph-name="uni1EC3" unicode="&#x1ec3;" horiz-adv-x="1112" 
d="M1029 627v-46.499c0 -15.667 -1.33301 -31.834 -4 -48.501l-682 -96c12.667 -82 45.167 -142.667 97.5 -182s117.5 -59 195.5 -59c53.333 0 106.666 6.33301 159.999 19s98.333 29.334 135 50.001l76 -209c-44 -23.333 -100.833 -42.5 -170.5 -57.5
s-143.167 -22.5 -220.5 -22.5c-88 0 -165 14 -231 42s-121.5 67.667 -166.5 119s-79.167 112.5 -102.5 183.5s-35 148.833 -35 233.5s11.333 162.167 34 232.5s55.167 131 97.5 182s93.833 90.5 154.5 118.5s129.334 42 206.001 42c73.333 0 138.333 -11.833 195 -35.5
s104.5 -57.667 143.5 -102s68.333 -97.333 88 -159s29.5 -129.834 29.5 -204.501zM769 676.001c0 83.333 -18.001 145.833 -54.001 187.5s-85.667 62.5 -149 62.5c-69.333 0 -126.166 -26.333 -170.499 -79s-67.833 -131 -70.5 -235zM824.999 1383l-10.0029 147.001
c20.667 4.66699 39.334 10.167 56.001 16.5s31.167 14 43.5 23s22.333 19.167 30 30.5s11.5 24 11.5 38c0 25.333 -8.66699 46 -26 62s-43 21 -77 15s-68.667 -24 -104 -54l-41 103c22 20.667 48.333 36.667 79 48s59.334 17 86.001 17
c64.667 5.33301 118.334 -9 161.001 -43s64 -81 64 -141c0 -24.667 -4.66699 -46.667 -14 -66s-21.5 -36.5 -36.5 -51.5s-31.667 -27.833 -50 -38.5s-35.5 -19.334 -51.5 -26.001l-18 -80h-103zM813.996 1173l-230 178l-231 -179l-90 84l222 223c26 28.667 58 43 96 43
c36.667 0 68 -14.333 94 -43l222 -223z" />
    <glyph glyph-name="uni1EC4" unicode="&#x1ec4;" horiz-adv-x="976" 
d="M131 0v1483h758v-242h-486v-371h439v-237h-439v-391h486v-242h-758zM744 1533l-230 178l-231 -179l-90 84l222 223c26 28.667 58 43 96 43c36 0 67.333 -14.333 94 -43l222 -223zM843 2097c0.666992 -55.333 -14.1699 -105.333 -44.5029 -150
s-62.5 -69.334 -96.5 -74.001s-74 4.33301 -120 27c-32 16.667 -66.5 32.167 -103.5 46.5s-64.667 9.5 -83 -14.5s-30.166 -45 -35.499 -63l-88 25c2.66699 54 16.334 102 41.001 144s61 67.333 109 76c20.667 4 46.334 1.16699 77.001 -8.5s59.167 -22.167 85.5 -37.5
s50 -24.666 71 -27.999s38.167 -0.333008 51.5 9s27 31.333 41 66z" />
    <glyph glyph-name="uni1EC5" unicode="&#x1ec5;" horiz-adv-x="1112" 
d="M1029 627v-46.499c0 -15.667 -1.33301 -31.834 -4 -48.501l-682 -96c12.667 -82 45.167 -142.667 97.5 -182s117.5 -59 195.5 -59c53.333 0 106.666 6.33301 159.999 19s98.333 29.334 135 50.001l76 -209c-44 -23.333 -100.833 -42.5 -170.5 -57.5
s-143.167 -22.5 -220.5 -22.5c-88 0 -165 14 -231 42s-121.5 67.667 -166.5 119s-79.167 112.5 -102.5 183.5s-35 148.833 -35 233.5s11.333 162.167 34 232.5s55.167 131 97.5 182s93.833 90.5 154.5 118.5s129.334 42 206.001 42c73.333 0 138.333 -11.833 195 -35.5
s104.5 -57.667 143.5 -102s68.333 -97.333 88 -159s29.5 -129.834 29.5 -204.501zM769 676.001c0 83.333 -18.001 145.833 -54.001 187.5s-85.667 62.5 -149 62.5c-69.333 0 -126.166 -26.333 -170.499 -79s-67.833 -131 -70.5 -235zM936.999 1733
c0.666992 -55.333 -14.1689 -105.333 -44.502 -150s-62.5 -69.334 -96.5 -74.001s-73.667 4.33301 -119 27c-32.667 16.667 -67.5 32.167 -104.5 46.5s-64.5 9.5 -82.5 -14.5s-30 -45 -36 -63l-88 25c2.66699 54 16.334 102 41.001 144s61 67.333 109 76
c20.667 4 46.334 1.16699 77.001 -8.5s59.167 -22.167 85.5 -37.5s50 -24.666 71 -27.999s38.167 -0.333008 51.5 9s27 31.333 41 66zM813.996 1173l-230 178l-231 -179l-90 84l222 223c26 28.667 58 43 96 43c36.667 0 68 -14.333 94 -43l222 -223z" />
    <glyph glyph-name="uni1EC6" unicode="&#x1ec6;" horiz-adv-x="976" 
d="M131 0v1483h758v-242h-486v-371h439v-237h-439v-391h486v-242h-758zM642 -191c0 -35.333 -13 -65.666 -39 -90.999s-56.667 -38 -92 -38c-36.667 0 -68 12.667 -94 38s-39 55.666 -39 90.999s13 65.333 39 90s57.333 37 94 37c35.333 0 66 -12.333 92 -37
s39 -54.667 39 -90zM744 1533l-230 178l-231 -179l-90 84l222 223c26 28.667 58 43 96 43c36 0 67.333 -14.333 94 -43l222 -223z" />
    <glyph glyph-name="uni1EC7" unicode="&#x1ec7;" horiz-adv-x="1112" 
d="M1029 627v-46.499c0 -15.667 -1.33301 -31.834 -4 -48.501l-682 -96c12.667 -82 45.167 -142.667 97.5 -182s117.5 -59 195.5 -59c53.333 0 106.666 6.33301 159.999 19s98.333 29.334 135 50.001l76 -209c-44 -23.333 -100.833 -42.5 -170.5 -57.5
s-143.167 -22.5 -220.5 -22.5c-88 0 -165 14 -231 42s-121.5 67.667 -166.5 119s-79.167 112.5 -102.5 183.5s-35 148.833 -35 233.5s11.333 162.167 34 232.5s55.167 131 97.5 182s93.833 90.5 154.5 118.5s129.334 42 206.001 42c73.333 0 138.333 -11.833 195 -35.5
s104.5 -57.667 143.5 -102s68.333 -97.333 88 -159s29.5 -129.834 29.5 -204.501zM769 676.001c0 83.333 -18.001 145.833 -54.001 187.5s-85.667 62.5 -149 62.5c-69.333 0 -126.166 -26.333 -170.499 -79s-67.833 -131 -70.5 -235zM705.999 -207.999
c0 -35.333 -12.833 -65.666 -38.5 -90.999s-56.5 -38 -92.5 -38c-36.667 0 -68 12.667 -94 38s-39 55.666 -39 90.999s13 65.333 39 90s57.333 37 94 37c36 0 66.833 -12.333 92.5 -37s38.5 -54.667 38.5 -90zM813.999 1173l-230 178l-231 -179l-90 84l222 223
c26 28.667 58 43 96 43c36.667 0 68 -14.333 94 -43l222 -223z" />
    <glyph glyph-name="uni1EC8" unicode="&#x1ec8;" horiz-adv-x="540" 
d="M131 0v1483h279v-1483h-279zM202 1537l-9.00098 147.001c20 4.66699 38.333 10.167 55 16.5s31.167 14 43.5 23s22.333 19.167 30 30.5s11.5 24 11.5 38c0 25.333 -8.66699 46 -26 62s-43 21 -77 15s-68.667 -24 -104 -54l-41 103c22 20.667 48.333 36.667 79 48
s59.334 17 86.001 17c64.667 5.33301 118.334 -9 161.001 -43s64 -81 64 -141c0 -24.667 -4.66699 -46.667 -14 -66s-21.333 -36.5 -36 -51.5s-31.334 -27.833 -50.001 -38.5s-36 -19.334 -52 -26.001l-18 -80h-103z" />
    <glyph glyph-name="uni1EC9" unicode="&#x1ec9;" horiz-adv-x="516" 
d="M123 0v1104h269v-1104h-269zM218 1178l-9.00098 147.001c20 4.66699 38.333 10.167 55 16.5s31.167 14 43.5 23s22.333 19.167 30 30.5s11.5 24 11.5 38c0 25.333 -8.66699 46 -26 62s-43 21 -77 15s-68.667 -24 -104 -54l-41 103c22 20.667 48.333 36.667 79 48
s59.334 17 86.001 17c64.667 5.33301 118.334 -9 161.001 -43s64 -81 64 -141c0 -24.667 -4.66699 -46.667 -14 -66s-21.333 -36.5 -36 -51.5s-31.334 -27.833 -50.001 -38.5s-36 -19.334 -52 -26.001l-18 -80h-103z" />
    <glyph glyph-name="uni1ECA" unicode="&#x1eca;" horiz-adv-x="540" 
d="M132 0v1483h279v-1483h-279zM403 -191c0 -35.333 -12.833 -65.666 -38.5 -90.999s-56.5 -38 -92.5 -38c-36.667 0 -68 12.667 -94 38s-39 55.666 -39 90.999s13 65.333 39 90s57.333 37 94 37c36 0 66.833 -12.333 92.5 -37s38.5 -54.667 38.5 -90z" />
    <glyph glyph-name="uni1ECB" unicode="&#x1ecb;" horiz-adv-x="516" 
d="M411 1432c0 -42.667 -15 -78.667 -45 -108s-66 -44 -108 -44c-44 0 -80.667 14.667 -110 44s-44 65.333 -44 108c0 42 14.667 77.333 44 106s66 43 110 43c42 0 78 -14.333 108 -43s45 -64 45 -106zM116 0v1104h268v-1104h-268zM382 -208
c0 -35.333 -13 -65.666 -39 -90.999s-56.667 -38 -92 -38c-37.333 0 -68.833 12.667 -94.5 38s-38.5 55.666 -38.5 90.999s12.833 65.333 38.5 90s57.167 37 94.5 37c35.333 0 66 -12.333 92 -37s39 -54.667 39 -90z" />
    <glyph glyph-name="uni1ECC" unicode="&#x1ecc;" 
d="M1192 741c0 -107.333 -11.333 -207.833 -34 -301.5s-56.834 -174.667 -102.501 -243s-103 -122.333 -172 -162s-149.833 -59.5 -242.5 -59.5s-173.5 19.833 -242.5 59.5s-126.333 93.667 -172 162s-79.834 149.333 -102.501 243s-34 194.167 -34 301.5
c0 108 11.333 208.833 34 302.5s56.834 174.667 102.501 243s103 122.166 172 161.499s149.833 59 242.5 59s173.5 -19.667 242.5 -59s126.333 -93.166 172 -161.499s79.834 -149.333 102.501 -243s34 -194.5 34 -302.5zM913 741c0 76.667 -5.83301 146.334 -17.5 209.001
s-28.667 116.334 -51 161.001s-50.666 79.167 -84.999 103.5s-73.833 36.5 -118.5 36.5c-45.333 0 -85 -12.167 -119 -36.5s-62.333 -58.833 -85 -103.5s-39.667 -98.334 -51 -161.001s-17 -132.334 -17 -209.001c0 -76 5.66699 -145.5 17 -208.5s28.333 -116.667 51 -161
s51 -78.833 85 -103.5s73.667 -37 119 -37c44.667 0 84.167 12.333 118.5 37s62.666 59.167 84.999 103.5s39.333 98 51 161s17.5 132.5 17.5 208.5zM773 -208c0 -35.333 -13 -65.666 -39 -90.999s-56.667 -38 -92 -38c-36.667 0 -68 12.667 -94 38s-39 55.666 -39 90.999
s13 65.333 39 90s57.333 37 94 37c35.333 0 66 -12.333 92 -37s39 -54.667 39 -90z" />
    <glyph glyph-name="uni1ECD" unicode="&#x1ecd;" horiz-adv-x="1124" 
d="M1042 553c0 -82 -10.667 -158.5 -32 -229.5s-52.5 -132.167 -93.5 -183.5s-91.167 -91.666 -150.5 -120.999s-127.333 -44 -204 -44c-77.333 0 -145.833 14.667 -205.5 44s-110 69.666 -151 120.999s-72 112.5 -93 183.5s-31.5 147.5 -31.5 229.5
s10.5 158.167 31.5 228.5s52 131 93 182s91.333 91.167 151 120.5s128.167 44 205.5 44c76.667 0 144.667 -14.667 204 -44s109.5 -69.5 150.5 -120.5s72.167 -111.667 93.5 -182s32 -146.5 32 -228.5zM773 555c0 110.667 -17.333 197.334 -52 260.001s-87.667 94 -159 94
c-72 0 -125.5 -31.333 -160.5 -94s-52.5 -149.334 -52.5 -260.001s17.5 -197 52.5 -259s88.5 -93 160.5 -93c71.333 0 124.333 31 159 93s52 148.333 52 259zM693 -208c0 -35.333 -12.833 -65.666 -38.5 -90.999s-56.5 -38 -92.5 -38c-36.667 0 -68 12.667 -94 38
s-39 55.666 -39 90.999s13 65.333 39 90s57.333 37 94 37c36 0 66.833 -12.333 92.5 -37s38.5 -54.667 38.5 -90z" />
    <glyph glyph-name="uni1ECE" unicode="&#x1ece;" 
d="M1192 741c0 -107.333 -11.333 -207.833 -34 -301.5s-56.834 -174.667 -102.501 -243s-103 -122.333 -172 -162s-149.833 -59.5 -242.5 -59.5s-173.5 19.833 -242.5 59.5s-126.333 93.667 -172 162s-79.834 149.333 -102.501 243s-34 194.167 -34 301.5
c0 108 11.333 208.833 34 302.5s56.834 174.667 102.501 243s103 122.166 172 161.499s149.833 59 242.5 59s173.5 -19.667 242.5 -59s126.333 -93.166 172 -161.499s79.834 -149.333 102.501 -243s34 -194.5 34 -302.5zM913 741c0 76.667 -5.83301 146.334 -17.5 209.001
s-28.667 116.334 -51 161.001s-50.666 79.167 -84.999 103.5s-73.833 36.5 -118.5 36.5c-45.333 0 -85 -12.167 -119 -36.5s-62.333 -58.833 -85 -103.5s-39.667 -98.334 -51 -161.001s-17 -132.334 -17 -209.001c0 -76 5.66699 -145.5 17 -208.5s28.333 -116.667 51 -161
s51 -78.833 85 -103.5s73.667 -37 119 -37c44.667 0 84.167 12.333 118.5 37s62.666 59.167 84.999 103.5s39.333 98 51 161s17.5 132.5 17.5 208.5zM569 1537l-9 147.001c20.667 4.66699 39.167 10.167 55.5 16.5s30.833 14 43.5 23s22.667 19.167 30 30.5s11 24 11 38
c0 25.333 -8.5 46 -25.5 62s-42.5 21 -76.5 15s-68.667 -24 -104 -54l-41 103c22 20.667 48.167 36.667 78.5 48s59.166 17 86.499 17c64.667 5.33301 118.334 -9 161.001 -43s64 -81 64 -141c0 -24.667 -4.66699 -46.667 -14 -66s-21.5 -36.5 -36.5 -51.5
s-31.667 -27.833 -50 -38.5s-35.5 -19.334 -51.5 -26.001l-18 -80h-104z" />
    <glyph glyph-name="uni1ECF" unicode="&#x1ecf;" horiz-adv-x="1124" 
d="M1042 553c0 -82 -10.667 -158.5 -32 -229.5s-52.5 -132.167 -93.5 -183.5s-91.167 -91.666 -150.5 -120.999s-127.333 -44 -204 -44c-77.333 0 -145.833 14.667 -205.5 44s-110 69.666 -151 120.999s-72 112.5 -93 183.5s-31.5 147.5 -31.5 229.5
s10.5 158.167 31.5 228.5s52 131 93 182s91.333 91.167 151 120.5s128.167 44 205.5 44c76.667 0 144.667 -14.667 204 -44s109.5 -69.5 150.5 -120.5s72.167 -111.667 93.5 -182s32 -146.5 32 -228.5zM773 555c0 110.667 -17.333 197.334 -52 260.001s-87.667 94 -159 94
c-72 0 -125.5 -31.333 -160.5 -94s-52.5 -149.334 -52.5 -260.001s17.5 -197 52.5 -259s88.5 -93 160.5 -93c71.333 0 124.333 31 159 93s52 148.333 52 259zM525 1178l-10.0029 147.001c20.667 4.66699 39.334 10.167 56.001 16.5s31.167 14 43.5 23s22.333 19.167 30 30.5
s11.5 24 11.5 38c0 25.333 -8.66699 46 -26 62s-43 21 -77 15s-68.667 -24 -104 -54l-41 103c22 20.667 48.333 36.667 79 48s59.334 17 86.001 17c64.667 5.33301 118.334 -9 161.001 -43s64 -81 64 -141c0 -24.667 -4.66699 -46.667 -14 -66s-21.5 -36.5 -36.5 -51.5
s-31.667 -27.833 -50 -38.5s-35.5 -19.334 -51.5 -26.001l-18 -80h-103z" />
    <glyph glyph-name="uni1ED0" unicode="&#x1ed0;" 
d="M1192 741c0 -107.333 -11.333 -207.833 -34 -301.5s-56.834 -174.667 -102.501 -243s-103 -122.333 -172 -162s-149.833 -59.5 -242.5 -59.5s-173.5 19.833 -242.5 59.5s-126.333 93.667 -172 162s-79.834 149.333 -102.501 243s-34 194.167 -34 301.5
c0 108 11.333 208.833 34 302.5s56.834 174.667 102.501 243s103 122.166 172 161.499s149.833 59 242.5 59s173.5 -19.667 242.5 -59s126.333 -93.166 172 -161.499s79.834 -149.333 102.501 -243s34 -194.5 34 -302.5zM913 741c0 76.667 -5.83301 146.334 -17.5 209.001
s-28.667 116.334 -51 161.001s-50.666 79.167 -84.999 103.5s-73.833 36.5 -118.5 36.5c-45.333 0 -85 -12.167 -119 -36.5s-62.333 -58.833 -85 -103.5s-39.667 -98.334 -51 -161.001s-17 -132.334 -17 -209.001c0 -76 5.66699 -145.5 17 -208.5s28.333 -116.667 51 -161
s51 -78.833 85 -103.5s73.667 -37 119 -37c44.667 0 84.167 12.333 118.5 37s62.666 59.167 84.999 103.5s39.333 98 51 161s17.5 132.5 17.5 208.5zM864 1758l119 269c26.667 41.333 71.667 62 135 62c64 0 102.333 -20.667 115 -62l-239 -270zM875 1533l-230 178
l-231 -179l-90 84l222 223c26 28.667 58 43 96 43c36 0 67.333 -14.333 94 -43l222 -223z" />
    <glyph glyph-name="uni1ED1" unicode="&#x1ed1;" horiz-adv-x="1124" 
d="M1042 553c0 -82 -10.667 -158.5 -32 -229.5s-52.5 -132.167 -93.5 -183.5s-91.167 -91.666 -150.5 -120.999s-127.333 -44 -204 -44c-77.333 0 -145.833 14.667 -205.5 44s-110 69.666 -151 120.999s-72 112.5 -93 183.5s-31.5 147.5 -31.5 229.5
s10.5 158.167 31.5 228.5s52 131 93 182s91.333 91.167 151 120.5s128.167 44 205.5 44c76.667 0 144.667 -14.667 204 -44s109.5 -69.5 150.5 -120.5s72.167 -111.667 93.5 -182s32 -146.5 32 -228.5zM773 555c0 110.667 -17.333 197.334 -52 260.001s-87.667 94 -159 94
c-72 0 -125.5 -31.333 -160.5 -94s-52.5 -149.334 -52.5 -260.001s17.5 -197 52.5 -259s88.5 -93 160.5 -93c71.333 0 124.333 31 159 93s52 148.333 52 259zM785 1388l118 269c26.667 41.333 72 62 136 62c63.333 0 101.333 -20.667 114 -62l-239 -270zM795 1173l-230 178
l-230 -179l-91 84l222 223c26.667 28.667 58.667 43 96 43c36.667 0 68 -14.333 94 -43l222 -223z" />
    <glyph glyph-name="uni1ED2" unicode="&#x1ed2;" 
d="M1192 741c0 -107.333 -11.333 -207.833 -34 -301.5s-56.834 -174.667 -102.501 -243s-103 -122.333 -172 -162s-149.833 -59.5 -242.5 -59.5s-173.5 19.833 -242.5 59.5s-126.333 93.667 -172 162s-79.834 149.333 -102.501 243s-34 194.167 -34 301.5
c0 108 11.333 208.833 34 302.5s56.834 174.667 102.501 243s103 122.166 172 161.499s149.833 59 242.5 59s173.5 -19.667 242.5 -59s126.333 -93.166 172 -161.499s79.834 -149.333 102.501 -243s34 -194.5 34 -302.5zM913 741c0 76.667 -5.83301 146.334 -17.5 209.001
s-28.667 116.334 -51 161.001s-50.666 79.167 -84.999 103.5s-73.833 36.5 -118.5 36.5c-45.333 0 -85 -12.167 -119 -36.5s-62.333 -58.833 -85 -103.5s-39.667 -98.334 -51 -161.001s-17 -132.334 -17 -209.001c0 -76 5.66699 -145.5 17 -208.5s28.333 -116.667 51 -161
s51 -78.833 85 -103.5s73.667 -37 119 -37c44.667 0 84.167 12.333 118.5 37s62.666 59.167 84.999 103.5s39.333 98 51 161s17.5 132.5 17.5 208.5zM918 1754l-239.998 270c13.333 41.333 51.666 62 114.999 62s108.666 -20.667 135.999 -62l118 -269zM875.002 1533
l-230 178l-231 -179l-90 84l222 223c26 28.667 58 43 96 43c36 0 67.333 -14.333 94 -43l222 -223z" />
    <glyph glyph-name="uni1ED3" unicode="&#x1ed3;" horiz-adv-x="1124" 
d="M1042 553c0 -82 -10.667 -158.5 -32 -229.5s-52.5 -132.167 -93.5 -183.5s-91.167 -91.666 -150.5 -120.999s-127.333 -44 -204 -44c-77.333 0 -145.833 14.667 -205.5 44s-110 69.666 -151 120.999s-72 112.5 -93 183.5s-31.5 147.5 -31.5 229.5
s10.5 158.167 31.5 228.5s52 131 93 182s91.333 91.167 151 120.5s128.167 44 205.5 44c76.667 0 144.667 -14.667 204 -44s109.5 -69.5 150.5 -120.5s72.167 -111.667 93.5 -182s32 -146.5 32 -228.5zM773 555c0 110.667 -17.333 197.334 -52 260.001s-87.667 94 -159 94
c-72 0 -125.5 -31.333 -160.5 -94s-52.5 -149.334 -52.5 -260.001s17.5 -197 52.5 -259s88.5 -93 160.5 -93c71.333 0 124.333 31 159 93s52 148.333 52 259zM836 1377l-238.999 270c12.667 41.333 50.667 62 114 62s108.666 -20.667 135.999 -62l118 -269zM795.001 1173
l-230 178l-230 -179l-91 84l222 223c26.667 28.667 58.667 43 96 43c36.667 0 68 -14.333 94 -43l222 -223z" />
    <glyph glyph-name="uni1ED4" unicode="&#x1ed4;" 
d="M1192 741c0 -107.333 -11.333 -207.833 -34 -301.5s-56.834 -174.667 -102.501 -243s-103 -122.333 -172 -162s-149.833 -59.5 -242.5 -59.5s-173.5 19.833 -242.5 59.5s-126.333 93.667 -172 162s-79.834 149.333 -102.501 243s-34 194.167 -34 301.5
c0 108 11.333 208.833 34 302.5s56.834 174.667 102.501 243s103 122.166 172 161.499s149.833 59 242.5 59s173.5 -19.667 242.5 -59s126.333 -93.166 172 -161.499s79.834 -149.333 102.501 -243s34 -194.5 34 -302.5zM913 741c0 76.667 -5.83301 146.334 -17.5 209.001
s-28.667 116.334 -51 161.001s-50.666 79.167 -84.999 103.5s-73.833 36.5 -118.5 36.5c-45.333 0 -85 -12.167 -119 -36.5s-62.333 -58.833 -85 -103.5s-39.667 -98.334 -51 -161.001s-17 -132.334 -17 -209.001c0 -76 5.66699 -145.5 17 -208.5s28.333 -116.667 51 -161
s51 -78.833 85 -103.5s73.667 -37 119 -37c44.667 0 84.167 12.333 118.5 37s62.666 59.167 84.999 103.5s39.333 98 51 161s17.5 132.5 17.5 208.5zM860 1760l-9 147.001c20.667 4.66699 39.167 10.167 55.5 16.5s30.833 14 43.5 23s22.667 19.167 30 30.5s11 24 11 38
c0 25.333 -8.5 46 -25.5 62s-42.5 21 -76.5 15s-68.667 -24 -104 -54l-41 103c22 20.667 48.167 36.667 78.5 48s59.166 17 86.499 17c64.667 5.33301 118.334 -9 161.001 -43s64 -81 64 -141c0 -24.667 -4.66699 -46.667 -14 -66s-21.5 -36.5 -36.5 -51.5
s-31.667 -27.833 -50 -38.5s-35.5 -19.334 -51.5 -26.001l-18 -80h-104zM875 1533l-230 178l-231 -179l-90 84l222 223c26 28.667 58 43 96 43c36 0 67.333 -14.333 94 -43l222 -223z" />
    <glyph glyph-name="uni1ED5" unicode="&#x1ed5;" horiz-adv-x="1124" 
d="M1042 553c0 -82 -10.667 -158.5 -32 -229.5s-52.5 -132.167 -93.5 -183.5s-91.167 -91.666 -150.5 -120.999s-127.333 -44 -204 -44c-77.333 0 -145.833 14.667 -205.5 44s-110 69.666 -151 120.999s-72 112.5 -93 183.5s-31.5 147.5 -31.5 229.5
s10.5 158.167 31.5 228.5s52 131 93 182s91.333 91.167 151 120.5s128.167 44 205.5 44c76.667 0 144.667 -14.667 204 -44s109.5 -69.5 150.5 -120.5s72.167 -111.667 93.5 -182s32 -146.5 32 -228.5zM773 555c0 110.667 -17.333 197.334 -52 260.001s-87.667 94 -159 94
c-72 0 -125.5 -31.333 -160.5 -94s-52.5 -149.334 -52.5 -260.001s17.5 -197 52.5 -259s88.5 -93 160.5 -93c71.333 0 124.333 31 159 93s52 148.333 52 259zM808 1384l-10.0029 147.001c20.667 4.66699 39.334 10.167 56.001 16.5s31.167 14 43.5 23s22.333 19.167 30 30.5
s11.5 24 11.5 38c0 25.333 -8.66699 46 -26 62s-43 21 -77 15s-68.667 -24 -104 -54l-41 103c22 20.667 48.333 36.667 79 48s59.334 17 86.001 17c64.667 5.33301 118.334 -9 161.001 -43s64 -81 64 -141c0 -24.667 -4.66699 -46.667 -14 -66s-21.5 -36.5 -36.5 -51.5
s-31.667 -27.833 -50 -38.5s-35.5 -19.334 -51.5 -26.001l-18 -80h-103zM794.997 1173l-230 178l-230 -179l-91 84l222 223c26.667 28.667 58.667 43 96 43c36.667 0 68 -14.333 94 -43l222 -223z" />
    <glyph glyph-name="uni1ED6" unicode="&#x1ed6;" 
d="M1192 741c0 -107.333 -11.333 -207.833 -34 -301.5s-56.834 -174.667 -102.501 -243s-103 -122.333 -172 -162s-149.833 -59.5 -242.5 -59.5s-173.5 19.833 -242.5 59.5s-126.333 93.667 -172 162s-79.834 149.333 -102.501 243s-34 194.167 -34 301.5
c0 108 11.333 208.833 34 302.5s56.834 174.667 102.501 243s103 122.166 172 161.499s149.833 59 242.5 59s173.5 -19.667 242.5 -59s126.333 -93.166 172 -161.499s79.834 -149.333 102.501 -243s34 -194.5 34 -302.5zM913 741c0 76.667 -5.83301 146.334 -17.5 209.001
s-28.667 116.334 -51 161.001s-50.666 79.167 -84.999 103.5s-73.833 36.5 -118.5 36.5c-45.333 0 -85 -12.167 -119 -36.5s-62.333 -58.833 -85 -103.5s-39.667 -98.334 -51 -161.001s-17 -132.334 -17 -209.001c0 -76 5.66699 -145.5 17 -208.5s28.333 -116.667 51 -161
s51 -78.833 85 -103.5s73.667 -37 119 -37c44.667 0 84.167 12.333 118.5 37s62.666 59.167 84.999 103.5s39.333 98 51 161s17.5 132.5 17.5 208.5zM875 1533l-230 178l-231 -179l-90 84l222 223c26 28.667 58 43 96 43c36 0 67.333 -14.333 94 -43l222 -223zM1000 2072
c-6 -54.667 -26.5 -102.668 -61.5 -144.001s-69.667 -62.166 -104 -62.499s-72.833 13.167 -115.5 40.5c-30.667 20 -63.5 39.167 -98.5 57.5s-62.833 16.666 -83.5 -5.00098s-35 -40.834 -43 -57.501l-84 34c8.66699 54 27.667 100.333 57 139s68.333 59.334 117 62.001
c21.333 2 46.5 -3.5 75.5 -16.5s55.833 -28.667 80.5 -47s47.167 -30.333 67.5 -36s37.5 -4.66699 51.5 3s30.333 28.167 49 61.501z" />
    <glyph glyph-name="uni1ED7" unicode="&#x1ed7;" horiz-adv-x="1124" 
d="M1042 553c0 -82 -10.667 -158.5 -32 -229.5s-52.5 -132.167 -93.5 -183.5s-91.167 -91.666 -150.5 -120.999s-127.333 -44 -204 -44c-77.333 0 -145.833 14.667 -205.5 44s-110 69.666 -151 120.999s-72 112.5 -93 183.5s-31.5 147.5 -31.5 229.5
s10.5 158.167 31.5 228.5s52 131 93 182s91.333 91.167 151 120.5s128.167 44 205.5 44c76.667 0 144.667 -14.667 204 -44s109.5 -69.5 150.5 -120.5s72.167 -111.667 93.5 -182s32 -146.5 32 -228.5zM773 555c0 110.667 -17.333 197.334 -52 260.001s-87.667 94 -159 94
c-72 0 -125.5 -31.333 -160.5 -94s-52.5 -149.334 -52.5 -260.001s17.5 -197 52.5 -259s88.5 -93 160.5 -93c71.333 0 124.333 31 159 93s52 148.333 52 259zM910 1741c0.666992 -55.333 -14.1689 -105.333 -44.502 -150s-62.5 -69.334 -96.5 -74.001
s-73.667 4.33301 -119 27c-32.667 16.667 -67.5 32.167 -104.5 46.5s-64.5 9.5 -82.5 -14.5s-30 -45 -36 -63l-88 25c2.66699 54 16.334 102 41.001 144s61 67.333 109 76c20.667 4 46.334 1.16699 77.001 -8.5s59.167 -22.167 85.5 -37.5s50 -24.666 71 -27.999
s38.167 -0.333008 51.5 9s27 31.333 41 66zM794.997 1173l-230 178l-230 -179l-91 84l222 223c26.667 28.667 58.667 43 96 43c36.667 0 68 -14.333 94 -43l222 -223z" />
    <glyph glyph-name="uni1ED8" unicode="&#x1ed8;" 
d="M1192 741c0 -107.333 -11.333 -207.833 -34 -301.5s-56.834 -174.667 -102.501 -243s-103 -122.333 -172 -162s-149.833 -59.5 -242.5 -59.5s-173.5 19.833 -242.5 59.5s-126.333 93.667 -172 162s-79.834 149.333 -102.501 243s-34 194.167 -34 301.5
c0 108 11.333 208.833 34 302.5s56.834 174.667 102.501 243s103 122.166 172 161.499s149.833 59 242.5 59s173.5 -19.667 242.5 -59s126.333 -93.166 172 -161.499s79.834 -149.333 102.501 -243s34 -194.5 34 -302.5zM913 741c0 76.667 -5.83301 146.334 -17.5 209.001
s-28.667 116.334 -51 161.001s-50.666 79.167 -84.999 103.5s-73.833 36.5 -118.5 36.5c-45.333 0 -85 -12.167 -119 -36.5s-62.333 -58.833 -85 -103.5s-39.667 -98.334 -51 -161.001s-17 -132.334 -17 -209.001c0 -76 5.66699 -145.5 17 -208.5s28.333 -116.667 51 -161
s51 -78.833 85 -103.5s73.667 -37 119 -37c44.667 0 84.167 12.333 118.5 37s62.666 59.167 84.999 103.5s39.333 98 51 161s17.5 132.5 17.5 208.5zM875 1533l-230 178l-231 -179l-90 84l222 223c26 28.667 58 43 96 43c36 0 67.333 -14.333 94 -43l222 -223zM773 -208
c0 -35.333 -13 -65.666 -39 -90.999s-56.667 -38 -92 -38c-36.667 0 -68 12.667 -94 38s-39 55.666 -39 90.999s13 65.333 39 90s57.333 37 94 37c35.333 0 66 -12.333 92 -37s39 -54.667 39 -90z" />
    <glyph glyph-name="uni1ED9" unicode="&#x1ed9;" horiz-adv-x="1124" 
d="M1042 553c0 -82 -10.667 -158.5 -32 -229.5s-52.5 -132.167 -93.5 -183.5s-91.167 -91.666 -150.5 -120.999s-127.333 -44 -204 -44c-77.333 0 -145.833 14.667 -205.5 44s-110 69.666 -151 120.999s-72 112.5 -93 183.5s-31.5 147.5 -31.5 229.5
s10.5 158.167 31.5 228.5s52 131 93 182s91.333 91.167 151 120.5s128.167 44 205.5 44c76.667 0 144.667 -14.667 204 -44s109.5 -69.5 150.5 -120.5s72.167 -111.667 93.5 -182s32 -146.5 32 -228.5zM773 555c0 110.667 -17.333 197.334 -52 260.001s-87.667 94 -159 94
c-72 0 -125.5 -31.333 -160.5 -94s-52.5 -149.334 -52.5 -260.001s17.5 -197 52.5 -259s88.5 -93 160.5 -93c71.333 0 124.333 31 159 93s52 148.333 52 259zM693 -208c0 -35.333 -12.833 -65.666 -38.5 -90.999s-56.5 -38 -92.5 -38c-36.667 0 -68 12.667 -94 38
s-39 55.666 -39 90.999s13 65.333 39 90s57.333 37 94 37c36 0 66.833 -12.333 92.5 -37s38.5 -54.667 38.5 -90zM795 1173l-230 178l-230 -179l-91 84l222 223c26.667 28.667 58.667 43 96 43c36.667 0 68 -14.333 94 -43l222 -223z" />
    <glyph glyph-name="uni1EDA" unicode="&#x1eda;" 
d="M913 741c0 76.667 -5.66699 146.334 -17 209.001s-28.333 116.334 -51 161.001s-51 79.167 -85 103.5s-73.667 36.5 -119 36.5s-85 -12.167 -119 -36.5s-62.333 -58.833 -85 -103.5s-39.667 -98.334 -51 -161.001s-17 -132.334 -17 -209.001
c0 -76 5.66699 -145.5 17 -208.5s28.333 -116.667 51 -161s51 -78.833 85 -103.5s73.667 -37 119 -37s85 12.333 119 37s62.333 59.167 85 103.5s39.667 98 51 161s17 132.5 17 208.5zM515 1559l118 269c26.667 41.333 72 62 136 62c63.333 0 101.333 -20.667 114 -62
l-239 -270zM1014 1341c14.667 -17.333 28.668 -35.3311 42.001 -53.998c45.333 -68.667 79.333 -149.834 102 -243.501s34 -194.5 34 -302.5c0 -107.333 -11.333 -207.833 -34 -301.5s-56.834 -174.667 -102.501 -243s-103 -122.333 -172 -162s-149.833 -59.5 -242.5 -59.5
s-173.5 19.833 -242.5 59.5s-126.333 93.667 -172 162s-79.834 149.333 -102.501 243s-34 194.167 -34 301.5c0 108 11.333 208.833 34 302.5s56.834 174.667 102.501 243s103 122.166 172 161.499s149.833 59 242.5 59c92 0 172.333 -19.333 241 -58l78 139
c18 12.667 41 23 69 31s61.333 10.667 100 8c35.333 -3.33301 63.833 -11.5 85.5 -24.5s33.167 -24.833 34.5 -35.5z" />
    <glyph glyph-name="uni1EDB" unicode="&#x1edb;" horiz-adv-x="1124" 
d="M773 555c0 110.667 -17.333 197.334 -52 260.001s-87.667 94 -159 94c-72 0 -125.5 -31.333 -160.5 -94s-52.5 -149.334 -52.5 -260.001s17.5 -197 52.5 -259s88.5 -93 160.5 -93c71.333 0 124.333 31 159 93s52 148.333 52 259zM443 1200l118 269
c26.667 41.333 72 62 136 62c63.333 0 101.333 -20.667 114 -62l-239 -270zM907 975c3.33301 -4 6.66699 -7.66797 10 -11.001c40.667 -51.333 71.5 -112.166 92.5 -182.499s31.5 -146.5 31.5 -228.5s-10.5 -158.5 -31.5 -229.5s-52 -132.167 -93 -183.5
s-91.167 -91.666 -150.5 -120.999s-127.333 -44 -204 -44c-78 0 -146.667 14.667 -206 44s-109.5 69.666 -150.5 120.999s-72 112.5 -93 183.5s-31.5 147.5 -31.5 229.5s10.5 158.167 31.5 228.5s52 131 93 182s91.167 91.167 150.5 120.5s128 44 206 44
c76 0 143.667 -14.667 203 -44l66 118c18 12.667 41 23 69 31s61.333 10.667 100 8c35.333 -3.33301 63.833 -11.5 85.5 -24.5s33.167 -24.833 34.5 -35.5z" />
    <glyph glyph-name="uni1EDC" unicode="&#x1edc;" 
d="M913 741c0 76.667 -5.66699 146.334 -17 209.001s-28.333 116.334 -51 161.001s-51 79.167 -85 103.5s-73.667 36.5 -119 36.5s-85 -12.167 -119 -36.5s-62.333 -58.833 -85 -103.5s-39.667 -98.334 -51 -161.001s-17 -132.334 -17 -209.001
c0 -76 5.66699 -145.5 17 -208.5s28.333 -116.667 51 -161s51 -78.833 85 -103.5s73.667 -37 119 -37s85 12.333 119 37s62.333 59.167 85 103.5s39.667 98 51 161s17 132.5 17 208.5zM618 1558l-238.999 270c12.667 41.333 50.667 62 114 62s108.666 -20.667 135.999 -62
l118 -269zM1014 1341c14.667 -17.333 28.668 -35.3311 42.001 -53.998c45.333 -68.667 79.333 -149.834 102 -243.501s34 -194.5 34 -302.5c0 -107.333 -11.333 -207.833 -34 -301.5s-56.834 -174.667 -102.501 -243s-103 -122.333 -172 -162s-149.833 -59.5 -242.5 -59.5
s-173.5 19.833 -242.5 59.5s-126.333 93.667 -172 162s-79.834 149.333 -102.501 243s-34 194.167 -34 301.5c0 108 11.333 208.833 34 302.5s56.834 174.667 102.501 243s103 122.166 172 161.499s149.833 59 242.5 59c92 0 172.333 -19.333 241 -58l78 139
c18 12.667 41 23 69 31s61.333 10.667 100 8c35.333 -3.33301 63.833 -11.5 85.5 -24.5s33.167 -24.833 34.5 -35.5z" />
    <glyph glyph-name="uni1EDD" unicode="&#x1edd;" horiz-adv-x="1124" 
d="M773 555c0 110.667 -17.333 197.334 -52 260.001s-87.667 94 -159 94c-72 0 -125.5 -31.333 -160.5 -94s-52.5 -149.334 -52.5 -260.001s17.5 -197 52.5 -259s88.5 -93 160.5 -93c71.333 0 124.333 31 159 93s52 148.333 52 259zM520 1199l-238.999 270
c12.667 41.333 50.667 62 114 62s108.666 -20.667 135.999 -62l118 -269zM907.001 975c3.33301 -4 6.66699 -7.66797 10 -11.001c40.667 -51.333 71.5 -112.166 92.5 -182.499s31.5 -146.5 31.5 -228.5s-10.5 -158.5 -31.5 -229.5s-52 -132.167 -93 -183.5
s-91.167 -91.666 -150.5 -120.999s-127.333 -44 -204 -44c-78 0 -146.667 14.667 -206 44s-109.5 69.666 -150.5 120.999s-72 112.5 -93 183.5s-31.5 147.5 -31.5 229.5s10.5 158.167 31.5 228.5s52 131 93 182s91.167 91.167 150.5 120.5s128 44 206 44
c76 0 143.667 -14.667 203 -44l66 118c18 12.667 41 23 69 31s61.333 10.667 100 8c35.333 -3.33301 63.833 -11.5 85.5 -24.5s33.167 -24.833 34.5 -35.5z" />
    <glyph glyph-name="uni1EDE" unicode="&#x1ede;" 
d="M913 741c0 76.667 -5.66699 146.334 -17 209.001s-28.333 116.334 -51 161.001s-51 79.167 -85 103.5s-73.667 36.5 -119 36.5s-85 -12.167 -119 -36.5s-62.333 -58.833 -85 -103.5s-39.667 -98.334 -51 -161.001s-17 -132.334 -17 -209.001
c0 -76 5.66699 -145.5 17 -208.5s28.333 -116.667 51 -161s51 -78.833 85 -103.5s73.667 -37 119 -37s85 12.333 119 37s62.333 59.167 85 103.5s39.667 98 51 161s17 132.5 17 208.5zM569 1537l-9.00293 147.001c20.667 4.66699 39.334 10.167 56.001 16.5
s31.167 14 43.5 23s22.333 19.167 30 30.5s11.5 24 11.5 38c0 25.333 -8.66699 46 -26 62s-43 21 -77 15s-68.667 -24 -104 -54l-41 103c22 20.667 48.333 36.667 79 48s59.334 17 86.001 17c64.667 5.33301 118.334 -9 161.001 -43s64 -81 64 -141
c0 -24.667 -4.66699 -46.667 -14 -66s-21.5 -36.5 -36.5 -51.5s-31.667 -27.833 -50 -38.5s-35.5 -19.334 -51.5 -26.001l-18 -80h-104zM1014 1341c14.667 -17.333 28.668 -35.3311 42.001 -53.998c45.333 -68.667 79.333 -149.834 102 -243.501s34 -194.5 34 -302.5
c0 -107.333 -11.333 -207.833 -34 -301.5s-56.834 -174.667 -102.501 -243s-103 -122.333 -172 -162s-149.833 -59.5 -242.5 -59.5s-173.5 19.833 -242.5 59.5s-126.333 93.667 -172 162s-79.834 149.333 -102.501 243s-34 194.167 -34 301.5c0 108 11.333 208.833 34 302.5
s56.834 174.667 102.501 243s103 122.166 172 161.499s149.833 59 242.5 59c92 0 172.333 -19.333 241 -58l78 139c18 12.667 41 23 69 31s61.333 10.667 100 8c35.333 -3.33301 63.833 -11.5 85.5 -24.5s33.167 -24.833 34.5 -35.5z" />
    <glyph glyph-name="uni1EDF" unicode="&#x1edf;" horiz-adv-x="1124" 
d="M773 555c0 110.667 -17.333 197.334 -52 260.001s-87.667 94 -159 94c-72 0 -125.5 -31.333 -160.5 -94s-52.5 -149.334 -52.5 -260.001s17.5 -197 52.5 -259s88.5 -93 160.5 -93c71.333 0 124.333 31 159 93s52 148.333 52 259zM524 1178l-9.00293 147.001
c20.667 4.66699 39.334 10.167 56.001 16.5s31.167 14 43.5 23s22.333 19.167 30 30.5s11.5 24 11.5 38c0 25.333 -8.66699 46 -26 62s-43 21 -77 15s-68.667 -24 -104 -54l-41 103c22 20.667 48.333 36.667 79 48s59.334 17 86.001 17
c64.667 5.33301 118.334 -9 161.001 -43s64 -81 64 -141c0 -24.667 -4.66699 -46.667 -14 -66s-21.5 -36.5 -36.5 -51.5s-31.667 -27.833 -50 -38.5s-35.5 -19.334 -51.5 -26.001l-18 -80h-104zM906.997 975.001c3.33301 -4 6.66699 -7.66797 10 -11.001
c40.667 -51.333 71.5 -112.166 92.5 -182.499s31.5 -146.5 31.5 -228.5s-10.5 -158.5 -31.5 -229.5s-52 -132.167 -93 -183.5s-91.167 -91.666 -150.5 -120.999s-127.333 -44 -204 -44c-78 0 -146.667 14.667 -206 44s-109.5 69.666 -150.5 120.999s-72 112.5 -93 183.5
s-31.5 147.5 -31.5 229.5s10.5 158.167 31.5 228.5s52 131 93 182s91.167 91.167 150.5 120.5s128 44 206 44c76 0 143.667 -14.667 203 -44l66 118c18 12.667 41 23 69 31s61.333 10.667 100 8c35.333 -3.33301 63.833 -11.5 85.5 -24.5s33.167 -24.833 34.5 -35.5z" />
    <glyph glyph-name="uni1EE0" unicode="&#x1ee0;" 
d="M913 741c0 76.667 -5.66699 146.334 -17 209.001s-28.333 116.334 -51 161.001s-51 79.167 -85 103.5s-73.667 36.5 -119 36.5s-85 -12.167 -119 -36.5s-62.333 -58.833 -85 -103.5s-39.667 -98.334 -51 -161.001s-17 -132.334 -17 -209.001
c0 -76 5.66699 -145.5 17 -208.5s28.333 -116.667 51 -161s51 -78.833 85 -103.5s73.667 -37 119 -37s85 12.333 119 37s62.333 59.167 85 103.5s39.667 98 51 161s17 132.5 17 208.5zM1014 1341c14.667 -17.333 28.668 -35.3311 42.001 -53.998
c45.333 -68.667 79.333 -149.834 102 -243.501s34 -194.5 34 -302.5c0 -107.333 -11.333 -207.833 -34 -301.5s-56.834 -174.667 -102.501 -243s-103 -122.333 -172 -162s-149.833 -59.5 -242.5 -59.5s-173.5 19.833 -242.5 59.5s-126.333 93.667 -172 162
s-79.834 149.333 -102.501 243s-34 194.167 -34 301.5c0 108 11.333 208.833 34 302.5s56.834 174.667 102.501 243s103 122.166 172 161.499s149.833 59 242.5 59c92 0 172.333 -19.333 241 -58l78 139c18 12.667 41 23 69 31s61.333 10.667 100 8
c35.333 -3.33301 63.833 -11.5 85.5 -24.5s33.167 -24.833 34.5 -35.5zM965.001 1783c-6 -54.667 -26.5 -102.667 -61.5 -144s-69.667 -62.166 -104 -62.499s-72.833 13.167 -115.5 40.5c-30.667 20 -63.5 39.167 -98.5 57.5s-62.833 16.666 -83.5 -5.00098
s-35 -40.834 -43 -57.501l-84 34c8.66699 54 27.667 100.333 57 139s68.333 59.334 117 62.001c21.333 2 46.5 -3.5 75.5 -16.5s55.833 -28.667 80.5 -47s47.167 -30.333 67.5 -36s37.5 -4.66699 51.5 3s30.333 28.167 49 61.5z" />
    <glyph glyph-name="uni1EE1" unicode="&#x1ee1;" horiz-adv-x="1124" 
d="M773 555c0 110.667 -17.333 197.334 -52 260.001s-87.667 94 -159 94c-72 0 -125.5 -31.333 -160.5 -94s-52.5 -149.334 -52.5 -260.001s17.5 -197 52.5 -259s88.5 -93 160.5 -93c71.333 0 124.333 31 159 93s52 148.333 52 259zM869 1425
c0.666992 -55.333 -14.1699 -105.333 -44.5029 -150s-62.5 -69.334 -96.5 -74.001s-74 4.33301 -120 27c-32 16.667 -66.5 32.167 -103.5 46.5s-64.667 9.5 -83 -14.5s-30.166 -45 -35.499 -63l-88 25c2.66699 54 16.334 102 41.001 144s61 67.333 109 76
c20.667 4 46.334 1.16699 77.001 -8.5s59.167 -22.167 85.5 -37.5s50 -24.666 71 -27.999s38.167 -0.333008 51.5 9s27 31.333 41 66zM906.996 975c3.33301 -4 6.66699 -7.66797 10 -11.001c40.667 -51.333 71.5 -112.166 92.5 -182.499s31.5 -146.5 31.5 -228.5
s-10.5 -158.5 -31.5 -229.5s-52 -132.167 -93 -183.5s-91.167 -91.666 -150.5 -120.999s-127.333 -44 -204 -44c-78 0 -146.667 14.667 -206 44s-109.5 69.666 -150.5 120.999s-72 112.5 -93 183.5s-31.5 147.5 -31.5 229.5s10.5 158.167 31.5 228.5s52 131 93 182
s91.167 91.167 150.5 120.5s128 44 206 44c76 0 143.667 -14.667 203 -44l66 118c18 12.667 41 23 69 31s61.333 10.667 100 8c35.333 -3.33301 63.833 -11.5 85.5 -24.5s33.167 -24.833 34.5 -35.5z" />
    <glyph glyph-name="uni1EE2" unicode="&#x1ee2;" 
d="M913 741c0 76.667 -5.66699 146.334 -17 209.001s-28.333 116.334 -51 161.001s-51 79.167 -85 103.5s-73.667 36.5 -119 36.5s-85 -12.167 -119 -36.5s-62.333 -58.833 -85 -103.5s-39.667 -98.334 -51 -161.001s-17 -132.334 -17 -209.001
c0 -76 5.66699 -145.5 17 -208.5s28.333 -116.667 51 -161s51 -78.833 85 -103.5s73.667 -37 119 -37s85 12.333 119 37s62.333 59.167 85 103.5s39.667 98 51 161s17 132.5 17 208.5zM773 -208c0 -35.333 -13 -65.666 -39 -90.999s-56.667 -38 -92 -38
c-36.667 0 -68 12.667 -94 38s-39 55.666 -39 90.999s13 65.333 39 90s57.333 37 94 37c35.333 0 66 -12.333 92 -37s39 -54.667 39 -90zM1014 1341c14.667 -17.333 28.668 -35.3311 42.001 -53.998c45.333 -68.667 79.333 -149.834 102 -243.501s34 -194.5 34 -302.5
c0 -107.333 -11.333 -207.833 -34 -301.5s-56.834 -174.667 -102.501 -243s-103 -122.333 -172 -162s-149.833 -59.5 -242.5 -59.5s-173.5 19.833 -242.5 59.5s-126.333 93.667 -172 162s-79.834 149.333 -102.501 243s-34 194.167 -34 301.5c0 108 11.333 208.833 34 302.5
s56.834 174.667 102.501 243s103 122.166 172 161.499s149.833 59 242.5 59c92 0 172.333 -19.333 241 -58l78 139c18 12.667 41 23 69 31s61.333 10.667 100 8c35.333 -3.33301 63.833 -11.5 85.5 -24.5s33.167 -24.833 34.5 -35.5z" />
    <glyph glyph-name="uni1EE3" unicode="&#x1ee3;" horiz-adv-x="1124" 
d="M773 555c0 110.667 -17.333 197.334 -52 260.001s-87.667 94 -159 94c-72 0 -125.5 -31.333 -160.5 -94s-52.5 -149.334 -52.5 -260.001s17.5 -197 52.5 -259s88.5 -93 160.5 -93c71.333 0 124.333 31 159 93s52 148.333 52 259zM693 -208
c0 -35.333 -13 -65.666 -39 -90.999s-56.667 -38 -92 -38c-36.667 0 -68 12.667 -94 38s-39 55.666 -39 90.999s13 65.333 39 90s57.333 37 94 37c35.333 0 66 -12.333 92 -37s39 -54.667 39 -90zM907 975c3.33301 -4 6.66699 -7.66797 10 -11.001
c40.667 -51.333 71.5 -112.166 92.5 -182.499s31.5 -146.5 31.5 -228.5s-10.5 -158.5 -31.5 -229.5s-52 -132.167 -93 -183.5s-91.167 -91.666 -150.5 -120.999s-127.333 -44 -204 -44c-78 0 -146.667 14.667 -206 44s-109.5 69.666 -150.5 120.999s-72 112.5 -93 183.5
s-31.5 147.5 -31.5 229.5s10.5 158.167 31.5 228.5s52 131 93 182s91.167 91.167 150.5 120.5s128 44 206 44c76 0 143.667 -14.667 203 -44l66 118c18 12.667 41 23 69 31s61.333 10.667 100 8c35.333 -3.33301 63.833 -11.5 85.5 -24.5s33.167 -24.833 34.5 -35.5z" />
    <glyph glyph-name="uni1EE4" unicode="&#x1ee4;" horiz-adv-x="1234" 
d="M1104 438c0 -73.333 -12.3301 -138.333 -36.9971 -195s-58.834 -104.5 -102.501 -143.5s-95.167 -68.667 -154.5 -89s-124 -30.5 -194 -30.5c-69.333 0 -133.333 10.167 -192 30.5s-109.834 50 -153.501 89s-77.834 86.833 -102.501 143.5s-37 121.667 -37 195v1045h279
v-1047c0 -65.333 20 -116.5 60 -153.5s88.667 -55.5 146 -55.5c58.667 0 108.167 18.5 148.5 55.5s60.5 88.167 60.5 153.5v1047h279v-1045v0zM749.003 -208c0 -35.333 -12.833 -65.666 -38.5 -90.999s-56.5 -38 -92.5 -38c-36.667 0 -68 12.667 -94 38
s-39 55.666 -39 90.999s13 65.333 39 90s57.333 37 94 37c36 0 66.833 -12.333 92.5 -37s38.5 -54.667 38.5 -90z" />
    <glyph glyph-name="uni1EE5" unicode="&#x1ee5;" horiz-adv-x="1107" 
d="M988 55c-46 -23.333 -107.334 -42.501 -184.001 -57.501s-156.667 -22.5 -240 -22.5c-146 0 -256.5 32.5 -331.5 97.5s-112.5 169.167 -112.5 312.5v719h266v-725c0 -116 59.333 -174 178 -174c36 0 67.333 2.33301 94 7s47.334 10.334 62.001 17.001v875h268v-1049v0z
M692.999 -208.001c0 -35.333 -12.833 -65.666 -38.5 -90.999s-56.5 -38 -92.5 -38c-36.667 0 -68 12.667 -94 38s-39 55.666 -39 90.999s13 65.333 39 90s57.333 37 94 37c36 0 66.833 -12.333 92.5 -37s38.5 -54.667 38.5 -90z" />
    <glyph glyph-name="uni1EE6" unicode="&#x1ee6;" horiz-adv-x="1234" 
d="M1104 438c0 -73.333 -12.3301 -138.333 -36.9971 -195s-58.834 -104.5 -102.501 -143.5s-95.167 -68.667 -154.5 -89s-124 -30.5 -194 -30.5c-69.333 0 -133.333 10.167 -192 30.5s-109.834 50 -153.501 89s-77.834 86.833 -102.501 143.5s-37 121.667 -37 195v1045h279
v-1047c0 -65.333 20 -116.5 60 -153.5s88.667 -55.5 146 -55.5c58.667 0 108.167 18.5 148.5 55.5s60.5 88.167 60.5 153.5v1047h279v-1045v0zM569.003 1537l-9.00293 147.001c20.667 4.66699 39.167 10.167 55.5 16.5s30.833 14 43.5 23s22.834 19.167 30.501 30.5
s11.5 24 11.5 38c0 25.333 -8.66699 46 -26 62s-43 21 -77 15s-68.667 -24 -104 -54l-41 103c22 20.667 48.333 36.667 79 48s59.334 17 86.001 17c64.667 5.33301 118.334 -9 161.001 -43s64 -81 64 -141c0 -24.667 -4.66699 -46.667 -14 -66s-21.5 -36.5 -36.5 -51.5
s-31.667 -27.833 -50 -38.5s-35.5 -19.334 -51.5 -26.001l-18 -80h-104z" />
    <glyph glyph-name="uni1EE7" unicode="&#x1ee7;" horiz-adv-x="1107" 
d="M988 55c-46 -23.333 -107.334 -42.501 -184.001 -57.501s-156.667 -22.5 -240 -22.5c-146 0 -256.5 32.5 -331.5 97.5s-112.5 169.167 -112.5 312.5v719h266v-725c0 -116 59.333 -174 178 -174c36 0 67.333 2.33301 94 7s47.334 10.334 62.001 17.001v875h268v-1049v0z
M524.999 1178l-9.00195 147.001c20 4.66699 38.333 10.167 55 16.5s31.167 14 43.5 23s22.333 19.167 30 30.5s11.5 24 11.5 38c0 25.333 -8.66699 46 -26 62s-43 21 -77 15s-68.667 -24 -104 -54l-41 103c22 20.667 48.333 36.667 79 48s59.334 17 86.001 17
c64.667 5.33301 118.334 -9 161.001 -43s64 -81 64 -141c0 -24.667 -4.66699 -46.667 -14 -66s-21.5 -36.5 -36.5 -51.5s-31.667 -27.833 -50 -38.5s-35.5 -19.334 -51.5 -26.001l-18 -80h-103z" />
    <glyph glyph-name="uni1EE8" unicode="&#x1ee8;" horiz-adv-x="1234" 
d="M515 1559l118 269c26.667 41.333 72 62 136 62c63.333 0 101.333 -20.667 114 -62l-239 -270zM1104 1344l0.00292969 -906c0 -73.333 -12.333 -138.333 -37 -195s-58.834 -104.5 -102.501 -143.5s-95.167 -68.667 -154.5 -89s-124 -30.5 -194 -30.5
c-69.333 0 -133.333 10.167 -192 30.5s-109.834 50 -153.501 89s-77.834 86.833 -102.501 143.5s-37 121.667 -37 195v1045h279v-1047c0 -65.333 20 -116.5 60 -153.5s88.667 -55.5 146 -55.5c59.333 0 109 18.5 149 55.5s60 88.167 60 153.5v1047h162l59 105
c18 12.667 41 23 69 31s61.333 10.667 100 8c35.333 -3.33301 63.833 -11.5 85.5 -24.5s33.167 -24.833 34.5 -35.5z" />
    <glyph glyph-name="uni1EE9" unicode="&#x1ee9;" horiz-adv-x="1107" 
d="M477 1200l118 269c26.667 41.333 72 62 136 62c63.333 0 101.333 -20.667 114 -62l-239 -270zM988 946v-891.001c-46 -23.333 -107.333 -42.5 -184 -57.5s-156.667 -22.5 -240 -22.5c-146 0 -256.5 32.5 -331.5 97.5s-112.5 169.167 -112.5 312.5v719h266v-725
c0 -116 59.333 -174 178 -174c35.333 0 66.333 2.33301 93 7s47.667 10.334 63 17.001v875h167l55 98c18 12.667 41 23 69 31s61.333 10.667 100 8c35.333 -3.33301 63.833 -11.5 85.5 -24.5s33.167 -24.833 34.5 -35.5z" />
    <glyph glyph-name="uni1EEA" unicode="&#x1eea;" horiz-adv-x="1234" 
d="M618 1558l-238.999 270c12.667 41.333 50.667 62 114 62s108.666 -20.667 135.999 -62l118 -269zM1104 1344l0.00292969 -906c0 -73.333 -12.333 -138.333 -37 -195s-58.834 -104.5 -102.501 -143.5s-95.167 -68.667 -154.5 -89s-124 -30.5 -194 -30.5
c-69.333 0 -133.333 10.167 -192 30.5s-109.834 50 -153.501 89s-77.834 86.833 -102.501 143.5s-37 121.667 -37 195v1045h279v-1047c0 -65.333 20 -116.5 60 -153.5s88.667 -55.5 146 -55.5c59.333 0 109 18.5 149 55.5s60 88.167 60 153.5v1047h162l59 105
c18 12.667 41 23 69 31s61.333 10.667 100 8c35.333 -3.33301 63.833 -11.5 85.5 -24.5s33.167 -24.833 34.5 -35.5z" />
    <glyph glyph-name="uni1EEB" unicode="&#x1eeb;" horiz-adv-x="1107" 
d="M520 1199l-238.999 270c12.667 41.333 50.667 62 114 62s108.666 -20.667 135.999 -62l118 -269zM988.001 946v-891.001c-46 -23.333 -107.333 -42.5 -184 -57.5s-156.667 -22.5 -240 -22.5c-146 0 -256.5 32.5 -331.5 97.5s-112.5 169.167 -112.5 312.5v719h266v-725
c0 -116 59.333 -174 178 -174c35.333 0 66.333 2.33301 93 7s47.667 10.334 63 17.001v875h167l55 98c18 12.667 41 23 69 31s61.333 10.667 100 8c35.333 -3.33301 63.833 -11.5 85.5 -24.5s33.167 -24.833 34.5 -35.5z" />
    <glyph glyph-name="uni1EEC" unicode="&#x1eec;" horiz-adv-x="1234" 
d="M569 1537l-9.00293 147.001c20.667 4.66699 39.334 10.167 56.001 16.5s31.167 14 43.5 23s22.333 19.167 30 30.5s11.5 24 11.5 38c0 25.333 -8.66699 46 -26 62s-43 21 -77 15s-68.667 -24 -104 -54l-41 103c22 20.667 48.333 36.667 79 48s59.334 17 86.001 17
c64.667 5.33301 118.334 -9 161.001 -43s64 -81 64 -141c0 -24.667 -4.66699 -46.667 -14 -66s-21.5 -36.5 -36.5 -51.5s-31.667 -27.833 -50 -38.5s-35.5 -19.334 -51.5 -26.001l-18 -80h-104zM1104 1344l0.00292969 -906c0 -73.333 -12.333 -138.333 -37 -195
s-58.834 -104.5 -102.501 -143.5s-95.167 -68.667 -154.5 -89s-124 -30.5 -194 -30.5c-69.333 0 -133.333 10.167 -192 30.5s-109.834 50 -153.501 89s-77.834 86.833 -102.501 143.5s-37 121.667 -37 195v1045h279v-1047c0 -65.333 20 -116.5 60 -153.5
s88.667 -55.5 146 -55.5c59.333 0 109 18.5 149 55.5s60 88.167 60 153.5v1047h162l59 105c18 12.667 41 23 69 31s61.333 10.667 100 8c35.333 -3.33301 63.833 -11.5 85.5 -24.5s33.167 -24.833 34.5 -35.5z" />
    <glyph glyph-name="uni1EED" unicode="&#x1eed;" horiz-adv-x="1107" 
d="M524 1178l-9.00293 147.001c20.667 4.66699 39.334 10.167 56.001 16.5s31.167 14 43.5 23s22.333 19.167 30 30.5s11.5 24 11.5 38c0 25.333 -8.66699 46 -26 62s-43 21 -77 15s-68.667 -24 -104 -54l-41 103c22 20.667 48.333 36.667 79 48s59.334 17 86.001 17
c64.667 5.33301 118.334 -9 161.001 -43s64 -81 64 -141c0 -24.667 -4.66699 -46.667 -14 -66s-21.5 -36.5 -36.5 -51.5s-31.667 -27.833 -50 -38.5s-35.5 -19.334 -51.5 -26.001l-18 -80h-104zM987.997 946.001v-891.001c-46 -23.333 -107.333 -42.5 -184 -57.5
s-156.667 -22.5 -240 -22.5c-146 0 -256.5 32.5 -331.5 97.5s-112.5 169.167 -112.5 312.5v719h266v-725c0 -116 59.333 -174 178 -174c35.333 0 66.333 2.33301 93 7s47.667 10.334 63 17.001v875h167l55 98c18 12.667 41 23 69 31s61.333 10.667 100 8
c35.333 -3.33301 63.833 -11.5 85.5 -24.5s33.167 -24.833 34.5 -35.5z" />
    <glyph glyph-name="uni1EEE" unicode="&#x1eee;" horiz-adv-x="1234" 
d="M1104 1344l0.00292969 -906c0 -73.333 -12.333 -138.333 -37 -195s-58.834 -104.5 -102.501 -143.5s-95.167 -68.667 -154.5 -89s-124 -30.5 -194 -30.5c-69.333 0 -133.333 10.167 -192 30.5s-109.834 50 -153.501 89s-77.834 86.833 -102.501 143.5
s-37 121.667 -37 195v1045h279v-1047c0 -65.333 20 -116.5 60 -153.5s88.667 -55.5 146 -55.5c59.333 0 109 18.5 149 55.5s60 88.167 60 153.5v1047h162l59 105c18 12.667 41 23 69 31s61.333 10.667 100 8c35.333 -3.33301 63.833 -11.5 85.5 -24.5
s33.167 -24.833 34.5 -35.5zM922.003 1775c-6 -54.667 -26.5 -102.667 -61.5 -144s-69.667 -62.166 -104 -62.499s-72.833 13.167 -115.5 40.5c-30.667 20 -63.5 39.167 -98.5 57.5s-62.833 16.666 -83.5 -5.00098s-35 -40.834 -43 -57.501l-84 34
c8.66699 54 27.667 100.333 57 139s68.333 59.334 117 62.001c21.333 2 46.5 -3.5 75.5 -16.5s55.833 -28.667 80.5 -47s47.167 -30.333 67.5 -36s37.5 -4.66699 51.5 3s30.333 28.167 49 61.5z" />
    <glyph glyph-name="uni1EEF" unicode="&#x1eef;" horiz-adv-x="1107" 
d="M869 1425c0.666992 -55.333 -14.1699 -105.333 -44.5029 -150s-62.5 -69.334 -96.5 -74.001s-74 4.33301 -120 27c-32 16.667 -66.5 32.167 -103.5 46.5s-64.667 9.5 -83 -14.5s-30.166 -45 -35.499 -63l-88 25c2.66699 54 16.334 102 41.001 144s61 67.333 109 76
c20.667 4 46.334 1.16699 77.001 -8.5s59.167 -22.167 85.5 -37.5s50 -24.666 71 -27.999s38.167 -0.333008 51.5 9s27 31.333 41 66zM987.996 946v-891.001c-46 -23.333 -107.333 -42.5 -184 -57.5s-156.667 -22.5 -240 -22.5c-146 0 -256.5 32.5 -331.5 97.5
s-112.5 169.167 -112.5 312.5v719h266v-725c0 -116 59.333 -174 178 -174c35.333 0 66.333 2.33301 93 7s47.667 10.334 63 17.001v875h167l55 98c18 12.667 41 23 69 31s61.333 10.667 100 8c35.333 -3.33301 63.833 -11.5 85.5 -24.5s33.167 -24.833 34.5 -35.5z" />
    <glyph glyph-name="uni1EF0" unicode="&#x1ef0;" horiz-adv-x="1234" 
d="M750 -208c0 -35.333 -13 -65.666 -39 -90.999s-57 -38 -93 -38c-36.667 0 -68 12.667 -94 38s-39 55.666 -39 90.999s13 65.333 39 90s57.333 37 94 37c36 0 67 -12.333 93 -37s39 -54.667 39 -90zM1104 1344l0.00292969 -906c0 -73.333 -12.333 -138.333 -37 -195
s-58.834 -104.5 -102.501 -143.5s-95.167 -68.667 -154.5 -89s-124 -30.5 -194 -30.5c-69.333 0 -133.333 10.167 -192 30.5s-109.834 50 -153.501 89s-77.834 86.833 -102.501 143.5s-37 121.667 -37 195v1045h279v-1047c0 -65.333 20 -116.5 60 -153.5
s88.667 -55.5 146 -55.5c59.333 0 109 18.5 149 55.5s60 88.167 60 153.5v1047h162l59 105c18 12.667 41 23 69 31s61.333 10.667 100 8c35.333 -3.33301 63.833 -11.5 85.5 -24.5s33.167 -24.833 34.5 -35.5z" />
    <glyph glyph-name="uni1EF1" unicode="&#x1ef1;" horiz-adv-x="1107" 
d="M693 -208c0 -35.333 -13 -65.666 -39 -90.999s-56.667 -38 -92 -38c-36.667 0 -68 12.667 -94 38s-39 55.666 -39 90.999s13 65.333 39 90s57.333 37 94 37c35.333 0 66 -12.333 92 -37s39 -54.667 39 -90zM988 946v-891.001c-46 -23.333 -107.333 -42.5 -184 -57.5
s-156.667 -22.5 -240 -22.5c-146 0 -256.5 32.5 -331.5 97.5s-112.5 169.167 -112.5 312.5v719h266v-725c0 -116 59.333 -174 178 -174c35.333 0 66.333 2.33301 93 7s47.667 10.334 63 17.001v875h167l55 98c18 12.667 41 23 69 31s61.333 10.667 100 8
c35.333 -3.33301 63.833 -11.5 85.5 -24.5s33.167 -24.833 34.5 -35.5z" />
    <glyph glyph-name="Ygrave" unicode="&#x1ef2;" horiz-adv-x="1150" 
d="M712 582v-582h-276v582l-422 901h299l258 -611h4l262 611h299zM583 1558l-238.999 270c13.333 41.333 51.666 62 114.999 62s108.333 -20.667 135 -62l119 -269z" />
    <glyph glyph-name="ygrave" unicode="&#x1ef3;" horiz-adv-x="1134" 
d="M550 -440h-280.001l157 440l-399 1104h303l199 -694c6.66699 -20.667 12 -41.667 16 -63s7.33301 -40 10 -56c4.66699 -19.333 7.66699 -37.666 9 -54.999h4c1.33301 17.333 4 35.666 8 54.999c2.66699 16 6.33398 34.667 11.001 56s10.667 42.333 18 63l198 694h301z
M519.999 1199l-239 270c12.667 41.333 51 62 115 62c63.333 0 108.333 -20.667 135 -62l119 -269z" />
    <glyph glyph-name="uni1EF4" unicode="&#x1ef4;" horiz-adv-x="1150" 
d="M712 582v-582h-276v582l-422 901h299l258 -611h4l262 611h299zM707 -208c0 -35.333 -13 -65.666 -39 -90.999s-56.667 -38 -92 -38c-36.667 0 -68 12.667 -94 38s-39 55.666 -39 90.999s13 65.333 39 90s57.333 37 94 37c35.333 0 66 -12.333 92 -37s39 -54.667 39 -90z
" />
    <glyph glyph-name="uni1EF5" unicode="&#x1ef5;" horiz-adv-x="1134" 
d="M550 -440h-280.001l157 440l-399 1104h303l199 -694c6.66699 -20.667 12 -41.667 16 -63s7.33301 -40 10 -56c4.66699 -19.333 7.66699 -37.666 9 -54.999h4c1.33301 17.333 4 35.666 8 54.999c2.66699 16 6.33398 34.667 11.001 56s10.667 42.333 18 63l198 694h301z
M943.999 -208c0 -35.333 -13 -65.666 -39 -90.999s-56.667 -38 -92 -38c-37.333 0 -69 12.667 -95 38s-39 55.666 -39 90.999s13 65.333 39 90s57.667 37 95 37c35.333 0 66 -12.333 92 -37s39 -54.667 39 -90z" />
    <glyph glyph-name="uni1EF6" unicode="&#x1ef6;" horiz-adv-x="1150" 
d="M712 582v-582h-276v582l-422 901h299l258 -611h4l262 611h299zM543 1537l-8.99805 147.001c20.667 4.66699 39.167 10.167 55.5 16.5s30.666 14 42.999 23s22.333 19.167 30 30.5s11.5 24 11.5 38c0 25.333 -8.5 46 -25.5 62s-42.5 21 -76.5 15s-69 -24 -105 -54l-41 103
c22.667 20.667 49.167 36.667 79.5 48s58.833 17 85.5 17c65.333 5.33301 119.166 -9 161.499 -43s63.5 -81 63.5 -141c0 -24.667 -4.5 -46.667 -13.5 -66s-21 -36.5 -36 -51.5s-31.667 -27.833 -50 -38.5s-35.5 -19.334 -51.5 -26.001l-18 -80h-104z" />
    <glyph glyph-name="uni1EF7" unicode="&#x1ef7;" horiz-adv-x="1134" 
d="M550 -440h-280.001l157 440l-399 1104h303l199 -694c6.66699 -20.667 12 -41.667 16 -63s7.33301 -40 10 -56c4.66699 -19.333 7.66699 -37.666 9 -54.999h4c1.33301 17.333 4 35.666 8 54.999c2.66699 16 6.33398 34.667 11.001 56s10.667 42.333 18 63l198 694h301z
M524.999 1178l-9.00098 147.001c20 4.66699 38.333 10.167 55 16.5s31.167 14 43.5 23s22.333 19.167 30 30.5s11.5 24 11.5 38c0 25.333 -8.66699 46 -26 62s-43 21 -77 15s-68.667 -24 -104 -54l-41 103c22 20.667 48.333 36.667 79 48s59.334 17 86.001 17
c64.667 5.33301 118.334 -9 161.001 -43s64 -81 64 -141c0 -24.667 -4.66699 -46.667 -14 -66s-21.333 -36.5 -36 -51.5s-31.334 -27.833 -50.001 -38.5s-36 -19.334 -52 -26.001l-18 -80h-103z" />
    <glyph glyph-name="uni1EF8" unicode="&#x1ef8;" horiz-adv-x="1150" 
d="M712 582v-582h-276v582l-422 901h299l258 -611h4l262 611h299zM899 1801c0.666992 -55.333 -14.1699 -105.333 -44.5029 -150s-62.5 -69.334 -96.5 -74.001s-74 4.33301 -120 27c-32 16.667 -66.5 32.167 -103.5 46.5s-64.667 9.5 -83 -14.5s-30.166 -45 -35.499 -63
l-88 25c2.66699 54 16.334 102 41.001 144s61 67.333 109 76c20.667 4 46.334 1.16699 77.001 -8.5s59.167 -22.167 85.5 -37.5s50 -24.666 71 -27.999s38.167 -0.333008 51.5 9s27 31.333 41 66z" />
    <glyph glyph-name="uni1EF9" unicode="&#x1ef9;" horiz-adv-x="1134" 
d="M550 -440h-280.001l157 440l-399 1104h303l199 -694c6.66699 -20.667 12 -41.667 16 -63s7.33301 -40 10 -56c4.66699 -19.333 7.66699 -37.666 9 -54.999h4c1.33301 17.333 4 35.666 8 54.999c2.66699 16 6.33398 34.667 11.001 56s10.667 42.333 18 63l198 694h301z
M868.999 1425c0.666992 -55.333 -13.999 -105.333 -43.999 -150s-62 -69.334 -96 -74.001s-74 4.33301 -120 27c-32.667 16.667 -67.5 32.167 -104.5 46.5s-64.5 9.5 -82.5 -14.5s-30 -45 -36 -63l-88 25c2.66699 54 16.5 102 41.5 144s61.167 67.333 108.5 76
c21.333 4 47.166 1.16699 77.499 -8.5s58.833 -22.167 85.5 -37.5s50.5 -24.666 71.5 -27.999s38 -0.333008 51 9s26.5 31.333 40.5 66z" />
    <glyph glyph-name="endash" unicode="&#x2013;" horiz-adv-x="823" 
d="M-8 557v217h840v-217h-840z" />
    <glyph glyph-name="emdash" unicode="&#x2014;" horiz-adv-x="1646" 
d="M139 557v217h1368v-217h-1368z" />
    <glyph glyph-name="quoteleft" unicode="&#x2018;" horiz-adv-x="608" 
d="M352 1026c-18 -27.333 -40.667 -50.5 -68 -69.5s-59.333 -28.5 -96 -28.5c-36 0 -63.5 10.167 -82.5 30.5s-29.833 42.833 -32.5 67.5l281 582h180z" />
    <glyph glyph-name="quoteright" unicode="&#x2019;" horiz-adv-x="608" 
d="M253 942h-180.001l182 582c18 27.333 40.333 50.5 67 69.5s58.334 28.5 95.001 28.5c35.333 0 63 -10.167 83 -30.5s31.333 -42.833 34 -67.5z" />
    <glyph glyph-name="quotedblleft" unicode="&#x201c;" horiz-adv-x="1038" 
d="M782 1026c-18 -27.333 -40.332 -50.5 -66.999 -69.5s-58.334 -28.5 -95.001 -28.5c-35.333 0 -63 10.167 -83 30.5s-31.333 42.833 -34 67.5l281 582h180zM352.001 1026c-18 -27.333 -40.667 -50.5 -68 -69.5s-59.333 -28.5 -96 -28.5c-36 0 -63.5 10.167 -82.5 30.5
s-29.833 42.833 -32.5 67.5l281 582h180z" />
    <glyph glyph-name="quotedblright" unicode="&#x201d;" horiz-adv-x="1038" 
d="M683 942h-180.001l182 582c18 27.333 40.333 50.5 67 69.5s58.334 28.5 95.001 28.5c35.333 0 63 -10.167 83 -30.5s31.333 -42.833 34 -67.5zM252.999 942h-180.001l182 582c18 27.333 40.333 50.5 67 69.5s58.334 28.5 95.001 28.5c35.333 0 63 -10.167 83 -30.5
s31.333 -42.833 34 -67.5z" />
    <glyph glyph-name="ellipsis" unicode="&#x2026;" horiz-adv-x="1599" 
d="M968 158c0 -24.667 -4.33301 -47.667 -13 -69s-20.5 -39.833 -35.5 -55.5s-32.833 -28.167 -53.5 -37.5s-42.667 -14 -66 -14c-22.667 0 -44.334 4.66699 -65.001 14s-38.834 21.833 -54.501 37.5s-28 34.167 -37 55.5s-13.5 44.333 -13.5 69s4.5 47.5 13.5 68.5
s21.333 39.333 37 55s33.834 28.334 54.501 38.001s42.334 14.5 65.001 14.5c23.333 0 45.333 -4.83301 66 -14.5s38.5 -22.334 53.5 -38.001s26.833 -34 35.5 -55s13 -43.833 13 -68.5zM436 158c0 -24.667 -4.5 -47.667 -13.5 -69s-21 -39.833 -36 -55.5
s-32.667 -28.167 -53 -37.5s-42.166 -14 -65.499 -14s-45.5 4.66699 -66.5 14s-39 21.833 -54 37.5s-27 34.167 -36 55.5s-13.5 44.333 -13.5 69s4.5 47.5 13.5 68.5s21 39.333 36 55s33 28.334 54 38.001s43.167 14.5 66.5 14.5s45.166 -4.83301 65.499 -14.5
s38 -22.334 53 -38.001s27 -34 36 -55s13.5 -43.833 13.5 -68.5zM1501 158c0 -24.667 -4.5 -47.667 -13.5 -69s-21 -39.833 -36 -55.5s-32.667 -28.167 -53 -37.5s-42.166 -14 -65.499 -14s-45.166 4.66699 -65.499 14s-38.333 21.833 -54 37.5s-28 34.167 -37 55.5
s-13.5 44.333 -13.5 69s4.5 47.5 13.5 68.5s21.333 39.333 37 55s33.667 28.334 54 38.001s42.166 14.5 65.499 14.5s45.166 -4.83301 65.499 -14.5s38 -22.334 53 -38.001s27 -34 36 -55s13.5 -43.833 13.5 -68.5z" />
    <glyph glyph-name="minus" unicode="&#x2212;" horiz-adv-x="1077" 
d="M120 557v217h838v-217h-838z" />
    <glyph glyph-name=".null" horiz-adv-x="0" 
 />
    <glyph glyph-name="nonmarkingreturn" horiz-adv-x="571" 
 />
    <glyph glyph-name="Eth" horiz-adv-x="1516" 
 />
    <glyph glyph-name="ugrave" horiz-adv-x="582" 
 />
    <glyph glyph-name="uacute" horiz-adv-x="580" 
 />
    <glyph glyph-name="yacute" horiz-adv-x="629" 
 />
    </font>
</defs>
</svg>
